<?xml version="1.0" encoding="UTF-8"?>
<svg id="Ebene_2" data-name="Ebene 2" xmlns="http://www.w3.org/2000/svg" viewBox="0 0 605.18 274.54">
  <defs>
    <style>
      .cls-1 {
        fill: #c7c7c6;
      }
    </style>
  </defs>
  <g id="Ebene_1-2" data-name="Ebene 1">
    <g>
      <circle class="cls-1" cx="302.59" cy="137.27" r="82.42"/>
      <path class="cls-1" d="M302.59,274.54c-71.99,0-143.87-20.21-207.87-58.45-48.51-28.99-75.82-58.32-76.96-59.56L0,137.27l17.76-19.26c1.14-1.23,28.45-30.57,76.96-59.56C158.72,20.21,230.6,0,302.59,0s143.87,20.21,207.87,58.45c48.51,28.99,75.82,58.32,76.96,59.56l17.76,19.26-17.76,19.26c-1.14,1.23-28.45,30.57-76.96,59.56-64,38.24-135.88,58.45-207.87,58.45ZM80.87,137.27c11.01,8.97,26.06,20.06,44.69,31.06,55.52,32.78,115.08,49.4,177.03,49.4s121.51-16.62,177.03-49.4c18.63-11,33.69-22.1,44.69-31.06-11-8.96-26.06-20.06-44.69-31.06-55.52-32.78-115.08-49.4-177.03-49.4s-121.51,16.62-177.03,49.4c-18.63,11-33.69,22.1-44.69,31.06Z"/>
    </g>
  </g>
</svg>