<?xml version="1.0" encoding="UTF-8"?>
<svg id="Ebene_2" data-name="Ebene 2" xmlns="http://www.w3.org/2000/svg" viewBox="0 0 657.53 373.99">
  <defs>
    <style>
      .cls-1 {
        fill: none;
        stroke: #c7c7c6;
        stroke-miterlimit: 10;
        stroke-width: 55.16px;
      }

      .cls-2 {
        fill: #c7c7c6;
      }
    </style>
  </defs>
  <g id="Ebene_1-2" data-name="Ebene 1">
    <g>
      <path class="cls-2" d="M470.62,55.16c31.73,0,62.42,11.49,86.42,32.34,26.58,23.1,42.56,55.17,45.02,90.3,2.46,35.13-8.92,69.11-32.02,95.69-25.05,28.82-61.34,45.34-99.57,45.34-31.73,0-62.42-11.49-86.41-32.34-26.58-23.1-42.56-55.17-45.02-90.3-2.46-35.13,8.92-69.11,32.02-95.69,25.05-28.82,61.34-45.34,99.57-45.34M470.62,0c-52.26,0-104.22,21.78-141.2,64.31-67.75,77.94-59.5,196.05,18.44,263.8,35.4,30.78,79.11,45.87,122.6,45.87,52.26,0,104.22-21.78,141.2-64.31,67.76-77.94,59.5-196.05-18.44-263.8C557.82,15.1,514.11,0,470.62,0h0Z"/>
      <line class="cls-1" x1="224.46" y1="148.6" x2="42.87" y2="58.85"/>
      <line class="cls-1" x1="183.03" y1="198.39" x2="3.04" y2="178.43"/>
      <line class="cls-1" x1="32.04" y1="302.31" x2="217.48" y2="260.14"/>
    </g>
  </g>
</svg>