<?xml version="1.0" encoding="UTF-8"?>
<svg id="Ebene_2" data-name="Ebene 2" xmlns="http://www.w3.org/2000/svg" xmlns:xlink="http://www.w3.org/1999/xlink" viewBox="0 0 1482.25 398.52">
  <defs>
    <style>
      .cls-1 {
        fill: none;
      }

      .cls-2 {
        fill: #05141d;
      }

      .cls-3 {
        fill: #2b2b2a;
      }

      .cls-4 {
        fill: red;
      }

      .cls-5 {
        clip-path: url(#clippath);
      }
    </style>
    <clipPath id="clippath">
      <rect class="cls-1" x="0" width="1482.25" height="398.52"/>
    </clipPath>
  </defs>
  <g id="Ebene_1-2" data-name="Ebene 1">
    <g class="cls-5">
      <path class="cls-4" d="M1473.8,281.29c4.57,0,8.45-3.87,8.45-8.45s-3.87-8.45-8.45-8.45-8.27,3.87-8.27,8.45,3.87,8.45,8.27,8.45M1439.66,280.76c4.57,0,11.26-1.76,14.43-6.33v-3.52c-1.58,1.41-4.22,3.7-8.97,3.7-8.09,0-11.44-5.98-11.44-12.14v-64.93h20.59v-4.57h-20.59v-22.7h-4.75c-2.99,13.9-9.5,21.82-19.53,24.28v2.99h11.97v64.22c0,13.72,9.68,19,18.3,19M1347.11,279.53c10.38-.53,22.17-.53,33.96,0v-3.34c-5.63-.7-11.79-2.46-11.79-10.38v-45.75c0-7.92,3.7-20.94,12.14-20.94,6.86,0,8.09,8.8,15.13,8.8,4.05,0,6.69-3.34,6.69-7.21,0-5.63-5.45-10.91-14.25-10.91-10.21,0-17.95,6.86-21.99,21.99h-1.06l4.4-19.36c-.53-1.58-1.41-2.46-2.82-2.99-4.05,3.17-11.79,7.04-20.94,8.27v3.34c7.04-.53,10.38.35,10.38,5.98v58.77c0,7.92-4.75,9.68-9.85,10.38v3.34ZM1302.42,193.13c15.13,0,23.05,13.55,20.94,36.07h-42.23c.18-24.11,7.39-36.07,21.29-36.07M1311.04,276.71c-18.48,0-29.03-17.77-29.91-43.81h48.56c5.63,0,7.39-3.87,7.39-11.09,0-22.17-16.19-32.02-33.26-32.02-22.7,0-36.95,18.83-36.95,46.1,0,28.68,16.19,45.57,39.06,45.57,15.48,0,26.57-7.92,30.62-18.12h-4.05c-4.22,10.21-13.9,13.37-21.47,13.37M1226.58,279.53c10.91-.88,22.35-.88,33.26,0v-3.34c-5.45-.7-10.38-2.46-10.38-10.38v-52.44c0-10.73,0-17.42,1.06-20.94-.7-1.58-1.58-2.46-2.99-2.99-5.81,3.87-11.79,6.86-20.24,8.27v3.34c6.16,0,9.85,4.57,9.85,12.32v52.44c0,7.92-4.93,9.68-10.56,10.38v3.34ZM1242.07,174.13c4.4,0,8.27-3.7,8.27-8.27s-3.87-8.09-8.27-8.09-8.09,3.52-8.09,8.09,3.7,8.27,8.09,8.27M1135.79,279.53c10.73-.53,21.47-.53,32.2,0v-3.34c-5.28-1.06-10.03-2.46-10.03-10.38v-46.28c0-12.14,7.92-22.17,20.41-22.17s19.71,9.5,19.71,22.17v46.28c0,7.92-4.4,9.33-9.68,10.38v3.34c10.56-.53,21.29-.53,32.02,0v-3.34c-5.28-.7-10.03-2.46-10.03-10.38v-46.8c0-23.4-14.6-29.21-26.39-29.21-19.71,0-26.92,16.19-27.98,21.47h-.7l3.34-18.83c-.53-1.58-1.41-2.46-2.82-2.99-4.05,3.34-11.44,7.04-20.59,8.27v3.34c7.04-.53,10.38.35,10.38,5.98v58.77c0,7.92-4.4,9.68-9.85,10.38v3.34ZM1091.27,277.95c-16.54,0-28.15-19.71-28.15-46.45s9.85-38.18,22.7-38.18c16.72,0,28.15,19.36,28.15,46.45s-9.68,38.18-22.7,38.18M1088.81,281.47c20.24,0,38.71-15.66,38.71-45.93s-18.3-45.75-39.24-45.75-38.53,15.66-38.53,45.93,18.12,45.75,39.06,45.75M1009.45,279.53c10.91-.88,22.35-.88,33.26,0v-3.34c-5.45-.7-10.38-2.46-10.38-10.38v-52.44c0-10.73,0-17.42,1.06-20.94-.7-1.58-1.58-2.46-2.99-2.99-5.81,3.87-11.79,6.86-20.24,8.27v3.34c6.16,0,9.85,4.57,9.85,12.32v52.44c0,7.92-4.93,9.68-10.56,10.38v3.34ZM1024.94,174.13c4.4,0,8.27-3.7,8.27-8.27s-3.87-8.09-8.27-8.09-8.09,3.52-8.09,8.09,3.7,8.27,8.09,8.27M986.23,280.76c4.57,0,11.26-1.76,14.43-6.33v-3.52c-1.58,1.41-4.22,3.7-8.97,3.7-8.09,0-11.44-5.98-11.44-12.14v-64.93h20.59v-4.57h-20.59v-22.7h-4.75c-2.99,13.9-9.5,21.82-19.53,24.28v2.99h11.97v64.22c0,13.72,9.68,19,18.3,19M901.95,229.38c27.27-26.22,35.02-33.78,45.4-34.66v-3.34c-8.09.53-20.41.53-31.67,0v3.34c18.12.88-7.04,24.99-23.23,37.48v-52.61c0-10.73,0-17.42,1.06-20.94-.7-1.58-1.58-2.46-2.99-2.99-5.81,3.87-11.79,6.86-20.24,8.27v3.34c6.16,0,9.85,4.57,9.85,12.32v86.22c0,7.92-4.93,9.68-10.56,10.38v3.34c10.91-.88,22.35-.88,33.26,0v-3.34c-5.45-.7-10.38-2.46-10.38-10.38v-29.39l23.93,28.86c10.38,12.32,20.06,16.36,30.79,16.36l4.4-3.34c-4.22,0-13.2-6.16-21.11-15.66l-28.51-33.26ZM781.42,279.53c10.73-.53,21.47-.53,32.2,0v-3.34c-5.28-1.06-10.03-2.46-10.03-10.38v-46.28c0-12.14,7.92-22.17,20.41-22.17s19.71,9.5,19.71,22.17v46.28c0,7.92-4.4,9.33-9.68,10.38v3.34c10.56-.53,21.29-.53,32.02,0v-3.34c-5.28-.7-10.03-2.46-10.03-10.38v-46.8c0-23.4-14.6-29.21-26.39-29.21-19.71,0-26.92,16.19-27.98,21.47h-.7l3.34-18.83c-.53-1.58-1.41-2.46-2.82-2.99-4.05,3.34-11.44,7.04-20.59,8.27v3.34c7.04-.53,10.38.35,10.38,5.98v58.77c0,7.92-4.4,9.68-9.85,10.38v3.34ZM754.85,281.47c6.86-1.94,12.14-1.94,20.59-1.94v-3.34c-6.51-1.41-10.03-3.34-10.03-12.49v-70.03c0-2.29-.53-3.34-3.52-2.82l-18.83,1.76v3.34c8.62.35,10.21,2.64,10.21,9.68v45.4c-1.58,12.32-8.8,22.7-21.29,22.7s-20.06-10.73-20.06-22.7v-57.36c0-2.29-1.23-2.99-3.52-2.82l-18.83,1.76v3.34c8.27.35,10.21,2.99,10.21,9.68v45.93c0,23.93,15.13,29.56,26.57,29.56,19.53,0,27.27-16.01,27.8-18.83h.88l-2.46,16.19c0,1.58,1.06,2.46,2.29,2.99M672.85,156.71c-12.49,0-23.58,6.86-23.58,27.98v8.97c-2.11.88-6.33,1.76-9.85,1.76v3.34h9.85v67.04c0,7.92-4.93,9.68-10.56,10.38v3.34c10.91-.88,22.35-.88,35.19,0v-3.34c-7.39-.7-12.32-2.46-12.32-10.38v-67.04h19.36v-5.1h-19.36v-11.09c0-11.61.88-22.35,9.15-22.35,10.03,0,7.57,14.78,15.84,14.78,4.22,0,4.93-3.52,4.93-5.63,0-5.28-5.81-12.67-18.65-12.67M578.54,280.76c4.57,0,11.26-1.76,14.43-6.33v-3.52c-1.58,1.41-4.22,3.7-8.97,3.7-8.09,0-11.44-5.98-11.44-12.14v-64.93h20.59v-4.57h-20.59v-22.7h-4.75c-2.99,13.9-9.5,21.82-19.53,24.28v2.99h11.97v64.22c0,13.72,9.68,19,18.3,19M499.54,276.36c-18.65,0-26.57-23.05-26.57-44.17,0-26.39,12.49-38.53,25.69-38.53,9.33,0,17.77,5.63,21.29,16.72v46.45c0,9.5-8.09,19.53-20.41,19.53M522.06,281.47c6.86-1.94,11.61-1.94,20.06-1.94v-3.34c-6.51-1.41-9.85-3.34-9.85-12.49v-84.11c0-10.73,0-17.42,1.06-20.94-.53-1.58-1.58-2.46-2.99-2.99-5.81,3.87-11.79,6.86-20.24,8.27v3.34c6.16,0,9.85,4.57,9.85,12.32v21.29c-4.57-6.33-13.72-11.09-24.63-11.09-20.41,0-35.9,16.01-35.9,45.57s14.25,46.1,35.02,46.1c15.13,0,24.28-9.5,26.92-14.78h.88l-2.46,11.79c0,1.58,1.06,2.46,2.29,2.99M408.39,274.78c-7.92,0-17.24-5.1-17.24-18.65,0-8.8,4.22-20.41,39.06-25.16v21.82c0,12.67-10.56,21.99-21.82,21.99M442.53,218.82c0-20.41-5.1-29.03-26.39-29.03s-35.02,10.03-34.66,21.99c0,4.93,2.29,8.09,7.39,8.09,15.13,0-2.82-26.39,23.4-26.39,16.01,0,17.95,10.03,17.95,25.87v7.92c-43.99,6.16-53.67,18.48-53.67,32.02,0,16.36,12.84,22.17,24.63,22.17,14.6,0,24.63-8.45,29.03-15.48h1.23v2.64c0,7.39,3.17,12.84,11.61,12.84,2.64,0,5.81-.35,8.45-2.82v-3.17c-5.63.88-8.97-2.82-8.97-9.33v-47.33ZM354.2,280.76c4.57,0,11.26-1.76,14.43-6.33v-3.52c-1.58,1.41-4.22,3.7-8.97,3.7-8.09,0-11.44-5.98-11.44-12.14v-64.93h20.59v-4.57h-20.59v-22.7h-4.75c-2.99,13.9-9.5,21.82-19.53,24.28v2.99h11.97v64.22c0,13.72,9.68,19,18.3,19M286.98,281.64c16.19,0,31.67-9.5,31.67-29.21,0-22.7-21.64-29.74-36.78-36.42-14.25-6.16-22.17-14.43-22.17-25.69s8.62-19.18,20.94-19.18c11.26,0,20.94,6.33,26.92,19.71h3.52l-1.06-21.99h-3.52c-.88,2.46-2.82,2.99-4.93,2.99-5.63,0-10.38-4.4-21.64-4.4-20.24,0-31.14,13.2-31.14,27.63,0,16.54,13.72,27.1,30.79,34.49,11.61,4.93,26.75,12.49,26.75,27.63,0,11.09-7.92,20.41-22.87,20.41-16.19,0-26.39-10.56-31.32-22.7h-3.52l1.41,24.63h4.05c0-2.82,2.82-4.93,5.1-4.93,4.57,0,13.72,7.04,27.8,7.04M165.57,193.13c15.13,0,23.05,13.55,20.94,36.07h-42.23c.18-24.11,7.39-36.07,21.29-36.07M174.2,276.71c-18.48,0-29.03-17.77-29.91-43.81h48.56c5.63,0,7.39-3.87,7.39-11.09,0-22.17-16.19-32.02-33.26-32.02-22.7,0-36.95,18.83-36.95,46.1,0,28.68,16.19,45.57,39.06,45.57,15.48,0,26.57-7.92,30.62-18.12h-4.05c-4.22,10.21-13.9,13.37-21.47,13.37M89.74,279.53c10.91-.88,22.35-.88,33.26,0v-3.34c-5.45-.7-10.38-2.46-10.38-10.38v-52.44c0-10.73,0-17.42,1.06-20.94-.7-1.58-1.58-2.46-2.99-2.99-5.81,3.87-11.79,6.86-20.24,8.27v3.34c6.16,0,9.85,4.57,9.85,12.32v52.44c0,7.92-4.93,9.68-10.56,10.38v3.34ZM105.22,174.13c4.4,0,8.27-3.7,8.27-8.27s-3.87-8.09-8.27-8.09-8.09,3.52-8.09,8.09,3.7,8.27,8.09,8.27M40.12,276.36c-18.65,0-26.57-23.05-26.57-44.17,0-26.39,12.49-38.53,25.69-38.53,9.33,0,17.77,5.63,21.29,16.72v46.45c0,9.5-8.09,19.53-20.41,19.53M62.64,281.47c6.86-1.94,11.61-1.94,20.06-1.94v-3.34c-6.51-1.41-9.85-3.34-9.85-12.49v-84.11c0-10.73,0-17.42,1.06-20.94-.53-1.58-1.58-2.46-2.99-2.99-5.81,3.87-11.79,6.86-20.24,8.27v3.34c6.16,0,9.85,4.57,9.85,12.32v21.29c-4.57-6.33-13.72-11.09-24.63-11.09-20.41,0-35.9,16.01-35.9,45.57s14.25,46.1,35.02,46.1c15.13,0,24.28-9.5,26.92-14.78h.88l-2.46,11.79c0,1.58,1.06,2.46,2.29,2.99"/>
      <path class="cls-3" d="M780.18,140.77c.7.7,1.23.7,2.29,0,6.16-5.45,9.5-13.55,9.5-20.41,0-5.98-3.34-11.44-9.15-11.44-4.57,0-8.09,2.99-8.09,8.45,0,4.57,3.7,7.39,7.04,7.39,1.41,0,1.76-.18,2.64-.35.35.53.35,1.23.35,1.76,0,4.75-2.99,10.21-5.63,12.84l1.06,1.76ZM722.12,123.88c10.38-.53,22.17-.53,33.96,0v-3.34c-5.63-.7-11.79-2.46-11.79-10.38v-45.75c0-7.92,3.7-20.94,12.14-20.94,6.86,0,8.09,8.8,15.13,8.8,4.05,0,6.69-3.34,6.69-7.21,0-5.63-5.45-10.91-14.25-10.91-10.21,0-17.95,6.86-21.99,21.99h-1.06l4.4-19.36c-.53-1.58-1.41-2.46-2.82-2.99-4.05,3.17-11.79,7.04-20.94,8.27v3.34c7.04-.53,10.38.35,10.38,5.98v58.77c0,7.92-4.75,9.68-9.85,10.38v3.34ZM676.72,122.29c-16.54,0-28.15-19.71-28.15-46.45s9.85-38.18,22.7-38.18c16.72,0,28.15,19.36,28.15,46.45s-9.68,38.18-22.7,38.18M674.26,125.81c20.24,0,38.71-15.66,38.71-45.93s-18.3-45.75-39.24-45.75-38.53,15.66-38.53,45.93,18.12,45.75,39.06,45.75M604.93,39.06c9.68.18,12.84,2.29,9.5,11.61l-16.89,52.08-18.3-52.08c-3.34-9.33-1.41-11.44,7.39-11.61v-3.34h-34.31v3.34c6.69.18,10.21,2.29,13.37,11.61l26.22,73.2h2.29l24.63-73.2c3.34-9.33,7.39-11.44,16.36-11.61v-3.34h-30.26v3.34ZM453.08,123.88c10.38-.53,22.17-.53,33.96,0v-3.34c-5.63-.7-11.79-2.46-11.79-10.38v-45.75c0-7.92,3.7-20.94,12.14-20.94,6.86,0,8.09,8.8,15.13,8.8,4.05,0,6.69-3.34,6.69-7.21,0-5.63-5.45-10.91-14.25-10.91-10.21,0-17.95,6.86-21.99,21.99h-1.06l4.4-19.36c-.53-1.58-1.41-2.46-2.82-2.99-4.05,3.17-11.79,7.04-20.94,8.27v3.34c7.04-.53,10.38.35,10.38,5.98v58.77c0,7.92-4.75,9.68-9.85,10.38v3.34ZM412.44,123.88c10.91-.88,22.35-.88,33.26,0v-3.34c-5.45-.7-10.38-2.46-10.38-10.38v-52.44c0-10.73,0-17.42,1.06-20.94-.7-1.58-1.58-2.46-2.99-2.99-5.81,3.87-11.79,6.86-20.24,8.27v3.34c6.16,0,9.85,4.57,9.85,12.32v52.44c0,7.92-4.93,9.68-10.56,10.38v3.34ZM427.92,18.48c4.4,0,8.27-3.7,8.27-8.27s-3.87-8.09-8.27-8.09-8.09,3.52-8.09,8.09,3.7,8.27,8.09,8.27M362.82,120.71c-18.65,0-26.57-23.05-26.57-44.17,0-26.39,12.49-38.53,25.69-38.53,9.33,0,17.77,5.63,21.29,16.72v46.45c0,9.5-8.09,19.53-20.41,19.53M385.34,125.81c6.86-1.94,11.61-1.94,20.06-1.94v-3.34c-6.51-1.41-9.85-3.34-9.85-12.49V23.93c0-10.73,0-17.42,1.06-20.94-.53-1.58-1.58-2.46-2.99-2.99-5.81,3.87-11.79,6.86-20.24,8.27v3.34c6.16,0,9.85,4.57,9.85,12.32v21.29c-4.57-6.33-13.72-11.09-24.63-11.09-20.41,0-35.9,16.01-35.9,45.57s14.25,46.1,35.02,46.1c15.13,0,24.28-9.5,26.92-14.78h.88l-2.46,11.79c0,1.58,1.06,2.46,2.29,2.99M243.7,123.88c10.91-.88,22.35-.88,33.26,0v-3.34c-5.45-.7-10.38-2.46-10.38-10.38V23.93c0-10.73,0-17.42,1.06-20.94-.7-1.58-1.58-2.46-2.99-2.99-5.81,3.87-11.79,6.86-20.24,8.27v3.34c6.16,0,9.85,4.57,9.85,12.32v86.22c0,7.92-4.93,9.68-10.56,10.38v3.34ZM205.17,123.88c10.91-.88,22.35-.88,33.26,0v-3.34c-5.45-.7-10.38-2.46-10.38-10.38V23.93c0-10.73,0-17.42,1.06-20.94-.7-1.58-1.58-2.46-2.99-2.99-5.81,3.87-11.79,6.86-20.24,8.27v3.34c6.16,0,9.85,4.57,9.85,12.32v86.22c0,7.92-4.93,9.68-10.56,10.38v3.34ZM162.59,37.48c15.13,0,23.05,13.55,20.94,36.07h-42.23c.18-24.11,7.39-36.07,21.29-36.07M171.21,121.06c-18.48,0-29.03-17.77-29.91-43.81h48.56c5.63,0,7.39-3.87,7.39-11.09,0-22.17-16.19-32.02-33.26-32.02-22.7,0-36.95,18.83-36.95,46.1,0,28.68,16.19,45.57,39.06,45.57,15.48,0,26.57-7.92,30.62-18.12h-4.05c-4.22,10.21-13.9,13.37-21.47,13.37M105.57,125.11c4.57,0,11.26-1.76,14.43-6.33v-3.52c-1.58,1.41-4.22,3.7-8.97,3.7-8.09,0-11.44-5.98-11.44-12.14V41.88h20.59v-4.57h-20.59V14.61h-4.75c-2.99,13.9-9.5,21.82-19.53,24.28v2.99h11.97v64.22c0,13.72,9.68,19,18.3,19M38.36,125.99c16.19,0,31.67-9.5,31.67-29.21,0-22.7-21.64-29.74-36.78-36.42-14.25-6.16-22.17-14.43-22.17-25.69s8.62-19.18,20.94-19.18c11.26,0,20.94,6.33,26.92,19.71h3.52l-1.06-21.99h-3.52c-.88,2.46-2.82,2.99-4.93,2.99-5.63,0-10.38-4.4-21.64-4.4C11.09,11.79.18,24.99.18,39.42c0,16.54,13.72,27.1,30.79,34.49,11.61,4.93,26.75,12.49,26.75,27.63,0,11.09-7.92,20.41-22.87,20.41-16.19,0-26.39-10.56-31.32-22.7H0l1.41,24.63h4.05c0-2.82,2.82-4.93,5.1-4.93,4.57,0,13.72,7.04,27.8,7.04"/>
      <path class="cls-2" d="M1327.57,389.21h5.25v-5.36h-5.25v5.36ZM1309.21,364.79h4.06v19.17c0,3.95,2.6,5.41,6.17,5.41,1.3,0,2.49-.16,3.52-.38v-3.79h-.16c-.49.16-1.46.38-2.33.38-1.79,0-2.82-.65-2.82-2.6v-18.19h5.41v-3.57h-5.41v-8.82h-4.39v8.82h-4.06v3.57ZM1287.34,350.5h-4.39v38.71h4.39v-17.22c0-4.6,3.25-7.74,7.69-7.74,3.95,0,6.33,2.06,6.33,5.68v19.27h4.39v-19.65c0-5.79-3.57-8.99-9.42-8.99-4.06,0-6.88,1.68-8.88,4.33h-.11v-14.4ZM1266.82,389.97c6.98,0,11.37-3.9,11.97-10.61h-4.33c-.38,4.33-3.09,6.93-7.63,6.93-5.96,0-9.04-4.87-9.04-11.04s3.09-11.1,9.04-11.1c4.22,0,6.88,2.33,7.53,6.12h4.44c-.97-5.96-5.36-9.75-11.97-9.75-8.34,0-13.54,6.61-13.54,14.73s5.2,14.73,13.54,14.73M1244.51,355.91h4.39v-5.41h-4.39v5.41ZM1244.51,389.21h4.39v-27.99h-4.39v27.99ZM1220.31,361.22h-4.39v27.99h4.39v-17.22c0-4.6,3.25-7.74,7.69-7.74,3.95,0,6.33,2.06,6.33,5.68v19.27h4.39v-19.65c0-5.79-3.57-8.99-9.42-8.99-4.06,0-6.88,1.68-8.88,4.33h-.11v-3.68ZM1190.16,363.98c5.04,0,7.9,3.41,8.18,8.99h-16.84c.65-5.09,3.46-8.99,8.66-8.99M1190.43,389.97c6.33,0,10.72-3.41,12.02-9.42h-4.28c-.97,3.79-3.68,5.74-7.74,5.74-5.63,0-8.72-4.33-9.04-10.02h21.66c0-9.26-4.49-15.76-12.89-15.76-7.96,0-13.26,6.61-13.26,14.73s4.98,14.73,13.54,14.73M1165.36,361.22h-4.39v27.99h4.39v-15.54c0-5.25,3.79-8.5,8.12-8.5.87,0,1.3.05,1.95.27h.16v-4.22c-.54-.22-.97-.32-1.79-.32-3.74,0-6.66,2.27-8.34,4.98h-.11v-4.66ZM1143.81,363.98c5.04,0,7.9,3.41,8.18,8.99h-16.84c.65-5.09,3.46-8.99,8.66-8.99M1144.08,389.97c6.33,0,10.72-3.41,12.02-9.42h-4.28c-.97,3.79-3.68,5.74-7.74,5.74-5.63,0-8.72-4.33-9.04-10.02h21.66c0-9.26-4.49-15.76-12.89-15.76-7.96,0-13.26,6.61-13.26,14.73s4.98,14.73,13.54,14.73M1113.17,386.34c-5.36,0-8.07-4.66-8.07-10.99s2.71-11.04,8.01-11.04c5.79,0,8.93,4.55,8.93,11.04s-2.65,10.99-8.88,10.99M1113.01,390.02c3.95,0,6.55-1.52,8.66-4.22h.11v3.41h4.39v-38.71h-4.39v14.67h-.11c-1.79-2.65-4.82-4.6-8.77-4.6-6.93,0-12.29,5.41-12.29,14.73s4.76,14.73,12.4,14.73M1077.98,361.22h-4.39v27.99h4.39v-17.22c0-4.6,3.25-7.74,7.69-7.74,3.95,0,6.33,2.06,6.33,5.68v19.27h4.39v-19.65c0-5.79-3.57-8.99-9.42-8.99-4.06,0-6.88,1.68-8.88,4.33h-.11v-3.68ZM1054.75,386.39c-2.87,0-5.79-.81-5.79-4.55,0-4.11,3.52-4.87,7.9-5.68,2.38-.43,4.93-1.14,6.39-2.06v4.76c0,3.25-2.65,7.53-8.5,7.53M1067.96,389.48c1.14,0,1.84-.22,2.38-.43v-3.19h-.16c-2.44.54-2.98-.7-2.98-2.98v-13.32c0-6.66-4.39-8.88-10.34-8.88-7.42,0-10.99,4.06-11.15,9.47h4.22c.16-4.22,2.44-6.17,6.98-6.17,4.01,0,6.28,1.79,6.28,4.93s-2.76,3.41-6.71,4.01c-6.98,1.08-12.18,2.44-12.18,9.04,0,5.31,4.17,7.8,9.47,7.8,4.76,0,7.63-2.27,9.31-4.44h.05c.43,2.87,1.95,4.17,4.82,4.17M1023.19,361.22h-4.39v27.99h4.39v-15.54c0-5.25,3.79-8.5,8.12-8.5.87,0,1.3.05,1.95.27h.16v-4.22c-.54-.22-.97-.32-1.79-.32-3.74,0-6.66,2.27-8.34,4.98h-.11v-4.66ZM995.31,355.91h4.22v-5.14h-4.22v5.14ZM1004.19,355.91h4.22v-5.14h-4.22v5.14ZM1012.85,389.21v-27.99h-4.39v17.22c0,4.44-2.87,7.8-7.31,7.8-3.95,0-6.28-2.11-6.28-5.74v-19.27h-4.39v19.38c0,5.79,3.68,9.26,9.42,9.26,4.06,0,6.44-1.79,8.45-4.49h.11v3.84h4.39ZM961.9,389.21h4.87v-18.25h17.81v-4.11h-17.81v-12.07h21.38v-4.28h-26.26v38.71ZM912.77,389.21h5.25v-5.36h-5.25v5.36ZM913.37,379.84h4.11c.05-5.52,1.25-6.88,5.74-10.61,2.54-2.11,4.98-4.66,4.98-9.1,0-5.68-4.17-10.34-11.8-10.34-9.04,0-12.78,5.79-12.94,13.16h4.44c.16-5.52,2.76-9.26,8.34-9.26,4.76,0,7.31,3.03,7.31,6.5s-2.11,5.2-4.49,7.31c-4.11,3.63-5.63,6.39-5.68,12.34M881.85,350.5h-4.39v38.71h4.39v-17.22c0-4.6,3.25-7.74,7.69-7.74,3.95,0,6.33,2.06,6.33,5.68v19.27h4.39v-19.65c0-5.79-3.57-8.99-9.42-8.99-4.06,0-6.88,1.68-8.88,4.33h-.11v-14.4ZM861.34,389.97c6.98,0,11.37-3.9,11.97-10.61h-4.33c-.38,4.33-3.09,6.93-7.63,6.93-5.96,0-9.04-4.87-9.04-11.04s3.09-11.1,9.04-11.1c4.22,0,6.88,2.33,7.53,6.12h4.44c-.97-5.96-5.36-9.75-11.97-9.75-8.34,0-13.54,6.61-13.54,14.73s5.2,14.73,13.54,14.73M839.03,355.91h4.39v-5.41h-4.39v5.41ZM839.03,389.21h4.39v-27.99h-4.39v27.99ZM820.08,386.34c-5.36,0-8.07-4.66-8.07-10.99s2.71-11.04,8.01-11.04c5.79,0,8.93,4.55,8.93,11.04s-2.65,10.99-8.88,10.99M819.92,390.02c3.95,0,6.55-1.52,8.66-4.22h.11v3.41h4.39v-38.71h-4.39v14.67h-.11c-1.79-2.65-4.82-4.6-8.77-4.6-6.93,0-12.29,5.41-12.29,14.73s4.76,14.73,12.4,14.73M786.3,361.22h-4.39v27.99h4.39v-15.54c0-5.25,3.79-8.5,8.12-8.5.87,0,1.3.05,1.95.27h.16v-4.22c-.54-.22-.97-.32-1.79-.32-3.74,0-6.66,2.27-8.34,4.98h-.11v-4.66ZM758.42,355.91h4.22v-5.14h-4.22v5.14ZM767.3,355.91h4.22v-5.14h-4.22v5.14ZM775.96,389.21v-27.99h-4.39v17.22c0,4.44-2.87,7.8-7.31,7.8-3.95,0-6.28-2.11-6.28-5.74v-19.27h-4.39v19.38c0,5.79,3.68,9.26,9.42,9.26,4.06,0,6.44-1.79,8.45-4.49h.11v3.84h4.39ZM736.06,364.79h3.84v24.42h4.39v-24.42h5.2v-3.57h-5.2v-4.28c0-2.27,1.03-2.98,3.84-2.98.43,0,.65,0,1.41.05v-3.74c-.59-.05-1.3-.11-2.22-.11-4.66,0-7.42,1.73-7.42,6.55v4.49h-3.84v3.57ZM713.97,390.02c6.44,0,11.04-2.87,11.04-8.5,0-6.44-4.71-7.69-10.34-8.82-4.82-.97-7.53-1.57-7.53-4.6,0-2.22,1.62-4.01,5.63-4.01s6.17,1.62,6.61,5.31h4.49c-.65-5.47-4.06-8.77-10.99-8.77-6.5,0-10.07,3.03-10.07,7.69,0,6.12,4.93,7.25,10.45,8.39,5.14,1.08,7.31,1.89,7.31,5.04,0,2.6-1.89,4.6-6.5,4.6-4.17,0-7.42-1.35-8.01-6.23h-4.49c.43,6.28,4.71,9.91,12.4,9.91M685.49,386.29c-5.96,0-9.04-4.87-9.04-11.04s3.09-11.1,9.04-11.1,8.99,4.93,8.99,11.1-3.03,11.04-8.99,11.04M685.49,389.97c8.39,0,13.48-6.61,13.48-14.73s-5.09-14.73-13.48-14.73-13.54,6.61-13.54,14.73,5.2,14.73,13.54,14.73M663.02,389.21h4.39v-38.71h-4.39v38.71ZM647.59,390.02c6.44,0,11.04-2.87,11.04-8.5,0-6.44-4.71-7.69-10.34-8.82-4.82-.97-7.53-1.57-7.53-4.6,0-2.22,1.62-4.01,5.63-4.01s6.17,1.62,6.61,5.31h4.49c-.65-5.47-4.06-8.77-10.99-8.77-6.5,0-10.07,3.03-10.07,7.69,0,6.12,4.93,7.25,10.45,8.39,5.14,1.08,7.31,1.89,7.31,5.04,0,2.6-1.89,4.6-6.5,4.6-4.17,0-7.42-1.35-8.01-6.23h-4.49c.43,6.28,4.71,9.91,12.4,9.91M618.46,384.55c-5.2,0-7.96-4.01-7.96-10.12s2.65-10.18,7.91-10.18c5.96,0,8.55,3.79,8.55,9.91s-2.06,10.4-8.5,10.4M618.74,398.52c7.42,0,12.29-3.47,12.29-10.83v-26.47h-4.39v3.57h-.11c-1.9-2.65-4.49-4.22-8.55-4.22-6.5,0-11.97,5.09-11.97,13.81,0,8.07,4.98,13.86,12.24,13.86,4.01,0,6.23-1.68,8.28-4.33h.11v3.95c0,4.87-2.87,7.2-8.01,7.2-4.33,0-7.25-1.19-7.69-4.28h-4.06c.49,4.82,4.6,7.74,11.86,7.74M583.38,361.22h-4.39v27.99h4.39v-17.22c0-4.6,3.25-7.74,7.69-7.74,3.95,0,6.33,2.06,6.33,5.68v19.27h4.39v-19.65c0-5.79-3.57-8.99-9.42-8.99-4.06,0-6.88,1.68-8.88,4.33h-.11v-3.68ZM573.04,389.21v-27.99h-4.39v17.22c0,4.44-2.87,7.8-7.31,7.8-3.95,0-6.28-2.11-6.28-5.74v-19.27h-4.39v19.38c0,5.79,3.68,9.26,9.42,9.26,4.06,0,6.44-1.79,8.45-4.49h.11v3.84h4.39ZM534.06,386.34c-5.96,0-8.88-4.71-8.88-10.99s2.82-11.04,8.93-11.04c5.31,0,7.85,4.76,7.85,11.04s-2.54,10.99-7.9,10.99M534.38,390.02c7.58,0,12.07-5.74,12.07-14.73s-4.82-14.73-11.91-14.73c-4.06,0-6.88,1.79-8.99,4.66h-.11v-14.73h-4.39v38.71h4.39v-3.68h.11c2.27,3.14,5.04,4.49,8.82,4.49M510.73,355.91h4.39v-5.41h-4.39v5.41ZM510.73,389.21h4.39v-27.99h-4.39v27.99ZM493.56,363.98c5.04,0,7.9,3.41,8.18,8.99h-16.84c.65-5.09,3.47-8.99,8.66-8.99M493.83,389.97c6.33,0,10.72-3.41,12.02-9.42h-4.28c-.97,3.79-3.68,5.74-7.74,5.74-5.63,0-8.72-4.33-9.04-10.02h21.66c0-9.26-4.49-15.76-12.89-15.76-7.96,0-13.26,6.61-13.26,14.73s4.98,14.73,13.54,14.73M452.25,354.72h11.75c5.68,0,7.85,2.38,7.85,7.09,0,4.39-2.71,7.09-8.12,7.09h-11.48v-14.18ZM447.38,389.21h4.87v-16.35h10.77c5.2,0,7.47,2,7.85,7.69.43,6.5.6,7.96,1.41,8.66h5.25v-.22c-.7-.49-1.35-2.06-1.79-8.28-.38-5.74-1.62-8.45-5.58-9.85v-.16c4.66-1.52,6.71-4.87,6.71-9.58,0-6.33-4.6-10.61-11.42-10.61h-18.08v38.71Z"/>
    </g>
  </g>
</svg>