<?xml version="1.0" encoding="UTF-8"?>
<svg id="Ebene_2" data-name="Ebene 2" xmlns="http://www.w3.org/2000/svg" viewBox="0 0 574.75 392.68">
  <defs>
    <style>
      .cls-1 {
        fill: #c7c7c6;
      }
    </style>
  </defs>
  <g id="Ebene_1-2" data-name="Ebene 1">
    <g>
      <path class="cls-1" d="M378.5,55.98c33.78,0,66.46,12.23,92,34.43,28.29,24.6,45.31,58.74,47.93,96.13,2.61,37.4-9.49,73.57-34.09,101.87-13.58,15.62-29.95,27.77-48.65,36.11-17.86,7.96-37.69,12.17-57.35,12.17-33.78,0-66.46-12.23-92-34.43-28.29-24.6-45.31-58.74-47.93-96.13-2.61-37.4,9.49-73.57,34.09-101.87,13.58-15.62,29.95-27.77,48.65-36.11,17.86-7.96,37.69-12.17,57.35-12.17M378.5,0c-54.87,0-109.43,22.86-148.25,67.52-71.14,81.83-62.47,205.84,19.36,276.98,37.17,32.31,83.06,48.16,128.72,48.16,54.87,0,109.42-22.86,148.25-67.52,71.14-81.83,62.47-205.84-19.36-276.98C470.05,15.85,424.16,0,378.5,0h0Z"/>
      <g>
        <line class="cls-1" x1="226.65" y1="267.11" x2="11.84" y2="367.29"/>
        <rect class="cls-1" x=".74" y="289.18" width="237.02" height="56.03" transform="translate(-122.89 80.13) rotate(-25)"/>
      </g>
    </g>
  </g>
</svg>