<?xml version="1.0" encoding="UTF-8"?>
<svg id="Ebene_2" data-name="Ebene 2" xmlns="http://www.w3.org/2000/svg" xmlns:xlink="http://www.w3.org/1999/xlink" viewBox="0 0 748.18 888.81">
  <defs>
    <style>
      .cls-1, .cls-2, .cls-3 {
        fill: none;
      }

      .cls-2 {
        stroke-width: 55.4px;
      }

      .cls-2, .cls-3 {
        stroke: #c7c7c6;
        stroke-miterlimit: 10;
      }

      .cls-3 {
        stroke-width: 54.01px;
      }

      .cls-4 {
        fill: #c7c7c6;
      }

      .cls-5 {
        clip-path: url(#clippath);
      }
    </style>
    <clipPath id="clippath">
      <rect class="cls-1" y="0" width="748.18" height="888.81"/>
    </clipPath>
  </defs>
  <g id="Ebene_1-2" data-name="Ebene 1">
    <g class="cls-5">
      <g>
        <path class="cls-4" d="M645.64,254.05c23.79,0,46.81,8.61,64.8,24.25,19.93,17.33,31.92,41.37,33.76,67.72s-6.69,51.83-24.01,71.76c-18.79,21.61-46,34-74.68,34-23.79,0-46.81-8.61-64.8-24.25-41.14-35.77-45.51-98.33-9.75-139.47,18.79-21.61,46-34,74.68-34M645.64,200.04c-42.73,0-85.21,17.8-115.44,52.58-55.39,63.72-48.64,160.28,15.08,215.67,28.94,25.16,64.67,37.5,100.23,37.5,42.73,0,85.21-17.8,115.44-52.58,55.39-63.72,48.64-160.28-15.08-215.67-28.94-25.16-64.67-37.5-100.23-37.5h0Z"/>
        <line class="cls-3" x1="511.37" y1="803.48" x2="511.37" y2="1124.2"/>
        <path class="cls-4" d="M779.06,555.26l74.59,238.32h-422.78l80.32-238.32h267.86M818.75,501.25h-346.35l-116.73,346.35h571.48l-108.4-346.35h0Z"/>
        <line class="cls-2" x1="161.27" y1="820.67" x2="1121.56" y2="820.67"/>
      </g>
    </g>
  </g>
</svg>