<?xml version="1.0" encoding="UTF-8"?>
<svg id="Ebene_2" data-name="Ebene 2" xmlns="http://www.w3.org/2000/svg" xmlns:xlink="http://www.w3.org/1999/xlink" viewBox="0 0 783.41 677.67">
  <defs>
    <style>
      .cls-1, .cls-2 {
        fill: none;
      }

      .cls-2 {
        stroke: #c7c7c6;
        stroke-miterlimit: 10;
        stroke-width: 31.22px;
      }

      .cls-3 {
        fill: #c7c7c6;
      }

      .cls-4 {
        clip-path: url(#clippath);
      }
    </style>
    <clipPath id="clippath">
      <rect class="cls-1" y="0" width="783.41" height="677.67"/>
    </clipPath>
  </defs>
  <g id="Ebene_1-2" data-name="Ebene 1">
    <g class="cls-4">
      <g>
        <path class="cls-3" d="M463.43,208.64c15.95,0,31.09,6.89,41.53,18.91,9.64,11.08,14.38,25.26,13.35,39.91-1.02,14.65-7.69,28.03-18.78,37.66-10.01,8.7-22.8,13.49-36.04,13.49-15.95,0-31.09-6.89-41.53-18.91-9.64-11.08-14.38-25.26-13.35-39.91,1.02-14.65,7.69-28.03,18.78-37.66,10.01-8.7,22.81-13.49,36.04-13.49M463.43,177.42c-20.05,0-40.2,6.96-56.52,21.15-35.93,31.24-39.74,85.69-8.5,121.62,17.05,19.61,41,29.65,65.1,29.65,20.05,0,40.2-6.96,56.52-21.15,35.93-31.24,39.74-85.69,8.5-121.62-17.05-19.61-41-29.65-65.1-29.65h0Z"/>
        <line class="cls-2" x1="499.44" y1="608.65" x2="499.44" y2="713.48"/>
        <line class="cls-2" x1="427.5" y1="608.65" x2="427.5" y2="713.48"/>
        <path class="cls-3" d="M463.47,403.48l83.5,193.65h-167l83.5-193.65M463.47,324.63l-130.96,303.72h261.92l-130.96-303.72h0Z"/>
        <path class="cls-3" d="M712.05,208.64c15.95,0,31.09,6.89,41.53,18.91,19.89,22.88,17.46,57.68-5.42,77.57-10.01,8.7-22.81,13.49-36.04,13.49-15.95,0-31.09-6.89-41.53-18.91-9.64-11.08-14.38-25.26-13.35-39.91,1.02-14.65,7.69-28.03,18.78-37.66,10.01-8.7,22.81-13.49,36.04-13.49M712.05,177.42c-20.05,0-40.2,6.96-56.52,21.15-35.93,31.24-39.74,85.69-8.5,121.62,17.05,19.61,41,29.65,65.1,29.65,20.05,0,40.2-6.96,56.52-21.15,35.93-31.24,39.74-85.69,8.5-121.62-17.05-19.61-41.01-29.65-65.1-29.65h0Z"/>
        <line class="cls-2" x1="748.06" y1="517.7" x2="748.06" y2="713.48"/>
        <line class="cls-2" x1="676.11" y1="517.7" x2="676.11" y2="713.48"/>
        <path class="cls-3" d="M783.39,378.5l22.66,132.87h-187.93l22.66-132.87h142.61M809.74,347.28h-195.31l-33.31,195.31h261.92l-33.31-195.31h0Z"/>
      </g>
    </g>
  </g>
</svg>