<?xml version="1.0" encoding="UTF-8"?>
<svg id="Ebene_2" data-name="Ebene 2" xmlns="http://www.w3.org/2000/svg" xmlns:xlink="http://www.w3.org/1999/xlink" viewBox="0 0 1170 2533">
  <defs>
    <style>
      .cls-1, .cls-2, .cls-3 {
        fill: none;
      }

      .cls-4 {
        fill: #05141d;
      }

      .cls-5 {
        fill: #01141e;
      }

      .cls-6 {
        fill: #2b2b2a;
      }

      .cls-7 {
        clip-path: url(#clippath-1);
      }

      .cls-8 {
        clip-path: url(#clippath-2);
      }

      .cls-9 {
        fill: #fff;
      }

      .cls-2 {
        stroke: #c7c7c6;
        stroke-width: 21.54px;
      }

      .cls-2, .cls-3 {
        stroke-miterlimit: 10;
      }

      .cls-10 {
        fill: #03161d;
      }

      .cls-11 {
        fill: red;
      }

      .cls-3 {
        stroke: red;
        stroke-width: 21.64px;
      }

      .cls-12 {
        fill: #ededed;
      }

      .cls-13 {
        fill: #c7c7c6;
      }

      .cls-14 {
        clip-path: url(#clippath);
      }
    </style>
    <clipPath id="clippath">
      <rect class="cls-1" x="126.94" y="165.51" width="918.12" height="246.85"/>
    </clipPath>
    <clipPath id="clippath-1">
      <rect class="cls-1" x="0" y="182.54" width="1170" height="1460.65"/>
    </clipPath>
    <clipPath id="clippath-2">
      <rect class="cls-1" x="450.96" y="1925.26" width="719.04" height="606.74"/>
    </clipPath>
  </defs>
  <g id="Ebene_1-2" data-name="Ebene 1">
    <rect class="cls-9" x="0" y="0" width="1170" height="2533"/>
    <g class="cls-14">
      <path class="cls-11" d="M1039.83,339.74c2.83,0,5.23-2.4,5.23-5.23s-2.4-5.23-5.23-5.23-5.12,2.4-5.12,5.23,2.4,5.23,5.12,5.23M1018.68,339.41c2.83,0,6.98-1.09,8.94-3.92v-2.18c-.98.87-2.62,2.29-5.56,2.29-5.01,0-7.08-3.71-7.08-7.52v-40.22h12.75v-2.83h-12.75v-14.06h-2.94c-1.85,8.61-5.89,13.51-12.1,15.04v1.85h7.41v39.78c0,8.5,5.99,11.77,11.34,11.77M961.36,338.65c6.43-.33,13.73-.33,21.04,0v-2.07c-3.49-.44-7.3-1.53-7.3-6.43v-28.34c0-4.9,2.29-12.97,7.52-12.97,4.25,0,5.01,5.45,9.37,5.45,2.51,0,4.14-2.07,4.14-4.47,0-3.49-3.38-6.76-8.83-6.76-6.32,0-11.12,4.25-13.62,13.62h-.65l2.72-11.99c-.33-.98-.87-1.53-1.74-1.85-2.51,1.96-7.3,4.36-12.97,5.12v2.07c4.36-.33,6.43.22,6.43,3.71v36.4c0,4.9-2.94,5.99-6.1,6.43v2.07ZM933.67,285.14c9.37,0,14.28,8.39,12.97,22.34h-26.16c.11-14.93,4.58-22.34,13.19-22.34M939.01,336.91c-11.44,0-17.98-11.01-18.53-27.14h30.08c3.49,0,4.58-2.4,4.58-6.87,0-13.73-10.03-19.84-20.6-19.84-14.06,0-22.89,11.66-22.89,28.56,0,17.77,10.03,28.23,24.2,28.23,9.59,0,16.46-4.9,18.96-11.23h-2.51c-2.62,6.32-8.61,8.28-13.3,8.28M886.7,338.65c6.76-.54,13.84-.54,20.6,0v-2.07c-3.38-.44-6.43-1.53-6.43-6.43v-32.48c0-6.65,0-10.79.65-12.97-.44-.98-.98-1.53-1.85-1.85-3.6,2.4-7.3,4.25-12.53,5.12v2.07c3.81,0,6.1,2.83,6.1,7.63v32.48c0,4.9-3.05,5.99-6.54,6.43v2.07ZM896.29,273.37c2.72,0,5.12-2.29,5.12-5.12s-2.4-5.01-5.12-5.01-5.01,2.18-5.01,5.01,2.29,5.12,5.01,5.12M830.46,338.65c6.65-.33,13.3-.33,19.95,0v-2.07c-3.27-.65-6.21-1.53-6.21-6.43v-28.66c0-7.52,4.9-13.73,12.64-13.73s12.21,5.89,12.21,13.73v28.66c0,4.9-2.72,5.78-5.99,6.43v2.07c6.54-.33,13.19-.33,19.84,0v-2.07c-3.27-.44-6.21-1.53-6.21-6.43v-28.99c0-14.5-9.05-18.09-16.35-18.09-12.21,0-16.68,10.03-17.33,13.3h-.44l2.07-11.66c-.33-.98-.87-1.53-1.74-1.85-2.51,2.07-7.08,4.36-12.75,5.12v2.07c4.36-.33,6.43.22,6.43,3.71v36.4c0,4.9-2.72,5.99-6.1,6.43v2.07ZM802.89,337.67c-10.25,0-17.44-12.21-17.44-28.77s6.1-23.65,14.06-23.65c10.35,0,17.44,11.99,17.44,28.77s-5.99,23.65-14.06,23.65M801.36,339.85c12.53,0,23.98-9.7,23.98-28.45s-11.34-28.34-24.3-28.34-23.87,9.7-23.87,28.45,11.23,28.34,24.2,28.34M752.21,338.65c6.76-.54,13.84-.54,20.6,0v-2.07c-3.38-.44-6.43-1.53-6.43-6.43v-32.48c0-6.65,0-10.79.65-12.97-.44-.98-.98-1.53-1.85-1.85-3.6,2.4-7.3,4.25-12.53,5.12v2.07c3.81,0,6.1,2.83,6.1,7.63v32.48c0,4.9-3.05,5.99-6.54,6.43v2.07ZM761.8,273.37c2.72,0,5.12-2.29,5.12-5.12s-2.4-5.01-5.12-5.01-5.01,2.18-5.01,5.01,2.29,5.12,5.01,5.12M737.82,339.41c2.83,0,6.98-1.09,8.94-3.92v-2.18c-.98.87-2.62,2.29-5.56,2.29-5.01,0-7.08-3.71-7.08-7.52v-40.22h12.75v-2.83h-12.75v-14.06h-2.94c-1.85,8.61-5.89,13.51-12.1,15.04v1.85h7.41v39.78c0,8.5,5.99,11.77,11.33,11.77M685.62,307.59c16.89-16.24,21.69-20.93,28.12-21.47v-2.07c-5.01.33-12.64.33-19.62,0v2.07c11.23.54-4.36,15.48-14.39,23.21v-32.59c0-6.65,0-10.79.65-12.97-.44-.98-.98-1.53-1.85-1.85-3.6,2.4-7.3,4.25-12.53,5.12v2.07c3.81,0,6.1,2.83,6.1,7.63v53.41c0,4.9-3.05,5.99-6.54,6.43v2.07c6.76-.54,13.84-.54,20.6,0v-2.07c-3.38-.44-6.43-1.53-6.43-6.43v-18.2l14.82,17.87c6.43,7.63,12.42,10.14,19.07,10.14l2.72-2.07c-2.62,0-8.17-3.81-13.08-9.7l-17.66-20.6ZM610.96,338.65c6.65-.33,13.3-.33,19.95,0v-2.07c-3.27-.65-6.21-1.53-6.21-6.43v-28.66c0-7.52,4.9-13.73,12.64-13.73s12.21,5.89,12.21,13.73v28.66c0,4.9-2.72,5.78-5.99,6.43v2.07c6.54-.33,13.19-.33,19.84,0v-2.07c-3.27-.44-6.21-1.53-6.21-6.43v-28.99c0-14.5-9.05-18.09-16.35-18.09-12.21,0-16.68,10.03-17.33,13.3h-.44l2.07-11.66c-.33-.98-.87-1.53-1.74-1.85-2.51,2.07-7.08,4.36-12.75,5.12v2.07c4.36-.33,6.43.22,6.43,3.71v36.4c0,4.9-2.72,5.99-6.1,6.43v2.07ZM594.5,339.85c4.25-1.2,7.52-1.2,12.75-1.2v-2.07c-4.03-.87-6.21-2.07-6.21-7.74v-43.38c0-1.42-.33-2.07-2.18-1.74l-11.66,1.09v2.07c5.34.22,6.32,1.63,6.32,5.99v28.12c-.98,7.63-5.45,14.06-13.19,14.06s-12.42-6.65-12.42-14.06v-35.53c0-1.42-.76-1.85-2.18-1.74l-11.66,1.09v2.07c5.12.22,6.32,1.85,6.32,5.99v28.45c0,14.82,9.37,18.31,16.46,18.31,12.1,0,16.89-9.92,17.22-11.66h.54l-1.53,10.03c0,.98.65,1.53,1.42,1.85M543.71,262.58c-7.74,0-14.6,4.25-14.6,17.33v5.56c-1.31.54-3.92,1.09-6.1,1.09v2.07h6.1v41.53c0,4.9-3.05,5.99-6.54,6.43v2.07c6.76-.54,13.84-.54,21.8,0v-2.07c-4.58-.44-7.63-1.53-7.63-6.43v-41.53h11.99v-3.16h-11.99v-6.87c0-7.19.54-13.84,5.67-13.84,6.21,0,4.69,9.16,9.81,9.16,2.62,0,3.05-2.18,3.05-3.49,0-3.27-3.6-7.85-11.55-7.85M485.3,339.41c2.83,0,6.98-1.09,8.94-3.92v-2.18c-.98.87-2.62,2.29-5.56,2.29-5.01,0-7.08-3.71-7.08-7.52v-40.22h12.75v-2.83h-12.75v-14.06h-2.94c-1.85,8.61-5.89,13.51-12.1,15.04v1.85h7.41v39.78c0,8.5,5.99,11.77,11.33,11.77M436.36,336.69c-11.55,0-16.46-14.28-16.46-27.36,0-16.35,7.74-23.87,15.91-23.87,5.78,0,11.01,3.49,13.19,10.35v28.77c0,5.89-5.01,12.1-12.64,12.1M450.31,339.85c4.25-1.2,7.19-1.2,12.42-1.2v-2.07c-4.03-.87-6.1-2.07-6.1-7.74v-52.1c0-6.65,0-10.79.65-12.97-.33-.98-.98-1.53-1.85-1.85-3.6,2.4-7.3,4.25-12.53,5.12v2.07c3.81,0,6.1,2.83,6.1,7.63v13.19c-2.83-3.92-8.5-6.87-15.26-6.87-12.64,0-22.23,9.92-22.23,28.23s8.83,28.56,21.69,28.56c9.37,0,15.04-5.89,16.68-9.16h.54l-1.53,7.3c0,.98.65,1.53,1.42,1.85M379.9,335.71c-4.9,0-10.68-3.16-10.68-11.55,0-5.45,2.62-12.64,24.2-15.59v13.51c0,7.85-6.54,13.62-13.51,13.62M401.05,301.05c0-12.64-3.16-17.98-16.35-17.98s-21.69,6.21-21.47,13.62c0,3.05,1.42,5.01,4.58,5.01,9.37,0-1.74-16.35,14.5-16.35,9.92,0,11.12,6.21,11.12,16.02v4.9c-27.25,3.81-33.24,11.44-33.24,19.84,0,10.14,7.96,13.73,15.26,13.73,9.05,0,15.26-5.23,17.98-9.59h.76v1.63c0,4.58,1.96,7.96,7.19,7.96,1.63,0,3.6-.22,5.23-1.74v-1.96c-3.49.54-5.56-1.74-5.56-5.78v-29.32ZM346.33,339.41c2.83,0,6.98-1.09,8.94-3.92v-2.18c-.98.87-2.62,2.29-5.56,2.29-5.01,0-7.08-3.71-7.08-7.52v-40.22h12.75v-2.83h-12.75v-14.06h-2.94c-1.85,8.61-5.89,13.51-12.1,15.04v1.85h7.41v39.78c0,8.5,5.99,11.77,11.34,11.77M304.7,339.96c10.03,0,19.62-5.89,19.62-18.09,0-14.06-13.41-18.42-22.78-22.56-8.83-3.81-13.73-8.94-13.73-15.91s5.34-11.88,12.97-11.88c6.98,0,12.97,3.92,16.68,12.21h2.18l-.65-13.62h-2.18c-.54,1.53-1.74,1.85-3.05,1.85-3.49,0-6.43-2.72-13.41-2.72-12.53,0-19.29,8.17-19.29,17.11,0,10.25,8.5,16.78,19.07,21.36,7.19,3.05,16.57,7.74,16.57,17.11,0,6.87-4.9,12.64-14.17,12.64-10.03,0-16.35-6.54-19.4-14.06h-2.18l.87,15.26h2.51c0-1.74,1.74-3.05,3.16-3.05,2.83,0,8.5,4.36,17.22,4.36M229.5,285.14c9.37,0,14.28,8.39,12.97,22.34h-26.16c.11-14.93,4.58-22.34,13.19-22.34M234.84,336.91c-11.44,0-17.98-11.01-18.53-27.14h30.08c3.49,0,4.58-2.4,4.58-6.87,0-13.73-10.03-19.84-20.6-19.84-14.06,0-22.89,11.66-22.89,28.56,0,17.77,10.03,28.23,24.2,28.23,9.59,0,16.46-4.9,18.96-11.23h-2.51c-2.62,6.32-8.61,8.28-13.3,8.28M182.52,338.65c6.76-.54,13.84-.54,20.6,0v-2.07c-3.38-.44-6.43-1.53-6.43-6.43v-32.48c0-6.65,0-10.79.65-12.97-.44-.98-.98-1.53-1.85-1.85-3.6,2.4-7.3,4.25-12.53,5.12v2.07c3.81,0,6.1,2.83,6.1,7.63v32.48c0,4.9-3.05,5.99-6.54,6.43v2.07ZM192.12,273.37c2.72,0,5.12-2.29,5.12-5.12s-2.4-5.01-5.12-5.01-5.01,2.18-5.01,5.01,2.29,5.12,5.01,5.12M151.79,336.69c-11.55,0-16.46-14.28-16.46-27.36,0-16.35,7.74-23.87,15.91-23.87,5.78,0,11.01,3.49,13.19,10.35v28.77c0,5.89-5.01,12.1-12.64,12.1M165.74,339.85c4.25-1.2,7.19-1.2,12.42-1.2v-2.07c-4.03-.87-6.1-2.07-6.1-7.74v-52.1c0-6.65,0-10.79.65-12.97-.33-.98-.98-1.53-1.85-1.85-3.6,2.4-7.3,4.25-12.53,5.12v2.07c3.81,0,6.1,2.83,6.1,7.63v13.19c-2.83-3.92-8.5-6.87-15.26-6.87-12.64,0-22.23,9.92-22.23,28.23s8.83,28.56,21.69,28.56c9.37,0,15.04-5.89,16.68-9.16h.54l-1.53,7.3c0,.98.65,1.53,1.42,1.85"/>
      <path class="cls-6" d="M610.19,252.7c.44.44.76.44,1.42,0,3.81-3.38,5.89-8.39,5.89-12.64,0-3.71-2.07-7.08-5.67-7.08-2.83,0-5.01,1.85-5.01,5.23,0,2.83,2.29,4.58,4.36,4.58.87,0,1.09-.11,1.63-.22.22.33.22.76.22,1.09,0,2.94-1.85,6.32-3.49,7.96l.65,1.09ZM574.23,242.24c6.43-.33,13.73-.33,21.04,0v-2.07c-3.49-.44-7.3-1.53-7.3-6.43v-28.34c0-4.9,2.29-12.97,7.52-12.97,4.25,0,5.01,5.45,9.37,5.45,2.51,0,4.14-2.07,4.14-4.47,0-3.49-3.38-6.76-8.83-6.76-6.32,0-11.12,4.25-13.62,13.62h-.65l2.72-11.99c-.33-.98-.87-1.53-1.74-1.85-2.51,1.96-7.3,4.36-12.97,5.12v2.07c4.36-.33,6.43.22,6.43,3.71v36.4c0,4.9-2.94,5.99-6.1,6.43v2.07ZM546.11,241.25c-10.25,0-17.44-12.21-17.44-28.77s6.1-23.65,14.06-23.65c10.35,0,17.44,11.99,17.44,28.77s-5.99,23.65-14.06,23.65M544.58,243.43c12.53,0,23.98-9.7,23.98-28.45s-11.33-28.34-24.3-28.34-23.87,9.7-23.87,28.45,11.23,28.34,24.2,28.34M501.64,189.7c5.99.11,7.96,1.42,5.89,7.19l-10.46,32.26-11.34-32.26c-2.07-5.78-.87-7.08,4.58-7.19v-2.07h-21.25v2.07c4.14.11,6.32,1.42,8.28,7.19l16.24,45.34h1.42l15.26-45.34c2.07-5.78,4.58-7.08,10.14-7.19v-2.07h-18.75v2.07ZM407.58,242.24c6.43-.33,13.73-.33,21.04,0v-2.07c-3.49-.44-7.3-1.53-7.3-6.43v-28.34c0-4.9,2.29-12.97,7.52-12.97,4.25,0,5.01,5.45,9.37,5.45,2.51,0,4.14-2.07,4.14-4.47,0-3.49-3.38-6.76-8.83-6.76-6.32,0-11.12,4.25-13.62,13.62h-.65l2.72-11.99c-.33-.98-.87-1.53-1.74-1.85-2.51,1.96-7.3,4.36-12.97,5.12v2.07c4.36-.33,6.43.22,6.43,3.71v36.4c0,4.9-2.94,5.99-6.1,6.43v2.07ZM382.41,242.24c6.76-.54,13.84-.54,20.6,0v-2.07c-3.38-.44-6.43-1.53-6.43-6.43v-32.48c0-6.65,0-10.79.65-12.97-.44-.98-.98-1.53-1.85-1.85-3.6,2.4-7.3,4.25-12.53,5.12v2.07c3.81,0,6.1,2.83,6.1,7.63v32.48c0,4.9-3.05,5.99-6.54,6.43v2.07ZM392,176.95c2.72,0,5.12-2.29,5.12-5.12s-2.4-5.01-5.12-5.01-5.01,2.18-5.01,5.01,2.29,5.12,5.01,5.12M351.68,240.27c-11.55,0-16.46-14.28-16.46-27.36,0-16.35,7.74-23.87,15.91-23.87,5.78,0,11.01,3.49,13.19,10.35v28.77c0,5.89-5.01,12.1-12.64,12.1M365.63,243.43c4.25-1.2,7.19-1.2,12.42-1.2v-2.07c-4.03-.87-6.1-2.07-6.1-7.74v-52.1c0-6.65,0-10.79.65-12.97-.33-.98-.98-1.53-1.85-1.85-3.6,2.4-7.3,4.25-12.53,5.12v2.07c3.81,0,6.1,2.83,6.1,7.63v13.19c-2.83-3.92-8.5-6.87-15.26-6.87-12.64,0-22.23,9.92-22.23,28.23s8.83,28.56,21.69,28.56c9.37,0,15.04-5.89,16.68-9.16h.54l-1.53,7.3c0,.98.65,1.53,1.42,1.85M277.89,242.24c6.76-.54,13.84-.54,20.6,0v-2.07c-3.38-.44-6.43-1.53-6.43-6.43v-53.41c0-6.65,0-10.79.65-12.97-.44-.98-.98-1.53-1.85-1.85-3.6,2.4-7.3,4.25-12.53,5.12v2.07c3.81,0,6.1,2.83,6.1,7.63v53.41c0,4.9-3.05,5.99-6.54,6.43v2.07ZM254.02,242.24c6.76-.54,13.84-.54,20.6,0v-2.07c-3.38-.44-6.43-1.53-6.43-6.43v-53.41c0-6.65,0-10.79.65-12.97-.44-.98-.98-1.53-1.85-1.85-3.6,2.4-7.3,4.25-12.53,5.12v2.07c3.81,0,6.1,2.83,6.1,7.63v53.41c0,4.9-3.05,5.99-6.54,6.43v2.07ZM227.65,188.72c9.37,0,14.28,8.39,12.97,22.34h-26.16c.11-14.93,4.58-22.34,13.19-22.34M232.99,240.49c-11.44,0-17.98-11.01-18.53-27.14h30.08c3.49,0,4.58-2.4,4.58-6.87,0-13.73-10.03-19.84-20.6-19.84-14.06,0-22.89,11.66-22.89,28.56,0,17.77,10.03,28.23,24.2,28.23,9.59,0,16.46-4.9,18.96-11.23h-2.51c-2.62,6.32-8.61,8.28-13.3,8.28M192.33,243c2.83,0,6.98-1.09,8.94-3.92v-2.18c-.98.87-2.62,2.29-5.56,2.29-5.01,0-7.08-3.71-7.08-7.52v-40.22h12.75v-2.83h-12.75v-14.06h-2.94c-1.85,8.61-5.89,13.51-12.1,15.04v1.85h7.41v39.78c0,8.5,5.99,11.77,11.33,11.77M150.7,243.54c10.03,0,19.62-5.89,19.62-18.09,0-14.06-13.41-18.42-22.78-22.56-8.83-3.81-13.73-8.94-13.73-15.91s5.34-11.88,12.97-11.88c6.98,0,12.97,3.92,16.68,12.21h2.18l-.65-13.62h-2.18c-.54,1.53-1.74,1.85-3.05,1.85-3.49,0-6.43-2.72-13.41-2.72-12.53,0-19.29,8.17-19.29,17.11,0,10.25,8.5,16.78,19.07,21.36,7.19,3.05,16.57,7.74,16.57,17.11,0,6.87-4.9,12.64-14.17,12.64-10.03,0-16.35-6.54-19.4-14.06h-2.18l.87,15.26h2.51c0-1.74,1.74-3.05,3.16-3.05,2.83,0,8.5,4.36,17.22,4.36"/>
      <path class="cls-5" d="M936.96,406.59h3.25v-3.32h-3.25v3.32ZM925.59,391.46h2.52v11.87c0,2.45,1.61,3.35,3.82,3.35.8,0,1.54-.1,2.18-.23v-2.35h-.1c-.3.1-.91.23-1.44.23-1.11,0-1.74-.4-1.74-1.61v-11.27h3.35v-2.21h-3.35v-5.47h-2.72v5.47h-2.52v2.21ZM912.04,382.61h-2.72v23.98h2.72v-10.66c0-2.85,2.01-4.8,4.76-4.8,2.45,0,3.92,1.27,3.92,3.52v11.94h2.72v-12.17c0-3.59-2.21-5.57-5.84-5.57-2.52,0-4.26,1.04-5.5,2.68h-.07v-8.92ZM899.33,407.06c4.33,0,7.04-2.41,7.41-6.57h-2.68c-.23,2.68-1.91,4.29-4.73,4.29-3.69,0-5.6-3.02-5.6-6.84s1.91-6.87,5.6-6.87c2.62,0,4.26,1.44,4.66,3.79h2.75c-.6-3.69-3.32-6.04-7.41-6.04-5.16,0-8.38,4.09-8.38,9.12s3.22,9.12,8.38,9.12M885.52,385.96h2.72v-3.35h-2.72v3.35ZM885.52,406.59h2.72v-17.34h-2.72v17.34ZM870.53,389.25h-2.72v17.34h2.72v-10.66c0-2.85,2.01-4.8,4.76-4.8,2.45,0,3.92,1.27,3.92,3.52v11.94h2.72v-12.17c0-3.59-2.21-5.57-5.84-5.57-2.52,0-4.26,1.04-5.5,2.68h-.07v-2.28ZM851.85,390.96c3.12,0,4.9,2.11,5.06,5.57h-10.43c.4-3.15,2.15-5.57,5.37-5.57M852.01,407.06c3.92,0,6.64-2.11,7.44-5.84h-2.65c-.6,2.35-2.28,3.55-4.8,3.55-3.49,0-5.4-2.68-5.6-6.2h13.41c0-5.73-2.78-9.76-7.98-9.76-4.93,0-8.22,4.09-8.22,9.12s3.09,9.12,8.38,9.12M836.49,389.25h-2.72v17.34h2.72v-9.62c0-3.25,2.35-5.27,5.03-5.27.54,0,.8.03,1.21.17h.1v-2.62c-.34-.13-.6-.2-1.11-.2-2.31,0-4.12,1.41-5.16,3.09h-.07v-2.88ZM823.14,390.96c3.12,0,4.9,2.11,5.06,5.57h-10.43c.4-3.15,2.15-5.57,5.37-5.57M823.31,407.06c3.92,0,6.64-2.11,7.44-5.84h-2.65c-.6,2.35-2.28,3.55-4.8,3.55-3.49,0-5.4-2.68-5.6-6.2h13.41c0-5.73-2.78-9.76-7.98-9.76-4.93,0-8.22,4.09-8.22,9.12s3.09,9.12,8.38,9.12M804.16,404.81c-3.32,0-5-2.88-5-6.81s1.68-6.84,4.96-6.84c3.59,0,5.53,2.82,5.53,6.84s-1.64,6.81-5.5,6.81M804.06,407.09c2.45,0,4.06-.94,5.37-2.62h.07v2.11h2.72v-23.98h-2.72v9.09h-.07c-1.11-1.64-2.98-2.85-5.43-2.85-4.29,0-7.61,3.35-7.61,9.12s2.95,9.12,7.68,9.12M782.36,389.25h-2.72v17.34h2.72v-10.66c0-2.85,2.01-4.8,4.76-4.8,2.45,0,3.92,1.27,3.92,3.52v11.94h2.72v-12.17c0-3.59-2.21-5.57-5.84-5.57-2.52,0-4.26,1.04-5.5,2.68h-.07v-2.28ZM767.97,404.84c-1.78,0-3.59-.5-3.59-2.82,0-2.55,2.18-3.02,4.9-3.52,1.48-.27,3.05-.7,3.96-1.27v2.95c0,2.01-1.64,4.66-5.27,4.66M776.16,406.75c.7,0,1.14-.13,1.48-.27v-1.98h-.1c-1.51.34-1.84-.44-1.84-1.84v-8.25c0-4.12-2.72-5.5-6.41-5.5-4.59,0-6.81,2.52-6.91,5.87h2.62c.1-2.62,1.51-3.82,4.33-3.82,2.48,0,3.89,1.11,3.89,3.05s-1.71,2.11-4.16,2.48c-4.33.67-7.55,1.51-7.55,5.6,0,3.29,2.58,4.83,5.87,4.83,2.95,0,4.73-1.41,5.77-2.75h.03c.27,1.78,1.21,2.58,2.98,2.58M748.42,389.25h-2.72v17.34h2.72v-9.62c0-3.25,2.35-5.27,5.03-5.27.54,0,.8.03,1.21.17h.1v-2.62c-.34-.13-.6-.2-1.11-.2-2.31,0-4.12,1.41-5.16,3.09h-.07v-2.88ZM731.15,385.96h2.62v-3.19h-2.62v3.19ZM736.65,385.96h2.62v-3.19h-2.62v3.19ZM742.02,406.59v-17.34h-2.72v10.66c0,2.75-1.78,4.83-4.53,4.83-2.45,0-3.89-1.31-3.89-3.55v-11.94h-2.72v12.01c0,3.59,2.28,5.73,5.84,5.73,2.52,0,3.99-1.11,5.23-2.78h.07v2.38h2.72ZM710.46,406.59h3.02v-11.3h11.03v-2.55h-11.03v-7.48h13.25v-2.65h-16.26v23.98ZM692.32,406.59h3.25v-3.32h-3.25v3.32ZM692.69,400.79h2.55c.03-3.42.77-4.26,3.55-6.57,1.58-1.31,3.09-2.88,3.09-5.63,0-3.52-2.58-6.41-7.31-6.41-5.6,0-7.91,3.59-8.02,8.15h2.75c.1-3.42,1.71-5.73,5.16-5.73,2.95,0,4.53,1.88,4.53,4.02s-1.31,3.22-2.78,4.53c-2.55,2.25-3.49,3.96-3.52,7.65M673.17,382.61h-2.72v23.98h2.72v-10.66c0-2.85,2.01-4.8,4.76-4.8,2.45,0,3.92,1.27,3.92,3.52v11.94h2.72v-12.17c0-3.59-2.21-5.57-5.84-5.57-2.52,0-4.26,1.04-5.5,2.68h-.07v-8.92ZM660.46,407.06c4.33,0,7.04-2.41,7.41-6.57h-2.68c-.23,2.68-1.91,4.29-4.73,4.29-3.69,0-5.6-3.02-5.6-6.84s1.91-6.87,5.6-6.87c2.62,0,4.26,1.44,4.66,3.79h2.75c-.6-3.69-3.32-6.04-7.41-6.04-5.16,0-8.38,4.09-8.38,9.12s3.22,9.12,8.38,9.12M646.65,385.96h2.72v-3.35h-2.72v3.35ZM646.65,406.59h2.72v-17.34h-2.72v17.34ZM634.91,404.81c-3.32,0-5-2.88-5-6.81s1.68-6.84,4.96-6.84c3.59,0,5.53,2.82,5.53,6.84s-1.64,6.81-5.5,6.81M634.81,407.09c2.45,0,4.06-.94,5.37-2.62h.07v2.11h2.72v-23.98h-2.72v9.09h-.07c-1.11-1.64-2.98-2.85-5.43-2.85-4.29,0-7.61,3.35-7.61,9.12s2.95,9.12,7.68,9.12M613.98,389.25h-2.72v17.34h2.72v-9.62c0-3.25,2.35-5.27,5.03-5.27.54,0,.8.03,1.21.17h.1v-2.62c-.34-.13-.6-.2-1.11-.2-2.31,0-4.12,1.41-5.16,3.09h-.07v-2.88ZM596.71,385.96h2.62v-3.19h-2.62v3.19ZM602.21,385.96h2.62v-3.19h-2.62v3.19ZM607.58,406.59v-17.34h-2.72v10.66c0,2.75-1.78,4.83-4.53,4.83-2.45,0-3.89-1.31-3.89-3.55v-11.94h-2.72v12.01c0,3.59,2.28,5.73,5.84,5.73,2.52,0,3.99-1.11,5.23-2.78h.07v2.38h2.72ZM582.86,391.46h2.38v15.12h2.72v-15.12h3.22v-2.21h-3.22v-2.65c0-1.41.64-1.84,2.38-1.84.27,0,.4,0,.87.03v-2.31c-.37-.03-.8-.07-1.37-.07-2.88,0-4.6,1.07-4.6,4.06v2.78h-2.38v2.21ZM569.18,407.09c3.99,0,6.84-1.78,6.84-5.27,0-3.99-2.92-4.76-6.41-5.47-2.98-.6-4.66-.97-4.66-2.85,0-1.37,1.01-2.48,3.49-2.48s3.82,1.01,4.09,3.29h2.78c-.4-3.39-2.52-5.43-6.81-5.43-4.02,0-6.24,1.88-6.24,4.76,0,3.79,3.05,4.49,6.47,5.2,3.19.67,4.53,1.17,4.53,3.12,0,1.61-1.17,2.85-4.02,2.85-2.58,0-4.59-.84-4.96-3.86h-2.78c.27,3.89,2.92,6.14,7.68,6.14M551.54,404.78c-3.69,0-5.6-3.02-5.6-6.84s1.91-6.87,5.6-6.87,5.57,3.05,5.57,6.87-1.88,6.84-5.57,6.84M551.54,407.06c5.2,0,8.35-4.09,8.35-9.12s-3.15-9.12-8.35-9.12-8.38,4.09-8.38,9.12,3.22,9.12,8.38,9.12M537.62,406.59h2.72v-23.98h-2.72v23.98ZM528.07,407.09c3.99,0,6.84-1.78,6.84-5.27,0-3.99-2.92-4.76-6.41-5.47-2.98-.6-4.66-.97-4.66-2.85,0-1.37,1.01-2.48,3.49-2.48s3.82,1.01,4.09,3.29h2.78c-.4-3.39-2.52-5.43-6.81-5.43-4.02,0-6.24,1.88-6.24,4.76,0,3.79,3.05,4.49,6.47,5.2,3.19.67,4.53,1.17,4.53,3.12,0,1.61-1.17,2.85-4.02,2.85-2.58,0-4.59-.84-4.96-3.86h-2.78c.27,3.89,2.92,6.14,7.68,6.14M510.02,403.7c-3.22,0-4.93-2.48-4.93-6.27s1.64-6.3,4.9-6.3c3.69,0,5.3,2.35,5.3,6.14s-1.27,6.44-5.27,6.44M510.19,412.36c4.59,0,7.61-2.15,7.61-6.71v-16.4h-2.72v2.21h-.07c-1.17-1.64-2.78-2.62-5.3-2.62-4.02,0-7.41,3.15-7.41,8.55,0,5,3.09,8.59,7.58,8.59,2.48,0,3.86-1.04,5.13-2.68h.07v2.45c0,3.02-1.78,4.46-4.96,4.46-2.68,0-4.49-.74-4.76-2.65h-2.52c.3,2.98,2.85,4.8,7.34,4.8M488.29,389.25h-2.72v17.34h2.72v-10.66c0-2.85,2.01-4.8,4.76-4.8,2.45,0,3.92,1.27,3.92,3.52v11.94h2.72v-12.17c0-3.59-2.21-5.57-5.84-5.57-2.52,0-4.26,1.04-5.5,2.68h-.07v-2.28ZM481.89,406.59v-17.34h-2.72v10.66c0,2.75-1.78,4.83-4.53,4.83-2.45,0-3.89-1.31-3.89-3.55v-11.94h-2.72v12.01c0,3.59,2.28,5.73,5.84,5.73,2.52,0,3.99-1.11,5.23-2.78h.07v2.38h2.72ZM457.74,404.81c-3.69,0-5.5-2.92-5.5-6.81s1.74-6.84,5.53-6.84c3.29,0,4.86,2.95,4.86,6.84s-1.58,6.81-4.9,6.81M457.94,407.09c4.69,0,7.48-3.55,7.48-9.12s-2.98-9.12-7.38-9.12c-2.52,0-4.26,1.11-5.57,2.88h-.07v-9.12h-2.72v23.98h2.72v-2.28h.07c1.41,1.95,3.12,2.78,5.47,2.78M443.29,385.96h2.72v-3.35h-2.72v3.35ZM443.29,406.59h2.72v-17.34h-2.72v17.34ZM432.66,390.96c3.12,0,4.9,2.11,5.06,5.57h-10.43c.4-3.15,2.15-5.57,5.37-5.57M432.83,407.06c3.92,0,6.64-2.11,7.44-5.84h-2.65c-.6,2.35-2.28,3.55-4.8,3.55-3.49,0-5.4-2.68-5.6-6.2h13.41c0-5.73-2.78-9.76-7.98-9.76-4.93,0-8.22,4.09-8.22,9.12s3.09,9.12,8.38,9.12M407.07,385.23h7.28c3.52,0,4.86,1.48,4.86,4.39,0,2.72-1.68,4.39-5.03,4.39h-7.11v-8.79ZM404.05,406.59h3.02v-10.13h6.67c3.22,0,4.63,1.24,4.86,4.76.27,4.02.37,4.93.87,5.37h3.25v-.13c-.44-.3-.84-1.27-1.11-5.13-.23-3.55-1.01-5.23-3.45-6.1v-.1c2.88-.94,4.16-3.02,4.16-5.94,0-3.92-2.85-6.57-7.08-6.57h-11.2v23.98Z"/>
    </g>
    <rect class="cls-12" y="1643.19" width="1170" height="888.81"/>
    <g>
      <path class="cls-4" d="M99.74,1744.95h-.09c-2.21,3.69-5.22,4.99-9.04,4.99-4.86,0-8.64-1.75-11.29-4.68-2.65-2.97-4.18-7.11-4.18-11.97,0-5.35,1.89-10.03,5.26-13.14,2.61-2.38,6.03-3.69,10.35-3.69,8.1,0,12.73,4.46,13.77,10.75h-6.39c-.72-3.11-3.1-5.36-7.25-5.36-6.07,0-9.09,5.04-9.09,11.43s3.46,11.38,9,11.38c5,0,8.28-3.73,8.28-7.29v-.18h-7.74v-5.04h13.54v17.1h-4.9l-.22-4.32Z"/>
      <path class="cls-4" d="M107.79,1737.7c0-6.84,4.63-12.15,11.38-12.15,7.43,0,11.38,5.67,11.38,13.9h-16.74c.45,3.55,2.43,5.76,5.89,5.76,2.38,0,3.78-1.08,4.46-2.83h6.03c-.86,4.09-4.5,7.56-10.44,7.56-7.65,0-11.97-5.35-11.97-12.24ZM113.91,1735.23h10.26c-.18-2.92-2.12-4.95-4.91-4.95-3.24,0-4.82,1.93-5.35,4.95Z"/>
      <path class="cls-4" d="M139.51,1729.2h.14c1.67-2.43,3.55-3.64,6.7-3.64,4.77,0,7.96,3.6,7.96,8.64v15.07h-6.12v-14.17c0-2.47-1.44-4.23-4.01-4.23-2.7,0-4.68,2.16-4.68,5.31v13.09h-6.12v-32.17h6.12v12.1Z"/>
      <path class="cls-4" d="M156.66,1741.8h5.67c.41,2.66,2.29,3.83,5.04,3.83s4.23-1.04,4.23-2.66c0-2.21-2.92-2.43-6.08-3.06-4.14-.81-8.19-1.94-8.19-6.97s4.14-7.38,9.4-7.38c6.08,0,9.45,3.01,9.9,7.65h-5.54c-.27-2.47-1.84-3.38-4.46-3.38-2.38,0-3.96.9-3.96,2.57,0,1.98,3.06,2.16,6.34,2.83,3.87.81,8.14,1.89,8.14,7.29,0,4.63-3.96,7.42-9.72,7.42-6.71,0-10.44-3.24-10.8-8.14Z"/>
      <path class="cls-4" d="M178.12,1726.19h3.2v-7.2h5.98v7.2h3.96v4.05h-3.96v12.24c0,1.71.95,2.29,2.29,2.29.77,0,1.8-.04,1.8-.04v4.5s-1.4.09-3.83.09c-2.97,0-6.25-1.17-6.25-5.54v-13.54h-3.2v-4.05Z"/>
      <path class="cls-4" d="M200.85,1737.75c0-7.2,4.1-12.19,9.86-12.19,3.24,0,5.26,1.48,6.52,3.42h.13v-11.88h6.12v32.17h-5.89v-3.01h-.09c-1.35,2.21-3.65,3.69-6.88,3.69-5.8,0-9.77-4.72-9.77-12.19ZM217.5,1737.88c0-4.41-1.44-7.38-5.36-7.38-3.38,0-5.08,2.97-5.08,7.25s1.75,7.06,4.9,7.06c3.64,0,5.54-2.7,5.54-6.93Z"/>
      <path class="cls-4" d="M242.02,1749.27v-2.7h-.13c-1.57,2.12-3.38,3.33-6.61,3.33-5.13,0-8.01-3.29-8.01-8.32v-15.39h6.08v14.35c0,2.7,1.21,4.18,3.82,4.18,2.88,0,4.63-2.16,4.63-5.22v-13.32h6.12v23.08h-5.9Z"/>
      <path class="cls-4" d="M258.31,1737.75c0-7.2,4.1-12.19,9.86-12.19,3.24,0,5.26,1.48,6.52,3.42h.13v-11.88h6.12v32.17h-5.89v-3.01h-.09c-1.35,2.21-3.65,3.69-6.88,3.69-5.8,0-9.77-4.72-9.77-12.19ZM274.96,1737.88c0-4.41-1.44-7.38-5.36-7.38-3.38,0-5.08,2.97-5.08,7.25s1.75,7.06,4.9,7.06c3.64,0,5.54-2.7,5.54-6.93Z"/>
      <path class="cls-4" d="M283.78,1737.7c0-6.84,4.63-12.15,11.38-12.15,7.42,0,11.38,5.67,11.38,13.9h-16.74c.45,3.55,2.43,5.76,5.89,5.76,2.38,0,3.78-1.08,4.46-2.83h6.03c-.85,4.09-4.5,7.56-10.44,7.56-7.65,0-11.97-5.35-11.97-12.24ZM289.9,1735.23h10.26c-.18-2.92-2.12-4.95-4.9-4.95-3.24,0-4.82,1.93-5.36,4.95Z"/>
      <path class="cls-4" d="M315.37,1729.33h.13c1.58-2.47,3.69-3.78,6.84-3.78,4.77,0,7.96,3.6,7.96,8.64v15.07h-6.12v-14.17c0-2.47-1.44-4.23-4-4.23-2.7,0-4.68,2.16-4.68,5.31v13.09h-6.12v-23.08h5.99v3.15Z"/>
      <path class="cls-4" d="M350.38,1738.74l-2.65,2.74v7.79h-6.07v-32.17h6.07v17.82l8.19-8.73h7.33l-8.5,8.77,9.54,14.31h-7.42l-6.48-10.53Z"/>
      <path class="cls-4" d="M380.13,1749.27v-2.7h-.13c-1.57,2.12-3.38,3.33-6.61,3.33-5.13,0-8.01-3.29-8.01-8.32v-15.39h6.08v14.35c0,2.7,1.21,4.18,3.82,4.18,2.88,0,4.63-2.16,4.63-5.22v-13.32h6.12v23.08h-5.9Z"/>
      <path class="cls-4" d="M395.88,1729.87h.14c1.39-2.61,2.97-3.96,5.67-3.96.67,0,1.08.05,1.44.18v5.35h-.13c-4.01-.41-6.88,1.71-6.88,6.57v11.25h-6.12v-23.08h5.89v3.69Z"/>
      <path class="cls-4" d="M405.01,1744.59l11.88-13.45v-.14h-10.53v-4.81h17.64v4.9l-11.61,13.14v.13h12.2v4.91h-19.57v-4.68Z"/>
      <path class="cls-4" d="M425.8,1737.7c0-6.84,4.63-12.15,11.38-12.15,7.42,0,11.38,5.67,11.38,13.9h-16.74c.45,3.55,2.43,5.76,5.89,5.76,2.38,0,3.78-1.08,4.46-2.83h6.03c-.85,4.09-4.5,7.56-10.44,7.56-7.65,0-11.97-5.35-11.97-12.24ZM431.92,1735.23h10.26c-.18-2.92-2.12-4.95-4.9-4.95-3.24,0-4.82,1.93-5.36,4.95Z"/>
      <path class="cls-4" d="M457.39,1729.33h.13c1.58-2.47,3.69-3.78,6.84-3.78,4.77,0,7.96,3.6,7.96,8.64v15.07h-6.12v-14.17c0-2.47-1.44-4.23-4-4.23-2.7,0-4.68,2.16-4.68,5.31v13.09h-6.12v-23.08h5.99v3.15Z"/>
      <path class="cls-4" d="M482.55,1737.75c0-6.88,4.9-12.19,12.06-12.19s12.06,5.31,12.06,12.19-4.91,12.19-12.06,12.19-12.06-5.31-12.06-12.19ZM500.45,1737.75c0-4.5-2.11-7.56-5.85-7.56s-5.85,3.06-5.85,7.56,2.07,7.51,5.85,7.51,5.85-3.01,5.85-7.51Z"/>
      <path class="cls-4" d="M508.38,1737.75c0-7.2,4.09-12.19,9.85-12.19,3.24,0,5.26,1.48,6.53,3.42h.13v-11.88h6.12v32.17h-5.89v-3.01h-.09c-1.35,2.21-3.64,3.69-6.88,3.69-5.8,0-9.76-4.72-9.76-12.19ZM525.02,1737.88c0-4.41-1.44-7.38-5.36-7.38-3.38,0-5.08,2.97-5.08,7.25s1.75,7.06,4.9,7.06c3.64,0,5.54-2.7,5.54-6.93Z"/>
      <path class="cls-4" d="M533.84,1737.7c0-6.84,4.63-12.15,11.38-12.15,7.42,0,11.38,5.67,11.38,13.9h-16.74c.45,3.55,2.43,5.76,5.89,5.76,2.39,0,3.78-1.08,4.46-2.83h6.03c-.85,4.09-4.5,7.56-10.44,7.56-7.65,0-11.97-5.35-11.97-12.24ZM539.96,1735.23h10.26c-.18-2.92-2.12-4.95-4.9-4.95-3.24,0-4.81,1.93-5.36,4.95Z"/>
      <path class="cls-4" d="M565.34,1729.87h.14c1.39-2.61,2.97-3.96,5.67-3.96.67,0,1.08.05,1.44.18v5.35h-.13c-4.01-.41-6.88,1.71-6.88,6.57v11.25h-6.12v-23.08h5.89v3.69Z"/>
      <path class="cls-4" d="M581.68,1737.75c0-7.2,4.1-12.19,9.86-12.19,3.24,0,5.26,1.48,6.52,3.42h.14v-11.88h6.12v32.17h-5.89v-3.01h-.09c-1.35,2.21-3.64,3.69-6.88,3.69-5.8,0-9.77-4.72-9.77-12.19ZM598.33,1737.88c0-4.41-1.44-7.38-5.36-7.38-3.38,0-5.08,2.97-5.08,7.25s1.75,7.06,4.9,7.06c3.64,0,5.54-2.7,5.54-6.93Z"/>
      <path class="cls-4" d="M607.15,1737.7c0-6.84,4.63-12.15,11.38-12.15,7.42,0,11.38,5.67,11.38,13.9h-16.74c.45,3.55,2.43,5.76,5.89,5.76,2.38,0,3.78-1.08,4.46-2.83h6.03c-.85,4.09-4.5,7.56-10.44,7.56-7.65,0-11.97-5.35-11.97-12.24ZM613.27,1735.23h10.26c-.18-2.92-2.12-4.95-4.9-4.95-3.24,0-4.81,1.93-5.36,4.95Z"/>
      <path class="cls-4" d="M638.74,1729.33h.13c1.57-2.47,3.69-3.78,6.84-3.78,4.77,0,7.96,3.6,7.96,8.64v15.07h-6.12v-14.17c0-2.47-1.44-4.23-4-4.23-2.7,0-4.68,2.16-4.68,5.31v13.09h-6.12v-23.08h5.99v3.15Z"/>
      <path class="cls-4" d="M663.58,1741.8h5.67c.4,2.66,2.29,3.83,5.04,3.83s4.23-1.04,4.23-2.66c0-2.21-2.93-2.43-6.08-3.06-4.14-.81-8.19-1.94-8.19-6.97s4.14-7.38,9.4-7.38c6.08,0,9.45,3.01,9.9,7.65h-5.54c-.27-2.47-1.84-3.38-4.46-3.38-2.38,0-3.96.9-3.96,2.57,0,1.98,3.06,2.16,6.34,2.83,3.87.81,8.15,1.89,8.15,7.29,0,4.63-3.96,7.42-9.72,7.42-6.71,0-10.44-3.24-10.8-8.14Z"/>
      <path class="cls-4" d="M686.84,1717.1h6.12v5.49h-6.12v-5.49ZM686.84,1726.19h6.12v23.08h-6.12v-23.08Z"/>
      <path class="cls-4" d="M695.8,1737.75c0-6.88,4.5-12.19,11.52-12.19,5.98,0,9.67,3.46,10.48,8.46h-5.98c-.4-2.03-1.98-3.56-4.23-3.56-3.69,0-5.58,2.83-5.58,7.29s1.76,7.29,5.49,7.29c2.47,0,4.23-1.31,4.63-3.92h5.89c-.4,4.9-4.23,8.82-10.39,8.82-7.29,0-11.83-5.31-11.83-12.19Z"/>
      <path class="cls-4" d="M726.8,1729.2h.13c1.67-2.43,3.55-3.64,6.71-3.64,4.77,0,7.96,3.6,7.96,8.64v15.07h-6.12v-14.17c0-2.47-1.44-4.23-4.01-4.23-2.7,0-4.68,2.16-4.68,5.31v13.09h-6.12v-32.17h6.12v12.1Z"/>
      <path class="cls-4" d="M744.26,1737.7c0-6.84,4.63-12.15,11.38-12.15,7.42,0,11.38,5.67,11.38,13.9h-16.74c.45,3.55,2.43,5.76,5.89,5.76,2.38,0,3.78-1.08,4.46-2.83h6.03c-.85,4.09-4.5,7.56-10.44,7.56-7.65,0-11.97-5.35-11.97-12.24ZM750.38,1735.23h10.26c-.18-2.92-2.12-4.95-4.9-4.95-3.24,0-4.81,1.93-5.36,4.95Z"/>
      <path class="cls-4" d="M775.76,1729.87h.13c1.39-2.61,2.97-3.96,5.67-3.96.67,0,1.08.05,1.44.18v5.35h-.13c-4.01-.41-6.88,1.71-6.88,6.57v11.25h-6.12v-23.08h5.9v3.69Z"/>
      <path class="cls-4" d="M783.86,1737.7c0-6.84,4.63-12.15,11.38-12.15,7.42,0,11.38,5.67,11.38,13.9h-16.74c.45,3.55,2.43,5.76,5.89,5.76,2.38,0,3.78-1.08,4.46-2.83h6.03c-.85,4.09-4.5,7.56-10.44,7.56-7.65,0-11.97-5.35-11.97-12.24ZM789.98,1735.23h10.26c-.18-2.92-2.12-4.95-4.9-4.95-3.24,0-4.81,1.93-5.36,4.95Z"/>
      <path class="cls-4" d="M815.45,1729.33h.13c1.57-2.47,3.69-3.78,6.84-3.78,4.77,0,7.96,3.6,7.96,8.64v15.07h-6.12v-14.17c0-2.47-1.44-4.23-4-4.23-2.7,0-4.68,2.16-4.68,5.31v13.09h-6.12v-23.08h5.99v3.15Z"/>
      <path class="cls-4" d="M839.98,1717.1h6.66l4.19,15.97c.63,2.75,1.39,7.02,1.39,7.02h.09s.81-4,1.48-6.84l3.51-16.15h6.3l3.51,16.11c.68,2.83,1.48,6.88,1.48,6.88h.09s.95-4.27,1.58-7.06l4.05-15.93h6.44l-9.18,32.17h-6.07l-3.92-17.23c-.54-2.34-1.12-5.71-1.12-5.71h-.09s-.49,3.38-1.04,5.71l-3.96,17.23h-6.03l-9.36-32.17Z"/>
      <path class="cls-4" d="M879.35,1737.7c0-6.84,4.64-12.15,11.38-12.15,7.43,0,11.38,5.67,11.38,13.9h-16.74c.45,3.55,2.43,5.76,5.89,5.76,2.38,0,3.78-1.08,4.46-2.83h6.03c-.86,4.09-4.5,7.56-10.44,7.56-7.65,0-11.97-5.35-11.97-12.24ZM885.47,1735.23h10.26c-.18-2.92-2.12-4.95-4.91-4.95-3.24,0-4.81,1.93-5.35,4.95Z"/>
      <path class="cls-4" d="M904.33,1749.94h6.08c.49,1.44,1.8,2.57,4.63,2.57,3.46,0,5.13-1.67,5.13-4.82v-2.52h-.13c-1.35,1.53-3.11,2.7-6.03,2.7-5.13,0-10.17-4.05-10.17-11.03s4.14-11.29,9.99-11.29c2.88,0,4.99,1.12,6.39,3.06h.09v-2.43h5.89v21.33c0,3.24-1.03,5.44-2.74,7.02-1.94,1.8-4.9,2.61-8.32,2.61-6.3,0-10.17-2.7-10.8-7.2ZM920.48,1736.71c0-3.38-1.8-6.25-5.49-6.25-3.11,0-5.18,2.43-5.18,6.3s2.07,6.21,5.22,6.21c3.87,0,5.44-2.83,5.44-6.25Z"/>
      <path class="cls-4" d="M941.54,1731.32c1.94-1.4,3.65-2.47,3.65-5.22s-2.03-4.41-4.77-4.41c-3.33,0-5.58,2.12-5.62,5.62h-5.8c.14-5.99,4.05-10.8,11.38-10.8,6.88,0,10.94,4.09,10.94,9.4,0,4.46-2.34,6.25-4.28,7.74-3.38,2.56-4.68,3.01-4.68,6.21h-5.49c0-5.26,1.94-6.57,4.68-8.55ZM936.32,1742.74h6.57v6.52h-6.57v-6.52Z"/>
      <path class="cls-10" d="M76.92,1784.1h5.17l10.44,26.73h.09l10.35-26.73h5.26v32.17h-3.87v-26.46h-.09s-.86,2.52-1.44,4.05l-8.82,22.41h-3.11l-8.82-22.41c-.63-1.62-1.44-4.05-1.44-4.05h-.09v26.46h-3.64v-32.17Z"/>
      <path class="cls-10" d="M112.43,1804.66c0-6.75,4.41-12.24,11.02-12.24,6.97,0,10.71,5.4,10.71,13.09h-18c.27,4.73,2.83,8.33,7.51,8.33,3.38,0,5.62-1.62,6.44-4.77h3.55c-1.08,5-4.72,7.83-9.99,7.83-7.11,0-11.25-5.49-11.25-12.24ZM116.25,1802.77h13.99c-.22-4.63-2.61-7.47-6.79-7.47s-6.66,3.24-7.2,7.47Z"/>
      <path class="cls-10" d="M141.36,1796.07h.09c1.66-2.21,4-3.6,7.38-3.6,4.86,0,7.83,2.65,7.83,7.47v16.33h-3.64v-16.02c0-3.01-1.98-4.72-5.27-4.72-3.69,0-6.39,2.61-6.39,6.43v14.31h-3.64v-32.17h3.64v11.97Z"/>
      <path class="cls-10" d="M165.12,1796.87h.09c1.39-2.25,3.82-4.14,6.93-4.14.67,0,1.04.09,1.48.27v3.51h-.13c-.54-.18-.9-.23-1.62-.23-3.6,0-6.75,2.7-6.75,7.07v12.91h-3.64v-23.26h3.64v3.87Z"/>
      <path class="cls-10" d="M198.33,1813.03h-.04c-1.4,1.8-3.78,3.69-7.74,3.69-4.41,0-7.88-2.07-7.88-6.48,0-5.49,4.32-6.62,10.12-7.52,3.29-.49,5.58-.81,5.58-3.33s-1.89-4.09-5.22-4.09c-3.78,0-5.67,1.62-5.8,5.13h-3.51c.13-4.5,3.11-7.88,9.27-7.88,4.95,0,8.6,1.84,8.6,7.38v11.07c0,1.89.45,2.92,2.47,2.47h.13v2.66c-.45.18-1.04.36-1.98.36-2.38,0-3.64-1.08-4-3.46ZM198.42,1807.67v-3.96c-1.21.77-3.33,1.35-5.31,1.71-3.64.67-6.57,1.3-6.57,4.72,0,3.11,2.43,3.78,4.82,3.78,4.86,0,7.06-3.55,7.06-6.25Z"/>
      <path class="cls-10" d="M207.15,1784.1h3.64v32.17h-3.64v-32.17Z"/>
      <path class="cls-10" d="M214.39,1808.71h3.73c.5,4.05,3.2,5.17,6.66,5.17,3.83,0,5.4-1.67,5.4-3.83,0-2.61-1.8-3.28-6.08-4.18-4.59-.95-8.68-1.89-8.68-6.97,0-3.87,2.97-6.39,8.37-6.39,5.76,0,8.6,2.75,9.13,7.29h-3.73c-.36-3.06-2.03-4.41-5.49-4.41s-4.68,1.48-4.68,3.33c0,2.52,2.25,3.01,6.25,3.82,4.68.95,8.59,1.98,8.59,7.33,0,4.68-3.82,7.06-9.18,7.06-6.39,0-9.94-3.01-10.3-8.23Z"/>
      <path class="cls-10" d="M243.24,1804.7c0-7.74,4.46-12.24,10.21-12.24,3.28,0,5.8,1.62,7.29,3.82h.09v-12.19h3.64v32.17h-3.64v-2.83h-.09c-1.76,2.25-3.92,3.51-7.2,3.51-6.34,0-10.3-4.77-10.3-12.24ZM261.06,1804.75c0-5.4-2.61-9.18-7.42-9.18-4.41,0-6.66,3.96-6.66,9.18s2.25,9.13,6.7,9.13c5.17,0,7.38-3.87,7.38-9.13Z"/>
      <path class="cls-10" d="M269.43,1784.1h3.64v4.5h-3.64v-4.5ZM269.43,1793.01h3.64v23.26h-3.64v-23.26Z"/>
      <path class="cls-10" d="M276.72,1804.66c0-6.75,4.41-12.24,11.02-12.24,6.98,0,10.71,5.4,10.71,13.09h-18c.27,4.73,2.84,8.33,7.52,8.33,3.38,0,5.62-1.62,6.43-4.77h3.56c-1.08,5-4.73,7.83-9.99,7.83-7.11,0-11.25-5.49-11.25-12.24ZM280.54,1802.77h14c-.23-4.63-2.61-7.47-6.79-7.47s-6.66,3.24-7.2,7.47Z"/>
      <path class="cls-10" d="M309.7,1784.1h4.05v13.68h17.19v-13.68h4.05v32.17h-4.05v-15.21h-17.19v15.21h-4.05v-32.17Z"/>
      <path class="cls-10" d="M354.75,1813.03h-.04c-1.4,1.8-3.78,3.69-7.74,3.69-4.41,0-7.88-2.07-7.88-6.48,0-5.49,4.32-6.62,10.12-7.52,3.28-.49,5.58-.81,5.58-3.33s-1.89-4.09-5.22-4.09c-3.78,0-5.67,1.62-5.8,5.13h-3.51c.13-4.5,3.11-7.88,9.27-7.88,4.95,0,8.59,1.84,8.59,7.38v11.07c0,1.89.45,2.92,2.47,2.47h.14v2.66c-.45.18-1.04.36-1.98.36-2.38,0-3.64-1.08-4-3.46ZM354.84,1807.67v-3.96c-1.21.77-3.33,1.35-5.31,1.71-3.64.67-6.57,1.3-6.57,4.72,0,3.11,2.43,3.78,4.82,3.78,4.86,0,7.06-3.55,7.06-6.25ZM344.08,1784.32h3.51v4.27h-3.51v-4.27ZM351.46,1784.32h3.51v4.27h-3.51v-4.27Z"/>
      <path class="cls-10" d="M363.57,1784.1h3.65v32.17h-3.65v-32.17Z"/>
      <path class="cls-10" d="M370.81,1793.01h3.2v-3.74c0-4,2.29-5.44,6.16-5.44.77,0,1.35.04,1.84.09v3.1c-.63-.04-.81-.04-1.17-.04-2.34,0-3.19.58-3.19,2.47v3.56h4.32v2.97h-4.32v20.29h-3.64v-20.29h-3.2v-2.97Z"/>
      <path class="cls-10" d="M383.59,1793.01h3.38v-7.33h3.64v7.33h4.5v2.97h-4.5v15.12c0,1.62.86,2.16,2.34,2.16.72,0,1.53-.18,1.94-.32h.13v3.15c-.86.18-1.84.31-2.92.31-2.97,0-5.13-1.21-5.13-4.5v-15.93h-3.38v-2.97Z"/>
      <path class="cls-10" d="M397.36,1804.66c0-6.75,4.41-12.24,11.03-12.24,6.97,0,10.71,5.4,10.71,13.09h-18c.27,4.73,2.83,8.33,7.51,8.33,3.38,0,5.62-1.62,6.43-4.77h3.56c-1.08,5-4.73,7.83-9.99,7.83-7.11,0-11.25-5.49-11.25-12.24ZM401.19,1802.77h14c-.23-4.63-2.61-7.47-6.79-7.47s-6.66,3.24-7.2,7.47Z"/>
      <path class="cls-10" d="M428.5,1804.7c0-7.74,4.46-12.24,10.21-12.24,3.28,0,5.8,1.62,7.29,3.82h.09v-12.19h3.64v32.17h-3.64v-2.83h-.09c-1.76,2.25-3.92,3.51-7.2,3.51-6.34,0-10.3-4.77-10.3-12.24ZM446.32,1804.75c0-5.4-2.61-9.18-7.42-9.18-4.41,0-6.66,3.96-6.66,9.18s2.25,9.13,6.7,9.13c5.17,0,7.38-3.87,7.38-9.13Z"/>
      <path class="cls-10" d="M453.38,1804.66c0-6.75,4.41-12.24,11.02-12.24,6.97,0,10.71,5.4,10.71,13.09h-18c.27,4.73,2.83,8.33,7.51,8.33,3.38,0,5.62-1.62,6.44-4.77h3.55c-1.08,5-4.72,7.83-9.99,7.83-7.11,0-11.25-5.49-11.25-12.24ZM457.21,1802.77h13.99c-.22-4.63-2.61-7.47-6.79-7.47s-6.66,3.24-7.2,7.47Z"/>
      <path class="cls-10" d="M482.32,1796.87h.09c1.39-2.25,3.82-4.14,6.93-4.14.67,0,1.04.09,1.48.27v3.51h-.13c-.54-.18-.9-.23-1.62-.23-3.6,0-6.75,2.7-6.75,7.07v12.91h-3.64v-23.26h3.64v3.87Z"/>
      <path class="cls-10" d="M501.8,1784.1h21.82v3.55h-17.77v10.04h14.8v3.42h-14.8v15.16h-4.05v-32.17Z"/>
      <path class="cls-10" d="M529.34,1796.87h.09c1.39-2.25,3.83-4.14,6.93-4.14.67,0,1.03.09,1.49.27v3.51h-.14c-.54-.18-.9-.23-1.62-.23-3.6,0-6.75,2.7-6.75,7.07v12.91h-3.64v-23.26h3.64v3.87Z"/>
      <path class="cls-10" d="M554.5,1813.03h-.04c-1.39,1.8-3.78,3.69-7.74,3.69-4.41,0-7.87-2.07-7.87-6.48,0-5.49,4.32-6.62,10.12-7.52,3.28-.49,5.58-.81,5.58-3.33s-1.89-4.09-5.22-4.09c-3.78,0-5.67,1.62-5.8,5.13h-3.51c.13-4.5,3.1-7.88,9.27-7.88,4.95,0,8.59,1.84,8.59,7.38v11.07c0,1.89.45,2.92,2.47,2.47h.14v2.66c-.45.18-1.04.36-1.98.36-2.38,0-3.65-1.08-4.01-3.46ZM554.59,1807.67v-3.96c-1.21.77-3.33,1.35-5.31,1.71-3.65.67-6.57,1.3-6.57,4.72,0,3.11,2.43,3.78,4.81,3.78,4.86,0,7.06-3.55,7.06-6.25Z"/>
      <path class="cls-10" d="M577.99,1816.27v-3.2h-.09c-1.67,2.25-3.64,3.74-7.02,3.74-4.77,0-7.83-2.88-7.83-7.69v-16.11h3.64v16.02c0,3.02,1.94,4.77,5.22,4.77,3.69,0,6.07-2.79,6.07-6.48v-14.31h3.64v23.26h-3.64Z"/>
      <path class="cls-10" d="M585.28,1804.66c0-6.75,4.41-12.24,11.02-12.24,6.97,0,10.71,5.4,10.71,13.09h-18c.27,4.73,2.83,8.33,7.52,8.33,3.37,0,5.62-1.62,6.43-4.77h3.55c-1.08,5-4.72,7.83-9.99,7.83-7.11,0-11.25-5.49-11.25-12.24ZM589.1,1802.77h13.99c-.22-4.63-2.61-7.47-6.79-7.47s-6.66,3.24-7.2,7.47Z"/>
      <path class="cls-10" d="M614.21,1796.07h.09c1.67-2.21,4.01-3.6,7.38-3.6,4.86,0,7.83,2.65,7.83,7.47v16.33h-3.64v-16.02c0-3.01-1.98-4.72-5.26-4.72-3.69,0-6.39,2.61-6.39,6.43v14.31h-3.64v-23.26h3.64v3.06Z"/>
      <path class="cls-10" d="M641.48,1793.01h3.65v3.33h.09c1.44-2.25,3.91-3.87,6.84-3.87s5.08,1.44,6.07,4.14h.09c1.48-2.66,4.28-4.14,7.11-4.14,4.14,0,7.06,2.65,7.06,7.47v16.33h-3.64v-16.15c0-2.88-1.94-4.59-4.28-4.59-3.01,0-5.71,2.61-5.71,6.25v14.49h-3.64v-16.15c0-2.88-1.62-4.59-4-4.59-2.84,0-5.98,2.61-5.98,6.25v14.49h-3.65v-23.26Z"/>
      <path class="cls-10" d="M675.91,1804.66c0-6.75,4.41-12.24,11.02-12.24,6.97,0,10.71,5.4,10.71,13.09h-18c.27,4.73,2.83,8.33,7.52,8.33,3.37,0,5.62-1.62,6.43-4.77h3.55c-1.08,5-4.72,7.83-9.99,7.83-7.11,0-11.25-5.49-11.25-12.24ZM679.73,1802.77h13.99c-.22-4.63-2.61-7.47-6.79-7.47s-6.66,3.24-7.2,7.47Z"/>
      <path class="cls-10" d="M701.2,1784.1h3.64v4.5h-3.64v-4.5ZM701.2,1793.01h3.64v23.26h-3.64v-23.26Z"/>
      <path class="cls-10" d="M708.49,1804.7c0-7.74,4.46-12.24,10.21-12.24,3.29,0,5.8,1.62,7.29,3.82h.09v-12.19h3.64v32.17h-3.64v-2.83h-.09c-1.75,2.25-3.91,3.51-7.2,3.51-6.34,0-10.3-4.77-10.3-12.24ZM726.31,1804.75c0-5.4-2.61-9.18-7.43-9.18-4.41,0-6.66,3.96-6.66,9.18s2.25,9.13,6.7,9.13c5.18,0,7.38-3.87,7.38-9.13Z"/>
      <path class="cls-10" d="M733.37,1804.66c0-6.75,4.41-12.24,11.03-12.24,6.97,0,10.71,5.4,10.71,13.09h-18c.27,4.73,2.83,8.33,7.51,8.33,3.38,0,5.62-1.62,6.44-4.77h3.55c-1.08,5-4.72,7.83-9.99,7.83-7.11,0-11.25-5.49-11.25-12.24ZM737.2,1802.77h13.99c-.22-4.63-2.61-7.47-6.79-7.47s-6.66,3.24-7.2,7.47Z"/>
      <path class="cls-10" d="M756.73,1793.01h3.38v-7.33h3.64v7.33h4.5v2.97h-4.5v15.12c0,1.62.86,2.16,2.34,2.16.72,0,1.53-.18,1.94-.32h.13v3.15c-.86.18-1.85.31-2.93.31-2.97,0-5.13-1.21-5.13-4.5v-15.93h-3.38v-2.97Z"/>
      <path class="cls-10" d="M782.83,1796.07h.09c1.67-2.21,4.01-3.6,7.38-3.6,4.86,0,7.83,2.65,7.83,7.47v16.33h-3.64v-16.02c0-3.01-1.98-4.72-5.26-4.72-3.69,0-6.39,2.61-6.39,6.43v14.31h-3.64v-23.26h3.64v3.06Z"/>
      <path class="cls-10" d="M817.2,1813.03h-.04c-1.39,1.8-3.78,3.69-7.74,3.69-4.41,0-7.88-2.07-7.88-6.48,0-5.49,4.32-6.62,10.12-7.52,3.29-.49,5.58-.81,5.58-3.33s-1.89-4.09-5.22-4.09c-3.78,0-5.67,1.62-5.8,5.13h-3.51c.13-4.5,3.1-7.88,9.27-7.88,4.95,0,8.59,1.84,8.59,7.38v11.07c0,1.89.45,2.92,2.47,2.47h.13v2.66c-.45.18-1.03.36-1.98.36-2.38,0-3.64-1.08-4.01-3.46ZM817.29,1807.67v-3.96c-1.21.77-3.33,1.35-5.31,1.71-3.64.67-6.57,1.3-6.57,4.72,0,3.11,2.43,3.78,4.81,3.78,4.86,0,7.06-3.55,7.06-6.25Z"/>
      <path class="cls-10" d="M824.59,1804.66c0-6.75,4.32-12.24,11.25-12.24,5.49,0,9.13,3.15,9.95,8.1h-3.69c-.54-3.15-2.74-5.08-6.25-5.08-4.95,0-7.51,4.09-7.51,9.22s2.56,9.18,7.51,9.18c3.78,0,6.03-2.16,6.35-5.76h3.6c-.5,5.58-4.14,8.82-9.95,8.82-6.93,0-11.25-5.49-11.25-12.24Z"/>
      <path class="cls-10" d="M852.89,1796.07h.09c1.67-2.21,4.01-3.6,7.38-3.6,4.86,0,7.83,2.65,7.83,7.47v16.33h-3.64v-16.02c0-3.01-1.98-4.72-5.26-4.72-3.69,0-6.39,2.61-6.39,6.43v14.31h-3.64v-32.17h3.64v11.97Z"/>
      <path class="cls-10" d="M871.07,1793.01h3.38v-7.33h3.64v7.33h4.5v2.97h-4.5v15.12c0,1.62.86,2.16,2.34,2.16.72,0,1.53-.18,1.94-.32h.13v3.15c-.86.18-1.85.31-2.93.31-2.97,0-5.13-1.21-5.13-4.5v-15.93h-3.38v-2.97Z"/>
      <path class="cls-10" d="M884.88,1808.71h3.73c.5,4.05,3.2,5.17,6.66,5.17,3.82,0,5.4-1.67,5.4-3.83,0-2.61-1.8-3.28-6.07-4.18-4.59-.95-8.69-1.89-8.69-6.97,0-3.87,2.97-6.39,8.37-6.39,5.76,0,8.6,2.75,9.13,7.29h-3.73c-.36-3.06-2.03-4.41-5.49-4.41s-4.68,1.48-4.68,3.33c0,2.52,2.25,3.01,6.26,3.82,4.68.95,8.59,1.98,8.59,7.33,0,4.68-3.82,7.06-9.18,7.06-6.39,0-9.95-3.01-10.3-8.23Z"/>
      <path class="cls-10" d="M80.12,1870.21h-.09v3.06h-3.64v-32.17h3.64v12.24h.09c1.75-2.38,4.09-3.87,7.47-3.87,5.9,0,9.9,4.5,9.9,12.24s-3.73,12.24-10.04,12.24c-3.15,0-5.44-1.12-7.33-3.73ZM93.75,1861.75c0-5.22-2.12-9.18-6.53-9.18-5.08,0-7.42,4.14-7.42,9.18s2.43,9.13,7.38,9.13c4.46,0,6.57-3.87,6.57-9.13Z"/>
      <path class="cls-10" d="M99.83,1861.66c0-6.75,4.41-12.24,11.03-12.24,6.97,0,10.71,5.4,10.71,13.09h-18c.27,4.73,2.83,8.33,7.51,8.33,3.38,0,5.62-1.62,6.43-4.77h3.56c-1.08,5-4.73,7.83-9.99,7.83-7.11,0-11.25-5.49-11.25-12.24ZM103.65,1859.77h14c-.23-4.63-2.61-7.47-6.79-7.47s-6.66,3.24-7.2,7.47Z"/>
      <path class="cls-10" d="M123.63,1865.71h3.73c.5,4.05,3.2,5.17,6.66,5.17,3.83,0,5.4-1.67,5.4-3.83,0-2.61-1.8-3.28-6.08-4.18-4.59-.95-8.68-1.89-8.68-6.97,0-3.87,2.97-6.39,8.37-6.39,5.76,0,8.6,2.75,9.13,7.29h-3.73c-.36-3.06-2.03-4.41-5.49-4.41s-4.68,1.48-4.68,3.33c0,2.52,2.25,3.01,6.25,3.82,4.68.95,8.59,1.98,8.59,7.33,0,4.68-3.82,7.06-9.18,7.06-6.39,0-9.94-3.01-10.3-8.23Z"/>
      <path class="cls-10" d="M144.69,1850.01h3.38v-7.33h3.64v7.33h4.5v2.97h-4.5v15.12c0,1.62.86,2.16,2.34,2.16.72,0,1.53-.18,1.94-.32h.13v3.15c-.86.18-1.85.31-2.93.31-2.97,0-5.13-1.21-5.13-4.5v-15.93h-3.38v-2.97Z"/>
      <path class="cls-10" d="M159.99,1841.1h3.64v4.5h-3.64v-4.5ZM159.99,1850.01h3.64v23.26h-3.64v-23.26Z"/>
      <path class="cls-10" d="M168.59,1850.01h3.64v3.33h.09c1.44-2.25,3.91-3.87,6.84-3.87s5.08,1.44,6.07,4.14h.09c1.49-2.66,4.28-4.14,7.11-4.14,4.14,0,7.07,2.65,7.07,7.47v16.33h-3.65v-16.15c0-2.88-1.93-4.59-4.27-4.59-3.01,0-5.71,2.61-5.71,6.25v14.49h-3.65v-16.15c0-2.88-1.62-4.59-4-4.59-2.83,0-5.98,2.61-5.98,6.25v14.49h-3.64v-23.26Z"/>
      <path class="cls-10" d="M204.31,1850.01h3.64v3.33h.09c1.44-2.25,3.92-3.87,6.84-3.87s5.09,1.44,6.08,4.14h.09c1.48-2.66,4.27-4.14,7.11-4.14,4.14,0,7.06,2.65,7.06,7.47v16.33h-3.64v-16.15c0-2.88-1.94-4.59-4.28-4.59-3.01,0-5.71,2.61-5.71,6.25v14.49h-3.64v-16.15c0-2.88-1.62-4.59-4-4.59-2.83,0-5.99,2.61-5.99,6.25v14.49h-3.64v-23.26Z"/>
      <path class="cls-10" d="M238.11,1850.01h3.38v-7.33h3.64v7.33h4.5v2.97h-4.5v15.12c0,1.62.86,2.16,2.34,2.16.72,0,1.53-.18,1.94-.32h.13v3.15c-.86.18-1.84.31-2.92.31-2.97,0-5.13-1.21-5.13-4.5v-15.93h-3.38v-2.97Z"/>
      <path class="cls-10" d="M251.88,1861.66c0-6.75,4.41-12.24,11.03-12.24,6.97,0,10.71,5.4,10.71,13.09h-18c.27,4.73,2.83,8.33,7.51,8.33,3.38,0,5.62-1.62,6.43-4.77h3.56c-1.08,5-4.73,7.83-9.99,7.83-7.11,0-11.25-5.49-11.25-12.24ZM255.7,1859.77h14c-.23-4.63-2.61-7.47-6.79-7.47s-6.66,3.24-7.2,7.47Z"/>
      <path class="cls-10" d="M283.65,1857.16c0-9.63,6.03-16.78,15.75-16.78s15.75,7.15,15.75,16.78-6.03,16.78-15.75,16.78-15.75-7.15-15.75-16.78ZM311.01,1857.16c0-7.56-4.05-13.27-11.61-13.27s-11.61,5.71-11.61,13.27,4.05,13.23,11.61,13.23,11.61-5.67,11.61-13.23Z"/>
      <path class="cls-10" d="M323.07,1853.87h.09c1.39-2.25,3.83-4.14,6.93-4.14.68,0,1.04.09,1.49.27v3.51h-.14c-.54-.18-.9-.23-1.62-.23-3.6,0-6.75,2.7-6.75,7.07v12.91h-3.64v-23.26h3.64v3.87Z"/>
      <path class="cls-10" d="M333.37,1850.01h3.38v-7.33h3.64v7.33h4.5v2.97h-4.5v15.12c0,1.62.86,2.16,2.34,2.16.72,0,1.53-.18,1.94-.32h.13v3.15c-.86.18-1.84.31-2.92.31-2.97,0-5.13-1.21-5.13-4.5v-15.93h-3.38v-2.97Z"/>
      <path class="cls-10" d="M347.14,1861.66c0-6.75,4.41-12.24,11.03-12.24,6.97,0,10.71,5.4,10.71,13.09h-18c.27,4.73,2.83,8.33,7.51,8.33,3.38,0,5.62-1.62,6.43-4.77h3.56c-1.08,5-4.73,7.83-9.99,7.83-7.11,0-11.25-5.49-11.25-12.24ZM350.97,1859.77h14c-.23-4.63-2.61-7.47-6.79-7.47s-6.66,3.24-7.2,7.47Z"/>
      <path class="cls-10" d="M378.28,1861.66c0-6.75,4.32-12.24,11.25-12.24s11.21,5.49,11.21,12.24-4.23,12.24-11.21,12.24-11.25-5.49-11.25-12.24ZM397,1861.66c0-5.13-2.52-9.22-7.47-9.22s-7.51,4.09-7.51,9.22,2.56,9.18,7.51,9.18,7.47-4.05,7.47-9.18Z"/>
      <path class="cls-10" d="M403.08,1861.7c0-7.74,4.46-12.24,10.21-12.24,3.28,0,5.8,1.62,7.29,3.82h.09v-12.19h3.64v32.17h-3.64v-2.83h-.09c-1.76,2.25-3.92,3.51-7.2,3.51-6.34,0-10.3-4.77-10.3-12.24ZM420.9,1861.75c0-5.4-2.61-9.18-7.42-9.18-4.41,0-6.66,3.96-6.66,9.18s2.25,9.13,6.7,9.13c5.17,0,7.38-3.87,7.38-9.13Z"/>
      <path class="cls-10" d="M427.96,1861.66c0-6.75,4.41-12.24,11.02-12.24,6.97,0,10.71,5.4,10.71,13.09h-18c.27,4.73,2.83,8.33,7.51,8.33,3.38,0,5.62-1.62,6.44-4.77h3.55c-1.08,5-4.72,7.83-9.99,7.83-7.11,0-11.25-5.49-11.25-12.24ZM431.79,1859.77h13.99c-.22-4.63-2.61-7.47-6.79-7.47s-6.66,3.24-7.2,7.47Z"/>
      <path class="cls-10" d="M456.9,1853.87h.09c1.39-2.25,3.82-4.14,6.93-4.14.67,0,1.04.09,1.48.27v3.51h-.13c-.54-.18-.9-.23-1.62-.23-3.6,0-6.75,2.7-6.75,7.07v12.91h-3.64v-23.26h3.64v3.87Z"/>
      <path class="cls-10" d="M473.82,1841.1h4.36l7.92,23.94c.5,1.48,1.26,4.32,1.26,4.32h.09s.76-2.88,1.26-4.32l7.83-23.94h4.23l-11.29,32.17h-4.46l-11.2-32.17Z"/>
      <path class="cls-10" d="M499.46,1861.66c0-6.75,4.41-12.24,11.02-12.24,6.97,0,10.71,5.4,10.71,13.09h-18c.27,4.73,2.83,8.33,7.51,8.33,3.38,0,5.62-1.62,6.44-4.77h3.55c-1.08,5-4.72,7.83-9.99,7.83-7.11,0-11.25-5.49-11.25-12.24ZM503.29,1859.77h13.99c-.22-4.63-2.61-7.47-6.79-7.47s-6.66,3.24-7.2,7.47Z"/>
      <path class="cls-10" d="M528.4,1853.87h.09c1.39-2.25,3.82-4.14,6.93-4.14.67,0,1.04.09,1.48.27v3.51h-.13c-.54-.18-.9-.23-1.62-.23-3.6,0-6.75,2.7-6.75,7.07v12.91h-3.64v-23.26h3.64v3.87Z"/>
      <path class="cls-10" d="M547.25,1860.71l-3.42,3.24v9.31h-3.64v-32.17h3.64v18.85l10.21-9.94h4.63l-8.91,8.37,9.99,14.89h-4.27l-8.24-12.55Z"/>
      <path class="cls-10" d="M559.54,1861.66c0-6.75,4.41-12.24,11.03-12.24,6.97,0,10.71,5.4,10.71,13.09h-18c.27,4.73,2.83,8.33,7.51,8.33,3.38,0,5.62-1.62,6.43-4.77h3.56c-1.08,5-4.73,7.83-9.99,7.83-7.11,0-11.25-5.49-11.25-12.24ZM563.36,1859.77h14c-.23-4.63-2.61-7.47-6.79-7.47s-6.66,3.24-7.2,7.47Z"/>
      <path class="cls-10" d="M588.47,1853.07h.09c1.66-2.21,4-3.6,7.38-3.6,4.86,0,7.83,2.65,7.83,7.47v16.33h-3.64v-16.02c0-3.01-1.98-4.72-5.27-4.72-3.69,0-6.39,2.61-6.39,6.43v14.31h-3.65v-32.17h3.65v11.97Z"/>
      <path class="cls-10" d="M612.23,1853.87h.09c1.39-2.25,3.82-4.14,6.93-4.14.67,0,1.04.09,1.48.27v3.51h-.13c-.54-.18-.9-.23-1.62-.23-3.6,0-6.75,2.7-6.75,7.07v12.91h-3.65v-23.26h3.65v3.87Z"/>
      <path class="cls-10" d="M622.54,1865.71h3.73c.49,4.05,3.2,5.17,6.66,5.17,3.82,0,5.4-1.67,5.4-3.83,0-2.61-1.8-3.28-6.07-4.18-4.59-.95-8.68-1.89-8.68-6.97,0-3.87,2.97-6.39,8.37-6.39,5.76,0,8.59,2.75,9.13,7.29h-3.74c-.36-3.06-2.02-4.41-5.49-4.41s-4.68,1.48-4.68,3.33c0,2.52,2.25,3.01,6.25,3.82,4.68.95,8.6,1.98,8.6,7.33,0,4.68-3.83,7.06-9.18,7.06-6.39,0-9.95-3.01-10.3-8.23Z"/>
      <path class="cls-10" d="M645.53,1850.01h3.64v3.33h.09c1.44-2.25,3.92-3.87,6.84-3.87s5.08,1.44,6.07,4.14h.09c1.49-2.66,4.28-4.14,7.11-4.14,4.14,0,7.06,2.65,7.06,7.47v16.33h-3.64v-16.15c0-2.88-1.94-4.59-4.28-4.59-3.02,0-5.71,2.61-5.71,6.25v14.49h-3.64v-16.15c0-2.88-1.62-4.59-4.01-4.59-2.83,0-5.98,2.61-5.98,6.25v14.49h-3.64v-23.26Z"/>
      <path class="cls-10" d="M681.26,1841.1h3.65v4.5h-3.65v-4.5ZM681.26,1850.01h3.65v23.26h-3.65v-23.26Z"/>
      <path class="cls-10" d="M688.37,1850.01h3.38v-7.33h3.64v7.33h4.5v2.97h-4.5v15.12c0,1.62.85,2.16,2.34,2.16.72,0,1.53-.18,1.93-.32h.14v3.15c-.86.18-1.85.31-2.93.31-2.97,0-5.13-1.21-5.13-4.5v-15.93h-3.38v-2.97Z"/>
      <path class="cls-10" d="M701.51,1850.01h3.38v-7.33h3.64v7.33h4.5v2.97h-4.5v15.12c0,1.62.86,2.16,2.34,2.16.72,0,1.53-.18,1.94-.32h.13v3.15c-.86.18-1.85.31-2.93.31-2.97,0-5.13-1.21-5.13-4.5v-15.93h-3.38v-2.97Z"/>
      <path class="cls-10" d="M715.28,1861.66c0-6.75,4.41-12.24,11.03-12.24,6.97,0,10.71,5.4,10.71,13.09h-18c.27,4.73,2.83,8.33,7.51,8.33,3.38,0,5.62-1.62,6.44-4.77h3.55c-1.08,5-4.72,7.83-9.99,7.83-7.11,0-11.25-5.49-11.25-12.24ZM719.11,1859.77h13.99c-.22-4.63-2.61-7.47-6.79-7.47s-6.66,3.24-7.2,7.47Z"/>
      <path class="cls-10" d="M740.71,1841.1h3.64v32.17h-3.64v-32.17Z"/>
      <path class="cls-10" d="M748.99,1877c.99-.36,2.02-1.21,2.02-3.73h-2.07v-4.46h4.37v4.59c0,3.29-1.75,5.13-4.32,5.62v-2.03Z"/>
      <path class="cls-10" d="M779.72,1873.27v-3.2h-.09c-1.67,2.25-3.64,3.74-7.02,3.74-4.77,0-7.83-2.88-7.83-7.69v-16.11h3.64v16.02c0,3.02,1.94,4.77,5.22,4.77,3.69,0,6.08-2.79,6.08-6.48v-14.31h3.64v23.26h-3.64Z"/>
      <path class="cls-10" d="M788.31,1850.01h3.65v3.33h.09c1.44-2.25,3.91-3.87,6.84-3.87s5.08,1.44,6.07,4.14h.09c1.48-2.66,4.28-4.14,7.11-4.14,4.14,0,7.06,2.65,7.06,7.47v16.33h-3.64v-16.15c0-2.88-1.94-4.59-4.28-4.59-3.01,0-5.71,2.61-5.71,6.25v14.49h-3.64v-16.15c0-2.88-1.62-4.59-4-4.59-2.84,0-5.98,2.61-5.98,6.25v14.49h-3.65v-23.26Z"/>
      <path class="cls-10" d="M829.71,1865.71h3.73c.5,4.05,3.2,5.17,6.66,5.17,3.82,0,5.4-1.67,5.4-3.83,0-2.61-1.8-3.28-6.07-4.18-4.59-.95-8.69-1.89-8.69-6.97,0-3.87,2.97-6.39,8.37-6.39,5.76,0,8.6,2.75,9.13,7.29h-3.73c-.36-3.06-2.03-4.41-5.49-4.41s-4.68,1.48-4.68,3.33c0,2.52,2.25,3.01,6.26,3.82,4.68.95,8.59,1.98,8.59,7.33,0,4.68-3.82,7.06-9.18,7.06-6.39,0-9.95-3.01-10.3-8.23Z"/>
      <path class="cls-10" d="M852.71,1841.1h3.65v4.5h-3.65v-4.5ZM852.71,1850.01h3.65v23.26h-3.65v-23.26Z"/>
      <path class="cls-10" d="M860,1861.66c0-6.75,4.32-12.24,11.25-12.24,5.49,0,9.13,3.15,9.94,8.1h-3.69c-.54-3.15-2.74-5.08-6.25-5.08-4.95,0-7.52,4.09-7.52,9.22s2.56,9.18,7.52,9.18c3.78,0,6.03-2.16,6.34-5.76h3.6c-.49,5.58-4.14,8.82-9.94,8.82-6.93,0-11.25-5.49-11.25-12.24Z"/>
      <path class="cls-10" d="M888.3,1853.07h.09c1.66-2.21,4-3.6,7.38-3.6,4.86,0,7.83,2.65,7.83,7.47v16.33h-3.64v-16.02c0-3.01-1.98-4.72-5.27-4.72-3.69,0-6.39,2.61-6.39,6.43v14.31h-3.65v-32.17h3.65v11.97Z"/>
      <path class="cls-10" d="M913.19,1850.01h3.91l4.81,14.76c.68,2.07,1.53,4.91,1.53,4.91h.09s.86-2.88,1.53-4.91l4.9-14.76h3.78l-8.37,23.26h-4.05l-8.14-23.26Z"/>
      <path class="cls-10" d="M934.56,1861.66c0-6.75,4.32-12.24,11.25-12.24s11.2,5.49,11.2,12.24-4.23,12.24-11.2,12.24-11.25-5.49-11.25-12.24ZM953.28,1861.66c0-5.13-2.52-9.22-7.47-9.22s-7.52,4.09-7.52,9.22,2.56,9.18,7.52,9.18,7.47-4.05,7.47-9.18Z"/>
      <path class="cls-10" d="M964.31,1853.87h.09c1.39-2.25,3.82-4.14,6.93-4.14.68,0,1.04.09,1.48.27v3.51h-.13c-.54-.18-.9-.23-1.62-.23-3.6,0-6.75,2.7-6.75,7.07v12.91h-3.64v-23.26h3.64v3.87Z"/>
      <path class="cls-10" d="M76.92,1898.1h4.05v15.97l15.84-15.97h5.08l-13,12.87,14.08,19.3h-4.72l-12.11-16.56-5.17,5.17v11.38h-4.05v-32.17Z"/>
      <path class="cls-10" d="M109.01,1910.87h.09c1.39-2.25,3.82-4.14,6.93-4.14.67,0,1.03.09,1.48.27v3.51h-.13c-.54-.18-.9-.23-1.62-.23-3.6,0-6.75,2.7-6.75,7.07v12.91h-3.64v-23.26h3.64v3.87Z"/>
      <path class="cls-10" d="M120.8,1898.1h3.64v4.5h-3.64v-4.5ZM120.8,1907.01h3.64v23.26h-3.64v-23.26Z"/>
      <path class="cls-10" d="M129.39,1907.01h3.64v3.33h.09c1.44-2.25,3.91-3.87,6.84-3.87s5.08,1.44,6.08,4.14h.09c1.48-2.66,4.28-4.14,7.11-4.14,4.14,0,7.06,2.65,7.06,7.47v16.33h-3.64v-16.15c0-2.88-1.93-4.59-4.28-4.59-3.01,0-5.71,2.61-5.71,6.25v14.49h-3.65v-16.15c0-2.88-1.62-4.59-4-4.59-2.84,0-5.99,2.61-5.99,6.25v14.49h-3.64v-23.26Z"/>
      <path class="cls-10" d="M165.12,1898.1h3.64v4.5h-3.64v-4.5ZM165.12,1907.01h3.64v23.26h-3.64v-23.26Z"/>
      <path class="cls-10" d="M177.36,1910.07h.09c1.66-2.21,4-3.6,7.38-3.6,4.86,0,7.83,2.65,7.83,7.47v16.33h-3.64v-16.02c0-3.01-1.98-4.72-5.27-4.72-3.69,0-6.39,2.61-6.39,6.43v14.31h-3.64v-23.26h3.64v3.06Z"/>
      <path class="cls-10" d="M211.74,1927.03h-.04c-1.4,1.8-3.78,3.69-7.74,3.69-4.41,0-7.88-2.07-7.88-6.48,0-5.49,4.32-6.62,10.12-7.52,3.29-.49,5.58-.81,5.58-3.33s-1.89-4.09-5.22-4.09c-3.78,0-5.67,1.62-5.8,5.13h-3.51c.13-4.5,3.11-7.88,9.27-7.88,4.95,0,8.6,1.84,8.6,7.38v11.07c0,1.89.45,2.92,2.47,2.47h.13v2.66c-.45.18-1.04.36-1.98.36-2.38,0-3.64-1.08-4-3.46ZM211.83,1921.67v-3.96c-1.21.77-3.33,1.35-5.31,1.71-3.64.67-6.57,1.3-6.57,4.72,0,3.11,2.43,3.78,4.82,3.78,4.86,0,7.06-3.55,7.06-6.25Z"/>
      <path class="cls-10" d="M220.56,1898.1h3.64v32.17h-3.64v-32.17Z"/>
      <path class="cls-10" d="M229.29,1898.1h3.64v4.5h-3.64v-4.5ZM229.29,1907.01h3.64v23.26h-3.64v-23.26Z"/>
      <path class="cls-10" d="M236.4,1907.01h3.38v-7.33h3.65v7.33h4.5v2.97h-4.5v15.12c0,1.62.85,2.16,2.34,2.16.72,0,1.53-.18,1.93-.32h.13v3.15c-.85.18-1.84.31-2.92.31-2.97,0-5.13-1.21-5.13-4.5v-15.93h-3.38v-2.97Z"/>
      <path class="cls-10" d="M265.96,1927.03h-.04c-1.39,1.8-3.78,3.69-7.74,3.69-4.41,0-7.87-2.07-7.87-6.48,0-5.49,4.32-6.62,10.12-7.52,3.28-.49,5.58-.81,5.58-3.33s-1.89-4.09-5.22-4.09c-3.78,0-5.67,1.62-5.8,5.13h-3.51c.13-4.5,3.1-7.88,9.27-7.88,4.95,0,8.59,1.84,8.59,7.38v11.07c0,1.89.45,2.92,2.47,2.47h.14v2.66c-.45.18-1.04.36-1.98.36-2.38,0-3.65-1.08-4.01-3.46ZM266.05,1921.67v-3.96c-1.21.77-3.33,1.35-5.31,1.71-3.65.67-6.57,1.3-6.57,4.72,0,3.11,2.43,3.78,4.81,3.78,4.86,0,7.06-3.55,7.06-6.25ZM255.3,1898.32h3.51v4.27h-3.51v-4.27ZM262.68,1898.32h3.51v4.27h-3.51v-4.27Z"/>
      <path class="cls-10" d="M272.71,1907.01h3.38v-7.33h3.65v7.33h4.5v2.97h-4.5v15.12c0,1.62.85,2.16,2.34,2.16.72,0,1.53-.18,1.93-.32h.13v3.15c-.85.18-1.84.31-2.92.31-2.97,0-5.13-1.21-5.13-4.5v-15.93h-3.38v-2.97Z"/>
      <path class="cls-10" d="M294.22,1927.39l12.96-17.05v-.13h-12.19v-3.19h17.28v2.16l-13.36,17.64v.13h13.86v3.33h-18.54v-2.88Z"/>
      <path class="cls-10" d="M331.17,1930.27v-3.2h-.09c-1.67,2.25-3.65,3.74-7.02,3.74-4.77,0-7.83-2.88-7.83-7.69v-16.11h3.64v16.02c0,3.02,1.94,4.77,5.22,4.77,3.69,0,6.08-2.79,6.08-6.48v-14.31h3.64v23.26h-3.64Z"/>
      <path class="cls-10" d="M345.43,1922.71h3.74c.5,4.05,3.19,5.17,6.66,5.17,3.83,0,5.4-1.67,5.4-3.83,0-2.61-1.8-3.28-6.07-4.18-4.59-.95-8.69-1.89-8.69-6.97,0-3.87,2.97-6.39,8.37-6.39,5.76,0,8.59,2.75,9.13,7.29h-3.74c-.36-3.06-2.02-4.41-5.49-4.41s-4.68,1.48-4.68,3.33c0,2.52,2.25,3.01,6.25,3.82,4.68.95,8.59,1.98,8.59,7.33,0,4.68-3.82,7.06-9.18,7.06-6.39,0-9.94-3.01-10.3-8.23Z"/>
      <path class="cls-10" d="M367.57,1918.66c0-6.75,4.32-12.24,11.25-12.24,5.49,0,9.13,3.15,9.94,8.1h-3.69c-.54-3.15-2.75-5.08-6.25-5.08-4.95,0-7.51,4.09-7.51,9.22s2.56,9.18,7.51,9.18c3.78,0,6.03-2.16,6.34-5.76h3.6c-.49,5.58-4.14,8.82-9.94,8.82-6.93,0-11.25-5.49-11.25-12.24Z"/>
      <path class="cls-10" d="M395.88,1910.07h.09c1.66-2.21,4-3.6,7.38-3.6,4.86,0,7.83,2.65,7.83,7.47v16.33h-3.64v-16.02c0-3.01-1.98-4.72-5.27-4.72-3.69,0-6.39,2.61-6.39,6.43v14.31h-3.64v-32.17h3.64v11.97Z"/>
      <path class="cls-10" d="M430.8,1930.27v-3.2h-.09c-1.67,2.25-3.65,3.74-7.02,3.74-4.77,0-7.83-2.88-7.83-7.69v-16.11h3.65v16.02c0,3.02,1.93,4.77,5.22,4.77,3.69,0,6.08-2.79,6.08-6.48v-14.31h3.65v23.26h-3.65ZM419.86,1898.32h3.51v4.27h-3.51v-4.27ZM427.24,1898.32h3.51v4.27h-3.51v-4.27Z"/>
      <path class="cls-10" d="M437.91,1907.01h3.38v-7.33h3.64v7.33h4.5v2.97h-4.5v15.12c0,1.62.86,2.16,2.34,2.16.72,0,1.53-.18,1.94-.32h.13v3.15c-.86.18-1.85.31-2.93.31-2.97,0-5.13-1.21-5.13-4.5v-15.93h-3.38v-2.97Z"/>
      <path class="cls-10" d="M452.26,1927.39l12.96-17.05v-.13h-12.19v-3.19h17.28v2.16l-13.36,17.64v.13h13.86v3.33h-18.54v-2.88Z"/>
      <path class="cls-10" d="M472.19,1918.66c0-6.75,4.41-12.24,11.03-12.24,6.97,0,10.71,5.4,10.71,13.09h-18c.27,4.73,2.83,8.33,7.51,8.33,3.38,0,5.62-1.62,6.43-4.77h3.56c-1.08,5-4.73,7.83-9.99,7.83-7.11,0-11.25-5.49-11.25-12.24ZM476.02,1916.77h14c-.23-4.63-2.61-7.47-6.79-7.47s-6.66,3.24-7.2,7.47Z"/>
      <path class="cls-10" d="M501.13,1910.07h.09c1.66-2.21,4-3.6,7.38-3.6,4.86,0,7.83,2.65,7.83,7.47v16.33h-3.64v-16.02c0-3.01-1.98-4.72-5.27-4.72-3.69,0-6.39,2.61-6.39,6.43v14.31h-3.64v-23.26h3.64v3.06Z"/>
      <path class="cls-10" d="M520.75,1925.81h4.37v4.46h-4.37v-4.46Z"/>
      <path class="cls-10" d="M528.35,1911.28c0-2.47,1.53-4.05,3.56-4.81v-.09c-1.67-.77-2.61-1.98-2.61-3.78,0-3.1,2.83-4.91,6.52-4.91s6.48,1.8,6.48,4.82c0,1.84-.9,3.1-2.57,3.82v.09c2.07.67,3.51,2.38,3.51,4.72,0,4-3.51,5.85-7.38,5.85s-7.51-1.8-7.51-5.71ZM539.96,1911.19c0-2.12-1.49-3.46-4.14-3.46s-4.14,1.35-4.14,3.46,1.53,3.29,4.14,3.29,4.14-1.31,4.14-3.29ZM539.2,1902.77c0-1.62-1.21-2.65-3.38-2.65s-3.38,1.03-3.38,2.65,1.17,2.7,3.38,2.7,3.38-1.08,3.38-2.7Z"/>
      <path class="cls-11" d="M165.26,2037.1h4.05v32.17h-4.05v-32.17Z"/>
      <path class="cls-11" d="M178.09,2049.07h.09c1.67-2.21,4-3.6,7.38-3.6,4.86,0,7.83,2.65,7.83,7.47v16.33h-3.64v-16.02c0-3.01-1.98-4.72-5.26-4.72-3.69,0-6.39,2.61-6.39,6.43v14.31h-3.64v-23.26h3.64v3.06Z"/>
      <path class="cls-11" d="M196.04,2046.01h3.2v-3.74c0-4,2.29-5.44,6.17-5.44.76,0,1.35.04,1.84.09v3.1c-.63-.04-.81-.04-1.17-.04-2.34,0-3.2.58-3.2,2.47v3.56h4.32v2.97h-4.32v20.29h-3.64v-20.29h-3.2v-2.97Z"/>
      <path class="cls-11" d="M208.33,2057.66c0-6.75,4.32-12.24,11.25-12.24s11.21,5.49,11.21,12.24-4.23,12.24-11.21,12.24-11.25-5.49-11.25-12.24ZM227.05,2057.66c0-5.13-2.52-9.22-7.47-9.22s-7.51,4.09-7.51,9.22,2.57,9.18,7.51,9.18,7.47-4.05,7.47-9.18Z"/>
      <path class="cls-11" d="M232.49,2061.71h3.74c.49,4.05,3.2,5.17,6.66,5.17,3.82,0,5.4-1.67,5.4-3.83,0-2.61-1.8-3.28-6.07-4.18-4.59-.95-8.68-1.89-8.68-6.97,0-3.87,2.97-6.39,8.37-6.39,5.76,0,8.59,2.75,9.13,7.29h-3.74c-.36-3.06-2.02-4.41-5.49-4.41s-4.68,1.48-4.68,3.33c0,2.52,2.25,3.01,6.25,3.82,4.68.95,8.59,1.98,8.59,7.33,0,4.68-3.83,7.06-9.18,7.06-6.39,0-9.94-3.01-10.3-8.23Z"/>
      <path class="cls-11" d="M260.8,2066.39l12.96-17.05v-.13h-12.2v-3.19h17.28v2.16l-13.36,17.64v.13h13.86v3.33h-18.54v-2.88Z"/>
      <path class="cls-11" d="M297.29,2069.27v-3.2h-.09c-1.67,2.25-3.65,3.74-7.02,3.74-4.77,0-7.83-2.88-7.83-7.69v-16.11h3.65v16.02c0,3.02,1.93,4.77,5.22,4.77,3.69,0,6.08-2.79,6.08-6.48v-14.31h3.65v23.26h-3.65Z"/>
      <path class="cls-11" d="M321.95,2037.1h4.54l11.88,32.17h-4.41l-3.42-9.81h-12.83l-3.46,9.81h-4.14l11.83-32.17ZM318.89,2056.17h10.53l-3.69-10.8c-.63-1.8-1.44-4.54-1.44-4.54h-.09s-.86,2.7-1.48,4.54l-3.83,10.8Z"/>
      <path class="cls-11" d="M344.49,2049.07h.09c1.67-2.21,4-3.6,7.38-3.6,4.86,0,7.83,2.65,7.83,7.47v16.33h-3.64v-16.02c0-3.01-1.98-4.72-5.26-4.72-3.69,0-6.39,2.61-6.39,6.43v14.31h-3.64v-23.26h3.64v3.06Z"/>
      <path class="cls-11" d="M363.57,2070.57h3.38c.36,2.57,2.79,3.55,6.39,3.55,4.27,0,6.66-1.93,6.66-5.98v-3.29h-.09c-1.71,2.21-3.55,3.6-6.88,3.6-6.03,0-10.17-4.82-10.17-11.52,0-7.25,4.54-11.47,9.94-11.47,3.38,0,5.54,1.3,7.11,3.51h.09v-2.97h3.64v22c0,6.12-4.05,9-10.21,9s-9.45-2.43-9.86-6.43ZM380.27,2056.76c0-5.08-2.16-8.23-7.11-8.23-4.36,0-6.57,3.42-6.57,8.46s2.29,8.41,6.61,8.41c5.35,0,7.07-3.73,7.07-8.64Z"/>
      <path class="cls-11" d="M386.66,2061.71h3.74c.49,4.05,3.2,5.17,6.66,5.17,3.82,0,5.4-1.67,5.4-3.83,0-2.61-1.8-3.28-6.07-4.18-4.59-.95-8.68-1.89-8.68-6.97,0-3.87,2.97-6.39,8.37-6.39,5.76,0,8.59,2.75,9.13,7.29h-3.74c-.36-3.06-2.02-4.41-5.49-4.41s-4.68,1.48-4.68,3.33c0,2.52,2.25,3.01,6.25,3.82,4.68.95,8.59,1.98,8.59,7.33,0,4.68-3.83,7.06-9.18,7.06-6.39,0-9.94-3.01-10.3-8.23Z"/>
      <path class="cls-11" d="M407.27,2046.01h3.38v-7.33h3.64v7.33h4.5v2.97h-4.5v15.12c0,1.62.86,2.16,2.34,2.16.72,0,1.53-.18,1.94-.32h.13v3.15c-.86.18-1.84.31-2.92.31-2.97,0-5.13-1.21-5.13-4.5v-15.93h-3.38v-2.97Z"/>
      <path class="cls-11" d="M425.76,2049.87h.09c1.39-2.25,3.83-4.14,6.93-4.14.68,0,1.04.09,1.49.27v3.51h-.14c-.54-.18-.9-.23-1.62-.23-3.6,0-6.75,2.7-6.75,7.07v12.91h-3.64v-23.26h3.64v3.87Z"/>
      <path class="cls-11" d="M450.47,2066.03h-.04c-1.4,1.8-3.78,3.69-7.74,3.69-4.41,0-7.88-2.07-7.88-6.48,0-5.49,4.32-6.62,10.12-7.52,3.29-.49,5.58-.81,5.58-3.33s-1.89-4.09-5.22-4.09c-3.78,0-5.67,1.62-5.8,5.13h-3.51c.13-4.5,3.11-7.88,9.27-7.88,4.95,0,8.6,1.84,8.6,7.38v11.07c0,1.89.45,2.92,2.47,2.47h.13v2.66c-.45.18-1.04.36-1.98.36-2.38,0-3.64-1.08-4-3.46ZM450.56,2060.67v-3.96c-1.21.77-3.33,1.35-5.31,1.71-3.64.67-6.57,1.3-6.57,4.72,0,3.11,2.43,3.78,4.82,3.78,4.86,0,7.06-3.55,7.06-6.25ZM439.8,2037.32h3.51v4.27h-3.51v-4.27ZM447.18,2037.32h3.51v4.27h-3.51v-4.27Z"/>
      <path class="cls-11" d="M473.51,2069.27v-3.2h-.09c-1.66,2.25-3.64,3.74-7.02,3.74-4.77,0-7.83-2.88-7.83-7.69v-16.11h3.65v16.02c0,3.02,1.93,4.77,5.22,4.77,3.69,0,6.07-2.79,6.07-6.48v-14.31h3.65v23.26h-3.65Z"/>
      <path class="cls-11" d="M481.65,2046.01h3.64v3.33h.09c1.44-2.25,3.91-3.87,6.84-3.87s5.08,1.44,6.08,4.14h.09c1.48-2.66,4.28-4.14,7.11-4.14,4.14,0,7.06,2.65,7.06,7.47v16.33h-3.64v-16.15c0-2.88-1.93-4.59-4.28-4.59-3.01,0-5.71,2.61-5.71,6.25v14.49h-3.65v-16.15c0-2.88-1.62-4.59-4-4.59-2.84,0-5.99,2.61-5.99,6.25v14.49h-3.64v-23.26Z"/>
      <path class="cls-11" d="M515.63,2057.66c0-6.75,4.41-12.24,11.03-12.24,6.97,0,10.71,5.4,10.71,13.09h-18c.27,4.73,2.83,8.33,7.51,8.33,3.38,0,5.62-1.62,6.43-4.77h3.56c-1.08,5-4.73,7.83-9.99,7.83-7.11,0-11.25-5.49-11.25-12.24ZM519.45,2055.77h14c-.23-4.63-2.61-7.47-6.79-7.47s-6.66,3.24-7.2,7.47Z"/>
      <path class="cls-11" d="M544.11,2049.07h.09c1.67-2.21,4-3.6,7.38-3.6,4.86,0,7.83,2.65,7.83,7.47v16.33h-3.64v-16.02c0-3.01-1.98-4.72-5.26-4.72-3.69,0-6.39,2.61-6.39,6.43v14.31h-3.64v-23.26h3.64v3.06Z"/>
      <path class="cls-11" d="M162.16,2075.7v-.9h399.6v.9H162.16Z"/>
    </g>
    <g class="cls-7">
      <g>
        <polyline class="cls-2" points="-38.49 1475.13 10.23 1633.29 10.23 1658.55"/>
        <polyline class="cls-2" points="-151.04 771.41 -106.77 832.47 837.72 670.03 1143.72 481.54"/>
        <polyline class="cls-2" points="837.72 670.03 870.51 770.1 972.81 938.95 977.47 1019.57 1025.29 1112.17 1023.11 1658.55"/>
        <polyline class="cls-2" points="1347.65 1127.86 1025.29 1453.34 974.63 1483.36 570.65 1479.72 216.2 1588.89 10.23 1617.49 -151.04 1617.49"/>
        <polyline class="cls-2" points="961.34 593.88 1100.5 724.24 1133.25 771.55 1198.76 806.49 1277.36 806.49 1347.65 770.1"/>
        <polyline class="cls-2" points="570.65 1479.72 570.65 1416.6 402.84 1418.32 171.29 1429.63 87.74 1446.96 -77.58 1483.85 -154.91 1490.07"/>
        <polyline class="cls-2" points="1124.22 758.5 1073.88 787.07 1002.24 746.84 912.4 839.24 747.21 990.25 760 1077.13 701.11 1104.04 602.91 1382.81 570.65 1416.6 430.44 1472.7 156.63 1525.96 -151.04 1583.27"/>
        <polyline class="cls-2" points="339.37 1550.95 295.02 1338.4 244.86 1208.91 120.74 606.12 -151.04 466.39"/>
        <polyline class="cls-2" points="625.23 901.47 600.35 957.13 555.15 979.12 556.77 995.01 634.54 1013.33 659.07 1076.46 612.13 1096.77 568.67 1054.42 528.92 1070.52 474.23 1064.85 459.9 1093.58 491.89 1118.71 473.93 1150.93 437.73 1169.01 405.92 1127.86 374.72 1129.03 346.78 1176.39 439.88 1238.49 473.99 1234.23 549.41 1139.86 595.69 1149.87 584.63 1200.99 543.13 1257.94 480.95 1301.36 406.79 1294.37 314.71 1230.19 249.21 1220.15 191.3 1273.47 131.75 1289.11 98.7 1408.15 106.9 1535.22 143.65 1573.83 140.31 1654.84"/>
        <polyline class="cls-2" points="464.87 939.13 476.66 991.26 400.87 1056.03 405.92 1127.86"/>
        <polyline class="cls-2" points="-154.91 1398.19 -106.77 1373.96 -28.77 1392.24 28.25 1368.57 41.44 1287.93 125.35 1186.44 309.64 1117.1 353.47 1056.03 389.92 954.69 886.01 842.5 912.4 839.24"/>
        <polyline class="cls-2" points="-151.04 1114.85 264.36 1075.88 373.28 1000.96"/>
        <polyline class="cls-2" points="-151.04 1227.58 -87.82 1289.11 -27.87 1262.38 4.8 1195.92 97.82 1140.34 107.71 992.75 74.78 801.25"/>
        <polyline class="cls-2" points="634.54 1013.33 690.02 1006.62 679.77 955.5 711.77 939.96 747.21 990.25"/>
        <polyline class="cls-2" points="-106.77 832.47 -19.04 905.81 93.74 930.49 869.66 751.72"/>
        <line class="cls-2" x1="-151.04" y1="771.41" x2="1347.65" y2="435.88"/>
        <line class="cls-2" x1="309.64" y1="975.15" x2="240.27" y2="683.8"/>
        <polyline class="cls-2" points="-154.91 975.15 107.71 992.75 209.07 1000.78 389.92 954.69 316.82 606.12 120.74 606.12"/>
        <line class="cls-2" x1="448.18" y1="637.26" x2="513.64" y2="926.71"/>
        <line class="cls-2" x1="625.23" y1="901.47" x2="581.84" y2="713.18"/>
        <polyline class="cls-2" points="677.54 588.71 819.44 1070.67 863.38 1142.35 904.81 1141.11 982.46 1300.75 934.13 1350.44 1024.07 1416.8"/>
        <polyline class="cls-2" points="656.54 1480.43 664.45 1419.22 940.84 1099.42 1096.79 1014.02 1347.65 814.17"/>
        <polyline class="cls-2" points="113.01 1356.59 195 1330.6 299.76 1361.13 350.1 1329.02 400.64 1363.12 532.82 1368.67 598.5 1293.8 759.24 1432.56 759.24 1658.55"/>
        <polyline class="cls-2" points="584.63 1200.99 888.88 1435.1 945.84 1658.55"/>
        <polyline class="cls-2" points="660.87 1348.6 972.81 938.95 1073.88 863.47 1116.99 894.33 1096.79 1014.02"/>
        <line class="cls-2" x1="584.61" y1="1309.64" x2="543.13" y2="1257.94"/>
        <polyline class="cls-2" points="787.35 1178.94 893.67 1267.73 1347.65 1070.3"/>
        <polyline class="cls-2" points="893.67 1267.73 812.12 1369.01 820.54 1658.55"/>
        <polyline class="cls-2" points="929.05 1190.95 1233.51 1053.1 1300.95 982.85 1347.65 967.92"/>
        <polyline class="cls-2" points="216.2 1588.89 236.32 1510.46 171.29 1429.63"/>
      </g>
    </g>
    
    
    
    
    
    <path class="cls-11" d="M117.38,2049.12l-20.94-18.69,3.34-4.24,27.71,25.37v.09l-27.71,25.37-3.34-4.15,20.94-18.78h-42.97v-4.96h42.97Z"/>
    <g class="cls-8">
      <path class="cls-13" d="M855.42,2065l232.74,417.88h-465.49l232.74-417.88M855.42,1951.97l-326.33,585.92h652.66l-326.33-585.92h0Z"/>
    </g>
  </g>
</svg>