<?xml version="1.0" encoding="UTF-8"?>
<svg id="Ebene_2" data-name="Ebene 2" xmlns="http://www.w3.org/2000/svg" xmlns:xlink="http://www.w3.org/1999/xlink" viewBox="0 0 1171 2533.5">
  <defs>
    <style>
      .cls-1, .cls-2, .cls-3 {
        fill: none;
      }

      .cls-4 {
        fill: #05141d;
      }

      .cls-5 {
        fill: #01141e;
      }

      .cls-6 {
        fill: #2b2b2a;
      }

      .cls-7 {
        clip-path: url(#clippath-1);
      }

      .cls-8 {
        clip-path: url(#clippath-2);
      }

      .cls-9 {
        fill: #fff;
      }

      .cls-2 {
        stroke: #c7c7c6;
        stroke-width: 21.54px;
      }

      .cls-2, .cls-3 {
        stroke-miterlimit: 10;
      }

      .cls-10 {
        fill: #03161d;
      }

      .cls-11 {
        fill: red;
      }

      .cls-3 {
        stroke: red;
        stroke-width: 21.64px;
      }

      .cls-12 {
        fill: #ededed;
      }

      .cls-13 {
        fill: #c7c7c6;
      }

      .cls-14 {
        clip-path: url(#clippath);
      }
    </style>
    <clipPath id="clippath">
      <rect class="cls-1" x="126.94" y="166.01" width="918.12" height="246.85"/>
    </clipPath>
    <clipPath id="clippath-1">
      <rect class="cls-1" x="0" y="183.04" width="1170" height="1460.65"/>
    </clipPath>
    <clipPath id="clippath-2">
      <rect class="cls-1" x="607.77" y="2026.69" width="562.23" height="506.81"/>
    </clipPath>
  </defs>
  <g id="Ebene_1-2" data-name="Ebene 1">
    <rect class="cls-9" x="1" y="0" width="1170" height="2533"/>
    <g class="cls-14">
      <path class="cls-11" d="M1039.83,340.24c2.83,0,5.23-2.4,5.23-5.23s-2.4-5.23-5.23-5.23-5.12,2.4-5.12,5.23,2.4,5.23,5.12,5.23M1018.68,339.91c2.83,0,6.98-1.09,8.94-3.92v-2.18c-.98.87-2.62,2.29-5.56,2.29-5.01,0-7.08-3.71-7.08-7.52v-40.22h12.75v-2.83h-12.75v-14.06h-2.94c-1.85,8.61-5.89,13.51-12.1,15.04v1.85h7.41v39.78c0,8.5,5.99,11.77,11.34,11.77M961.36,339.15c6.43-.33,13.73-.33,21.04,0v-2.07c-3.49-.44-7.3-1.53-7.3-6.43v-28.34c0-4.9,2.29-12.97,7.52-12.97,4.25,0,5.01,5.45,9.37,5.45,2.51,0,4.14-2.07,4.14-4.47,0-3.49-3.38-6.76-8.83-6.76-6.32,0-11.12,4.25-13.62,13.62h-.65l2.72-11.99c-.33-.98-.87-1.53-1.74-1.85-2.51,1.96-7.3,4.36-12.97,5.12v2.07c4.36-.33,6.43.22,6.43,3.71v36.4c0,4.9-2.94,5.99-6.1,6.43v2.07ZM933.67,285.64c9.37,0,14.28,8.39,12.97,22.34h-26.16c.11-14.93,4.58-22.34,13.19-22.34M939.01,337.41c-11.44,0-17.98-11.01-18.53-27.14h30.08c3.49,0,4.58-2.4,4.58-6.87,0-13.73-10.03-19.84-20.6-19.84-14.06,0-22.89,11.66-22.89,28.56,0,17.77,10.03,28.23,24.2,28.23,9.59,0,16.46-4.9,18.96-11.23h-2.51c-2.62,6.32-8.61,8.28-13.3,8.28M886.7,339.15c6.76-.54,13.84-.54,20.6,0v-2.07c-3.38-.44-6.43-1.53-6.43-6.43v-32.48c0-6.65,0-10.79.65-12.97-.44-.98-.98-1.53-1.85-1.85-3.6,2.4-7.3,4.25-12.53,5.12v2.07c3.81,0,6.1,2.83,6.1,7.63v32.48c0,4.9-3.05,5.99-6.54,6.43v2.07ZM896.29,273.87c2.72,0,5.12-2.29,5.12-5.12s-2.4-5.01-5.12-5.01-5.01,2.18-5.01,5.01,2.29,5.12,5.01,5.12M830.46,339.15c6.65-.33,13.3-.33,19.95,0v-2.07c-3.27-.65-6.21-1.53-6.21-6.43v-28.66c0-7.52,4.9-13.73,12.64-13.73s12.21,5.89,12.21,13.73v28.66c0,4.9-2.72,5.78-5.99,6.43v2.07c6.54-.33,13.19-.33,19.84,0v-2.07c-3.27-.44-6.21-1.53-6.21-6.43v-28.99c0-14.5-9.05-18.09-16.35-18.09-12.21,0-16.68,10.03-17.33,13.3h-.44l2.07-11.66c-.33-.98-.87-1.53-1.74-1.85-2.51,2.07-7.08,4.36-12.75,5.12v2.07c4.36-.33,6.43.22,6.43,3.71v36.4c0,4.9-2.72,5.99-6.1,6.43v2.07ZM802.89,338.17c-10.25,0-17.44-12.21-17.44-28.77s6.1-23.65,14.06-23.65c10.35,0,17.44,11.99,17.44,28.77s-5.99,23.65-14.06,23.65M801.36,340.35c12.53,0,23.98-9.7,23.98-28.45s-11.34-28.34-24.3-28.34-23.87,9.7-23.87,28.45,11.23,28.34,24.2,28.34M752.21,339.15c6.76-.54,13.84-.54,20.6,0v-2.07c-3.38-.44-6.43-1.53-6.43-6.43v-32.48c0-6.65,0-10.79.65-12.97-.44-.98-.98-1.53-1.85-1.85-3.6,2.4-7.3,4.25-12.53,5.12v2.07c3.81,0,6.1,2.83,6.1,7.63v32.48c0,4.9-3.05,5.99-6.54,6.43v2.07ZM761.8,273.87c2.72,0,5.12-2.29,5.12-5.12s-2.4-5.01-5.12-5.01-5.01,2.18-5.01,5.01,2.29,5.12,5.01,5.12M737.82,339.91c2.83,0,6.98-1.09,8.94-3.92v-2.18c-.98.87-2.62,2.29-5.56,2.29-5.01,0-7.08-3.71-7.08-7.52v-40.22h12.75v-2.83h-12.75v-14.06h-2.94c-1.85,8.61-5.89,13.51-12.1,15.04v1.85h7.41v39.78c0,8.5,5.99,11.77,11.33,11.77M685.62,308.09c16.89-16.24,21.69-20.93,28.12-21.47v-2.07c-5.01.33-12.64.33-19.62,0v2.07c11.23.54-4.36,15.48-14.39,23.21v-32.59c0-6.65,0-10.79.65-12.97-.44-.98-.98-1.53-1.85-1.85-3.6,2.4-7.3,4.25-12.53,5.12v2.07c3.81,0,6.1,2.83,6.1,7.63v53.41c0,4.9-3.05,5.99-6.54,6.43v2.07c6.76-.54,13.84-.54,20.6,0v-2.07c-3.38-.44-6.43-1.53-6.43-6.43v-18.2l14.82,17.87c6.43,7.63,12.42,10.14,19.07,10.14l2.72-2.07c-2.62,0-8.17-3.81-13.08-9.7l-17.66-20.6ZM610.96,339.15c6.65-.33,13.3-.33,19.95,0v-2.07c-3.27-.65-6.21-1.53-6.21-6.43v-28.66c0-7.52,4.9-13.73,12.64-13.73s12.21,5.89,12.21,13.73v28.66c0,4.9-2.72,5.78-5.99,6.43v2.07c6.54-.33,13.19-.33,19.84,0v-2.07c-3.27-.44-6.21-1.53-6.21-6.43v-28.99c0-14.5-9.05-18.09-16.35-18.09-12.21,0-16.68,10.03-17.33,13.3h-.44l2.07-11.66c-.33-.98-.87-1.53-1.74-1.85-2.51,2.07-7.08,4.36-12.75,5.12v2.07c4.36-.33,6.43.22,6.43,3.71v36.4c0,4.9-2.72,5.99-6.1,6.43v2.07ZM594.5,340.35c4.25-1.2,7.52-1.2,12.75-1.2v-2.07c-4.03-.87-6.21-2.07-6.21-7.74v-43.38c0-1.42-.33-2.07-2.18-1.74l-11.66,1.09v2.07c5.34.22,6.32,1.63,6.32,5.99v28.12c-.98,7.63-5.45,14.06-13.19,14.06s-12.42-6.65-12.42-14.06v-35.53c0-1.42-.76-1.85-2.18-1.74l-11.66,1.09v2.07c5.12.22,6.32,1.85,6.32,5.99v28.45c0,14.82,9.37,18.31,16.46,18.31,12.1,0,16.89-9.92,17.22-11.66h.54l-1.53,10.03c0,.98.65,1.53,1.42,1.85M543.71,263.08c-7.74,0-14.6,4.25-14.6,17.33v5.56c-1.31.54-3.92,1.09-6.1,1.09v2.07h6.1v41.53c0,4.9-3.05,5.99-6.54,6.43v2.07c6.76-.54,13.84-.54,21.8,0v-2.07c-4.58-.44-7.63-1.53-7.63-6.43v-41.53h11.99v-3.16h-11.99v-6.87c0-7.19.54-13.84,5.67-13.84,6.21,0,4.69,9.16,9.81,9.16,2.62,0,3.05-2.18,3.05-3.49,0-3.27-3.6-7.85-11.55-7.85M485.3,339.91c2.83,0,6.98-1.09,8.94-3.92v-2.18c-.98.87-2.62,2.29-5.56,2.29-5.01,0-7.08-3.71-7.08-7.52v-40.22h12.75v-2.83h-12.75v-14.06h-2.94c-1.85,8.61-5.89,13.51-12.1,15.04v1.85h7.41v39.78c0,8.5,5.99,11.77,11.33,11.77M436.36,337.19c-11.55,0-16.46-14.28-16.46-27.36,0-16.35,7.74-23.87,15.91-23.87,5.78,0,11.01,3.49,13.19,10.35v28.77c0,5.89-5.01,12.1-12.64,12.1M450.31,340.35c4.25-1.2,7.19-1.2,12.42-1.2v-2.07c-4.03-.87-6.1-2.07-6.1-7.74v-52.1c0-6.65,0-10.79.65-12.97-.33-.98-.98-1.53-1.85-1.85-3.6,2.4-7.3,4.25-12.53,5.12v2.07c3.81,0,6.1,2.83,6.1,7.63v13.19c-2.83-3.92-8.5-6.87-15.26-6.87-12.64,0-22.23,9.92-22.23,28.23s8.83,28.56,21.69,28.56c9.37,0,15.04-5.89,16.68-9.16h.54l-1.53,7.3c0,.98.65,1.53,1.42,1.85M379.9,336.21c-4.9,0-10.68-3.16-10.68-11.55,0-5.45,2.62-12.64,24.2-15.59v13.51c0,7.85-6.54,13.62-13.51,13.62M401.05,301.55c0-12.64-3.16-17.98-16.35-17.98s-21.69,6.21-21.47,13.62c0,3.05,1.42,5.01,4.58,5.01,9.37,0-1.74-16.35,14.5-16.35,9.92,0,11.12,6.21,11.12,16.02v4.9c-27.25,3.81-33.24,11.44-33.24,19.84,0,10.14,7.96,13.73,15.26,13.73,9.05,0,15.26-5.23,17.98-9.59h.76v1.63c0,4.58,1.96,7.96,7.19,7.96,1.63,0,3.6-.22,5.23-1.74v-1.96c-3.49.54-5.56-1.74-5.56-5.78v-29.32ZM346.33,339.91c2.83,0,6.98-1.09,8.94-3.92v-2.18c-.98.87-2.62,2.29-5.56,2.29-5.01,0-7.08-3.71-7.08-7.52v-40.22h12.75v-2.83h-12.75v-14.06h-2.94c-1.85,8.61-5.89,13.51-12.1,15.04v1.85h7.41v39.78c0,8.5,5.99,11.77,11.34,11.77M304.7,340.46c10.03,0,19.62-5.89,19.62-18.09,0-14.06-13.41-18.42-22.78-22.56-8.83-3.81-13.73-8.94-13.73-15.91s5.34-11.88,12.97-11.88c6.98,0,12.97,3.92,16.68,12.21h2.18l-.65-13.62h-2.18c-.54,1.53-1.74,1.85-3.05,1.85-3.49,0-6.43-2.72-13.41-2.72-12.53,0-19.29,8.17-19.29,17.11,0,10.25,8.5,16.78,19.07,21.36,7.19,3.05,16.57,7.74,16.57,17.11,0,6.87-4.9,12.64-14.17,12.64-10.03,0-16.35-6.54-19.4-14.06h-2.18l.87,15.26h2.51c0-1.74,1.74-3.05,3.16-3.05,2.83,0,8.5,4.36,17.22,4.36M229.5,285.64c9.37,0,14.28,8.39,12.97,22.34h-26.16c.11-14.93,4.58-22.34,13.19-22.34M234.84,337.41c-11.44,0-17.98-11.01-18.53-27.14h30.08c3.49,0,4.58-2.4,4.58-6.87,0-13.73-10.03-19.84-20.6-19.84-14.06,0-22.89,11.66-22.89,28.56,0,17.77,10.03,28.23,24.2,28.23,9.59,0,16.46-4.9,18.96-11.23h-2.51c-2.62,6.32-8.61,8.28-13.3,8.28M182.52,339.15c6.76-.54,13.84-.54,20.6,0v-2.07c-3.38-.44-6.43-1.53-6.43-6.43v-32.48c0-6.65,0-10.79.65-12.97-.44-.98-.98-1.53-1.85-1.85-3.6,2.4-7.3,4.25-12.53,5.12v2.07c3.81,0,6.1,2.83,6.1,7.63v32.48c0,4.9-3.05,5.99-6.54,6.43v2.07ZM192.12,273.87c2.72,0,5.12-2.29,5.12-5.12s-2.4-5.01-5.12-5.01-5.01,2.18-5.01,5.01,2.29,5.12,5.01,5.12M151.79,337.19c-11.55,0-16.46-14.28-16.46-27.36,0-16.35,7.74-23.87,15.91-23.87,5.78,0,11.01,3.49,13.19,10.35v28.77c0,5.89-5.01,12.1-12.64,12.1M165.74,340.35c4.25-1.2,7.19-1.2,12.42-1.2v-2.07c-4.03-.87-6.1-2.07-6.1-7.74v-52.1c0-6.65,0-10.79.65-12.97-.33-.98-.98-1.53-1.85-1.85-3.6,2.4-7.3,4.25-12.53,5.12v2.07c3.81,0,6.1,2.83,6.1,7.63v13.19c-2.83-3.92-8.5-6.87-15.26-6.87-12.64,0-22.23,9.92-22.23,28.23s8.83,28.56,21.69,28.56c9.37,0,15.04-5.89,16.68-9.16h.54l-1.53,7.3c0,.98.65,1.53,1.42,1.85"/>
      <path class="cls-6" d="M610.19,253.2c.44.44.76.44,1.42,0,3.81-3.38,5.89-8.39,5.89-12.64,0-3.71-2.07-7.08-5.67-7.08-2.83,0-5.01,1.85-5.01,5.23,0,2.83,2.29,4.58,4.36,4.58.87,0,1.09-.11,1.63-.22.22.33.22.76.22,1.09,0,2.94-1.85,6.32-3.49,7.96l.65,1.09ZM574.23,242.74c6.43-.33,13.73-.33,21.04,0v-2.07c-3.49-.44-7.3-1.53-7.3-6.43v-28.34c0-4.9,2.29-12.97,7.52-12.97,4.25,0,5.01,5.45,9.37,5.45,2.51,0,4.14-2.07,4.14-4.47,0-3.49-3.38-6.76-8.83-6.76-6.32,0-11.12,4.25-13.62,13.62h-.65l2.72-11.99c-.33-.98-.87-1.53-1.74-1.85-2.51,1.96-7.3,4.36-12.97,5.12v2.07c4.36-.33,6.43.22,6.43,3.71v36.4c0,4.9-2.94,5.99-6.1,6.43v2.07ZM546.11,241.75c-10.25,0-17.44-12.21-17.44-28.77s6.1-23.65,14.06-23.65c10.35,0,17.44,11.99,17.44,28.77s-5.99,23.65-14.06,23.65M544.58,243.93c12.53,0,23.98-9.7,23.98-28.45s-11.33-28.34-24.3-28.34-23.87,9.7-23.87,28.45,11.23,28.34,24.2,28.34M501.64,190.2c5.99.11,7.96,1.42,5.89,7.19l-10.46,32.26-11.34-32.26c-2.07-5.78-.87-7.08,4.58-7.19v-2.07h-21.25v2.07c4.14.11,6.32,1.42,8.28,7.19l16.24,45.34h1.42l15.26-45.34c2.07-5.78,4.58-7.08,10.14-7.19v-2.07h-18.75v2.07ZM407.58,242.74c6.43-.33,13.73-.33,21.04,0v-2.07c-3.49-.44-7.3-1.53-7.3-6.43v-28.34c0-4.9,2.29-12.97,7.52-12.97,4.25,0,5.01,5.45,9.37,5.45,2.51,0,4.14-2.07,4.14-4.47,0-3.49-3.38-6.76-8.83-6.76-6.32,0-11.12,4.25-13.62,13.62h-.65l2.72-11.99c-.33-.98-.87-1.53-1.74-1.85-2.51,1.96-7.3,4.36-12.97,5.12v2.07c4.36-.33,6.43.22,6.43,3.71v36.4c0,4.9-2.94,5.99-6.1,6.43v2.07ZM382.41,242.74c6.76-.54,13.84-.54,20.6,0v-2.07c-3.38-.44-6.43-1.53-6.43-6.43v-32.48c0-6.65,0-10.79.65-12.97-.44-.98-.98-1.53-1.85-1.85-3.6,2.4-7.3,4.25-12.53,5.12v2.07c3.81,0,6.1,2.83,6.1,7.63v32.48c0,4.9-3.05,5.99-6.54,6.43v2.07ZM392,177.45c2.72,0,5.12-2.29,5.12-5.12s-2.4-5.01-5.12-5.01-5.01,2.18-5.01,5.01,2.29,5.12,5.01,5.12M351.68,240.77c-11.55,0-16.46-14.28-16.46-27.36,0-16.35,7.74-23.87,15.91-23.87,5.78,0,11.01,3.49,13.19,10.35v28.77c0,5.89-5.01,12.1-12.64,12.1M365.63,243.93c4.25-1.2,7.19-1.2,12.42-1.2v-2.07c-4.03-.87-6.1-2.07-6.1-7.74v-52.1c0-6.65,0-10.79.65-12.97-.33-.98-.98-1.53-1.85-1.85-3.6,2.4-7.3,4.25-12.53,5.12v2.07c3.81,0,6.1,2.83,6.1,7.63v13.19c-2.83-3.92-8.5-6.87-15.26-6.87-12.64,0-22.23,9.92-22.23,28.23s8.83,28.56,21.69,28.56c9.37,0,15.04-5.89,16.68-9.16h.54l-1.53,7.3c0,.98.65,1.53,1.42,1.85M277.89,242.74c6.76-.54,13.84-.54,20.6,0v-2.07c-3.38-.44-6.43-1.53-6.43-6.43v-53.41c0-6.65,0-10.79.65-12.97-.44-.98-.98-1.53-1.85-1.85-3.6,2.4-7.3,4.25-12.53,5.12v2.07c3.81,0,6.1,2.83,6.1,7.63v53.41c0,4.9-3.05,5.99-6.54,6.43v2.07ZM254.02,242.74c6.76-.54,13.84-.54,20.6,0v-2.07c-3.38-.44-6.43-1.53-6.43-6.43v-53.41c0-6.65,0-10.79.65-12.97-.44-.98-.98-1.53-1.85-1.85-3.6,2.4-7.3,4.25-12.53,5.12v2.07c3.81,0,6.1,2.83,6.1,7.63v53.41c0,4.9-3.05,5.99-6.54,6.43v2.07ZM227.65,189.22c9.37,0,14.28,8.39,12.97,22.34h-26.16c.11-14.93,4.58-22.34,13.19-22.34M232.99,240.99c-11.44,0-17.98-11.01-18.53-27.14h30.08c3.49,0,4.58-2.4,4.58-6.87,0-13.73-10.03-19.84-20.6-19.84-14.06,0-22.89,11.66-22.89,28.56,0,17.77,10.03,28.23,24.2,28.23,9.59,0,16.46-4.9,18.96-11.23h-2.51c-2.62,6.32-8.61,8.28-13.3,8.28M192.33,243.5c2.83,0,6.98-1.09,8.94-3.92v-2.18c-.98.87-2.62,2.29-5.56,2.29-5.01,0-7.08-3.71-7.08-7.52v-40.22h12.75v-2.83h-12.75v-14.06h-2.94c-1.85,8.61-5.89,13.51-12.1,15.04v1.85h7.41v39.78c0,8.5,5.99,11.77,11.33,11.77M150.7,244.04c10.03,0,19.62-5.89,19.62-18.09,0-14.06-13.41-18.42-22.78-22.56-8.83-3.81-13.73-8.94-13.73-15.91s5.34-11.88,12.97-11.88c6.98,0,12.97,3.92,16.68,12.21h2.18l-.65-13.62h-2.18c-.54,1.53-1.74,1.85-3.05,1.85-3.49,0-6.43-2.72-13.41-2.72-12.53,0-19.29,8.17-19.29,17.11,0,10.25,8.5,16.78,19.07,21.36,7.19,3.05,16.57,7.74,16.57,17.11,0,6.87-4.9,12.64-14.17,12.64-10.03,0-16.35-6.54-19.4-14.06h-2.18l.87,15.26h2.51c0-1.74,1.74-3.05,3.16-3.05,2.83,0,8.5,4.36,17.22,4.36"/>
      <path class="cls-5" d="M936.96,407.09h3.25v-3.32h-3.25v3.32ZM925.59,391.96h2.52v11.87c0,2.45,1.61,3.35,3.82,3.35.8,0,1.54-.1,2.18-.23v-2.35h-.1c-.3.1-.91.23-1.44.23-1.11,0-1.74-.4-1.74-1.61v-11.27h3.35v-2.21h-3.35v-5.47h-2.72v5.47h-2.52v2.21ZM912.04,383.11h-2.72v23.98h2.72v-10.66c0-2.85,2.01-4.8,4.76-4.8,2.45,0,3.92,1.27,3.92,3.52v11.94h2.72v-12.17c0-3.59-2.21-5.57-5.84-5.57-2.52,0-4.26,1.04-5.5,2.68h-.07v-8.92ZM899.33,407.56c4.33,0,7.04-2.41,7.41-6.57h-2.68c-.23,2.68-1.91,4.29-4.73,4.29-3.69,0-5.6-3.02-5.6-6.84s1.91-6.87,5.6-6.87c2.62,0,4.26,1.44,4.66,3.79h2.75c-.6-3.69-3.32-6.04-7.41-6.04-5.16,0-8.38,4.09-8.38,9.12s3.22,9.12,8.38,9.12M885.52,386.46h2.72v-3.35h-2.72v3.35ZM885.52,407.09h2.72v-17.34h-2.72v17.34ZM870.53,389.75h-2.72v17.34h2.72v-10.66c0-2.85,2.01-4.8,4.76-4.8,2.45,0,3.92,1.27,3.92,3.52v11.94h2.72v-12.17c0-3.59-2.21-5.57-5.84-5.57-2.52,0-4.26,1.04-5.5,2.68h-.07v-2.28ZM851.85,391.46c3.12,0,4.9,2.11,5.06,5.57h-10.43c.4-3.15,2.15-5.57,5.37-5.57M852.01,407.56c3.92,0,6.64-2.11,7.44-5.84h-2.65c-.6,2.35-2.28,3.55-4.8,3.55-3.49,0-5.4-2.68-5.6-6.2h13.41c0-5.73-2.78-9.76-7.98-9.76-4.93,0-8.22,4.09-8.22,9.12s3.09,9.12,8.38,9.12M836.49,389.75h-2.72v17.34h2.72v-9.62c0-3.25,2.35-5.27,5.03-5.27.54,0,.8.03,1.21.17h.1v-2.62c-.34-.13-.6-.2-1.11-.2-2.31,0-4.12,1.41-5.16,3.09h-.07v-2.88ZM823.14,391.46c3.12,0,4.9,2.11,5.06,5.57h-10.43c.4-3.15,2.15-5.57,5.37-5.57M823.31,407.56c3.92,0,6.64-2.11,7.44-5.84h-2.65c-.6,2.35-2.28,3.55-4.8,3.55-3.49,0-5.4-2.68-5.6-6.2h13.41c0-5.73-2.78-9.76-7.98-9.76-4.93,0-8.22,4.09-8.22,9.12s3.09,9.12,8.38,9.12M804.16,405.31c-3.32,0-5-2.88-5-6.81s1.68-6.84,4.96-6.84c3.59,0,5.53,2.82,5.53,6.84s-1.64,6.81-5.5,6.81M804.06,407.59c2.45,0,4.06-.94,5.37-2.62h.07v2.11h2.72v-23.98h-2.72v9.09h-.07c-1.11-1.64-2.98-2.85-5.43-2.85-4.29,0-7.61,3.35-7.61,9.12s2.95,9.12,7.68,9.12M782.36,389.75h-2.72v17.34h2.72v-10.66c0-2.85,2.01-4.8,4.76-4.8,2.45,0,3.92,1.27,3.92,3.52v11.94h2.72v-12.17c0-3.59-2.21-5.57-5.84-5.57-2.52,0-4.26,1.04-5.5,2.68h-.07v-2.28ZM767.97,405.34c-1.78,0-3.59-.5-3.59-2.82,0-2.55,2.18-3.02,4.9-3.52,1.48-.27,3.05-.7,3.96-1.27v2.95c0,2.01-1.64,4.66-5.27,4.66M776.16,407.25c.7,0,1.14-.13,1.48-.27v-1.98h-.1c-1.51.34-1.84-.44-1.84-1.84v-8.25c0-4.12-2.72-5.5-6.41-5.5-4.59,0-6.81,2.52-6.91,5.87h2.62c.1-2.62,1.51-3.82,4.33-3.82,2.48,0,3.89,1.11,3.89,3.05s-1.71,2.11-4.16,2.48c-4.33.67-7.55,1.51-7.55,5.6,0,3.29,2.58,4.83,5.87,4.83,2.95,0,4.73-1.41,5.77-2.75h.03c.27,1.78,1.21,2.58,2.98,2.58M748.42,389.75h-2.72v17.34h2.72v-9.62c0-3.25,2.35-5.27,5.03-5.27.54,0,.8.03,1.21.17h.1v-2.62c-.34-.13-.6-.2-1.11-.2-2.31,0-4.12,1.41-5.16,3.09h-.07v-2.88ZM731.15,386.46h2.62v-3.19h-2.62v3.19ZM736.65,386.46h2.62v-3.19h-2.62v3.19ZM742.02,407.09v-17.34h-2.72v10.66c0,2.75-1.78,4.83-4.53,4.83-2.45,0-3.89-1.31-3.89-3.55v-11.94h-2.72v12.01c0,3.59,2.28,5.73,5.84,5.73,2.52,0,3.99-1.11,5.23-2.78h.07v2.38h2.72ZM710.46,407.09h3.02v-11.3h11.03v-2.55h-11.03v-7.48h13.25v-2.65h-16.26v23.98ZM692.32,407.09h3.25v-3.32h-3.25v3.32ZM692.69,401.29h2.55c.03-3.42.77-4.26,3.55-6.57,1.58-1.31,3.09-2.88,3.09-5.63,0-3.52-2.58-6.41-7.31-6.41-5.6,0-7.91,3.59-8.02,8.15h2.75c.1-3.42,1.71-5.73,5.16-5.73,2.95,0,4.53,1.88,4.53,4.02s-1.31,3.22-2.78,4.53c-2.55,2.25-3.49,3.96-3.52,7.65M673.17,383.11h-2.72v23.98h2.72v-10.66c0-2.85,2.01-4.8,4.76-4.8,2.45,0,3.92,1.27,3.92,3.52v11.94h2.72v-12.17c0-3.59-2.21-5.57-5.84-5.57-2.52,0-4.26,1.04-5.5,2.68h-.07v-8.92ZM660.46,407.56c4.33,0,7.04-2.41,7.41-6.57h-2.68c-.23,2.68-1.91,4.29-4.73,4.29-3.69,0-5.6-3.02-5.6-6.84s1.91-6.87,5.6-6.87c2.62,0,4.26,1.44,4.66,3.79h2.75c-.6-3.69-3.32-6.04-7.41-6.04-5.16,0-8.38,4.09-8.38,9.12s3.22,9.12,8.38,9.12M646.65,386.46h2.72v-3.35h-2.72v3.35ZM646.65,407.09h2.72v-17.34h-2.72v17.34ZM634.91,405.31c-3.32,0-5-2.88-5-6.81s1.68-6.84,4.96-6.84c3.59,0,5.53,2.82,5.53,6.84s-1.64,6.81-5.5,6.81M634.81,407.59c2.45,0,4.06-.94,5.37-2.62h.07v2.11h2.72v-23.98h-2.72v9.09h-.07c-1.11-1.64-2.98-2.85-5.43-2.85-4.29,0-7.61,3.35-7.61,9.12s2.95,9.12,7.68,9.12M613.98,389.75h-2.72v17.34h2.72v-9.62c0-3.25,2.35-5.27,5.03-5.27.54,0,.8.03,1.21.17h.1v-2.62c-.34-.13-.6-.2-1.11-.2-2.31,0-4.12,1.41-5.16,3.09h-.07v-2.88ZM596.71,386.46h2.62v-3.19h-2.62v3.19ZM602.21,386.46h2.62v-3.19h-2.62v3.19ZM607.58,407.09v-17.34h-2.72v10.66c0,2.75-1.78,4.83-4.53,4.83-2.45,0-3.89-1.31-3.89-3.55v-11.94h-2.72v12.01c0,3.59,2.28,5.73,5.84,5.73,2.52,0,3.99-1.11,5.23-2.78h.07v2.38h2.72ZM582.86,391.96h2.38v15.12h2.72v-15.12h3.22v-2.21h-3.22v-2.65c0-1.41.64-1.84,2.38-1.84.27,0,.4,0,.87.03v-2.31c-.37-.03-.8-.07-1.37-.07-2.88,0-4.6,1.07-4.6,4.06v2.78h-2.38v2.21ZM569.18,407.59c3.99,0,6.84-1.78,6.84-5.27,0-3.99-2.92-4.76-6.41-5.47-2.98-.6-4.66-.97-4.66-2.85,0-1.37,1.01-2.48,3.49-2.48s3.82,1.01,4.09,3.29h2.78c-.4-3.39-2.52-5.43-6.81-5.43-4.02,0-6.24,1.88-6.24,4.76,0,3.79,3.05,4.49,6.47,5.2,3.19.67,4.53,1.17,4.53,3.12,0,1.61-1.17,2.85-4.02,2.85-2.58,0-4.59-.84-4.96-3.86h-2.78c.27,3.89,2.92,6.14,7.68,6.14M551.54,405.28c-3.69,0-5.6-3.02-5.6-6.84s1.91-6.87,5.6-6.87,5.57,3.05,5.57,6.87-1.88,6.84-5.57,6.84M551.54,407.56c5.2,0,8.35-4.09,8.35-9.12s-3.15-9.12-8.35-9.12-8.38,4.09-8.38,9.12,3.22,9.12,8.38,9.12M537.62,407.09h2.72v-23.98h-2.72v23.98ZM528.07,407.59c3.99,0,6.84-1.78,6.84-5.27,0-3.99-2.92-4.76-6.41-5.47-2.98-.6-4.66-.97-4.66-2.85,0-1.37,1.01-2.48,3.49-2.48s3.82,1.01,4.09,3.29h2.78c-.4-3.39-2.52-5.43-6.81-5.43-4.02,0-6.24,1.88-6.24,4.76,0,3.79,3.05,4.49,6.47,5.2,3.19.67,4.53,1.17,4.53,3.12,0,1.61-1.17,2.85-4.02,2.85-2.58,0-4.59-.84-4.96-3.86h-2.78c.27,3.89,2.92,6.14,7.68,6.14M510.02,404.2c-3.22,0-4.93-2.48-4.93-6.27s1.64-6.3,4.9-6.3c3.69,0,5.3,2.35,5.3,6.14s-1.27,6.44-5.27,6.44M510.19,412.86c4.59,0,7.61-2.15,7.61-6.71v-16.4h-2.72v2.21h-.07c-1.17-1.64-2.78-2.62-5.3-2.62-4.02,0-7.41,3.15-7.41,8.55,0,5,3.09,8.59,7.58,8.59,2.48,0,3.86-1.04,5.13-2.68h.07v2.45c0,3.02-1.78,4.46-4.96,4.46-2.68,0-4.49-.74-4.76-2.65h-2.52c.3,2.98,2.85,4.8,7.34,4.8M488.29,389.75h-2.72v17.34h2.72v-10.66c0-2.85,2.01-4.8,4.76-4.8,2.45,0,3.92,1.27,3.92,3.52v11.94h2.72v-12.17c0-3.59-2.21-5.57-5.84-5.57-2.52,0-4.26,1.04-5.5,2.68h-.07v-2.28ZM481.89,407.09v-17.34h-2.72v10.66c0,2.75-1.78,4.83-4.53,4.83-2.45,0-3.89-1.31-3.89-3.55v-11.94h-2.72v12.01c0,3.59,2.28,5.73,5.84,5.73,2.52,0,3.99-1.11,5.23-2.78h.07v2.38h2.72ZM457.74,405.31c-3.69,0-5.5-2.92-5.5-6.81s1.74-6.84,5.53-6.84c3.29,0,4.86,2.95,4.86,6.84s-1.58,6.81-4.9,6.81M457.94,407.59c4.69,0,7.48-3.55,7.48-9.12s-2.98-9.12-7.38-9.12c-2.52,0-4.26,1.11-5.57,2.88h-.07v-9.12h-2.72v23.98h2.72v-2.28h.07c1.41,1.95,3.12,2.78,5.47,2.78M443.29,386.46h2.72v-3.35h-2.72v3.35ZM443.29,407.09h2.72v-17.34h-2.72v17.34ZM432.66,391.46c3.12,0,4.9,2.11,5.06,5.57h-10.43c.4-3.15,2.15-5.57,5.37-5.57M432.83,407.56c3.92,0,6.64-2.11,7.44-5.84h-2.65c-.6,2.35-2.28,3.55-4.8,3.55-3.49,0-5.4-2.68-5.6-6.2h13.41c0-5.73-2.78-9.76-7.98-9.76-4.93,0-8.22,4.09-8.22,9.12s3.09,9.12,8.38,9.12M407.07,385.73h7.28c3.52,0,4.86,1.48,4.86,4.39,0,2.72-1.68,4.39-5.03,4.39h-7.11v-8.79ZM404.05,407.09h3.02v-10.13h6.67c3.22,0,4.63,1.24,4.86,4.76.27,4.02.37,4.93.87,5.37h3.25v-.13c-.44-.3-.84-1.27-1.11-5.13-.23-3.55-1.01-5.23-3.45-6.1v-.1c2.88-.94,4.16-3.02,4.16-5.94,0-3.92-2.85-6.57-7.08-6.57h-11.2v23.98Z"/>
    </g>
    <rect class="cls-12" y="1643.69" width="1170" height="888.81"/>
    <g>
      <path class="cls-4" d="M74.13,1717.6h6.66l4.18,15.97c.63,2.75,1.4,7.02,1.4,7.02h.09s.81-4,1.48-6.84l3.51-16.15h6.3l3.51,16.11c.67,2.83,1.48,6.88,1.48,6.88h.09s.95-4.27,1.58-7.06l4.05-15.93h6.43l-9.18,32.17h-6.08l-3.91-17.23c-.54-2.34-1.12-5.71-1.12-5.71h-.09s-.5,3.38-1.04,5.71l-3.96,17.23h-6.03l-9.36-32.17Z"/>
      <path class="cls-4" d="M128.44,1747.21h-.09c-1.17,1.75-2.83,3.1-6.79,3.1-4.72,0-8.05-2.47-8.05-7.06,0-5.08,4.14-6.71,9.27-7.42,3.82-.54,5.58-.86,5.58-2.61s-1.3-2.75-3.87-2.75c-2.88,0-4.27,1.04-4.45,3.24h-5.45c.18-4.05,3.2-7.6,9.94-7.6s9.72,3.1,9.72,8.5v11.74c0,1.75.27,2.79.81,3.2v.22h-5.9c-.36-.45-.58-1.53-.72-2.56ZM128.49,1741.63v-3.46c-1.08.63-2.75.99-4.28,1.35-3.19.72-4.77,1.44-4.77,3.6s1.44,2.93,3.6,2.93c3.51,0,5.45-2.16,5.45-4.41Z"/>
      <path class="cls-4" d="M136.68,1742.3h5.67c.41,2.66,2.29,3.83,5.04,3.83s4.23-1.04,4.23-2.66c0-2.21-2.92-2.43-6.07-3.06-4.14-.81-8.19-1.94-8.19-6.97s4.14-7.38,9.4-7.38c6.07,0,9.45,3.01,9.9,7.65h-5.53c-.27-2.47-1.85-3.38-4.46-3.38-2.38,0-3.96.9-3.96,2.57,0,1.98,3.06,2.16,6.34,2.83,3.87.81,8.14,1.89,8.14,7.29,0,4.63-3.96,7.42-9.72,7.42-6.7,0-10.44-3.24-10.8-8.14Z"/>
      <path class="cls-4" d="M166.15,1726.69h3.15v-2.07c0-5.62,4.36-7.6,10.26-6.97v4.72c-2.88-.13-4.14.23-4.14,2.61v1.71h4.14v4.23h-4.14v18.85h-6.12v-18.85h-3.15v-4.23Z"/>
      <path class="cls-4" d="M196.93,1749.77v-2.7h-.13c-1.58,2.12-3.38,3.33-6.62,3.33-5.13,0-8.01-3.29-8.01-8.32v-15.39h6.07v14.35c0,2.7,1.22,4.18,3.83,4.18,2.88,0,4.63-2.16,4.63-5.22v-13.32h6.12v23.08h-5.89ZM184.69,1718.5h5.76v5.13h-5.76v-5.13ZM194.73,1718.5h5.76v5.13h-5.76v-5.13Z"/>
      <path class="cls-4" d="M212.68,1730.38h.13c1.4-2.61,2.97-3.96,5.67-3.96.68,0,1.08.05,1.44.18v5.35h-.13c-4-.41-6.88,1.71-6.88,6.57v11.25h-6.12v-23.08h5.89v3.69Z"/>
      <path class="cls-4" d="M229.02,1738.25c0-7.2,4.09-12.19,9.85-12.19,3.24,0,5.27,1.48,6.53,3.42h.13v-11.88h6.12v32.17h-5.9v-3.01h-.09c-1.35,2.21-3.64,3.69-6.88,3.69-5.8,0-9.76-4.72-9.76-12.19ZM245.67,1738.39c0-4.41-1.44-7.38-5.35-7.38-3.38,0-5.08,2.97-5.08,7.25s1.76,7.06,4.91,7.06c3.64,0,5.53-2.7,5.53-6.93Z"/>
      <path class="cls-4" d="M255.61,1717.6h6.12v5.49h-6.12v-5.49ZM255.61,1726.69h6.12v23.08h-6.12v-23.08Z"/>
      <path class="cls-4" d="M264.57,1738.21c0-6.84,4.63-12.15,11.38-12.15,7.42,0,11.38,5.67,11.38,13.9h-16.74c.45,3.55,2.43,5.76,5.89,5.76,2.39,0,3.78-1.08,4.46-2.83h6.03c-.86,4.09-4.5,7.56-10.44,7.56-7.65,0-11.97-5.35-11.97-12.24ZM270.69,1735.73h10.26c-.18-2.92-2.11-4.95-4.91-4.95-3.24,0-4.81,1.93-5.35,4.95Z"/>
      <path class="cls-4" d="M297.73,1726.69h5.89v3.1h.14c1.26-2.11,3.51-3.73,6.7-3.73,2.92,0,5.26,1.62,6.39,4.05h.09c1.58-2.52,4.01-4.05,6.93-4.05,4.86,0,7.61,3.15,7.61,8.19v15.52h-6.12v-14.49c0-2.61-1.31-3.96-3.56-3.96-2.56,0-4.14,1.98-4.14,5.04v13.41h-6.12v-14.49c0-2.61-1.31-3.96-3.56-3.96-2.47,0-4.14,1.98-4.14,5.04v13.41h-6.12v-23.08Z"/>
      <path class="cls-4" d="M334.14,1738.21c0-6.84,4.63-12.15,11.38-12.15,7.42,0,11.38,5.67,11.38,13.9h-16.74c.45,3.55,2.43,5.76,5.89,5.76,2.38,0,3.78-1.08,4.46-2.83h6.03c-.85,4.09-4.5,7.56-10.44,7.56-7.65,0-11.97-5.35-11.97-12.24ZM340.26,1735.73h10.26c-.18-2.92-2.12-4.95-4.9-4.95-3.24,0-4.82,1.93-5.36,4.95Z"/>
      <path class="cls-4" d="M359.74,1717.6h6.12v5.49h-6.12v-5.49ZM359.74,1726.69h6.12v23.08h-6.12v-23.08Z"/>
      <path class="cls-4" d="M368.38,1742.3h5.67c.4,2.66,2.29,3.83,5.04,3.83s4.23-1.04,4.23-2.66c0-2.21-2.92-2.43-6.07-3.06-4.14-.81-8.19-1.94-8.19-6.97s4.14-7.38,9.41-7.38c6.07,0,9.45,3.01,9.9,7.65h-5.53c-.27-2.47-1.84-3.38-4.45-3.38-2.39,0-3.96.9-3.96,2.57,0,1.98,3.06,2.16,6.35,2.83,3.87.81,8.14,1.89,8.14,7.29,0,4.63-3.96,7.42-9.72,7.42-6.7,0-10.44-3.24-10.8-8.14Z"/>
      <path class="cls-4" d="M389.85,1726.69h3.19v-7.2h5.99v7.2h3.96v4.05h-3.96v12.24c0,1.71.94,2.29,2.29,2.29.76,0,1.8-.04,1.8-.04v4.5s-1.39.09-3.82.09c-2.97,0-6.25-1.17-6.25-5.54v-13.54h-3.19v-4.05Z"/>
      <path class="cls-4" d="M404.79,1738.21c0-6.84,4.63-12.15,11.38-12.15,7.42,0,11.38,5.67,11.38,13.9h-16.74c.45,3.55,2.43,5.76,5.89,5.76,2.39,0,3.78-1.08,4.46-2.83h6.03c-.85,4.09-4.5,7.56-10.44,7.56-7.65,0-11.97-5.35-11.97-12.24ZM410.9,1735.73h10.26c-.18-2.92-2.12-4.95-4.9-4.95-3.24,0-4.81,1.93-5.36,4.95Z"/>
      <path class="cls-4" d="M436.38,1729.84h.13c1.57-2.47,3.69-3.78,6.84-3.78,4.77,0,7.96,3.6,7.96,8.64v15.07h-6.12v-14.17c0-2.47-1.44-4.23-4-4.23-2.7,0-4.68,2.16-4.68,5.31v13.09h-6.12v-23.08h5.99v3.15Z"/>
      <path class="cls-4" d="M463.15,1717.6h23.04v5.54h-16.51v7.74h13.99v5.58h-13.99v13.32h-6.52v-32.17Z"/>
      <path class="cls-4" d="M493.93,1730.38h.14c1.39-2.61,2.97-3.96,5.67-3.96.67,0,1.08.05,1.44.18v5.35h-.13c-4.01-.41-6.88,1.71-6.88,6.57v11.25h-6.12v-23.08h5.89v3.69Z"/>
      <path class="cls-4" d="M516.97,1747.21h-.09c-1.17,1.75-2.83,3.1-6.79,3.1-4.72,0-8.05-2.47-8.05-7.06,0-5.08,4.14-6.71,9.27-7.42,3.82-.54,5.58-.86,5.58-2.61s-1.3-2.75-3.87-2.75c-2.88,0-4.27,1.04-4.45,3.24h-5.45c.18-4.05,3.2-7.6,9.94-7.6s9.72,3.1,9.72,8.5v11.74c0,1.75.27,2.79.81,3.2v.22h-5.9c-.36-.45-.58-1.53-.72-2.56ZM517.01,1741.63v-3.46c-1.08.63-2.75.99-4.28,1.35-3.19.72-4.77,1.44-4.77,3.6s1.44,2.93,3.6,2.93c3.51,0,5.45-2.16,5.45-4.41Z"/>
      <path class="cls-4" d="M541.22,1749.77v-2.7h-.13c-1.57,2.12-3.38,3.33-6.62,3.33-5.13,0-8.01-3.29-8.01-8.32v-15.39h6.08v14.35c0,2.7,1.22,4.18,3.83,4.18,2.88,0,4.63-2.16,4.63-5.22v-13.32h6.12v23.08h-5.89Z"/>
      <path class="cls-4" d="M549.95,1738.21c0-6.84,4.63-12.15,11.38-12.15,7.42,0,11.38,5.67,11.38,13.9h-16.74c.45,3.55,2.43,5.76,5.89,5.76,2.39,0,3.78-1.08,4.46-2.83h6.03c-.86,4.09-4.5,7.56-10.44,7.56-7.65,0-11.97-5.35-11.97-12.24ZM556.07,1735.73h10.26c-.18-2.92-2.11-4.95-4.91-4.95-3.24,0-4.81,1.93-5.35,4.95Z"/>
      <path class="cls-4" d="M581.54,1729.84h.13c1.58-2.47,3.69-3.78,6.84-3.78,4.77,0,7.96,3.6,7.96,8.64v15.07h-6.12v-14.17c0-2.47-1.44-4.23-4.01-4.23-2.7,0-4.68,2.16-4.68,5.31v13.09h-6.12v-23.08h5.98v3.15Z"/>
      <path class="cls-4" d="M617.18,1717.6h6.75l11.34,32.17h-6.79l-2.16-6.84h-11.61l-2.12,6.84h-6.62l11.21-32.17ZM616.24,1737.94h8.51l-2.88-9.27c-.54-1.71-1.3-4.95-1.3-4.95h-.09s-.81,3.24-1.35,4.95l-2.88,9.27Z"/>
      <path class="cls-4" d="M637.57,1717.6h6.12v32.17h-6.12v-32.17Z"/>
      <path class="cls-4" d="M647.83,1717.6h6.12v32.17h-6.12v-32.17Z"/>
      <path class="cls-4" d="M656.65,1726.69h3.2v-7.2h5.98v7.2h3.96v4.05h-3.96v12.24c0,1.71.95,2.29,2.29,2.29.77,0,1.8-.04,1.8-.04v4.5s-1.39.09-3.82.09c-2.97,0-6.26-1.17-6.26-5.54v-13.54h-3.2v-4.05Z"/>
      <path class="cls-4" d="M686.98,1747.21h-.09c-1.17,1.75-2.83,3.1-6.79,3.1-4.72,0-8.05-2.47-8.05-7.06,0-5.08,4.14-6.71,9.27-7.42,3.82-.54,5.58-.86,5.58-2.61s-1.3-2.75-3.87-2.75c-2.88,0-4.28,1.04-4.46,3.24h-5.45c.18-4.05,3.2-7.6,9.95-7.6s9.72,3.1,9.72,8.5v11.74c0,1.75.27,2.79.81,3.2v.22h-5.89c-.36-.45-.58-1.53-.72-2.56ZM687.02,1741.63v-3.46c-1.08.63-2.75.99-4.28,1.35-3.2.72-4.77,1.44-4.77,3.6s1.44,2.93,3.6,2.93c3.51,0,5.45-2.16,5.45-4.41Z"/>
      <path class="cls-4" d="M696.02,1750.44h6.08c.49,1.44,1.8,2.57,4.63,2.57,3.46,0,5.13-1.67,5.13-4.82v-2.52h-.13c-1.35,1.53-3.11,2.7-6.03,2.7-5.13,0-10.17-4.05-10.17-11.03s4.14-11.29,9.99-11.29c2.88,0,4.99,1.12,6.39,3.06h.09v-2.43h5.89v21.33c0,3.24-1.03,5.44-2.74,7.02-1.94,1.8-4.9,2.61-8.32,2.61-6.3,0-10.17-2.7-10.8-7.2ZM712.17,1737.22c0-3.38-1.8-6.25-5.49-6.25-3.11,0-5.18,2.43-5.18,6.3s2.07,6.21,5.22,6.21c3.87,0,5.44-2.83,5.44-6.25Z"/>
      <path class="cls-4" d="M729.41,1717.6h6.12v5.49h-6.12v-5.49ZM729.41,1726.69h6.12v23.08h-6.12v-23.08Z"/>
      <path class="cls-4" d="M738.05,1742.3h5.67c.4,2.66,2.29,3.83,5.04,3.83s4.23-1.04,4.23-2.66c0-2.21-2.93-2.43-6.08-3.06-4.14-.81-8.19-1.94-8.19-6.97s4.14-7.38,9.4-7.38c6.08,0,9.45,3.01,9.9,7.65h-5.54c-.27-2.47-1.84-3.38-4.46-3.38-2.38,0-3.96.9-3.96,2.57,0,1.98,3.06,2.16,6.34,2.83,3.87.81,8.15,1.89,8.15,7.29,0,4.63-3.96,7.42-9.72,7.42-6.71,0-10.44-3.24-10.8-8.14Z"/>
      <path class="cls-4" d="M759.51,1726.69h3.2v-7.2h5.98v7.2h3.96v4.05h-3.96v12.24c0,1.71.95,2.29,2.29,2.29.77,0,1.8-.04,1.8-.04v4.5s-1.39.09-3.82.09c-2.97,0-6.26-1.17-6.26-5.54v-13.54h-3.2v-4.05Z"/>
      <path class="cls-4" d="M775.94,1755.03c1.75-.9,3.24-2.47,3.24-5.26h-3.29v-6.52h6.57v6.16c0,4.59-3.06,7.2-6.52,7.83v-2.21Z"/>
      <path class="cls-4" d="M791.73,1726.69h6.21l3.69,11.97c.68,2.21,1.04,3.69,1.04,3.69h.09s.31-1.48.99-3.69l3.78-11.97h6.12l-8.05,23.08h-5.85l-8.01-23.08Z"/>
      <path class="cls-4" d="M813.92,1738.21c0-6.84,4.63-12.15,11.38-12.15,7.42,0,11.38,5.67,11.38,13.9h-16.74c.45,3.55,2.43,5.76,5.89,5.76,2.38,0,3.78-1.08,4.46-2.83h6.03c-.85,4.09-4.5,7.56-10.44,7.56-7.65,0-11.97-5.35-11.97-12.24ZM820.04,1735.73h10.26c-.18-2.92-2.12-4.95-4.9-4.95-3.24,0-4.81,1.93-5.36,4.95Z"/>
      <path class="cls-4" d="M845.42,1730.38h.13c1.39-2.61,2.97-3.96,5.67-3.96.67,0,1.08.05,1.44.18v5.35h-.13c-4.01-.41-6.88,1.71-6.88,6.57v11.25h-6.12v-23.08h5.9v3.69Z"/>
      <path class="cls-4" d="M853.52,1738.25c0-7.2,4.1-12.19,9.86-12.19,3.24,0,5.26,1.48,6.52,3.42h.13v-11.88h6.12v32.17h-5.89v-3.01h-.09c-1.35,2.21-3.64,3.69-6.88,3.69-5.8,0-9.76-4.72-9.76-12.19ZM870.17,1738.39c0-4.41-1.44-7.38-5.35-7.38-3.38,0-5.09,2.97-5.09,7.25s1.76,7.06,4.91,7.06c3.64,0,5.53-2.7,5.53-6.93Z"/>
      <path class="cls-4" d="M880.11,1717.6h6.12v5.49h-6.12v-5.49ZM880.11,1726.69h6.12v23.08h-6.12v-23.08Z"/>
      <path class="cls-4" d="M889.07,1738.25c0-6.88,4.5-12.19,11.52-12.19,5.99,0,9.68,3.46,10.49,8.46h-5.99c-.4-2.03-1.98-3.56-4.23-3.56-3.69,0-5.58,2.83-5.58,7.29s1.75,7.29,5.49,7.29c2.47,0,4.23-1.31,4.63-3.92h5.89c-.41,4.9-4.23,8.82-10.39,8.82-7.29,0-11.84-5.31-11.84-12.19Z"/>
      <path class="cls-4" d="M920.07,1729.7h.13c1.66-2.43,3.55-3.64,6.71-3.64,4.77,0,7.96,3.6,7.96,8.64v15.07h-6.12v-14.17c0-2.47-1.44-4.23-4-4.23-2.7,0-4.68,2.16-4.68,5.31v13.09h-6.12v-32.17h6.12v12.1Z"/>
      <path class="cls-4" d="M936.86,1726.69h3.2v-7.2h5.98v7.2h3.96v4.05h-3.96v12.24c0,1.71.95,2.29,2.29,2.29.76,0,1.8-.04,1.8-.04v4.5s-1.39.09-3.82.09c-2.97,0-6.25-1.17-6.25-5.54v-13.54h-3.2v-4.05Z"/>
      <path class="cls-4" d="M951.8,1738.21c0-6.84,4.63-12.15,11.38-12.15,7.42,0,11.38,5.67,11.38,13.9h-16.74c.45,3.55,2.43,5.76,5.89,5.76,2.38,0,3.78-1.08,4.46-2.83h6.03c-.85,4.09-4.5,7.56-10.44,7.56-7.65,0-11.97-5.35-11.97-12.24ZM957.92,1735.73h10.26c-.18-2.92-2.12-4.95-4.9-4.95-3.24,0-4.81,1.93-5.36,4.95Z"/>
      <path class="cls-4" d="M975.6,1726.69h3.2v-7.2h5.98v7.2h3.96v4.05h-3.96v12.24c0,1.71.95,2.29,2.29,2.29.77,0,1.8-.04,1.8-.04v4.5s-1.39.09-3.82.09c-2.97,0-6.26-1.17-6.26-5.54v-13.54h-3.2v-4.05Z"/>
      <path class="cls-4" d="M74.44,1799.3h5.67c.41,2.66,2.29,3.83,5.04,3.83s4.23-1.04,4.23-2.66c0-2.21-2.92-2.43-6.08-3.06-4.14-.81-8.19-1.94-8.19-6.97s4.14-7.38,9.4-7.38c6.08,0,9.45,3.01,9.9,7.65h-5.54c-.27-2.47-1.84-3.38-4.46-3.38-2.38,0-3.96.9-3.96,2.57,0,1.98,3.06,2.16,6.34,2.83,3.87.81,8.14,1.89,8.14,7.29,0,4.63-3.96,7.42-9.72,7.42-6.71,0-10.44-3.24-10.8-8.14Z"/>
      <path class="cls-4" d="M97.71,1774.6h6.12v5.49h-6.12v-5.49ZM97.71,1783.69h6.12v23.08h-6.12v-23.08Z"/>
      <path class="cls-4" d="M106.66,1795.25c0-6.88,4.5-12.19,11.52-12.19,5.98,0,9.67,3.46,10.48,8.46h-5.98c-.41-2.03-1.98-3.56-4.23-3.56-3.69,0-5.58,2.83-5.58,7.29s1.76,7.29,5.49,7.29c2.47,0,4.23-1.31,4.63-3.92h5.89c-.4,4.9-4.23,8.82-10.39,8.82-7.29,0-11.83-5.31-11.83-12.19Z"/>
      <path class="cls-4" d="M137.67,1786.7h.13c1.67-2.43,3.55-3.64,6.71-3.64,4.77,0,7.96,3.6,7.96,8.64v15.07h-6.12v-14.17c0-2.47-1.44-4.23-4-4.23-2.7,0-4.68,2.16-4.68,5.31v13.09h-6.12v-32.17h6.12v12.1Z"/>
      <path class="cls-4" d="M169.93,1786.7h.14c1.66-2.43,3.55-3.64,6.7-3.64,4.77,0,7.96,3.6,7.96,8.64v15.07h-6.12v-14.17c0-2.47-1.44-4.23-4-4.23-2.7,0-4.68,2.16-4.68,5.31v13.09h-6.12v-32.17h6.12v12.1Z"/>
      <path class="cls-4" d="M188.52,1774.6h6.12v5.49h-6.12v-5.49ZM188.52,1783.69h6.12v23.08h-6.12v-23.08Z"/>
      <path class="cls-4" d="M197.47,1795.21c0-6.84,4.63-12.15,11.38-12.15,7.42,0,11.38,5.67,11.38,13.9h-16.74c.45,3.55,2.43,5.76,5.89,5.76,2.39,0,3.78-1.08,4.46-2.83h6.03c-.85,4.09-4.5,7.56-10.44,7.56-7.65,0-11.97-5.35-11.97-12.24ZM203.59,1792.73h10.26c-.18-2.92-2.12-4.95-4.9-4.95-3.24,0-4.81,1.93-5.36,4.95Z"/>
      <path class="cls-4" d="M228.97,1787.38h.14c1.39-2.61,2.97-3.96,5.67-3.96.67,0,1.08.05,1.44.18v5.35h-.13c-4.01-.41-6.88,1.71-6.88,6.57v11.25h-6.12v-23.08h5.89v3.69Z"/>
      <path class="cls-4" d="M260.25,1804.21h-.09c-1.17,1.75-2.83,3.1-6.79,3.1-4.72,0-8.05-2.47-8.05-7.06,0-5.08,4.14-6.71,9.27-7.42,3.83-.54,5.58-.86,5.58-2.61s-1.3-2.75-3.87-2.75c-2.88,0-4.28,1.04-4.46,3.24h-5.45c.18-4.05,3.2-7.6,9.95-7.6s9.72,3.1,9.72,8.5v11.74c0,1.75.27,2.79.81,3.2v.22h-5.89c-.36-.45-.59-1.53-.72-2.56ZM260.29,1798.63v-3.46c-1.08.63-2.74.99-4.27,1.35-3.19.72-4.77,1.44-4.77,3.6s1.44,2.93,3.6,2.93c3.51,0,5.44-2.16,5.44-4.41Z"/>
      <path class="cls-4" d="M284.5,1806.77v-2.7h-.13c-1.57,2.12-3.38,3.33-6.61,3.33-5.13,0-8.01-3.29-8.01-8.32v-15.39h6.08v14.35c0,2.7,1.21,4.18,3.82,4.18,2.88,0,4.63-2.16,4.63-5.22v-13.32h6.12v23.08h-5.9Z"/>
      <path class="cls-4" d="M293.01,1783.69h3.15v-2.07c0-5.62,4.37-7.6,10.26-6.97v4.72c-2.88-.13-4.14.23-4.14,2.61v1.71h4.14v4.23h-4.14v18.85h-6.12v-18.85h-3.15v-4.23Z"/>
      <path class="cls-4" d="M315.64,1795.21c0-6.84,4.63-12.15,11.38-12.15,7.42,0,11.38,5.67,11.38,13.9h-16.74c.45,3.55,2.43,5.76,5.89,5.76,2.39,0,3.78-1.08,4.46-2.83h6.03c-.86,4.09-4.5,7.56-10.44,7.56-7.65,0-11.97-5.35-11.97-12.24ZM321.76,1792.73h10.26c-.18-2.92-2.11-4.95-4.91-4.95-3.24,0-4.81,1.93-5.35,4.95Z"/>
      <path class="cls-4" d="M341.25,1774.6h6.12v5.49h-6.12v-5.49ZM341.25,1783.69h6.12v23.08h-6.12v-23.08Z"/>
      <path class="cls-4" d="M357.31,1786.84h.13c1.58-2.47,3.69-3.78,6.84-3.78,4.77,0,7.96,3.6,7.96,8.64v15.07h-6.12v-14.17c0-2.47-1.44-4.23-4-4.23-2.7,0-4.68,2.16-4.68,5.31v13.09h-6.12v-23.08h5.98v3.15Z"/>
      <path class="cls-4" d="M374.91,1795.21c0-6.84,4.63-12.15,11.38-12.15,7.43,0,11.38,5.67,11.38,13.9h-16.74c.45,3.55,2.43,5.76,5.89,5.76,2.38,0,3.78-1.08,4.46-2.83h6.03c-.86,4.09-4.5,7.56-10.44,7.56-7.65,0-11.97-5.35-11.97-12.24ZM381.03,1792.73h10.26c-.18-2.92-2.12-4.95-4.91-4.95-3.24,0-4.82,1.93-5.35,4.95Z"/>
      <path class="cls-4" d="M406.49,1786.84h.13c1.58-2.47,3.69-3.78,6.84-3.78,4.77,0,7.96,3.6,7.96,8.64v15.07h-6.12v-14.17c0-2.47-1.44-4.23-4.01-4.23-2.7,0-4.68,2.16-4.68,5.31v13.09h-6.12v-23.08h5.98v3.15Z"/>
      <path class="cls-4" d="M431.65,1795.21c0-6.84,4.63-12.15,11.38-12.15,7.43,0,11.38,5.67,11.38,13.9h-16.74c.45,3.55,2.43,5.76,5.89,5.76,2.38,0,3.78-1.08,4.46-2.83h6.03c-.86,4.09-4.5,7.56-10.44,7.56-7.65,0-11.97-5.35-11.97-12.24ZM437.77,1792.73h10.26c-.18-2.92-2.12-4.95-4.91-4.95-3.24,0-4.82,1.93-5.35,4.95Z"/>
      <path class="cls-4" d="M457.25,1774.6h6.12v5.49h-6.12v-5.49ZM457.25,1783.69h6.12v23.08h-6.12v-23.08Z"/>
      <path class="cls-4" d="M473.32,1786.84h.13c1.58-2.47,3.69-3.78,6.84-3.78,4.77,0,7.96,3.6,7.96,8.64v15.07h-6.12v-14.17c0-2.47-1.44-4.23-4.01-4.23-2.7,0-4.68,2.16-4.68,5.31v13.09h-6.12v-23.08h5.98v3.15Z"/>
      <path class="cls-4" d="M491.27,1802.09l11.88-13.45v-.14h-10.53v-4.81h17.64v4.9l-11.61,13.14v.13h12.19v4.91h-19.57v-4.68Z"/>
      <path class="cls-4" d="M513.86,1774.6h6.12v5.49h-6.12v-5.49ZM513.86,1783.69h6.12v23.08h-6.12v-23.08Z"/>
      <path class="cls-4" d="M523.31,1807.44h6.08c.5,1.44,1.8,2.57,4.63,2.57,3.46,0,5.13-1.67,5.13-4.82v-2.52h-.13c-1.35,1.53-3.11,2.7-6.03,2.7-5.13,0-10.17-4.05-10.17-11.03s4.14-11.29,9.99-11.29c2.88,0,5,1.12,6.39,3.06h.09v-2.43h5.89v21.33c0,3.24-1.04,5.44-2.74,7.02-1.94,1.8-4.91,2.61-8.33,2.61-6.3,0-10.17-2.7-10.8-7.2ZM539.47,1794.22c0-3.38-1.8-6.25-5.49-6.25-3.1,0-5.17,2.43-5.17,6.3s2.07,6.21,5.22,6.21c3.87,0,5.44-2.83,5.44-6.25Z"/>
      <path class="cls-4" d="M548.02,1795.21c0-6.84,4.63-12.15,11.38-12.15,7.42,0,11.38,5.67,11.38,13.9h-16.74c.45,3.55,2.43,5.76,5.89,5.76,2.39,0,3.78-1.08,4.46-2.83h6.03c-.85,4.09-4.5,7.56-10.44,7.56-7.65,0-11.97-5.35-11.97-12.24ZM554.14,1792.73h10.26c-.18-2.92-2.12-4.95-4.9-4.95-3.24,0-4.81,1.93-5.36,4.95Z"/>
      <path class="cls-4" d="M579.61,1786.84h.13c1.57-2.47,3.69-3.78,6.84-3.78,4.77,0,7.96,3.6,7.96,8.64v15.07h-6.12v-14.17c0-2.47-1.44-4.23-4-4.23-2.7,0-4.68,2.16-4.68,5.31v13.09h-6.12v-23.08h5.99v3.15Z"/>
      <path class="cls-4" d="M615.25,1774.6h6.75l11.34,32.17h-6.79l-2.16-6.84h-11.61l-2.12,6.84h-6.62l11.21-32.17ZM614.3,1794.94h8.51l-2.88-9.27c-.54-1.71-1.3-4.95-1.3-4.95h-.09s-.81,3.24-1.35,4.95l-2.88,9.27Z"/>
      <path class="cls-4" d="M641.53,1803.89h-.09v2.88h-5.9v-32.17h6.12v11.88h.13c1.26-1.94,3.24-3.42,6.43-3.42,5.81,0,9.95,4.99,9.95,12.19s-3.96,12.19-9.76,12.19c-3.24,0-5.54-1.39-6.88-3.55ZM651.97,1795.25c0-4.27-1.71-7.25-5.13-7.25-3.87,0-5.31,3.11-5.31,7.38s2.12,6.93,5.53,6.93c3.15,0,4.91-2.61,4.91-7.06Z"/>
      <path class="cls-4" d="M659.89,1795.21c0-6.84,4.63-12.15,11.38-12.15,7.42,0,11.38,5.67,11.38,13.9h-16.74c.45,3.55,2.43,5.76,5.89,5.76,2.38,0,3.78-1.08,4.46-2.83h6.03c-.85,4.09-4.5,7.56-10.44,7.56-7.65,0-11.97-5.35-11.97-12.24ZM666.01,1792.73h10.26c-.18-2.92-2.12-4.95-4.9-4.95-3.24,0-4.81,1.93-5.36,4.95Z"/>
      <path class="cls-4" d="M691.48,1786.84h.13c1.57-2.47,3.69-3.78,6.84-3.78,4.77,0,7.96,3.6,7.96,8.64v15.07h-6.12v-14.17c0-2.47-1.44-4.23-4-4.23-2.7,0-4.68,2.16-4.68,5.31v13.09h-6.12v-23.08h5.99v3.15Z"/>
      <path class="cls-4" d="M709.07,1795.25c0-7.2,4.1-12.19,9.86-12.19,3.24,0,5.27,1.48,6.53,3.42h.13v-11.88h6.12v32.17h-5.89v-3.01h-.09c-1.35,2.21-3.64,3.69-6.88,3.69-5.8,0-9.77-4.72-9.77-12.19ZM725.72,1795.39c0-4.41-1.44-7.38-5.36-7.38-3.38,0-5.08,2.97-5.08,7.25s1.75,7.06,4.9,7.06c3.64,0,5.54-2.7,5.54-6.93Z"/>
      <path class="cls-4" d="M735.31,1800.25h6.57v6.52h-6.57v-6.52Z"/>
      <path class="cls-10" d="M76.92,1841.6h11.7c9.67,0,14.26,6.57,14.26,16.2s-4.9,15.97-14.58,15.97h-11.38v-32.17ZM88.17,1870.22c7.56,0,10.57-4.86,10.57-12.42s-2.7-12.69-10.26-12.69h-7.52v25.11h7.2Z"/>
      <path class="cls-10" d="M107.16,1841.6h3.64v4.5h-3.64v-4.5ZM107.16,1850.51h3.64v23.26h-3.64v-23.26Z"/>
      <path class="cls-10" d="M114.45,1862.16c0-6.75,4.41-12.24,11.02-12.24,6.98,0,10.71,5.4,10.71,13.09h-18c.27,4.73,2.83,8.33,7.51,8.33,3.38,0,5.62-1.62,6.43-4.77h3.55c-1.08,5-4.72,7.83-9.99,7.83-7.11,0-11.25-5.49-11.25-12.24ZM118.27,1860.27h13.99c-.22-4.63-2.61-7.47-6.79-7.47s-6.66,3.24-7.2,7.47Z"/>
      <path class="cls-10" d="M145.41,1862.88h3.96c.54,5.45,3.87,8.28,9.95,8.28,4.46,0,7.65-2.02,7.65-6.03,0-4.41-3.87-5.44-9.63-6.71-5.67-1.26-10.53-2.88-10.53-8.95,0-5.31,4.41-8.5,10.93-8.5,8.05,0,11.38,4.09,12.19,10.03h-3.82c-.59-4.59-3.55-6.88-8.28-6.88-4.37,0-7.25,1.84-7.25,5.17,0,3.65,3.6,4.73,8.42,5.67,6.25,1.26,11.97,2.79,11.97,10.04,0,6.03-4.9,9.4-11.83,9.4-9.04,0-13.37-5.04-13.72-11.52Z"/>
      <path class="cls-10" d="M173.58,1850.51h3.38v-7.33h3.65v7.33h4.5v2.97h-4.5v15.12c0,1.62.85,2.16,2.34,2.16.72,0,1.53-.18,1.93-.32h.13v3.15c-.85.18-1.84.31-2.92.31-2.97,0-5.13-1.21-5.13-4.5v-15.93h-3.38v-2.97Z"/>
      <path class="cls-10" d="M203.14,1870.53h-.04c-1.39,1.8-3.78,3.69-7.74,3.69-4.41,0-7.87-2.07-7.87-6.48,0-5.49,4.32-6.62,10.12-7.52,3.28-.49,5.58-.81,5.58-3.33s-1.89-4.09-5.22-4.09c-3.78,0-5.67,1.62-5.8,5.13h-3.51c.13-4.5,3.1-7.88,9.27-7.88,4.95,0,8.59,1.84,8.59,7.38v11.07c0,1.89.45,2.92,2.47,2.47h.14v2.66c-.45.18-1.04.36-1.98.36-2.38,0-3.65-1.08-4.01-3.46ZM203.23,1865.18v-3.96c-1.21.77-3.33,1.35-5.31,1.71-3.65.67-6.57,1.3-6.57,4.72,0,3.11,2.43,3.78,4.81,3.78,4.86,0,7.06-3.55,7.06-6.25Z"/>
      <path class="cls-10" d="M209.89,1850.51h3.38v-7.33h3.65v7.33h4.5v2.97h-4.5v15.12c0,1.62.85,2.16,2.34,2.16.72,0,1.53-.18,1.93-.32h.13v3.15c-.85.18-1.84.31-2.92.31-2.97,0-5.13-1.21-5.13-4.5v-15.93h-3.38v-2.97Z"/>
      <path class="cls-10" d="M225.19,1841.6h3.64v4.5h-3.64v-4.5ZM225.19,1850.51h3.64v23.26h-3.64v-23.26Z"/>
      <path class="cls-10" d="M232.48,1862.16c0-6.75,4.32-12.24,11.25-12.24s11.21,5.49,11.21,12.24-4.23,12.24-11.21,12.24-11.25-5.49-11.25-12.24ZM251.2,1862.16c0-5.13-2.52-9.22-7.47-9.22s-7.51,4.09-7.51,9.22,2.57,9.18,7.51,9.18,7.47-4.05,7.47-9.18Z"/>
      <path class="cls-10" d="M262.23,1853.57h.09c1.66-2.21,4-3.6,7.38-3.6,4.86,0,7.83,2.65,7.83,7.47v16.33h-3.64v-16.02c0-3.01-1.98-4.72-5.27-4.72-3.69,0-6.39,2.61-6.39,6.43v14.31h-3.64v-23.26h3.64v3.06Z"/>
      <path class="cls-10" d="M281.04,1862.16c0-6.75,4.41-12.24,11.03-12.24,6.97,0,10.71,5.4,10.71,13.09h-18c.27,4.73,2.83,8.33,7.51,8.33,3.38,0,5.62-1.62,6.43-4.77h3.56c-1.08,5-4.73,7.83-9.99,7.83-7.11,0-11.25-5.49-11.25-12.24ZM284.86,1860.27h14c-.23-4.63-2.61-7.47-6.79-7.47s-6.66,3.24-7.2,7.47Z"/>
      <path class="cls-10" d="M309.97,1853.57h.09c1.66-2.21,4-3.6,7.38-3.6,4.86,0,7.83,2.65,7.83,7.47v16.33h-3.64v-16.02c0-3.01-1.98-4.72-5.27-4.72-3.69,0-6.39,2.61-6.39,6.43v14.31h-3.64v-23.26h3.64v3.06Z"/>
      <path class="cls-10" d="M340.98,1870.71h-.09v3.06h-3.64v-32.17h3.64v12.24h.09c1.75-2.38,4.09-3.87,7.47-3.87,5.9,0,9.9,4.5,9.9,12.24s-3.73,12.24-10.04,12.24c-3.15,0-5.44-1.12-7.33-3.73ZM354.61,1862.25c0-5.22-2.12-9.18-6.53-9.18-5.08,0-7.42,4.14-7.42,9.18s2.43,9.13,7.38,9.13c4.46,0,6.57-3.87,6.57-9.13Z"/>
      <path class="cls-10" d="M376.25,1870.53h-.04c-1.4,1.8-3.78,3.69-7.74,3.69-4.41,0-7.88-2.07-7.88-6.48,0-5.49,4.32-6.62,10.12-7.52,3.29-.49,5.58-.81,5.58-3.33s-1.89-4.09-5.22-4.09c-3.78,0-5.67,1.62-5.8,5.13h-3.51c.13-4.5,3.11-7.88,9.27-7.88,4.95,0,8.6,1.84,8.6,7.38v11.07c0,1.89.45,2.92,2.47,2.47h.13v2.66c-.45.18-1.04.36-1.98.36-2.38,0-3.64-1.08-4-3.46ZM376.34,1865.18v-3.96c-1.21.77-3.33,1.35-5.31,1.71-3.64.67-6.57,1.3-6.57,4.72,0,3.11,2.43,3.78,4.82,3.78,4.86,0,7.06-3.55,7.06-6.25Z"/>
      <path class="cls-10" d="M399.74,1873.77v-3.2h-.09c-1.67,2.25-3.65,3.74-7.02,3.74-4.77,0-7.83-2.88-7.83-7.69v-16.11h3.65v16.02c0,3.02,1.93,4.77,5.22,4.77,3.69,0,6.08-2.79,6.08-6.48v-14.31h3.65v23.26h-3.65Z"/>
      <path class="cls-10" d="M407.03,1862.16c0-6.75,4.41-12.24,11.02-12.24,6.98,0,10.71,5.4,10.71,13.09h-18c.27,4.73,2.84,8.33,7.52,8.33,3.38,0,5.62-1.62,6.43-4.77h3.56c-1.08,5-4.73,7.83-9.99,7.83-7.11,0-11.25-5.49-11.25-12.24ZM410.86,1860.27h14c-.23-4.63-2.61-7.47-6.79-7.47s-6.66,3.24-7.2,7.47Z"/>
      <path class="cls-10" d="M435.97,1853.57h.09c1.67-2.21,4-3.6,7.38-3.6,4.86,0,7.83,2.65,7.83,7.47v16.33h-3.64v-16.02c0-3.01-1.98-4.72-5.26-4.72-3.69,0-6.39,2.61-6.39,6.43v14.31h-3.64v-23.26h3.64v3.06Z"/>
      <path class="cls-10" d="M477.5,1870.53h-.04c-1.4,1.8-3.78,3.69-7.74,3.69-4.41,0-7.88-2.07-7.88-6.48,0-5.49,4.32-6.62,10.12-7.52,3.29-.49,5.58-.81,5.58-3.33s-1.89-4.09-5.22-4.09c-3.78,0-5.67,1.62-5.8,5.13h-3.51c.13-4.5,3.11-7.88,9.27-7.88,4.95,0,8.6,1.84,8.6,7.38v11.07c0,1.89.45,2.92,2.47,2.47h.13v2.66c-.45.18-1.04.36-1.98.36-2.38,0-3.64-1.08-4-3.46ZM477.59,1865.18v-3.96c-1.21.77-3.33,1.35-5.31,1.71-3.64.67-6.57,1.3-6.57,4.72,0,3.11,2.43,3.78,4.82,3.78,4.86,0,7.06-3.55,7.06-6.25Z"/>
      <path class="cls-10" d="M500.99,1873.77v-3.2h-.09c-1.67,2.25-3.65,3.74-7.02,3.74-4.77,0-7.83-2.88-7.83-7.69v-16.11h3.65v16.02c0,3.02,1.93,4.77,5.22,4.77,3.69,0,6.08-2.79,6.08-6.48v-14.31h3.65v23.26h-3.65Z"/>
      <path class="cls-10" d="M508.1,1850.51h3.2v-3.74c0-4,2.29-5.44,6.16-5.44.77,0,1.35.04,1.84.09v3.1c-.63-.04-.81-.04-1.17-.04-2.34,0-3.19.58-3.19,2.47v3.56h4.32v2.97h-4.32v20.29h-3.64v-20.29h-3.2v-2.97Z"/>
      <path class="cls-10" d="M520.84,1862.16c0-6.75,4.41-12.24,11.02-12.24,6.98,0,10.71,5.4,10.71,13.09h-18c.27,4.73,2.84,8.33,7.52,8.33,3.38,0,5.62-1.62,6.43-4.77h3.56c-1.08,5-4.73,7.83-9.99,7.83-7.11,0-11.25-5.49-11.25-12.24ZM524.66,1860.27h14c-.23-4.63-2.61-7.47-6.79-7.47s-6.66,3.24-7.2,7.47Z"/>
      <path class="cls-10" d="M546.13,1841.6h3.64v4.5h-3.64v-4.5ZM546.13,1850.51h3.64v23.26h-3.64v-23.26Z"/>
      <path class="cls-10" d="M558.37,1853.57h.09c1.66-2.21,4-3.6,7.38-3.6,4.86,0,7.83,2.65,7.83,7.47v16.33h-3.64v-16.02c0-3.01-1.98-4.72-5.27-4.72-3.69,0-6.39,2.61-6.39,6.43v14.31h-3.64v-23.26h3.64v3.06Z"/>
      <path class="cls-10" d="M592.74,1870.53h-.04c-1.39,1.8-3.78,3.69-7.74,3.69-4.41,0-7.87-2.07-7.87-6.48,0-5.49,4.32-6.62,10.12-7.52,3.29-.49,5.58-.81,5.58-3.33s-1.89-4.09-5.22-4.09c-3.78,0-5.67,1.62-5.81,5.13h-3.51c.13-4.5,3.1-7.88,9.27-7.88,4.95,0,8.59,1.84,8.59,7.38v11.07c0,1.89.45,2.92,2.47,2.47h.13v2.66c-.45.18-1.04.36-1.98.36-2.39,0-3.65-1.08-4.01-3.46ZM592.83,1865.18v-3.96c-1.21.77-3.33,1.35-5.31,1.71-3.65.67-6.57,1.3-6.57,4.72,0,3.11,2.43,3.78,4.81,3.78,4.86,0,7.06-3.55,7.06-6.25Z"/>
      <path class="cls-10" d="M605.07,1853.57h.09c1.67-2.21,4.01-3.6,7.38-3.6,4.86,0,7.83,2.65,7.83,7.47v16.33h-3.64v-16.02c0-3.01-1.98-4.72-5.26-4.72-3.69,0-6.39,2.61-6.39,6.43v14.31h-3.64v-23.26h3.64v3.06Z"/>
      <path class="cls-10" d="M623.89,1862.21c0-7.74,4.46-12.24,10.21-12.24,3.28,0,5.8,1.62,7.29,3.82h.09v-12.19h3.64v32.17h-3.64v-2.83h-.09c-1.76,2.25-3.91,3.51-7.2,3.51-6.35,0-10.3-4.77-10.3-12.24ZM641.7,1862.25c0-5.4-2.61-9.18-7.42-9.18-4.41,0-6.66,3.96-6.66,9.18s2.25,9.13,6.71,9.13c5.17,0,7.38-3.87,7.38-9.13Z"/>
      <path class="cls-10" d="M648.77,1862.16c0-6.75,4.41-12.24,11.02-12.24,6.97,0,10.71,5.4,10.71,13.09h-18c.27,4.73,2.83,8.33,7.52,8.33,3.37,0,5.62-1.62,6.43-4.77h3.55c-1.08,5-4.72,7.83-9.99,7.83-7.11,0-11.25-5.49-11.25-12.24ZM652.59,1860.27h13.99c-.22-4.63-2.61-7.47-6.79-7.47s-6.66,3.24-7.2,7.47Z"/>
      <path class="cls-10" d="M677.7,1854.38h.09c1.39-2.25,3.82-4.14,6.93-4.14.68,0,1.04.09,1.48.27v3.51h-.13c-.54-.18-.9-.23-1.62-.23-3.6,0-6.75,2.7-6.75,7.07v12.91h-3.64v-23.26h3.64v3.87Z"/>
      <path class="cls-10" d="M710.91,1870.53h-.04c-1.39,1.8-3.78,3.69-7.74,3.69-4.41,0-7.88-2.07-7.88-6.48,0-5.49,4.32-6.62,10.12-7.52,3.29-.49,5.58-.81,5.58-3.33s-1.89-4.09-5.22-4.09c-3.78,0-5.67,1.62-5.8,5.13h-3.51c.13-4.5,3.1-7.88,9.27-7.88,4.95,0,8.59,1.84,8.59,7.38v11.07c0,1.89.45,2.92,2.47,2.47h.13v2.66c-.45.18-1.03.36-1.98.36-2.38,0-3.64-1.08-4.01-3.46ZM711,1865.18v-3.96c-1.21.77-3.33,1.35-5.31,1.71-3.64.67-6.57,1.3-6.57,4.72,0,3.11,2.43,3.78,4.81,3.78,4.86,0,7.06-3.55,7.06-6.25Z"/>
      <path class="cls-10" d="M734.4,1873.77v-3.2h-.09c-1.66,2.25-3.64,3.74-7.02,3.74-4.77,0-7.83-2.88-7.83-7.69v-16.11h3.64v16.02c0,3.02,1.94,4.77,5.22,4.77,3.69,0,6.07-2.79,6.07-6.48v-14.31h3.64v23.26h-3.64Z"/>
      <path class="cls-10" d="M741.51,1850.51h3.19v-3.74c0-4,2.29-5.44,6.17-5.44.76,0,1.35.04,1.84.09v3.1c-.63-.04-.81-.04-1.17-.04-2.34,0-3.19.58-3.19,2.47v3.56h4.32v2.97h-4.32v20.29h-3.65v-20.29h-3.19v-2.97Z"/>
      <path class="cls-10" d="M753.98,1877.5c.99-.36,2.02-1.21,2.02-3.73h-2.07v-4.46h4.37v4.59c0,3.29-1.75,5.13-4.32,5.62v-2.03Z"/>
      <path class="cls-10" d="M767.61,1850.51h3.91l4.1,14.35c.54,1.93,1.26,4.99,1.26,4.99h.09s.68-3.06,1.17-4.9l3.91-14.44h3.83l3.78,14.44c.49,1.89,1.12,4.9,1.12,4.9h.09s.72-3.06,1.3-4.99l4.32-14.35h3.78l-7.6,23.26h-3.74l-3.87-14.08c-.54-1.94-1.12-4.86-1.12-4.86h-.09s-.63,2.92-1.17,4.86l-3.91,14.08h-3.78l-7.38-23.26Z"/>
      <path class="cls-10" d="M801.18,1862.16c0-6.75,4.41-12.24,11.02-12.24,6.97,0,10.71,5.4,10.71,13.09h-18c.27,4.73,2.83,8.33,7.52,8.33,3.37,0,5.62-1.62,6.43-4.77h3.55c-1.08,5-4.72,7.83-9.99,7.83-7.11,0-11.25-5.49-11.25-12.24ZM805.01,1860.27h13.99c-.22-4.63-2.61-7.47-6.79-7.47s-6.66,3.24-7.2,7.47Z"/>
      <path class="cls-10" d="M826.47,1841.6h3.64v4.5h-3.64v-4.5ZM826.47,1850.51h3.64v23.26h-3.64v-23.26Z"/>
      <path class="cls-10" d="M835.2,1841.6h3.64v32.17h-3.64v-32.17Z"/>
      <path class="cls-10" d="M849.78,1862.21c0-7.74,4.46-12.24,10.21-12.24,3.29,0,5.8,1.62,7.29,3.82h.09v-12.19h3.64v32.17h-3.64v-2.83h-.09c-1.75,2.25-3.91,3.51-7.2,3.51-6.34,0-10.3-4.77-10.3-12.24ZM867.6,1862.25c0-5.4-2.61-9.18-7.43-9.18-4.41,0-6.66,3.96-6.66,9.18s2.25,9.13,6.7,9.13c5.18,0,7.38-3.87,7.38-9.13Z"/>
      <path class="cls-10" d="M875.97,1841.6h3.65v4.5h-3.65v-4.5ZM875.97,1850.51h3.65v23.26h-3.65v-23.26Z"/>
      <path class="cls-10" d="M883.26,1862.16c0-6.75,4.41-12.24,11.02-12.24,6.97,0,10.71,5.4,10.71,13.09h-18c.27,4.73,2.83,8.33,7.52,8.33,3.37,0,5.62-1.62,6.43-4.77h3.55c-1.08,5-4.72,7.83-9.99,7.83-7.11,0-11.25-5.49-11.25-12.24ZM887.09,1860.27h13.99c-.22-4.63-2.61-7.47-6.79-7.47s-6.66,3.24-7.2,7.47Z"/>
      <path class="cls-10" d="M914.22,1862.88h3.96c.54,5.45,3.87,8.28,9.94,8.28,4.46,0,7.65-2.02,7.65-6.03,0-4.41-3.87-5.44-9.63-6.71-5.67-1.26-10.53-2.88-10.53-8.95,0-5.31,4.41-8.5,10.94-8.5,8.05,0,11.38,4.09,12.19,10.03h-3.82c-.58-4.59-3.55-6.88-8.28-6.88-4.37,0-7.24,1.84-7.24,5.17,0,3.65,3.6,4.73,8.41,5.67,6.25,1.26,11.97,2.79,11.97,10.04,0,6.03-4.9,9.4-11.83,9.4-9.04,0-13.37-5.04-13.72-11.52Z"/>
      <path class="cls-10" d="M958.68,1873.77v-3.2h-.09c-1.66,2.25-3.64,3.74-7.02,3.74-4.77,0-7.83-2.88-7.83-7.69v-16.11h3.64v16.02c0,3.02,1.94,4.77,5.22,4.77,3.69,0,6.07-2.79,6.07-6.48v-14.31h3.64v23.26h-3.64Z"/>
      <path class="cls-10" d="M967.28,1850.51h3.64v3.33h.09c1.44-2.25,3.92-3.87,6.84-3.87s5.08,1.44,6.07,4.14h.09c1.49-2.66,4.28-4.14,7.11-4.14,4.14,0,7.06,2.65,7.06,7.47v16.33h-3.64v-16.15c0-2.88-1.94-4.59-4.28-4.59-3.02,0-5.71,2.61-5.71,6.25v14.49h-3.64v-16.15c0-2.88-1.62-4.59-4.01-4.59-2.83,0-5.98,2.61-5.98,6.25v14.49h-3.64v-23.26Z"/>
      <path class="cls-10" d="M1003,1850.51h3.65v3.33h.09c1.44-2.25,3.91-3.87,6.84-3.87s5.08,1.44,6.07,4.14h.09c1.48-2.66,4.28-4.14,7.11-4.14,4.14,0,7.06,2.65,7.06,7.47v16.33h-3.64v-16.15c0-2.88-1.94-4.59-4.28-4.59-3.01,0-5.71,2.61-5.71,6.25v14.49h-3.64v-16.15c0-2.88-1.62-4.59-4-4.59-2.84,0-5.98,2.61-5.98,6.25v14.49h-3.65v-23.26Z"/>
      <path class="cls-10" d="M1037.43,1862.16c0-6.75,4.41-12.24,11.02-12.24,6.97,0,10.71,5.4,10.71,13.09h-18c.27,4.73,2.83,8.33,7.52,8.33,3.37,0,5.62-1.62,6.43-4.77h3.55c-1.08,5-4.72,7.83-9.99,7.83-7.11,0-11.25-5.49-11.25-12.24ZM1041.25,1860.27h13.99c-.22-4.63-2.61-7.47-6.79-7.47s-6.66,3.24-7.2,7.47Z"/>
      <path class="cls-10" d="M75.43,1927.89l12.96-17.05v-.13h-12.19v-3.19h17.28v2.16l-13.36,17.64v.13h13.86v3.33h-18.54v-2.88Z"/>
      <path class="cls-10" d="M95.37,1919.16c0-6.75,4.41-12.24,11.03-12.24,6.97,0,10.71,5.4,10.71,13.09h-18c.27,4.73,2.83,8.33,7.51,8.33,3.38,0,5.62-1.62,6.43-4.77h3.56c-1.08,5-4.73,7.83-9.99,7.83-7.11,0-11.25-5.49-11.25-12.24ZM99.19,1917.27h14c-.23-4.63-2.61-7.47-6.79-7.47s-6.66,3.24-7.2,7.47Z"/>
      <path class="cls-10" d="M120.66,1898.6h3.64v4.5h-3.64v-4.5ZM120.66,1907.51h3.64v23.26h-3.64v-23.26Z"/>
      <path class="cls-10" d="M128.67,1932.07h3.37c.36,2.57,2.79,3.55,6.39,3.55,4.27,0,6.66-1.93,6.66-5.98v-3.29h-.09c-1.71,2.21-3.55,3.6-6.88,3.6-6.03,0-10.17-4.82-10.17-11.52,0-7.25,4.54-11.47,9.94-11.47,3.37,0,5.53,1.3,7.11,3.51h.09v-2.97h3.64v22c0,6.12-4.05,9-10.21,9s-9.45-2.43-9.85-6.43ZM145.36,1918.26c0-5.08-2.16-8.23-7.11-8.23-4.37,0-6.57,3.42-6.57,8.46s2.29,8.41,6.62,8.41c5.35,0,7.06-3.73,7.06-8.64Z"/>
      <path class="cls-10" d="M152.2,1907.51h3.38v-7.33h3.65v7.33h4.5v2.97h-4.5v15.12c0,1.62.85,2.16,2.34,2.16.72,0,1.53-.18,1.93-.32h.13v3.15c-.85.18-1.84.31-2.92.31-2.97,0-5.13-1.21-5.13-4.5v-15.93h-3.38v-2.97Z"/>
      <path class="cls-10" d="M167.5,1934.5c.99-.36,2.02-1.21,2.02-3.73h-2.07v-4.46h4.36v4.59c0,3.29-1.75,5.13-4.32,5.62v-2.03Z"/>
      <path class="cls-10" d="M181.14,1907.51h3.92l4.09,14.35c.54,1.93,1.26,4.99,1.26,4.99h.09s.67-3.06,1.17-4.9l3.92-14.44h3.82l3.78,14.44c.5,1.89,1.12,4.9,1.12,4.9h.09s.72-3.06,1.31-4.99l4.32-14.35h3.78l-7.61,23.26h-3.73l-3.87-14.08c-.54-1.94-1.12-4.86-1.12-4.86h-.09s-.63,2.92-1.17,4.86l-3.92,14.08h-3.78l-7.38-23.26Z"/>
      <path class="cls-10" d="M230.05,1927.53h-.04c-1.4,1.8-3.78,3.69-7.74,3.69-4.41,0-7.88-2.07-7.88-6.48,0-5.49,4.32-6.62,10.12-7.52,3.28-.49,5.58-.81,5.58-3.33s-1.89-4.09-5.22-4.09c-3.78,0-5.67,1.62-5.8,5.13h-3.51c.13-4.5,3.11-7.88,9.27-7.88,4.95,0,8.59,1.84,8.59,7.38v11.07c0,1.89.45,2.92,2.47,2.47h.14v2.66c-.45.18-1.04.36-1.98.36-2.38,0-3.64-1.08-4-3.46ZM230.14,1922.18v-3.96c-1.21.77-3.33,1.35-5.31,1.71-3.64.67-6.57,1.3-6.57,4.72,0,3.11,2.43,3.78,4.82,3.78,4.86,0,7.06-3.55,7.06-6.25Z"/>
      <path class="cls-10" d="M237.25,1923.21h3.73c.5,4.05,3.2,5.17,6.66,5.17,3.83,0,5.4-1.67,5.4-3.83,0-2.61-1.8-3.28-6.08-4.18-4.59-.95-8.68-1.89-8.68-6.97,0-3.87,2.97-6.39,8.37-6.39,5.76,0,8.6,2.75,9.13,7.29h-3.73c-.36-3.06-2.03-4.41-5.49-4.41s-4.68,1.48-4.68,3.33c0,2.52,2.25,3.01,6.25,3.82,4.68.95,8.59,1.98,8.59,7.33,0,4.68-3.82,7.06-9.18,7.06-6.39,0-9.94-3.01-10.3-8.23Z"/>
      <path class="cls-10" d="M266.1,1919.16c0-6.75,4.41-12.24,11.02-12.24,6.97,0,10.71,5.4,10.71,13.09h-18c.27,4.73,2.83,8.33,7.51,8.33,3.38,0,5.62-1.62,6.44-4.77h3.55c-1.08,5-4.72,7.83-9.99,7.83-7.11,0-11.25-5.49-11.25-12.24ZM269.92,1917.27h13.99c-.22-4.63-2.61-7.47-6.79-7.47s-6.66,3.24-7.2,7.47Z"/>
      <path class="cls-10" d="M291.39,1898.6h3.64v4.5h-3.64v-4.5ZM291.39,1907.51h3.64v23.26h-3.64v-23.26Z"/>
      <path class="cls-10" d="M303.63,1910.57h.09c1.67-2.21,4-3.6,7.38-3.6,4.86,0,7.83,2.65,7.83,7.47v16.33h-3.64v-16.02c0-3.01-1.98-4.72-5.26-4.72-3.69,0-6.39,2.61-6.39,6.43v14.31h-3.64v-23.26h3.64v3.06Z"/>
      <path class="cls-10" d="M322.8,1927.89l12.96-17.05v-.13h-12.19v-3.19h17.28v2.16l-13.36,17.64v.13h13.86v3.33h-18.54v-2.88Z"/>
      <path class="cls-10" d="M342.73,1919.16c0-6.75,4.41-12.24,11.02-12.24,6.98,0,10.71,5.4,10.71,13.09h-18c.27,4.73,2.84,8.33,7.52,8.33,3.38,0,5.62-1.62,6.43-4.77h3.56c-1.08,5-4.73,7.83-9.99,7.83-7.11,0-11.25-5.49-11.25-12.24ZM346.56,1917.27h14c-.23-4.63-2.61-7.47-6.79-7.47s-6.66,3.24-7.2,7.47Z"/>
      <path class="cls-10" d="M368.15,1898.6h3.65v32.17h-3.65v-32.17Z"/>
      <path class="cls-10" d="M380.53,1910.57h.09c1.67-2.21,4-3.6,7.38-3.6,4.86,0,7.83,2.65,7.83,7.47v16.33h-3.64v-16.02c0-3.01-1.98-4.72-5.26-4.72-3.69,0-6.39,2.61-6.39,6.43v14.31h-3.64v-23.26h3.64v3.06Z"/>
      <path class="cls-10" d="M399.34,1919.16c0-6.75,4.41-12.24,11.02-12.24,6.98,0,10.71,5.4,10.71,13.09h-18c.27,4.73,2.83,8.33,7.51,8.33,3.38,0,5.62-1.62,6.43-4.77h3.55c-1.08,5-4.72,7.83-9.99,7.83-7.11,0-11.25-5.49-11.25-12.24ZM403.16,1917.27h13.99c-.22-4.63-2.61-7.47-6.79-7.47s-6.66,3.24-7.2,7.47Z"/>
      <path class="cls-10" d="M432.32,1898.6h5.17l10.44,26.73h.09l10.35-26.73h5.27v32.17h-3.87v-26.46h-.09s-.85,2.52-1.44,4.05l-8.82,22.41h-3.1l-8.82-22.41c-.63-1.62-1.44-4.05-1.44-4.05h-.09v26.46h-3.65v-32.17Z"/>
      <path class="cls-10" d="M467.83,1919.16c0-6.75,4.32-12.24,11.25-12.24s11.2,5.49,11.2,12.24-4.23,12.24-11.2,12.24-11.25-5.49-11.25-12.24ZM486.55,1919.16c0-5.13-2.52-9.22-7.47-9.22s-7.52,4.09-7.52,9.22,2.57,9.18,7.52,9.18,7.47-4.05,7.47-9.18Z"/>
      <path class="cls-10" d="M493.93,1907.51h3.64v3.33h.09c1.44-2.25,3.92-3.87,6.84-3.87s5.09,1.44,6.08,4.14h.09c1.48-2.66,4.27-4.14,7.11-4.14,4.14,0,7.06,2.65,7.06,7.47v16.33h-3.64v-16.15c0-2.88-1.94-4.59-4.28-4.59-3.01,0-5.71,2.61-5.71,6.25v14.49h-3.64v-16.15c0-2.88-1.62-4.59-4-4.59-2.83,0-5.99,2.61-5.99,6.25v14.49h-3.64v-23.26Z"/>
      <path class="cls-10" d="M528.35,1919.16c0-6.75,4.41-12.24,11.02-12.24,6.97,0,10.71,5.4,10.71,13.09h-18c.27,4.73,2.83,8.33,7.51,8.33,3.38,0,5.62-1.62,6.44-4.77h3.55c-1.08,5-4.72,7.83-9.99,7.83-7.11,0-11.25-5.49-11.25-12.24ZM532.18,1917.27h13.99c-.22-4.63-2.61-7.47-6.79-7.47s-6.66,3.24-7.2,7.47Z"/>
      <path class="cls-10" d="M557.29,1910.57h.09c1.66-2.21,4-3.6,7.38-3.6,4.86,0,7.83,2.65,7.83,7.47v16.33h-3.64v-16.02c0-3.01-1.98-4.72-5.27-4.72-3.69,0-6.39,2.61-6.39,6.43v14.31h-3.64v-23.26h3.64v3.06Z"/>
      <path class="cls-10" d="M575.47,1907.51h3.38v-7.33h3.64v7.33h4.5v2.97h-4.5v15.12c0,1.62.86,2.16,2.34,2.16.72,0,1.53-.18,1.94-.32h.13v3.15c-.86.18-1.84.31-2.92.31-2.97,0-5.13-1.21-5.13-4.5v-15.93h-3.38v-2.97Z"/>
      <path class="cls-10" d="M589.24,1919.16c0-6.75,4.41-12.24,11.02-12.24,6.97,0,10.71,5.4,10.71,13.09h-18c.27,4.73,2.83,8.33,7.52,8.33,3.37,0,5.62-1.62,6.43-4.77h3.55c-1.08,5-4.72,7.83-9.99,7.83-7.11,0-11.25-5.49-11.25-12.24ZM593.06,1917.27h13.99c-.22-4.63-2.61-7.47-6.79-7.47s-6.66,3.24-7.2,7.47Z"/>
      <path class="cls-10" d="M619.3,1907.51h3.92l4.81,14.76c.67,2.07,1.53,4.91,1.53,4.91h.09s.86-2.88,1.53-4.91l4.9-14.76h3.78l-8.37,23.26h-4.05l-8.14-23.26Z"/>
      <path class="cls-10" d="M640.67,1919.16c0-6.75,4.41-12.24,11.03-12.24,6.97,0,10.71,5.4,10.71,13.09h-18c.27,4.73,2.83,8.33,7.51,8.33,3.38,0,5.62-1.62,6.44-4.77h3.55c-1.08,5-4.72,7.83-9.99,7.83-7.11,0-11.25-5.49-11.25-12.24ZM644.5,1917.27h13.99c-.22-4.63-2.61-7.47-6.79-7.47s-6.66,3.24-7.2,7.47Z"/>
      <path class="cls-10" d="M669.61,1911.38h.09c1.39-2.25,3.82-4.14,6.93-4.14.67,0,1.04.09,1.48.27v3.51h-.13c-.54-.18-.9-.23-1.62-.23-3.6,0-6.75,2.7-6.75,7.07v12.91h-3.65v-23.26h3.65v3.87Z"/>
      <path class="cls-10" d="M679.19,1919.21c0-7.74,4.46-12.24,10.21-12.24,3.29,0,5.8,1.62,7.29,3.82h.09v-12.19h3.64v32.17h-3.64v-2.83h-.09c-1.75,2.25-3.91,3.51-7.2,3.51-6.34,0-10.3-4.77-10.3-12.24ZM697.01,1919.25c0-5.4-2.61-9.18-7.43-9.18-4.41,0-6.66,3.96-6.66,9.18s2.25,9.13,6.7,9.13c5.18,0,7.38-3.87,7.38-9.13Z"/>
      <path class="cls-10" d="M704.08,1919.16c0-6.75,4.41-12.24,11.03-12.24,6.97,0,10.71,5.4,10.71,13.09h-18c.27,4.73,2.83,8.33,7.51,8.33,3.38,0,5.62-1.62,6.44-4.77h3.55c-1.08,5-4.72,7.83-9.99,7.83-7.11,0-11.25-5.49-11.25-12.24ZM707.9,1917.27h13.99c-.22-4.63-2.61-7.47-6.79-7.47s-6.66,3.24-7.2,7.47Z"/>
      <path class="cls-10" d="M728.06,1919.16c0-6.75,4.32-12.24,11.25-12.24,5.49,0,9.13,3.15,9.95,8.1h-3.69c-.54-3.15-2.74-5.08-6.25-5.08-4.95,0-7.51,4.09-7.51,9.22s2.56,9.18,7.51,9.18c3.78,0,6.03-2.16,6.35-5.76h3.6c-.5,5.58-4.14,8.82-9.95,8.82-6.93,0-11.25-5.49-11.25-12.24Z"/>
      <path class="cls-10" d="M759.79,1918.22l-3.42,3.24v9.31h-3.64v-32.17h3.64v18.85l10.21-9.94h4.63l-8.91,8.37,9.99,14.89h-4.28l-8.23-12.55Z"/>
      <path class="cls-10" d="M772.07,1919.16c0-6.75,4.41-12.24,11.03-12.24,6.97,0,10.71,5.4,10.71,13.09h-18c.27,4.73,2.83,8.33,7.51,8.33,3.38,0,5.62-1.62,6.44-4.77h3.55c-1.08,5-4.72,7.83-9.99,7.83-7.11,0-11.25-5.49-11.25-12.24ZM775.9,1917.27h13.99c-.22-4.63-2.61-7.47-6.79-7.47s-6.66,3.24-7.2,7.47Z"/>
      <path class="cls-10" d="M801.01,1910.57h.09c1.66-2.21,4-3.6,7.38-3.6,4.86,0,7.83,2.65,7.83,7.47v16.33h-3.64v-16.02c0-3.01-1.98-4.72-5.27-4.72-3.69,0-6.39,2.61-6.39,6.43v14.31h-3.65v-23.26h3.65v3.06Z"/>
      <path class="cls-10" d="M820.63,1926.32h4.37v4.46h-4.37v-4.46Z"/>
      <path class="cls-10" d="M834.58,1898.6h4.36l7.92,23.94c.5,1.48,1.26,4.32,1.26,4.32h.09s.77-2.88,1.26-4.32l7.83-23.94h4.23l-11.29,32.17h-4.46l-11.2-32.17Z"/>
      <path class="cls-10" d="M864.46,1898.6h3.64v4.5h-3.64v-4.5ZM864.46,1907.51h3.64v23.26h-3.64v-23.26Z"/>
      <path class="cls-10" d="M871.74,1919.16c0-6.75,4.41-12.24,11.03-12.24,6.97,0,10.71,5.4,10.71,13.09h-18c.27,4.73,2.83,8.33,7.51,8.33,3.38,0,5.62-1.62,6.44-4.77h3.55c-1.08,5-4.72,7.83-9.99,7.83-7.11,0-11.25-5.49-11.25-12.24ZM875.57,1917.27h13.99c-.22-4.63-2.61-7.47-6.79-7.47s-6.66,3.24-7.2,7.47Z"/>
      <path class="cls-10" d="M897.17,1898.6h3.64v32.17h-3.64v-32.17Z"/>
      <path class="cls-10" d="M904.59,1919.16c0-6.75,4.41-12.24,11.02-12.24,6.97,0,10.71,5.4,10.71,13.09h-18c.27,4.73,2.83,8.33,7.52,8.33,3.37,0,5.62-1.62,6.43-4.77h3.55c-1.08,5-4.72,7.83-9.99,7.83-7.11,0-11.25-5.49-11.25-12.24ZM908.42,1917.27h13.99c-.22-4.63-2.61-7.47-6.79-7.47s-6.66,3.24-7.2,7.47Z"/>
      <path class="cls-10" d="M935.73,1919.21c0-7.74,4.46-12.24,10.21-12.24,3.29,0,5.8,1.62,7.29,3.82h.09v-12.19h3.64v32.17h-3.64v-2.83h-.09c-1.75,2.25-3.91,3.51-7.2,3.51-6.34,0-10.3-4.77-10.3-12.24ZM953.55,1919.25c0-5.4-2.61-9.18-7.43-9.18-4.41,0-6.66,3.96-6.66,9.18s2.25,9.13,6.7,9.13c5.18,0,7.38-3.87,7.38-9.13Z"/>
      <path class="cls-10" d="M960.62,1919.16c0-6.75,4.41-12.24,11.03-12.24,6.97,0,10.71,5.4,10.71,13.09h-18c.27,4.73,2.83,8.33,7.51,8.33,3.38,0,5.62-1.62,6.44-4.77h3.55c-1.08,5-4.72,7.83-9.99,7.83-7.11,0-11.25-5.49-11.25-12.24ZM964.44,1917.27h13.99c-.22-4.63-2.61-7.47-6.79-7.47s-6.66,3.24-7.2,7.47Z"/>
      <path class="cls-10" d="M989.55,1911.38h.09c1.39-2.25,3.82-4.14,6.93-4.14.67,0,1.04.09,1.48.27v3.51h-.13c-.54-.18-.9-.23-1.62-.23-3.6,0-6.75,2.7-6.75,7.07v12.91h-3.65v-23.26h3.65v3.87Z"/>
      <path class="cls-10" d="M75.8,1989.07h3.37c.36,2.57,2.79,3.55,6.39,3.55,4.28,0,6.66-1.93,6.66-5.98v-3.29h-.09c-1.71,2.21-3.55,3.6-6.88,3.6-6.03,0-10.17-4.82-10.17-11.52,0-7.25,4.54-11.47,9.95-11.47,3.37,0,5.53,1.3,7.11,3.51h.09v-2.97h3.64v22c0,6.12-4.05,9-10.21,9s-9.45-2.43-9.85-6.43ZM92.49,1975.26c0-5.08-2.16-8.23-7.11-8.23-4.37,0-6.57,3.42-6.57,8.46s2.29,8.41,6.62,8.41c5.36,0,7.06-3.73,7.06-8.64Z"/>
      <path class="cls-10" d="M99.51,1976.16c0-6.75,4.41-12.24,11.02-12.24,6.98,0,10.71,5.4,10.71,13.09h-18c.27,4.73,2.83,8.33,7.51,8.33,3.38,0,5.62-1.62,6.43-4.77h3.55c-1.08,5-4.72,7.83-9.99,7.83-7.11,0-11.25-5.49-11.25-12.24ZM103.33,1974.27h13.99c-.22-4.63-2.61-7.47-6.79-7.47s-6.66,3.24-7.2,7.47Z"/>
      <path class="cls-10" d="M122.95,1984.89l12.96-17.05v-.13h-12.2v-3.19h17.28v2.16l-13.36,17.64v.13h13.86v3.33h-18.54v-2.88Z"/>
      <path class="cls-10" d="M142.89,1976.16c0-6.75,4.41-12.24,11.02-12.24,6.97,0,10.71,5.4,10.71,13.09h-18c.27,4.73,2.83,8.33,7.51,8.33,3.38,0,5.62-1.62,6.44-4.77h3.55c-1.08,5-4.72,7.83-9.99,7.83-7.11,0-11.25-5.49-11.25-12.24ZM146.72,1974.27h13.99c-.22-4.63-2.61-7.47-6.79-7.47s-6.66,3.24-7.2,7.47Z"/>
      <path class="cls-10" d="M168.18,1955.6h3.64v4.5h-3.64v-4.5ZM168.18,1964.51h3.64v23.26h-3.64v-23.26Z"/>
      <path class="cls-10" d="M176.19,1989.07h3.37c.36,2.57,2.79,3.55,6.39,3.55,4.28,0,6.66-1.93,6.66-5.98v-3.29h-.09c-1.71,2.21-3.55,3.6-6.88,3.6-6.03,0-10.17-4.82-10.17-11.52,0-7.25,4.54-11.47,9.95-11.47,3.37,0,5.53,1.3,7.11,3.51h.09v-2.97h3.64v22c0,6.12-4.05,9-10.21,9s-9.45-2.43-9.85-6.43ZM192.88,1975.26c0-5.08-2.16-8.23-7.11-8.23-4.37,0-6.57,3.42-6.57,8.46s2.29,8.41,6.62,8.41c5.36,0,7.06-3.73,7.06-8.64Z"/>
      <path class="cls-10" d="M199.72,1964.51h3.38v-7.33h3.65v7.33h4.5v2.97h-4.5v15.12c0,1.62.85,2.16,2.34,2.16.72,0,1.53-.18,1.93-.32h.13v3.15c-.85.18-1.84.31-2.92.31-2.97,0-5.13-1.21-5.13-4.5v-15.93h-3.38v-2.97Z"/>
      <path class="cls-10" d="M213.49,1976.16c0-6.75,4.41-12.24,11.02-12.24,6.98,0,10.71,5.4,10.71,13.09h-18c.27,4.73,2.83,8.33,7.51,8.33,3.38,0,5.62-1.62,6.43-4.77h3.55c-1.08,5-4.72,7.83-9.99,7.83-7.11,0-11.25-5.49-11.25-12.24ZM217.32,1974.27h13.99c-.22-4.63-2.61-7.47-6.79-7.47s-6.66,3.24-7.2,7.47Z"/>
      <path class="cls-10" d="M242.43,1967.57h.09c1.67-2.21,4-3.6,7.38-3.6,4.86,0,7.83,2.65,7.83,7.47v16.33h-3.64v-16.02c0-3.01-1.98-4.72-5.26-4.72-3.69,0-6.39,2.61-6.39,6.43v14.31h-3.64v-23.26h3.64v3.06Z"/>
      <path class="cls-10" d="M268.21,1976.88h3.96c.54,5.45,3.87,8.28,9.95,8.28,4.46,0,7.65-2.02,7.65-6.03,0-4.41-3.87-5.44-9.63-6.71-5.67-1.26-10.53-2.88-10.53-8.95,0-5.31,4.41-8.5,10.93-8.5,8.05,0,11.38,4.09,12.19,10.03h-3.82c-.59-4.59-3.55-6.88-8.28-6.88-4.37,0-7.25,1.84-7.25,5.17,0,3.65,3.6,4.73,8.42,5.67,6.25,1.26,11.97,2.79,11.97,10.04,0,6.03-4.9,9.4-11.83,9.4-9.04,0-13.37-5.04-13.72-11.52Z"/>
      <path class="cls-10" d="M297.87,1955.6h3.64v4.5h-3.64v-4.5ZM297.87,1964.51h3.64v23.26h-3.64v-23.26Z"/>
      <path class="cls-10" d="M304.98,1964.51h3.38v-7.33h3.64v7.33h4.5v2.97h-4.5v15.12c0,1.62.86,2.16,2.34,2.16.72,0,1.53-.18,1.94-.32h.13v3.15c-.86.18-1.84.31-2.92.31-2.97,0-5.13-1.21-5.13-4.5v-15.93h-3.38v-2.97Z"/>
      <path class="cls-10" d="M335.08,1987.77v-3.2h-.09c-1.66,2.25-3.64,3.74-7.02,3.74-4.77,0-7.83-2.88-7.83-7.69v-16.11h3.65v16.02c0,3.02,1.93,4.77,5.22,4.77,3.69,0,6.07-2.79,6.07-6.48v-14.31h3.65v23.26h-3.65Z"/>
      <path class="cls-10" d="M357.94,1984.53h-.04c-1.39,1.8-3.78,3.69-7.74,3.69-4.41,0-7.87-2.07-7.87-6.48,0-5.49,4.32-6.62,10.12-7.52,3.28-.49,5.58-.81,5.58-3.33s-1.89-4.09-5.22-4.09c-3.78,0-5.67,1.62-5.8,5.13h-3.51c.13-4.5,3.1-7.88,9.27-7.88,4.95,0,8.59,1.84,8.59,7.38v11.07c0,1.89.45,2.92,2.47,2.47h.14v2.66c-.45.18-1.04.36-1.98.36-2.38,0-3.65-1.08-4.01-3.46ZM358.03,1979.18v-3.96c-1.21.77-3.33,1.35-5.31,1.71-3.65.67-6.57,1.3-6.57,4.72,0,3.11,2.43,3.78,4.81,3.78,4.86,0,7.06-3.55,7.06-6.25Z"/>
      <path class="cls-10" d="M364.69,1964.51h3.38v-7.33h3.65v7.33h4.5v2.97h-4.5v15.12c0,1.62.85,2.16,2.34,2.16.72,0,1.53-.18,1.93-.32h.13v3.15c-.85.18-1.84.31-2.92.31-2.97,0-5.13-1.21-5.13-4.5v-15.93h-3.38v-2.97Z"/>
      <path class="cls-10" d="M379.99,1955.6h3.64v4.5h-3.64v-4.5ZM379.99,1964.51h3.64v23.26h-3.64v-23.26Z"/>
      <path class="cls-10" d="M387.28,1976.16c0-6.75,4.32-12.24,11.25-12.24s11.21,5.49,11.21,12.24-4.23,12.24-11.21,12.24-11.25-5.49-11.25-12.24ZM406,1976.16c0-5.13-2.52-9.22-7.47-9.22s-7.51,4.09-7.51,9.22,2.57,9.18,7.51,9.18,7.47-4.05,7.47-9.18Z"/>
      <path class="cls-10" d="M417.03,1967.57h.09c1.66-2.21,4-3.6,7.38-3.6,4.86,0,7.83,2.65,7.83,7.47v16.33h-3.64v-16.02c0-3.01-1.98-4.72-5.27-4.72-3.69,0-6.39,2.61-6.39,6.43v14.31h-3.64v-23.26h3.64v3.06Z"/>
      <path class="cls-10" d="M435.83,1976.16c0-6.75,4.41-12.24,11.03-12.24,6.97,0,10.71,5.4,10.71,13.09h-18c.27,4.73,2.83,8.33,7.51,8.33,3.38,0,5.62-1.62,6.43-4.77h3.56c-1.08,5-4.73,7.83-9.99,7.83-7.11,0-11.25-5.49-11.25-12.24ZM439.66,1974.27h14c-.23-4.63-2.61-7.47-6.79-7.47s-6.66,3.24-7.2,7.47Z"/>
      <path class="cls-10" d="M464.77,1967.57h.09c1.66-2.21,4-3.6,7.38-3.6,4.86,0,7.83,2.65,7.83,7.47v16.33h-3.64v-16.02c0-3.01-1.98-4.72-5.27-4.72-3.69,0-6.39,2.61-6.39,6.43v14.31h-3.64v-23.26h3.64v3.06Z"/>
      <path class="cls-10" d="M490.73,1976.16c0-6.75,4.41-12.24,11.02-12.24,6.97,0,10.71,5.4,10.71,13.09h-18c.27,4.73,2.83,8.33,7.51,8.33,3.38,0,5.62-1.62,6.44-4.77h3.55c-1.08,5-4.72,7.83-9.99,7.83-7.11,0-11.25-5.49-11.25-12.24ZM494.56,1974.27h13.99c-.22-4.63-2.61-7.47-6.79-7.47s-6.66,3.24-7.2,7.47Z"/>
      <path class="cls-10" d="M519.67,1967.57h.09c1.66-2.21,4-3.6,7.38-3.6,4.86,0,7.83,2.65,7.83,7.47v16.33h-3.64v-16.02c0-3.01-1.98-4.72-5.27-4.72-3.69,0-6.39,2.61-6.39,6.43v14.31h-3.64v-23.26h3.64v3.06Z"/>
      <path class="cls-10" d="M537.85,1964.51h3.38v-7.33h3.64v7.33h4.5v2.97h-4.5v15.12c0,1.62.86,2.16,2.34,2.16.72,0,1.53-.18,1.94-.32h.13v3.15c-.86.18-1.84.31-2.92.31-2.97,0-5.13-1.21-5.13-4.5v-15.93h-3.38v-2.97Z"/>
      <path class="cls-10" d="M551.66,1980.21h3.73c.5,4.05,3.2,5.17,6.66,5.17,3.83,0,5.4-1.67,5.4-3.83,0-2.61-1.8-3.28-6.08-4.18-4.59-.95-8.68-1.89-8.68-6.97,0-3.87,2.97-6.39,8.37-6.39,5.76,0,8.6,2.75,9.13,7.29h-3.73c-.36-3.06-2.03-4.41-5.49-4.41s-4.68,1.48-4.68,3.33c0,2.52,2.25,3.01,6.25,3.82,4.68.95,8.59,1.98,8.59,7.33,0,4.68-3.82,7.06-9.18,7.06-6.39,0-9.94-3.01-10.3-8.23Z"/>
      <path class="cls-10" d="M572.72,1964.51h3.38v-7.33h3.65v7.33h4.5v2.97h-4.5v15.12c0,1.62.85,2.16,2.34,2.16.72,0,1.53-.18,1.93-.32h.13v3.15c-.85.18-1.84.31-2.92.31-2.97,0-5.13-1.21-5.13-4.5v-15.93h-3.38v-2.97Z"/>
      <path class="cls-10" d="M586.49,1976.16c0-6.75,4.41-12.24,11.03-12.24,6.97,0,10.71,5.4,10.71,13.09h-18c.27,4.73,2.84,8.33,7.52,8.33,3.38,0,5.62-1.62,6.43-4.77h3.55c-1.08,5-4.72,7.83-9.99,7.83-7.11,0-11.25-5.49-11.25-12.24ZM590.32,1974.27h13.99c-.22-4.63-2.61-7.47-6.79-7.47s-6.66,3.24-7.2,7.47Z"/>
      <path class="cls-10" d="M615.43,1967.57h.09c1.67-2.21,4.01-3.6,7.38-3.6,4.86,0,7.83,2.65,7.83,7.47v16.33h-3.64v-16.02c0-3.01-1.98-4.72-5.26-4.72-3.69,0-6.39,2.61-6.39,6.43v14.31h-3.64v-32.17h3.64v11.97Z"/>
      <path class="cls-10" d="M634.24,1976.16c0-6.75,4.41-12.24,11.02-12.24,6.97,0,10.71,5.4,10.71,13.09h-18c.27,4.73,2.83,8.33,7.52,8.33,3.37,0,5.62-1.62,6.43-4.77h3.55c-1.08,5-4.72,7.83-9.99,7.83-7.11,0-11.25-5.49-11.25-12.24ZM638.06,1974.27h13.99c-.22-4.63-2.61-7.47-6.79-7.47s-6.66,3.24-7.2,7.47Z"/>
      <path class="cls-10" d="M663.17,1967.57h.09c1.67-2.21,4.01-3.6,7.38-3.6,4.86,0,7.83,2.65,7.83,7.47v16.33h-3.64v-16.02c0-3.01-1.98-4.72-5.26-4.72-3.69,0-6.39,2.61-6.39,6.43v14.31h-3.64v-23.26h3.64v3.06Z"/>
      <path class="cls-10" d="M694.09,1967.57h.09c1.66-2.21,4-3.6,7.38-3.6,4.86,0,7.83,2.65,7.83,7.47v16.33h-3.64v-16.02c0-3.01-1.98-4.72-5.27-4.72-3.69,0-6.39,2.61-6.39,6.43v14.31h-3.65v-23.26h3.65v3.06Z"/>
      <path class="cls-10" d="M714.2,1955.6h3.65v4.5h-3.65v-4.5ZM714.2,1964.51h3.65v23.26h-3.65v-23.26Z"/>
      <path class="cls-10" d="M721.49,1976.16c0-6.75,4.32-12.24,11.25-12.24,5.49,0,9.13,3.15,9.94,8.1h-3.69c-.54-3.15-2.74-5.08-6.25-5.08-4.95,0-7.52,4.09-7.52,9.22s2.56,9.18,7.52,9.18c3.78,0,6.03-2.16,6.34-5.76h3.6c-.49,5.58-4.14,8.82-9.94,8.82-6.93,0-11.25-5.49-11.25-12.24Z"/>
      <path class="cls-10" d="M749.8,1967.57h.09c1.66-2.21,4-3.6,7.38-3.6,4.86,0,7.83,2.65,7.83,7.47v16.33h-3.64v-16.02c0-3.01-1.98-4.72-5.27-4.72-3.69,0-6.39,2.61-6.39,6.43v14.31h-3.65v-32.17h3.65v11.97Z"/>
      <path class="cls-10" d="M767.98,1964.51h3.38v-7.33h3.64v7.33h4.5v2.97h-4.5v15.12c0,1.62.86,2.16,2.34,2.16.72,0,1.53-.18,1.94-.32h.13v3.15c-.86.18-1.85.31-2.93.31-2.97,0-5.13-1.21-5.13-4.5v-15.93h-3.38v-2.97Z"/>
      <path class="cls-10" d="M804.69,1984.53h-.04c-1.39,1.8-3.78,3.69-7.74,3.69-4.41,0-7.88-2.07-7.88-6.48,0-5.49,4.32-6.62,10.12-7.52,3.29-.49,5.58-.81,5.58-3.33s-1.89-4.09-5.22-4.09c-3.78,0-5.67,1.62-5.8,5.13h-3.51c.13-4.5,3.1-7.88,9.27-7.88,4.95,0,8.59,1.84,8.59,7.38v11.07c0,1.89.45,2.92,2.47,2.47h.13v2.66c-.45.18-1.03.36-1.98.36-2.38,0-3.64-1.08-4.01-3.46ZM804.78,1979.18v-3.96c-1.21.77-3.33,1.35-5.31,1.71-3.64.67-6.57,1.3-6.57,4.72,0,3.11,2.43,3.78,4.81,3.78,4.86,0,7.06-3.55,7.06-6.25Z"/>
      <path class="cls-10" d="M828.18,1987.77v-3.2h-.09c-1.66,2.25-3.64,3.74-7.02,3.74-4.77,0-7.83-2.88-7.83-7.69v-16.11h3.64v16.02c0,3.02,1.94,4.77,5.22,4.77,3.69,0,6.07-2.79,6.07-6.48v-14.31h3.64v23.26h-3.64Z"/>
      <path class="cls-10" d="M835.3,1980.21h3.73c.49,4.05,3.2,5.17,6.66,5.17,3.82,0,5.4-1.67,5.4-3.83,0-2.61-1.8-3.28-6.07-4.18-4.59-.95-8.68-1.89-8.68-6.97,0-3.87,2.97-6.39,8.37-6.39,5.76,0,8.59,2.75,9.13,7.29h-3.74c-.36-3.06-2.02-4.41-5.49-4.41s-4.68,1.48-4.68,3.33c0,2.52,2.25,3.01,6.25,3.82,4.68.95,8.6,1.98,8.6,7.33,0,4.68-3.83,7.06-9.18,7.06-6.39,0-9.95-3.01-10.3-8.23Z"/>
      <path class="cls-10" d="M875.25,1955.6h4.54l11.88,32.17h-4.41l-3.42-9.81h-12.82l-3.46,9.81h-4.14l11.83-32.17ZM872.19,1974.68h10.53l-3.69-10.8c-.63-1.8-1.44-4.54-1.44-4.54h-.09s-.86,2.7-1.48,4.54l-3.83,10.8Z"/>
      <path class="cls-10" d="M898.34,1984.71h-.09v3.06h-3.65v-32.17h3.65v12.24h.09c1.75-2.38,4.09-3.87,7.47-3.87,5.89,0,9.9,4.5,9.9,12.24s-3.74,12.24-10.04,12.24c-3.15,0-5.45-1.12-7.33-3.73ZM911.97,1976.25c0-5.22-2.11-9.18-6.52-9.18-5.09,0-7.43,4.14-7.43,9.18s2.43,9.13,7.38,9.13c4.46,0,6.57-3.87,6.57-9.13Z"/>
      <path class="cls-10" d="M917.87,1980.21h3.73c.49,4.05,3.2,5.17,6.66,5.17,3.82,0,5.4-1.67,5.4-3.83,0-2.61-1.8-3.28-6.07-4.18-4.59-.95-8.68-1.89-8.68-6.97,0-3.87,2.97-6.39,8.37-6.39,5.76,0,8.59,2.75,9.13,7.29h-3.74c-.36-3.06-2.02-4.41-5.49-4.41s-4.68,1.48-4.68,3.33c0,2.52,2.25,3.01,6.25,3.82,4.68.95,8.6,1.98,8.6,7.33,0,4.68-3.83,7.06-9.18,7.06-6.39,0-9.95-3.01-10.3-8.23Z"/>
      <path class="cls-10" d="M940.86,1955.6h3.64v4.5h-3.64v-4.5ZM940.86,1964.51h3.64v23.26h-3.64v-23.26Z"/>
      <path class="cls-10" d="M948.15,1976.16c0-6.75,4.32-12.24,11.25-12.24,5.49,0,9.13,3.15,9.95,8.1h-3.69c-.54-3.15-2.74-5.08-6.25-5.08-4.95,0-7.51,4.09-7.51,9.22s2.56,9.18,7.51,9.18c3.78,0,6.03-2.16,6.35-5.76h3.6c-.5,5.58-4.14,8.82-9.95,8.82-6.93,0-11.25-5.49-11.25-12.24Z"/>
      <path class="cls-10" d="M976.46,1967.57h.09c1.67-2.21,4.01-3.6,7.38-3.6,4.86,0,7.83,2.65,7.83,7.47v16.33h-3.64v-16.02c0-3.01-1.98-4.72-5.26-4.72-3.69,0-6.39,2.61-6.39,6.43v14.31h-3.64v-32.17h3.64v11.97Z"/>
      <path class="cls-10" d="M994.64,1964.51h3.38v-7.33h3.64v7.33h4.5v2.97h-4.5v15.12c0,1.62.86,2.16,2.34,2.16.72,0,1.53-.18,1.94-.32h.13v3.15c-.86.18-1.85.31-2.93.31-2.97,0-5.13-1.21-5.13-4.5v-15.93h-3.38v-2.97Z"/>
      <path class="cls-10" d="M1009.94,1991.5c.99-.36,2.02-1.21,2.02-3.73h-2.07v-4.46h4.37v4.59c0,3.29-1.75,5.13-4.32,5.62v-2.03Z"/>
      <path class="cls-10" d="M74.9,2037.21h3.73c.5,4.05,3.2,5.17,6.66,5.17,3.82,0,5.4-1.67,5.4-3.83,0-2.61-1.8-3.28-6.08-4.18-4.59-.95-8.68-1.89-8.68-6.97,0-3.87,2.97-6.39,8.37-6.39,5.76,0,8.59,2.75,9.13,7.29h-3.73c-.36-3.06-2.03-4.41-5.49-4.41s-4.68,1.48-4.68,3.33c0,2.52,2.25,3.01,6.25,3.82,4.68.95,8.6,1.98,8.6,7.33,0,4.68-3.83,7.06-9.18,7.06-6.39,0-9.95-3.01-10.3-8.23Z"/>
      <path class="cls-10" d="M97.03,2033.16c0-6.75,4.32-12.24,11.25-12.24s11.21,5.49,11.21,12.24-4.23,12.24-11.21,12.24-11.25-5.49-11.25-12.24ZM115.75,2033.16c0-5.13-2.52-9.22-7.47-9.22s-7.51,4.09-7.51,9.22,2.57,9.18,7.51,9.18,7.47-4.05,7.47-9.18Z"/>
      <path class="cls-10" d="M126.78,2024.57h.09c1.66-2.21,4-3.6,7.38-3.6,4.86,0,7.83,2.65,7.83,7.47v16.33h-3.64v-16.02c0-3.01-1.98-4.72-5.27-4.72-3.69,0-6.39,2.61-6.39,6.43v14.31h-3.64v-23.26h3.64v3.06Z"/>
      <path class="cls-10" d="M145.59,2033.21c0-7.74,4.46-12.24,10.21-12.24,3.29,0,5.8,1.62,7.29,3.82h.09v-12.19h3.65v32.17h-3.65v-2.83h-.09c-1.75,2.25-3.92,3.51-7.2,3.51-6.34,0-10.3-4.77-10.3-12.24ZM163.41,2033.25c0-5.4-2.61-9.18-7.43-9.18-4.41,0-6.66,3.96-6.66,9.18s2.25,9.13,6.7,9.13c5.18,0,7.38-3.87,7.38-9.13Z"/>
      <path class="cls-10" d="M170.47,2033.16c0-6.75,4.41-12.24,11.03-12.24,6.97,0,10.71,5.4,10.71,13.09h-18c.27,4.73,2.83,8.33,7.51,8.33,3.38,0,5.62-1.62,6.43-4.77h3.56c-1.08,5-4.73,7.83-9.99,7.83-7.11,0-11.25-5.49-11.25-12.24ZM174.3,2031.27h14c-.23-4.63-2.61-7.47-6.79-7.47s-6.66,3.24-7.2,7.47Z"/>
      <path class="cls-10" d="M199.41,2025.38h.09c1.39-2.25,3.82-4.14,6.93-4.14.67,0,1.03.09,1.48.27v3.51h-.13c-.54-.18-.9-.23-1.62-.23-3.6,0-6.75,2.7-6.75,7.07v12.91h-3.64v-23.26h3.64v3.87Z"/>
      <path class="cls-10" d="M214.84,2024.57h.09c1.67-2.21,4-3.6,7.38-3.6,4.86,0,7.83,2.65,7.83,7.47v16.33h-3.64v-16.02c0-3.01-1.98-4.72-5.26-4.72-3.69,0-6.39,2.61-6.39,6.43v14.31h-3.64v-23.26h3.64v3.06Z"/>
      <path class="cls-10" d="M256.38,2041.53h-.04c-1.4,1.8-3.78,3.69-7.74,3.69-4.41,0-7.88-2.07-7.88-6.48,0-5.49,4.32-6.62,10.12-7.52,3.28-.49,5.58-.81,5.58-3.33s-1.89-4.09-5.22-4.09c-3.78,0-5.67,1.62-5.8,5.13h-3.51c.13-4.5,3.11-7.88,9.27-7.88,4.95,0,8.59,1.84,8.59,7.38v11.07c0,1.89.45,2.92,2.47,2.47h.14v2.66c-.45.18-1.04.36-1.98.36-2.38,0-3.64-1.08-4-3.46ZM256.47,2036.18v-3.96c-1.21.77-3.33,1.35-5.31,1.71-3.64.67-6.57,1.3-6.57,4.72,0,3.11,2.43,3.78,4.82,3.78,4.86,0,7.06-3.55,7.06-6.25Z"/>
      <path class="cls-10" d="M279.87,2044.77v-3.2h-.09c-1.66,2.25-3.64,3.74-7.02,3.74-4.77,0-7.83-2.88-7.83-7.69v-16.11h3.65v16.02c0,3.02,1.93,4.77,5.22,4.77,3.69,0,6.07-2.79,6.07-6.48v-14.31h3.65v23.26h-3.65Z"/>
      <path class="cls-10" d="M286.98,2037.21h3.74c.49,4.05,3.2,5.17,6.66,5.17,3.82,0,5.4-1.67,5.4-3.83,0-2.61-1.8-3.28-6.07-4.18-4.59-.95-8.68-1.89-8.68-6.97,0-3.87,2.97-6.39,8.37-6.39,5.76,0,8.59,2.75,9.13,7.29h-3.74c-.36-3.06-2.02-4.41-5.49-4.41s-4.68,1.48-4.68,3.33c0,2.52,2.25,3.01,6.25,3.82,4.68.95,8.59,1.98,8.59,7.33,0,4.68-3.83,7.06-9.18,7.06-6.39,0-9.94-3.01-10.3-8.23Z"/>
      <path class="cls-10" d="M315.64,2021.51h3.2v-3.74c0-4,2.29-5.44,6.16-5.44.77,0,1.35.04,1.84.09v3.1c-.63-.04-.81-.04-1.17-.04-2.34,0-3.19.58-3.19,2.47v3.56h4.32v2.97h-4.32v20.29h-3.64v-20.29h-3.2v-2.97Z"/>
      <path class="cls-10" d="M328.38,2033.16c0-6.75,4.41-12.24,11.02-12.24,6.98,0,10.71,5.4,10.71,13.09h-18c.27,4.73,2.84,8.33,7.52,8.33,3.38,0,5.62-1.62,6.43-4.77h3.56c-1.08,5-4.73,7.83-9.99,7.83-7.11,0-11.25-5.49-11.25-12.24ZM332.2,2031.27h14c-.23-4.63-2.61-7.47-6.79-7.47s-6.66,3.24-7.2,7.47Z"/>
      <path class="cls-10" d="M357.31,2024.57h.09c1.67-2.21,4-3.6,7.38-3.6,4.86,0,7.83,2.65,7.83,7.47v16.33h-3.64v-16.02c0-3.01-1.98-4.72-5.26-4.72-3.69,0-6.39,2.61-6.39,6.43v14.31h-3.64v-32.17h3.64v11.97Z"/>
      <path class="cls-10" d="M377.56,2012.6h3.65v32.17h-3.65v-32.17Z"/>
      <path class="cls-10" d="M384.99,2033.16c0-6.75,4.41-12.24,11.02-12.24,6.98,0,10.71,5.4,10.71,13.09h-18c.27,4.73,2.83,8.33,7.51,8.33,3.38,0,5.62-1.62,6.43-4.77h3.55c-1.08,5-4.72,7.83-9.99,7.83-7.11,0-11.25-5.49-11.25-12.24ZM388.81,2031.27h13.99c-.22-4.63-2.61-7.47-6.79-7.47s-6.66,3.24-7.2,7.47Z"/>
      <path class="cls-10" d="M413.92,2024.57h.09c1.67-2.21,4-3.6,7.38-3.6,4.86,0,7.83,2.65,7.83,7.47v16.33h-3.64v-16.02c0-3.01-1.98-4.72-5.26-4.72-3.69,0-6.39,2.61-6.39,6.43v14.31h-3.64v-23.26h3.64v3.06Z"/>
      <path class="cls-10" d="M432.73,2033.21c0-7.74,4.46-12.24,10.21-12.24,3.28,0,5.8,1.62,7.29,3.82h.09v-12.19h3.64v32.17h-3.64v-2.83h-.09c-1.75,2.25-3.92,3.51-7.2,3.51-6.35,0-10.3-4.77-10.3-12.24ZM450.55,2033.25c0-5.4-2.61-9.18-7.42-9.18-4.41,0-6.66,3.96-6.66,9.18s2.25,9.13,6.71,9.13c5.17,0,7.38-3.87,7.38-9.13Z"/>
      <path class="cls-10" d="M457.61,2033.16c0-6.75,4.41-12.24,11.02-12.24,6.98,0,10.71,5.4,10.71,13.09h-18c.27,4.73,2.83,8.33,7.51,8.33,3.38,0,5.62-1.62,6.43-4.77h3.55c-1.08,5-4.72,7.83-9.99,7.83-7.11,0-11.25-5.49-11.25-12.24ZM461.44,2031.27h13.99c-.22-4.63-2.61-7.47-6.79-7.47s-6.66,3.24-7.2,7.47Z"/>
      <path class="cls-10" d="M486.55,2025.38h.09c1.39-2.25,3.83-4.14,6.93-4.14.68,0,1.04.09,1.49.27v3.51h-.14c-.54-.18-.9-.23-1.62-.23-3.6,0-6.75,2.7-6.75,7.07v12.91h-3.64v-23.26h3.64v3.87Z"/>
      <path class="cls-10" d="M515.3,2012.6h4.54l11.88,32.17h-4.41l-3.42-9.81h-12.83l-3.46,9.81h-4.14l11.83-32.17ZM512.24,2031.68h10.53l-3.69-10.8c-.63-1.8-1.44-4.54-1.44-4.54h-.09s-.86,2.7-1.48,4.54l-3.83,10.8Z"/>
      <path class="cls-10" d="M548.78,2044.77v-3.2h-.09c-1.67,2.25-3.65,3.74-7.02,3.74-4.77,0-7.83-2.88-7.83-7.69v-16.11h3.65v16.02c0,3.02,1.93,4.77,5.22,4.77,3.69,0,6.08-2.79,6.08-6.48v-14.31h3.65v23.26h-3.65Z"/>
      <path class="cls-10" d="M555.89,2037.21h3.73c.5,4.05,3.2,5.17,6.66,5.17,3.82,0,5.4-1.67,5.4-3.83,0-2.61-1.8-3.28-6.08-4.18-4.59-.95-8.68-1.89-8.68-6.97,0-3.87,2.97-6.39,8.37-6.39,5.76,0,8.59,2.75,9.13,7.29h-3.73c-.36-3.06-2.03-4.41-5.49-4.41s-4.68,1.48-4.68,3.33c0,2.52,2.25,3.01,6.25,3.82,4.68.95,8.6,1.98,8.6,7.33,0,4.68-3.83,7.06-9.18,7.06-6.39,0-9.95-3.01-10.3-8.23Z"/>
      <path class="cls-10" d="M578.03,2033.16c0-6.75,4.41-12.24,11.03-12.24,6.97,0,10.71,5.4,10.71,13.09h-18c.27,4.73,2.83,8.33,7.51,8.33,3.38,0,5.62-1.62,6.44-4.77h3.55c-1.08,5-4.72,7.83-9.99,7.83-7.11,0-11.25-5.49-11.25-12.24ZM581.86,2031.27h14c-.22-4.63-2.61-7.47-6.79-7.47s-6.66,3.24-7.2,7.47Z"/>
      <path class="cls-10" d="M603.32,2012.6h3.64v4.5h-3.64v-4.5ZM603.32,2021.51h3.64v23.26h-3.64v-23.26Z"/>
      <path class="cls-10" d="M615.56,2024.57h.09c1.66-2.21,4-3.6,7.38-3.6,4.86,0,7.83,2.65,7.83,7.47v16.33h-3.64v-16.02c0-3.01-1.98-4.72-5.27-4.72-3.69,0-6.39,2.61-6.39,6.43v14.31h-3.65v-23.26h3.65v3.06Z"/>
      <path class="cls-10" d="M649.94,2041.53h-.04c-1.39,1.8-3.78,3.69-7.74,3.69-4.41,0-7.88-2.07-7.88-6.48,0-5.49,4.32-6.62,10.12-7.52,3.29-.49,5.58-.81,5.58-3.33s-1.89-4.09-5.22-4.09c-3.78,0-5.67,1.62-5.8,5.13h-3.51c.13-4.5,3.11-7.88,9.27-7.88,4.95,0,8.6,1.84,8.6,7.38v11.07c0,1.89.45,2.92,2.47,2.47h.13v2.66c-.45.18-1.04.36-1.98.36-2.38,0-3.64-1.08-4-3.46ZM650.03,2036.18v-3.96c-1.21.77-3.33,1.35-5.31,1.71-3.64.67-6.57,1.3-6.57,4.72,0,3.11,2.43,3.78,4.81,3.78,4.86,0,7.06-3.55,7.06-6.25Z"/>
      <path class="cls-10" d="M662.27,2024.57h.09c1.67-2.21,4.01-3.6,7.38-3.6,4.86,0,7.83,2.65,7.83,7.47v16.33h-3.64v-16.02c0-3.01-1.98-4.72-5.26-4.72-3.69,0-6.39,2.61-6.39,6.43v14.31h-3.64v-23.26h3.64v3.06Z"/>
      <path class="cls-10" d="M681.08,2033.21c0-7.74,4.46-12.24,10.21-12.24,3.28,0,5.8,1.62,7.29,3.82h.09v-12.19h3.64v32.17h-3.64v-2.83h-.09c-1.76,2.25-3.91,3.51-7.2,3.51-6.35,0-10.3-4.77-10.3-12.24ZM698.9,2033.25c0-5.4-2.61-9.18-7.42-9.18-4.41,0-6.66,3.96-6.66,9.18s2.25,9.13,6.71,9.13c5.17,0,7.38-3.87,7.38-9.13Z"/>
      <path class="cls-10" d="M705.97,2033.16c0-6.75,4.41-12.24,11.02-12.24,6.97,0,10.71,5.4,10.71,13.09h-18c.27,4.73,2.83,8.33,7.52,8.33,3.37,0,5.62-1.62,6.43-4.77h3.55c-1.08,5-4.72,7.83-9.99,7.83-7.11,0-11.25-5.49-11.25-12.24ZM709.79,2031.27h13.99c-.22-4.63-2.61-7.47-6.79-7.47s-6.66,3.24-7.2,7.47Z"/>
      <path class="cls-10" d="M734.9,2025.38h.09c1.39-2.25,3.82-4.14,6.93-4.14.68,0,1.04.09,1.48.27v3.51h-.13c-.54-.18-.9-.23-1.62-.23-3.6,0-6.75,2.7-6.75,7.07v12.91h-3.64v-23.26h3.64v3.87Z"/>
      <path class="cls-10" d="M745.2,2037.21h3.73c.5,4.05,3.2,5.17,6.66,5.17,3.82,0,5.4-1.67,5.4-3.83,0-2.61-1.8-3.28-6.07-4.18-4.59-.95-8.69-1.89-8.69-6.97,0-3.87,2.97-6.39,8.37-6.39,5.76,0,8.6,2.75,9.13,7.29h-3.73c-.36-3.06-2.03-4.41-5.49-4.41s-4.68,1.48-4.68,3.33c0,2.52,2.25,3.01,6.26,3.82,4.68.95,8.59,1.98,8.59,7.33,0,4.68-3.82,7.06-9.18,7.06-6.39,0-9.95-3.01-10.3-8.23Z"/>
      <path class="cls-10" d="M767.34,2033.16c0-6.75,4.41-12.24,11.03-12.24,6.97,0,10.71,5.4,10.71,13.09h-18c.27,4.73,2.83,8.33,7.51,8.33,3.38,0,5.62-1.62,6.44-4.77h3.55c-1.08,5-4.72,7.83-9.99,7.83-7.11,0-11.25-5.49-11.25-12.24ZM771.17,2031.27h13.99c-.22-4.63-2.61-7.47-6.79-7.47s-6.66,3.24-7.2,7.47Z"/>
      <path class="cls-10" d="M790.7,2021.51h3.38v-7.33h3.64v7.33h4.5v2.97h-4.5v15.12c0,1.62.86,2.16,2.34,2.16.72,0,1.53-.18,1.94-.32h.13v3.15c-.86.18-1.85.31-2.93.31-2.97,0-5.13-1.21-5.13-4.5v-15.93h-3.38v-2.97Z"/>
      <path class="cls-10" d="M805.05,2041.89l12.96-17.05v-.13h-12.2v-3.19h17.28v2.16l-13.36,17.64v.13h13.86v3.33h-18.54v-2.88Z"/>
      <path class="cls-10" d="M842,2044.77v-3.2h-.09c-1.67,2.25-3.64,3.74-7.02,3.74-4.77,0-7.83-2.88-7.83-7.69v-16.11h3.64v16.02c0,3.02,1.94,4.77,5.22,4.77,3.69,0,6.08-2.79,6.08-6.48v-14.31h3.64v23.26h-3.64Z"/>
      <path class="cls-10" d="M854.24,2024.57h.09c1.66-2.21,4-3.6,7.38-3.6,4.86,0,7.83,2.65,7.83,7.47v16.33h-3.64v-16.02c0-3.01-1.98-4.72-5.27-4.72-3.69,0-6.39,2.61-6.39,6.43v14.31h-3.65v-23.26h3.65v3.06Z"/>
      <path class="cls-10" d="M873.77,2046.07h3.38c.36,2.57,2.79,3.55,6.39,3.55,4.28,0,6.66-1.93,6.66-5.98v-3.29h-.09c-1.71,2.21-3.55,3.6-6.88,3.6-6.03,0-10.17-4.82-10.17-11.52,0-7.25,4.54-11.47,9.95-11.47,3.38,0,5.54,1.3,7.11,3.51h.09v-2.97h3.64v22c0,6.12-4.05,9-10.21,9s-9.45-2.43-9.85-6.43ZM890.46,2032.26c0-5.08-2.16-8.23-7.11-8.23-4.37,0-6.57,3.42-6.57,8.46s2.29,8.41,6.61,8.41c5.36,0,7.06-3.73,7.06-8.64Z"/>
      <path class="cls-10" d="M920.74,2044.77v-3.2h-.09c-1.66,2.25-3.64,3.74-7.02,3.74-4.77,0-7.83-2.88-7.83-7.69v-16.11h3.64v16.02c0,3.02,1.94,4.77,5.22,4.77,3.69,0,6.07-2.79,6.07-6.48v-14.31h3.64v23.26h-3.64Z"/>
      <path class="cls-10" d="M932.99,2024.57h.09c1.67-2.21,4.01-3.6,7.38-3.6,4.86,0,7.83,2.65,7.83,7.47v16.33h-3.64v-16.02c0-3.01-1.98-4.72-5.26-4.72-3.69,0-6.39,2.61-6.39,6.43v14.31h-3.64v-23.26h3.64v3.06Z"/>
      <path class="cls-10" d="M951.8,2033.21c0-7.74,4.46-12.24,10.21-12.24,3.28,0,5.8,1.62,7.29,3.82h.09v-12.19h3.64v32.17h-3.64v-2.83h-.09c-1.76,2.25-3.91,3.51-7.2,3.51-6.35,0-10.3-4.77-10.3-12.24ZM969.61,2033.25c0-5.4-2.61-9.18-7.42-9.18-4.41,0-6.66,3.96-6.66,9.18s2.25,9.13,6.71,9.13c5.17,0,7.38-3.87,7.38-9.13Z"/>
      <path class="cls-10" d="M91.18,2101.77v-3.2h-.09c-1.67,2.25-3.64,3.74-7.02,3.74-4.77,0-7.83-2.88-7.83-7.69v-16.11h3.64v16.02c0,3.02,1.94,4.77,5.22,4.77,3.69,0,6.07-2.79,6.07-6.48v-14.31h3.64v23.26h-3.64Z"/>
      <path class="cls-10" d="M103.42,2081.57h.09c1.66-2.21,4-3.6,7.38-3.6,4.86,0,7.83,2.65,7.83,7.47v16.33h-3.64v-16.02c0-3.01-1.98-4.72-5.27-4.72-3.69,0-6.39,2.61-6.39,6.43v14.31h-3.64v-23.26h3.64v3.06Z"/>
      <path class="cls-10" d="M127.27,2098.71h-.09v3.06h-3.64v-32.17h3.64v12.24h.09c1.75-2.38,4.09-3.87,7.47-3.87,5.9,0,9.9,4.5,9.9,12.24s-3.73,12.24-10.04,12.24c-3.15,0-5.44-1.12-7.33-3.73ZM140.91,2090.25c0-5.22-2.12-9.18-6.53-9.18-5.08,0-7.42,4.14-7.42,9.18s2.43,9.13,7.38,9.13c4.46,0,6.57-3.87,6.57-9.13Z"/>
      <path class="cls-10" d="M146.98,2090.16c0-6.75,4.41-12.24,11.03-12.24,6.97,0,10.71,5.4,10.71,13.09h-18c.27,4.73,2.83,8.33,7.51,8.33,3.38,0,5.62-1.62,6.43-4.77h3.56c-1.08,5-4.73,7.83-9.99,7.83-7.11,0-11.25-5.49-11.25-12.24ZM150.81,2088.27h14c-.23-4.63-2.61-7.47-6.79-7.47s-6.66,3.24-7.2,7.47Z"/>
      <path class="cls-10" d="M170.97,2090.21c0-7.74,4.46-12.24,10.21-12.24,3.29,0,5.8,1.62,7.29,3.82h.09v-12.19h3.65v32.17h-3.65v-2.83h-.09c-1.75,2.25-3.92,3.51-7.2,3.51-6.34,0-10.3-4.77-10.3-12.24ZM188.79,2090.25c0-5.4-2.61-9.18-7.43-9.18-4.41,0-6.66,3.96-6.66,9.18s2.25,9.13,6.7,9.13c5.18,0,7.38-3.87,7.38-9.13Z"/>
      <path class="cls-10" d="M211.42,2098.53h-.04c-1.4,1.8-3.78,3.69-7.74,3.69-4.41,0-7.88-2.07-7.88-6.48,0-5.49,4.32-6.62,10.12-7.52,3.29-.49,5.58-.81,5.58-3.33s-1.89-4.09-5.22-4.09c-3.78,0-5.67,1.62-5.8,5.13h-3.51c.13-4.5,3.11-7.88,9.27-7.88,4.95,0,8.6,1.84,8.6,7.38v11.07c0,1.89.45,2.92,2.47,2.47h.13v2.66c-.45.18-1.04.36-1.98.36-2.38,0-3.64-1.08-4-3.46ZM211.51,2093.18v-3.96c-1.21.77-3.33,1.35-5.31,1.71-3.64.67-6.57,1.3-6.57,4.72,0,3.11,2.43,3.78,4.82,3.78,4.86,0,7.06-3.55,7.06-6.25Z"/>
      <path class="cls-10" d="M218.8,2090.16c0-6.75,4.32-12.24,11.25-12.24,5.49,0,9.13,3.15,9.95,8.1h-3.69c-.54-3.15-2.75-5.08-6.26-5.08-4.95,0-7.51,4.09-7.51,9.22s2.56,9.18,7.51,9.18c3.78,0,6.03-2.16,6.35-5.76h3.6c-.5,5.58-4.14,8.82-9.95,8.82-6.93,0-11.25-5.49-11.25-12.24Z"/>
      <path class="cls-10" d="M247.11,2081.57h.09c1.66-2.21,4-3.6,7.38-3.6,4.86,0,7.83,2.65,7.83,7.47v16.33h-3.64v-16.02c0-3.01-1.98-4.72-5.27-4.72-3.69,0-6.39,2.61-6.39,6.43v14.31h-3.64v-32.17h3.64v11.97Z"/>
      <path class="cls-10" d="M265.29,2078.51h3.38v-7.33h3.64v7.33h4.5v2.97h-4.5v15.12c0,1.62.86,2.16,2.34,2.16.72,0,1.53-.18,1.94-.32h.13v3.15c-.86.18-1.85.31-2.93.31-2.97,0-5.13-1.21-5.13-4.5v-15.93h-3.38v-2.97Z"/>
      <path class="cls-10" d="M279.06,2090.16c0-6.75,4.41-12.24,11.02-12.24,6.98,0,10.71,5.4,10.71,13.09h-18c.27,4.73,2.84,8.33,7.52,8.33,3.38,0,5.62-1.62,6.43-4.77h3.56c-1.08,5-4.73,7.83-9.99,7.83-7.11,0-11.25-5.49-11.25-12.24ZM282.88,2088.27h14c-.23-4.63-2.61-7.47-6.79-7.47s-6.66,3.24-7.2,7.47Z"/>
      <path class="cls-10" d="M312.04,2069.6h4.05v13.68h17.19v-13.68h4.05v32.17h-4.05v-15.21h-17.19v15.21h-4.05v-32.17Z"/>
      <path class="cls-10" d="M357.09,2098.53h-.04c-1.4,1.8-3.78,3.69-7.74,3.69-4.41,0-7.88-2.07-7.88-6.48,0-5.49,4.32-6.62,10.12-7.52,3.28-.49,5.58-.81,5.58-3.33s-1.89-4.09-5.22-4.09c-3.78,0-5.67,1.62-5.8,5.13h-3.51c.13-4.5,3.11-7.88,9.27-7.88,4.95,0,8.59,1.84,8.59,7.38v11.07c0,1.89.45,2.92,2.47,2.47h.14v2.66c-.45.18-1.04.36-1.98.36-2.38,0-3.64-1.08-4-3.46ZM357.18,2093.18v-3.96c-1.21.77-3.33,1.35-5.31,1.71-3.64.67-6.57,1.3-6.57,4.72,0,3.11,2.43,3.78,4.82,3.78,4.86,0,7.06-3.55,7.06-6.25Z"/>
      <path class="cls-10" d="M369.42,2081.57h.09c1.66-2.21,4-3.6,7.38-3.6,4.86,0,7.83,2.65,7.83,7.47v16.33h-3.64v-16.02c0-3.01-1.98-4.72-5.27-4.72-3.69,0-6.39,2.61-6.39,6.43v14.31h-3.64v-23.26h3.64v3.06Z"/>
      <path class="cls-10" d="M388.23,2090.21c0-7.74,4.46-12.24,10.21-12.24,3.29,0,5.8,1.62,7.29,3.82h.09v-12.19h3.65v32.17h-3.65v-2.83h-.09c-1.75,2.25-3.92,3.51-7.2,3.51-6.34,0-10.3-4.77-10.3-12.24ZM406.05,2090.25c0-5.4-2.61-9.18-7.43-9.18-4.41,0-6.66,3.96-6.66,9.18s2.25,9.13,6.7,9.13c5.18,0,7.38-3.87,7.38-9.13Z"/>
      <path class="cls-10" d="M414.55,2069.6h3.65v32.17h-3.65v-32.17Z"/>
      <path class="cls-10" d="M438.08,2101.77v-3.2h-.09c-1.67,2.25-3.64,3.74-7.02,3.74-4.77,0-7.83-2.88-7.83-7.69v-16.11h3.64v16.02c0,3.02,1.94,4.77,5.22,4.77,3.69,0,6.07-2.79,6.07-6.48v-14.31h3.64v23.26h-3.64Z"/>
      <path class="cls-10" d="M450.32,2081.57h.09c1.66-2.21,4-3.6,7.38-3.6,4.86,0,7.83,2.65,7.83,7.47v16.33h-3.64v-16.02c0-3.01-1.98-4.72-5.27-4.72-3.69,0-6.39,2.61-6.39,6.43v14.31h-3.64v-23.26h3.64v3.06Z"/>
      <path class="cls-10" d="M469.85,2103.07h3.38c.36,2.57,2.79,3.55,6.39,3.55,4.27,0,6.66-1.93,6.66-5.98v-3.29h-.09c-1.71,2.21-3.55,3.6-6.88,3.6-6.03,0-10.17-4.82-10.17-11.52,0-7.25,4.54-11.47,9.94-11.47,3.38,0,5.54,1.3,7.11,3.51h.09v-2.97h3.64v22c0,6.12-4.05,9-10.21,9s-9.45-2.43-9.86-6.43ZM486.55,2089.26c0-5.08-2.16-8.23-7.11-8.23-4.36,0-6.57,3.42-6.57,8.46s2.29,8.41,6.61,8.41c5.35,0,7.07-3.73,7.07-8.64Z"/>
      <path class="cls-10" d="M493.57,2090.16c0-6.75,4.41-12.24,11.03-12.24,6.97,0,10.71,5.4,10.71,13.09h-18c.27,4.73,2.83,8.33,7.51,8.33,3.38,0,5.62-1.62,6.43-4.77h3.56c-1.08,5-4.73,7.83-9.99,7.83-7.11,0-11.25-5.49-11.25-12.24ZM497.39,2088.27h14c-.23-4.63-2.61-7.47-6.79-7.47s-6.66,3.24-7.2,7.47Z"/>
      <path class="cls-10" d="M522.5,2081.57h.09c1.66-2.21,4-3.6,7.38-3.6,4.86,0,7.83,2.65,7.83,7.47v16.33h-3.64v-16.02c0-3.01-1.98-4.72-5.27-4.72-3.69,0-6.39,2.61-6.39,6.43v14.31h-3.64v-23.26h3.64v3.06Z"/>
      <path class="cls-10" d="M542.12,2097.32h4.37v4.46h-4.37v-4.46Z"/>
      <path class="cls-11" d="M162.78,2208.6h4.23l5.08,20.92c.54,2.16,1.21,5.45,1.21,5.45h.09s.76-3.42,1.35-5.54l5.8-20.83h4.36l5.62,20.83c.58,2.16,1.3,5.54,1.3,5.54h.09s.76-3.46,1.26-5.45l5.35-20.92h4.1l-8.96,32.17h-3.87l-5.89-22.68c-.5-1.89-1.17-4.91-1.17-4.91h-.09s-.67,3.01-1.21,4.91l-6.3,22.68h-4.05l-8.33-32.17Z"/>
      <path class="cls-11" d="M201.75,2229.16c0-6.75,4.41-12.24,11.02-12.24,6.98,0,10.71,5.4,10.71,13.09h-18c.27,4.73,2.84,8.33,7.52,8.33,3.38,0,5.62-1.62,6.43-4.77h3.56c-1.08,5-4.73,7.83-9.99,7.83-7.11,0-11.25-5.49-11.25-12.24ZM205.58,2227.27h14c-.23-4.63-2.61-7.47-6.79-7.47s-6.66,3.24-7.2,7.47Z"/>
      <path class="cls-11" d="M226.59,2208.6h3.64v4.5h-3.64v-4.5ZM226.59,2217.51h3.64v23.26h-3.64v-23.26Z"/>
      <path class="cls-11" d="M233.25,2217.51h3.38v-7.33h3.65v7.33h4.5v2.97h-4.5v15.12c0,1.62.85,2.16,2.34,2.16.72,0,1.53-.18,1.93-.32h.13v3.15c-.85.18-1.84.31-2.92.31-2.97,0-5.13-1.21-5.13-4.5v-15.93h-3.38v-2.97Z"/>
      <path class="cls-11" d="M246.57,2229.16c0-6.75,4.41-12.24,11.03-12.24,6.97,0,10.71,5.4,10.71,13.09h-18c.27,4.73,2.83,8.33,7.51,8.33,3.38,0,5.62-1.62,6.43-4.77h3.56c-1.08,5-4.73,7.83-9.99,7.83-7.11,0-11.25-5.49-11.25-12.24ZM250.4,2227.27h14c-.23-4.63-2.61-7.47-6.79-7.47s-6.66,3.24-7.2,7.47Z"/>
      <path class="cls-11" d="M275.06,2221.38h.09c1.39-2.25,3.83-4.14,6.93-4.14.68,0,1.04.09,1.49.27v3.51h-.14c-.54-.18-.9-.23-1.62-.23-3.6,0-6.75,2.7-6.75,7.07v12.91h-3.64v-23.26h3.64v3.87Z"/>
      <path class="cls-11" d="M284.19,2229.16c0-6.75,4.41-12.24,11.02-12.24,6.97,0,10.71,5.4,10.71,13.09h-18c.27,4.73,2.83,8.33,7.51,8.33,3.38,0,5.62-1.62,6.44-4.77h3.55c-1.08,5-4.72,7.83-9.99,7.83-7.11,0-11.25-5.49-11.25-12.24ZM288.02,2227.27h13.99c-.22-4.63-2.61-7.47-6.79-7.47s-6.66,3.24-7.2,7.47Z"/>
      <path class="cls-11" d="M316.37,2208.6h4.05v32.17h-4.05v-32.17Z"/>
      <path class="cls-11" d="M329.19,2220.57h.09c1.66-2.21,4-3.6,7.38-3.6,4.86,0,7.83,2.65,7.83,7.47v16.33h-3.64v-16.02c0-3.01-1.98-4.72-5.27-4.72-3.69,0-6.39,2.61-6.39,6.43v14.31h-3.64v-23.26h3.64v3.06Z"/>
      <path class="cls-11" d="M347.15,2217.51h3.2v-3.74c0-4,2.29-5.44,6.16-5.44.77,0,1.35.04,1.84.09v3.1c-.63-.04-.81-.04-1.17-.04-2.34,0-3.19.58-3.19,2.47v3.56h4.32v2.97h-4.32v20.29h-3.64v-20.29h-3.2v-2.97Z"/>
      <path class="cls-11" d="M359.43,2229.16c0-6.75,4.32-12.24,11.25-12.24s11.2,5.49,11.2,12.24-4.23,12.24-11.2,12.24-11.25-5.49-11.25-12.24ZM378.15,2229.16c0-5.13-2.52-9.22-7.47-9.22s-7.51,4.09-7.51,9.22,2.56,9.18,7.51,9.18,7.47-4.05,7.47-9.18Z"/>
      <path class="cls-11" d="M383.6,2233.21h3.73c.5,4.05,3.2,5.17,6.66,5.17,3.83,0,5.4-1.67,5.4-3.83,0-2.61-1.8-3.28-6.08-4.18-4.59-.95-8.68-1.89-8.68-6.97,0-3.87,2.97-6.39,8.37-6.39,5.76,0,8.6,2.75,9.13,7.29h-3.73c-.36-3.06-2.03-4.41-5.49-4.41s-4.68,1.48-4.68,3.33c0,2.52,2.25,3.01,6.25,3.82,4.68.95,8.59,1.98,8.59,7.33,0,4.68-3.82,7.06-9.18,7.06-6.39,0-9.94-3.01-10.3-8.23Z"/>
      <path class="cls-11" d="M411.9,2237.89l12.96-17.05v-.13h-12.19v-3.19h17.28v2.16l-13.37,17.64v.13h13.86v3.33h-18.54v-2.88Z"/>
      <path class="cls-11" d="M448.4,2240.77v-3.2h-.09c-1.67,2.25-3.64,3.74-7.02,3.74-4.77,0-7.83-2.88-7.83-7.69v-16.11h3.64v16.02c0,3.02,1.94,4.77,5.22,4.77,3.69,0,6.07-2.79,6.07-6.48v-14.31h3.64v23.26h-3.64Z"/>
      <path class="cls-11" d="M460.19,2221.38h.09c1.39-2.25,3.82-4.14,6.93-4.14.67,0,1.03.09,1.48.27v3.51h-.13c-.54-.18-.9-.23-1.62-.23-3.6,0-6.75,2.7-6.75,7.07v12.91h-3.64v-23.26h3.64v3.87Z"/>
      <path class="cls-11" d="M488.04,2208.6h4.54l11.88,32.17h-4.41l-3.42-9.81h-12.82l-3.46,9.81h-4.14l11.83-32.17ZM484.98,2227.68h10.53l-3.69-10.8c-.63-1.8-1.44-4.54-1.44-4.54h-.09s-.86,2.7-1.49,4.54l-3.83,10.8Z"/>
      <path class="cls-11" d="M521.07,2240.77v-3.2h-.09c-1.67,2.25-3.64,3.74-7.02,3.74-4.77,0-7.83-2.88-7.83-7.69v-16.11h3.64v16.02c0,3.02,1.94,4.77,5.22,4.77,3.69,0,6.07-2.79,6.07-6.48v-14.31h3.64v23.26h-3.64Z"/>
      <path class="cls-11" d="M527.73,2233.21h3.73c.5,4.05,3.2,5.17,6.66,5.17,3.82,0,5.4-1.67,5.4-3.83,0-2.61-1.8-3.28-6.08-4.18-4.59-.95-8.68-1.89-8.68-6.97,0-3.87,2.97-6.39,8.37-6.39,5.76,0,8.59,2.75,9.13,7.29h-3.73c-.36-3.06-2.03-4.41-5.49-4.41s-4.68,1.48-4.68,3.33c0,2.52,2.25,3.01,6.25,3.82,4.68.95,8.6,1.98,8.6,7.33,0,4.68-3.83,7.06-9.18,7.06-6.39,0-9.95-3.01-10.3-8.23Z"/>
      <path class="cls-11" d="M548.79,2233.21h3.74c.49,4.05,3.2,5.17,6.66,5.17,3.82,0,5.4-1.67,5.4-3.83,0-2.61-1.8-3.28-6.07-4.18-4.59-.95-8.68-1.89-8.68-6.97,0-3.87,2.97-6.39,8.37-6.39,5.76,0,8.59,2.75,9.13,7.29h-3.74c-.36-3.06-2.02-4.41-5.49-4.41s-4.68,1.48-4.68,3.33c0,2.52,2.25,3.01,6.25,3.82,4.68.95,8.59,1.98,8.59,7.33,0,4.68-3.83,7.06-9.18,7.06-6.39,0-9.94-3.01-10.3-8.23Z"/>
      <path class="cls-11" d="M569.4,2217.51h3.38v-7.33h3.65v7.33h4.5v2.97h-4.5v15.12c0,1.62.85,2.16,2.34,2.16.72,0,1.53-.18,1.93-.32h.13v3.15c-.85.18-1.84.31-2.92.31-2.97,0-5.13-1.21-5.13-4.5v-15.93h-3.38v-2.97Z"/>
      <path class="cls-11" d="M582.72,2229.16c0-6.75,4.41-12.24,11.02-12.24,6.97,0,10.71,5.4,10.71,13.09h-18c.27,4.73,2.83,8.33,7.51,8.33,3.38,0,5.62-1.62,6.44-4.77h3.55c-1.08,5-4.72,7.83-9.99,7.83-7.11,0-11.25-5.49-11.25-12.24ZM586.54,2227.27h13.99c-.22-4.63-2.61-7.47-6.79-7.47s-6.66,3.24-7.2,7.47Z"/>
      <path class="cls-11" d="M607.69,2208.6h3.64v32.17h-3.64v-32.17Z"/>
      <path class="cls-11" d="M616.11,2208.6h3.64v32.17h-3.64v-32.17Z"/>
      <path class="cls-11" d="M639.19,2240.77v-3.2h-.09c-1.67,2.25-3.64,3.74-7.02,3.74-4.77,0-7.83-2.88-7.83-7.69v-16.11h3.64v16.02c0,3.02,1.94,4.77,5.22,4.77,3.69,0,6.08-2.79,6.08-6.48v-14.31h3.64v23.26h-3.64Z"/>
      <path class="cls-11" d="M650.98,2220.57h.09c1.66-2.21,4-3.6,7.38-3.6,4.86,0,7.83,2.65,7.83,7.47v16.33h-3.64v-16.02c0-3.01-1.98-4.72-5.27-4.72-3.69,0-6.39,2.61-6.39,6.43v14.31h-3.65v-23.26h3.65v3.06Z"/>
      <path class="cls-11" d="M670.06,2242.07h3.38c.36,2.57,2.79,3.55,6.39,3.55,4.28,0,6.66-1.93,6.66-5.98v-3.29h-.09c-1.71,2.21-3.56,3.6-6.88,3.6-6.03,0-10.17-4.82-10.17-11.52,0-7.25,4.54-11.47,9.94-11.47,3.38,0,5.54,1.3,7.11,3.51h.09v-2.97h3.64v22c0,6.12-4.05,9-10.21,9s-9.45-2.43-9.86-6.43ZM686.76,2228.26c0-5.08-2.16-8.23-7.11-8.23-4.37,0-6.57,3.42-6.57,8.46s2.29,8.41,6.62,8.41c5.35,0,7.06-3.73,7.06-8.64Z"/>
      <path class="cls-11" d="M162.15,2247.2v-.9h530.45v.9H162.15Z"/>
    </g>
    <g class="cls-7">
      <g>
        <polyline class="cls-2" points="-38.49 1475.63 10.23 1633.79 10.23 1659.05"/>
        <polyline class="cls-2" points="-151.04 771.91 -106.77 832.97 837.72 670.53 1143.72 482.04"/>
        <polyline class="cls-2" points="837.72 670.53 870.51 770.6 972.81 939.45 977.47 1020.07 1025.29 1112.67 1023.11 1659.05"/>
        <polyline class="cls-2" points="1347.65 1128.36 1025.29 1453.84 974.63 1483.86 570.65 1480.22 216.2 1589.39 10.23 1617.99 -151.04 1617.99"/>
        <polyline class="cls-2" points="961.34 594.38 1100.5 724.74 1133.25 772.05 1198.76 806.99 1277.36 806.99 1347.65 770.6"/>
        <polyline class="cls-2" points="570.65 1480.22 570.65 1417.1 402.84 1418.82 171.29 1430.13 87.74 1447.46 -77.58 1484.35 -154.91 1490.57"/>
        <polyline class="cls-2" points="1124.22 759 1073.88 787.57 1002.24 747.34 912.4 839.74 747.21 990.75 760 1077.63 701.11 1104.54 602.91 1383.31 570.65 1417.1 430.44 1473.2 156.63 1526.46 -151.04 1583.77"/>
        <polyline class="cls-2" points="339.37 1551.45 295.02 1338.9 244.86 1209.41 120.74 606.62 -151.04 466.89"/>
        <polyline class="cls-2" points="625.23 901.97 600.35 957.63 555.15 979.62 556.77 995.51 634.54 1013.83 659.07 1076.96 612.13 1097.27 568.67 1054.92 528.92 1071.02 474.23 1065.35 459.9 1094.08 491.89 1119.21 473.93 1151.43 437.73 1169.51 405.92 1128.36 374.72 1129.53 346.78 1176.89 439.88 1238.99 473.99 1234.73 549.41 1140.36 595.69 1150.37 584.63 1201.49 543.13 1258.44 480.95 1301.86 406.79 1294.87 314.71 1230.69 249.21 1220.65 191.3 1273.97 131.75 1289.61 98.7 1408.65 106.9 1535.72 143.65 1574.33 140.31 1655.34"/>
        <polyline class="cls-2" points="464.87 939.63 476.66 991.76 400.87 1056.53 405.92 1128.36"/>
        <polyline class="cls-2" points="-154.91 1398.69 -106.77 1374.46 -28.77 1392.74 28.25 1369.07 41.44 1288.43 125.35 1186.94 309.64 1117.6 353.47 1056.53 389.92 955.19 886.01 843 912.4 839.74"/>
        <polyline class="cls-2" points="-151.04 1115.35 264.36 1076.38 373.28 1001.46"/>
        <polyline class="cls-2" points="-151.04 1228.08 -87.82 1289.61 -27.87 1262.88 4.8 1196.42 97.82 1140.84 107.71 993.25 74.78 801.75"/>
        <polyline class="cls-2" points="634.54 1013.83 690.02 1007.12 679.77 956 711.77 940.46 747.21 990.75"/>
        <polyline class="cls-2" points="-106.77 832.97 -19.04 906.31 93.74 930.99 869.66 752.22"/>
        <line class="cls-2" x1="-151.04" y1="771.91" x2="1347.65" y2="436.38"/>
        <line class="cls-2" x1="309.64" y1="975.65" x2="240.27" y2="684.3"/>
        <polyline class="cls-2" points="-154.91 975.65 107.71 993.25 209.07 1001.28 389.92 955.19 316.82 606.62 120.74 606.62"/>
        <line class="cls-2" x1="448.18" y1="637.76" x2="513.64" y2="927.21"/>
        <line class="cls-2" x1="625.23" y1="901.97" x2="581.84" y2="713.68"/>
        <polyline class="cls-2" points="677.54 589.21 819.44 1071.17 863.38 1142.85 904.81 1141.61 982.46 1301.25 934.13 1350.94 1024.07 1417.3"/>
        <polyline class="cls-2" points="656.54 1480.93 664.45 1419.72 940.84 1099.92 1096.79 1014.52 1347.65 814.67"/>
        <polyline class="cls-2" points="113.01 1357.09 195 1331.1 299.76 1361.63 350.1 1329.52 400.64 1363.62 532.82 1369.17 598.5 1294.3 759.24 1433.06 759.24 1659.05"/>
        <polyline class="cls-2" points="584.63 1201.49 888.88 1435.6 945.84 1659.05"/>
        <polyline class="cls-2" points="660.87 1349.1 972.81 939.45 1073.88 863.97 1116.99 894.83 1096.79 1014.52"/>
        <line class="cls-2" x1="584.61" y1="1310.14" x2="543.13" y2="1258.44"/>
        <polyline class="cls-2" points="787.35 1179.44 893.67 1268.23 1347.65 1070.8"/>
        <polyline class="cls-2" points="893.67 1268.23 812.12 1369.51 820.54 1659.05"/>
        <polyline class="cls-2" points="929.05 1191.45 1233.51 1053.6 1300.95 983.35 1347.65 968.42"/>
        <polyline class="cls-2" points="216.2 1589.39 236.32 1510.96 171.29 1430.13"/>
      </g>
    </g>
    <polygon class="cls-3" points="818.66 1594.36 812.12 1369.51 893.67 1268.23 1024.07 1211.52 1025.29 1112.67 977.47 1020.07 972.81 939.45 870.51 770.6 837.72 670.53 157.97 787.44 127.16 637.76 244.86 1209.41 249.21 1220.65 295.02 1338.9 339.37 1551.45 570.65 1480.22 815.4 1482.42 818.66 1594.36"/>
    <rect class="cls-11" x="846.89" y="1551.49" width="28.58" height="28.58"/>
    <rect class="cls-11" x="333.36" y="1368.14" width="28.58" height="28.58"/>
    <rect class="cls-11" x="151.3" y="1027.41" width="28.58" height="28.58"/>
    <rect class="cls-11" x="68.5" y="653.63" width="28.58" height="28.58"/>
    <rect class="cls-11" x="894.8" y="904.14" width="28.58" height="28.58"/>
    <path class="cls-11" d="M117.1,2226.65l-20.94-18.69,3.34-4.24,27.71,25.37v.09l-27.71,25.37-3.34-4.15,20.94-18.78h-42.97v-4.96h42.97Z"/>
    <g class="cls-8">
      <g>
        <path class="cls-13" d="M988.47,2207.01c33.78,0,66.46,12.23,92,34.43,28.29,24.6,45.31,58.74,47.93,96.13,2.61,37.4-9.49,73.57-34.09,101.87-13.58,15.62-29.95,27.77-48.65,36.11-17.86,7.96-37.69,12.17-57.35,12.17-33.78,0-66.46-12.23-92-34.43-28.29-24.6-45.31-58.74-47.93-96.13-2.61-37.4,9.49-73.57,34.09-101.87,13.58-15.62,29.95-27.77,48.65-36.11,17.86-7.96,37.69-12.17,57.35-12.17M988.47,2151.03c-54.87,0-109.43,22.86-148.25,67.52-71.14,81.83-62.47,205.84,19.36,276.98,37.17,32.31,83.06,48.16,128.72,48.16,54.87,0,109.43-22.86,148.25-67.52,71.14-81.83,62.47-205.84-19.36-276.98-37.17-32.31-83.06-48.16-128.72-48.16h0Z"/>
        <g>
          <line class="cls-13" x1="836.62" y1="2418.14" x2="621.82" y2="2518.32"/>
          <rect class="cls-13" x="610.71" y="2440.22" width="237.02" height="56.03" transform="translate(-974.9 539.53) rotate(-25)"/>
        </g>
      </g>
    </g>
  </g>
</svg>