<?xml version="1.0" encoding="UTF-8"?>
<svg id="Ebene_2" data-name="Ebene 2" xmlns="http://www.w3.org/2000/svg" xmlns:xlink="http://www.w3.org/1999/xlink" viewBox="0 0 1170 2533">
  <defs>
    <style>
      .cls-1, .cls-2, .cls-3, .cls-4, .cls-5 {
        fill: none;
      }

      .cls-6 {
        fill: #05141d;
      }

      .cls-7 {
        fill: #01141e;
      }

      .cls-8 {
        fill: #2b2b2a;
      }

      .cls-9 {
        clip-path: url(#clippath-1);
      }

      .cls-10 {
        clip-path: url(#clippath-2);
      }

      .cls-11 {
        fill: #fff;
      }

      .cls-2 {
        stroke-width: 21.54px;
      }

      .cls-2, .cls-3, .cls-4 {
        stroke: #c7c7c6;
      }

      .cls-2, .cls-3, .cls-4, .cls-5 {
        stroke-miterlimit: 10;
      }

      .cls-12 {
        fill: #03161d;
      }

      .cls-3 {
        stroke-width: 55.4px;
      }

      .cls-4 {
        stroke-width: 54.01px;
      }

      .cls-13 {
        fill: red;
      }

      .cls-5 {
        stroke: red;
        stroke-width: 21.64px;
      }

      .cls-14 {
        fill: #ededed;
      }

      .cls-15 {
        fill: #c7c7c6;
      }

      .cls-16 {
        clip-path: url(#clippath);
      }
    </style>
    <clipPath id="clippath">
      <rect class="cls-1" x="126.94" y="165.51" width="918.12" height="246.85"/>
    </clipPath>
    <clipPath id="clippath-1">
      <rect class="cls-1" x="0" y="182.54" width="1170" height="1460.65"/>
    </clipPath>
    <clipPath id="clippath-2">
      <rect class="cls-1" x="421.82" y="1643.19" width="748.18" height="888.81"/>
    </clipPath>
  </defs>
  <g id="Ebene_1-2" data-name="Ebene 1">
    <rect class="cls-11" x="0" y="0" width="1170" height="2533"/>
    <g class="cls-16">
      <path class="cls-13" d="M1039.83,339.74c2.83,0,5.23-2.4,5.23-5.23s-2.4-5.23-5.23-5.23-5.12,2.4-5.12,5.23,2.4,5.23,5.12,5.23M1018.68,339.41c2.83,0,6.98-1.09,8.94-3.92v-2.18c-.98.87-2.62,2.29-5.56,2.29-5.01,0-7.08-3.71-7.08-7.52v-40.22h12.75v-2.83h-12.75v-14.06h-2.94c-1.85,8.61-5.89,13.51-12.1,15.04v1.85h7.41v39.78c0,8.5,5.99,11.77,11.34,11.77M961.36,338.65c6.43-.33,13.73-.33,21.04,0v-2.07c-3.49-.44-7.3-1.53-7.3-6.43v-28.34c0-4.9,2.29-12.97,7.52-12.97,4.25,0,5.01,5.45,9.37,5.45,2.51,0,4.14-2.07,4.14-4.47,0-3.49-3.38-6.76-8.83-6.76-6.32,0-11.12,4.25-13.62,13.62h-.65l2.72-11.99c-.33-.98-.87-1.53-1.74-1.85-2.51,1.96-7.3,4.36-12.97,5.12v2.07c4.36-.33,6.43.22,6.43,3.71v36.4c0,4.9-2.94,5.99-6.1,6.43v2.07ZM933.67,285.14c9.37,0,14.28,8.39,12.97,22.34h-26.16c.11-14.93,4.58-22.34,13.19-22.34M939.01,336.91c-11.44,0-17.98-11.01-18.53-27.14h30.08c3.49,0,4.58-2.4,4.58-6.87,0-13.73-10.03-19.84-20.6-19.84-14.06,0-22.89,11.66-22.89,28.56,0,17.77,10.03,28.23,24.2,28.23,9.59,0,16.46-4.9,18.96-11.23h-2.51c-2.62,6.32-8.61,8.28-13.3,8.28M886.7,338.65c6.76-.54,13.84-.54,20.6,0v-2.07c-3.38-.44-6.43-1.53-6.43-6.43v-32.48c0-6.65,0-10.79.65-12.97-.44-.98-.98-1.53-1.85-1.85-3.6,2.4-7.3,4.25-12.53,5.12v2.07c3.81,0,6.1,2.83,6.1,7.63v32.48c0,4.9-3.05,5.99-6.54,6.43v2.07ZM896.29,273.37c2.72,0,5.12-2.29,5.12-5.12s-2.4-5.01-5.12-5.01-5.01,2.18-5.01,5.01,2.29,5.12,5.01,5.12M830.46,338.65c6.65-.33,13.3-.33,19.95,0v-2.07c-3.27-.65-6.21-1.53-6.21-6.43v-28.66c0-7.52,4.9-13.73,12.64-13.73s12.21,5.89,12.21,13.73v28.66c0,4.9-2.72,5.78-5.99,6.43v2.07c6.54-.33,13.19-.33,19.84,0v-2.07c-3.27-.44-6.21-1.53-6.21-6.43v-28.99c0-14.5-9.05-18.09-16.35-18.09-12.21,0-16.68,10.03-17.33,13.3h-.44l2.07-11.66c-.33-.98-.87-1.53-1.74-1.85-2.51,2.07-7.08,4.36-12.75,5.12v2.07c4.36-.33,6.43.22,6.43,3.71v36.4c0,4.9-2.72,5.99-6.1,6.43v2.07ZM802.89,337.67c-10.25,0-17.44-12.21-17.44-28.77s6.1-23.65,14.06-23.65c10.35,0,17.44,11.99,17.44,28.77s-5.99,23.65-14.06,23.65M801.36,339.85c12.53,0,23.98-9.7,23.98-28.45s-11.34-28.34-24.3-28.34-23.87,9.7-23.87,28.45,11.23,28.34,24.2,28.34M752.21,338.65c6.76-.54,13.84-.54,20.6,0v-2.07c-3.38-.44-6.43-1.53-6.43-6.43v-32.48c0-6.65,0-10.79.65-12.97-.44-.98-.98-1.53-1.85-1.85-3.6,2.4-7.3,4.25-12.53,5.12v2.07c3.81,0,6.1,2.83,6.1,7.63v32.48c0,4.9-3.05,5.99-6.54,6.43v2.07ZM761.8,273.37c2.72,0,5.12-2.29,5.12-5.12s-2.4-5.01-5.12-5.01-5.01,2.18-5.01,5.01,2.29,5.12,5.01,5.12M737.82,339.41c2.83,0,6.98-1.09,8.94-3.92v-2.18c-.98.87-2.62,2.29-5.56,2.29-5.01,0-7.08-3.71-7.08-7.52v-40.22h12.75v-2.83h-12.75v-14.06h-2.94c-1.85,8.61-5.89,13.51-12.1,15.04v1.85h7.41v39.78c0,8.5,5.99,11.77,11.33,11.77M685.62,307.59c16.89-16.24,21.69-20.93,28.12-21.47v-2.07c-5.01.33-12.64.33-19.62,0v2.07c11.23.54-4.36,15.48-14.39,23.21v-32.59c0-6.65,0-10.79.65-12.97-.44-.98-.98-1.53-1.85-1.85-3.6,2.4-7.3,4.25-12.53,5.12v2.07c3.81,0,6.1,2.83,6.1,7.63v53.41c0,4.9-3.05,5.99-6.54,6.43v2.07c6.76-.54,13.84-.54,20.6,0v-2.07c-3.38-.44-6.43-1.53-6.43-6.43v-18.2l14.82,17.87c6.43,7.63,12.42,10.14,19.07,10.14l2.72-2.07c-2.62,0-8.17-3.81-13.08-9.7l-17.66-20.6ZM610.96,338.65c6.65-.33,13.3-.33,19.95,0v-2.07c-3.27-.65-6.21-1.53-6.21-6.43v-28.66c0-7.52,4.9-13.73,12.64-13.73s12.21,5.89,12.21,13.73v28.66c0,4.9-2.72,5.78-5.99,6.43v2.07c6.54-.33,13.19-.33,19.84,0v-2.07c-3.27-.44-6.21-1.53-6.21-6.43v-28.99c0-14.5-9.05-18.09-16.35-18.09-12.21,0-16.68,10.03-17.33,13.3h-.44l2.07-11.66c-.33-.98-.87-1.53-1.74-1.85-2.51,2.07-7.08,4.36-12.75,5.12v2.07c4.36-.33,6.43.22,6.43,3.71v36.4c0,4.9-2.72,5.99-6.1,6.43v2.07ZM594.5,339.85c4.25-1.2,7.52-1.2,12.75-1.2v-2.07c-4.03-.87-6.21-2.07-6.21-7.74v-43.38c0-1.42-.33-2.07-2.18-1.74l-11.66,1.09v2.07c5.34.22,6.32,1.63,6.32,5.99v28.12c-.98,7.63-5.45,14.06-13.19,14.06s-12.42-6.65-12.42-14.06v-35.53c0-1.42-.76-1.85-2.18-1.74l-11.66,1.09v2.07c5.12.22,6.32,1.85,6.32,5.99v28.45c0,14.82,9.37,18.31,16.46,18.31,12.1,0,16.89-9.92,17.22-11.66h.54l-1.53,10.03c0,.98.65,1.53,1.42,1.85M543.71,262.58c-7.74,0-14.6,4.25-14.6,17.33v5.56c-1.31.54-3.92,1.09-6.1,1.09v2.07h6.1v41.53c0,4.9-3.05,5.99-6.54,6.43v2.07c6.76-.54,13.84-.54,21.8,0v-2.07c-4.58-.44-7.63-1.53-7.63-6.43v-41.53h11.99v-3.16h-11.99v-6.87c0-7.19.54-13.84,5.67-13.84,6.21,0,4.69,9.16,9.81,9.16,2.62,0,3.05-2.18,3.05-3.49,0-3.27-3.6-7.85-11.55-7.85M485.3,339.41c2.83,0,6.98-1.09,8.94-3.92v-2.18c-.98.87-2.62,2.29-5.56,2.29-5.01,0-7.08-3.71-7.08-7.52v-40.22h12.75v-2.83h-12.75v-14.06h-2.94c-1.85,8.61-5.89,13.51-12.1,15.04v1.85h7.41v39.78c0,8.5,5.99,11.77,11.33,11.77M436.36,336.69c-11.55,0-16.46-14.28-16.46-27.36,0-16.35,7.74-23.87,15.91-23.87,5.78,0,11.01,3.49,13.19,10.35v28.77c0,5.89-5.01,12.1-12.64,12.1M450.31,339.85c4.25-1.2,7.19-1.2,12.42-1.2v-2.07c-4.03-.87-6.1-2.07-6.1-7.74v-52.1c0-6.65,0-10.79.65-12.97-.33-.98-.98-1.53-1.85-1.85-3.6,2.4-7.3,4.25-12.53,5.12v2.07c3.81,0,6.1,2.83,6.1,7.63v13.19c-2.83-3.92-8.5-6.87-15.26-6.87-12.64,0-22.23,9.92-22.23,28.23s8.83,28.56,21.69,28.56c9.37,0,15.04-5.89,16.68-9.16h.54l-1.53,7.3c0,.98.65,1.53,1.42,1.85M379.9,335.71c-4.9,0-10.68-3.16-10.68-11.55,0-5.45,2.62-12.64,24.2-15.59v13.51c0,7.85-6.54,13.62-13.51,13.62M401.05,301.05c0-12.64-3.16-17.98-16.35-17.98s-21.69,6.21-21.47,13.62c0,3.05,1.42,5.01,4.58,5.01,9.37,0-1.74-16.35,14.5-16.35,9.92,0,11.12,6.21,11.12,16.02v4.9c-27.25,3.81-33.24,11.44-33.24,19.84,0,10.14,7.96,13.73,15.26,13.73,9.05,0,15.26-5.23,17.98-9.59h.76v1.63c0,4.58,1.96,7.96,7.19,7.96,1.63,0,3.6-.22,5.23-1.74v-1.96c-3.49.54-5.56-1.74-5.56-5.78v-29.32ZM346.33,339.41c2.83,0,6.98-1.09,8.94-3.92v-2.18c-.98.87-2.62,2.29-5.56,2.29-5.01,0-7.08-3.71-7.08-7.52v-40.22h12.75v-2.83h-12.75v-14.06h-2.94c-1.85,8.61-5.89,13.51-12.1,15.04v1.85h7.41v39.78c0,8.5,5.99,11.77,11.34,11.77M304.7,339.96c10.03,0,19.62-5.89,19.62-18.09,0-14.06-13.41-18.42-22.78-22.56-8.83-3.81-13.73-8.94-13.73-15.91s5.34-11.88,12.97-11.88c6.98,0,12.97,3.92,16.68,12.21h2.18l-.65-13.62h-2.18c-.54,1.53-1.74,1.85-3.05,1.85-3.49,0-6.43-2.72-13.41-2.72-12.53,0-19.29,8.17-19.29,17.11,0,10.25,8.5,16.78,19.07,21.36,7.19,3.05,16.57,7.74,16.57,17.11,0,6.87-4.9,12.64-14.17,12.64-10.03,0-16.35-6.54-19.4-14.06h-2.18l.87,15.26h2.51c0-1.74,1.74-3.05,3.16-3.05,2.83,0,8.5,4.36,17.22,4.36M229.5,285.14c9.37,0,14.28,8.39,12.97,22.34h-26.16c.11-14.93,4.58-22.34,13.19-22.34M234.84,336.91c-11.44,0-17.98-11.01-18.53-27.14h30.08c3.49,0,4.58-2.4,4.58-6.87,0-13.73-10.03-19.84-20.6-19.84-14.06,0-22.89,11.66-22.89,28.56,0,17.77,10.03,28.23,24.2,28.23,9.59,0,16.46-4.9,18.96-11.23h-2.51c-2.62,6.32-8.61,8.28-13.3,8.28M182.52,338.65c6.76-.54,13.84-.54,20.6,0v-2.07c-3.38-.44-6.43-1.53-6.43-6.43v-32.48c0-6.65,0-10.79.65-12.97-.44-.98-.98-1.53-1.85-1.85-3.6,2.4-7.3,4.25-12.53,5.12v2.07c3.81,0,6.1,2.83,6.1,7.63v32.48c0,4.9-3.05,5.99-6.54,6.43v2.07ZM192.12,273.37c2.72,0,5.12-2.29,5.12-5.12s-2.4-5.01-5.12-5.01-5.01,2.18-5.01,5.01,2.29,5.12,5.01,5.12M151.79,336.69c-11.55,0-16.46-14.28-16.46-27.36,0-16.35,7.74-23.87,15.91-23.87,5.78,0,11.01,3.49,13.19,10.35v28.77c0,5.89-5.01,12.1-12.64,12.1M165.74,339.85c4.25-1.2,7.19-1.2,12.42-1.2v-2.07c-4.03-.87-6.1-2.07-6.1-7.74v-52.1c0-6.65,0-10.79.65-12.97-.33-.98-.98-1.53-1.85-1.85-3.6,2.4-7.3,4.25-12.53,5.12v2.07c3.81,0,6.1,2.83,6.1,7.63v13.19c-2.83-3.92-8.5-6.87-15.26-6.87-12.64,0-22.23,9.92-22.23,28.23s8.83,28.56,21.69,28.56c9.37,0,15.04-5.89,16.68-9.16h.54l-1.53,7.3c0,.98.65,1.53,1.42,1.85"/>
      <path class="cls-8" d="M610.19,252.7c.44.44.76.44,1.42,0,3.81-3.38,5.89-8.39,5.89-12.64,0-3.71-2.07-7.08-5.67-7.08-2.83,0-5.01,1.85-5.01,5.23,0,2.83,2.29,4.58,4.36,4.58.87,0,1.09-.11,1.63-.22.22.33.22.76.22,1.09,0,2.94-1.85,6.32-3.49,7.96l.65,1.09ZM574.23,242.24c6.43-.33,13.73-.33,21.04,0v-2.07c-3.49-.44-7.3-1.53-7.3-6.43v-28.34c0-4.9,2.29-12.97,7.52-12.97,4.25,0,5.01,5.45,9.37,5.45,2.51,0,4.14-2.07,4.14-4.47,0-3.49-3.38-6.76-8.83-6.76-6.32,0-11.12,4.25-13.62,13.62h-.65l2.72-11.99c-.33-.98-.87-1.53-1.74-1.85-2.51,1.96-7.3,4.36-12.97,5.12v2.07c4.36-.33,6.43.22,6.43,3.71v36.4c0,4.9-2.94,5.99-6.1,6.43v2.07ZM546.11,241.25c-10.25,0-17.44-12.21-17.44-28.77s6.1-23.65,14.06-23.65c10.35,0,17.44,11.99,17.44,28.77s-5.99,23.65-14.06,23.65M544.58,243.43c12.53,0,23.98-9.7,23.98-28.45s-11.33-28.34-24.3-28.34-23.87,9.7-23.87,28.45,11.23,28.34,24.2,28.34M501.64,189.7c5.99.11,7.96,1.42,5.89,7.19l-10.46,32.26-11.34-32.26c-2.07-5.78-.87-7.08,4.58-7.19v-2.07h-21.25v2.07c4.14.11,6.32,1.42,8.28,7.19l16.24,45.34h1.42l15.26-45.34c2.07-5.78,4.58-7.08,10.14-7.19v-2.07h-18.75v2.07ZM407.58,242.24c6.43-.33,13.73-.33,21.04,0v-2.07c-3.49-.44-7.3-1.53-7.3-6.43v-28.34c0-4.9,2.29-12.97,7.52-12.97,4.25,0,5.01,5.45,9.37,5.45,2.51,0,4.14-2.07,4.14-4.47,0-3.49-3.38-6.76-8.83-6.76-6.32,0-11.12,4.25-13.62,13.62h-.65l2.72-11.99c-.33-.98-.87-1.53-1.74-1.85-2.51,1.96-7.3,4.36-12.97,5.12v2.07c4.36-.33,6.43.22,6.43,3.71v36.4c0,4.9-2.94,5.99-6.1,6.43v2.07ZM382.41,242.24c6.76-.54,13.84-.54,20.6,0v-2.07c-3.38-.44-6.43-1.53-6.43-6.43v-32.48c0-6.65,0-10.79.65-12.97-.44-.98-.98-1.53-1.85-1.85-3.6,2.4-7.3,4.25-12.53,5.12v2.07c3.81,0,6.1,2.83,6.1,7.63v32.48c0,4.9-3.05,5.99-6.54,6.43v2.07ZM392,176.95c2.72,0,5.12-2.29,5.12-5.12s-2.4-5.01-5.12-5.01-5.01,2.18-5.01,5.01,2.29,5.12,5.01,5.12M351.68,240.27c-11.55,0-16.46-14.28-16.46-27.36,0-16.35,7.74-23.87,15.91-23.87,5.78,0,11.01,3.49,13.19,10.35v28.77c0,5.89-5.01,12.1-12.64,12.1M365.63,243.43c4.25-1.2,7.19-1.2,12.42-1.2v-2.07c-4.03-.87-6.1-2.07-6.1-7.74v-52.1c0-6.65,0-10.79.65-12.97-.33-.98-.98-1.53-1.85-1.85-3.6,2.4-7.3,4.25-12.53,5.12v2.07c3.81,0,6.1,2.83,6.1,7.63v13.19c-2.83-3.92-8.5-6.87-15.26-6.87-12.64,0-22.23,9.92-22.23,28.23s8.83,28.56,21.69,28.56c9.37,0,15.04-5.89,16.68-9.16h.54l-1.53,7.3c0,.98.65,1.53,1.42,1.85M277.89,242.24c6.76-.54,13.84-.54,20.6,0v-2.07c-3.38-.44-6.43-1.53-6.43-6.43v-53.41c0-6.65,0-10.79.65-12.97-.44-.98-.98-1.53-1.85-1.85-3.6,2.4-7.3,4.25-12.53,5.12v2.07c3.81,0,6.1,2.83,6.1,7.63v53.41c0,4.9-3.05,5.99-6.54,6.43v2.07ZM254.02,242.24c6.76-.54,13.84-.54,20.6,0v-2.07c-3.38-.44-6.43-1.53-6.43-6.43v-53.41c0-6.65,0-10.79.65-12.97-.44-.98-.98-1.53-1.85-1.85-3.6,2.4-7.3,4.25-12.53,5.12v2.07c3.81,0,6.1,2.83,6.1,7.63v53.41c0,4.9-3.05,5.99-6.54,6.43v2.07ZM227.65,188.72c9.37,0,14.28,8.39,12.97,22.34h-26.16c.11-14.93,4.58-22.34,13.19-22.34M232.99,240.49c-11.44,0-17.98-11.01-18.53-27.14h30.08c3.49,0,4.58-2.4,4.58-6.87,0-13.73-10.03-19.84-20.6-19.84-14.06,0-22.89,11.66-22.89,28.56,0,17.77,10.03,28.23,24.2,28.23,9.59,0,16.46-4.9,18.96-11.23h-2.51c-2.62,6.32-8.61,8.28-13.3,8.28M192.33,243c2.83,0,6.98-1.09,8.94-3.92v-2.18c-.98.87-2.62,2.29-5.56,2.29-5.01,0-7.08-3.71-7.08-7.52v-40.22h12.75v-2.83h-12.75v-14.06h-2.94c-1.85,8.61-5.89,13.51-12.1,15.04v1.85h7.41v39.78c0,8.5,5.99,11.77,11.33,11.77M150.7,243.54c10.03,0,19.62-5.89,19.62-18.09,0-14.06-13.41-18.42-22.78-22.56-8.83-3.81-13.73-8.94-13.73-15.91s5.34-11.88,12.97-11.88c6.98,0,12.97,3.92,16.68,12.21h2.18l-.65-13.62h-2.18c-.54,1.53-1.74,1.85-3.05,1.85-3.49,0-6.43-2.72-13.41-2.72-12.53,0-19.29,8.17-19.29,17.11,0,10.25,8.5,16.78,19.07,21.36,7.19,3.05,16.57,7.74,16.57,17.11,0,6.87-4.9,12.64-14.17,12.64-10.03,0-16.35-6.54-19.4-14.06h-2.18l.87,15.26h2.51c0-1.74,1.74-3.05,3.16-3.05,2.83,0,8.5,4.36,17.22,4.36"/>
      <path class="cls-7" d="M936.96,406.59h3.25v-3.32h-3.25v3.32ZM925.59,391.46h2.52v11.87c0,2.45,1.61,3.35,3.82,3.35.8,0,1.54-.1,2.18-.23v-2.35h-.1c-.3.1-.91.23-1.44.23-1.11,0-1.74-.4-1.74-1.61v-11.27h3.35v-2.21h-3.35v-5.47h-2.72v5.47h-2.52v2.21ZM912.04,382.61h-2.72v23.98h2.72v-10.66c0-2.85,2.01-4.8,4.76-4.8,2.45,0,3.92,1.27,3.92,3.52v11.94h2.72v-12.17c0-3.59-2.21-5.57-5.84-5.57-2.52,0-4.26,1.04-5.5,2.68h-.07v-8.92ZM899.33,407.06c4.33,0,7.04-2.41,7.41-6.57h-2.68c-.23,2.68-1.91,4.29-4.73,4.29-3.69,0-5.6-3.02-5.6-6.84s1.91-6.87,5.6-6.87c2.62,0,4.26,1.44,4.66,3.79h2.75c-.6-3.69-3.32-6.04-7.41-6.04-5.16,0-8.38,4.09-8.38,9.12s3.22,9.12,8.38,9.12M885.52,385.96h2.72v-3.35h-2.72v3.35ZM885.52,406.59h2.72v-17.34h-2.72v17.34ZM870.53,389.25h-2.72v17.34h2.72v-10.66c0-2.85,2.01-4.8,4.76-4.8,2.45,0,3.92,1.27,3.92,3.52v11.94h2.72v-12.17c0-3.59-2.21-5.57-5.84-5.57-2.52,0-4.26,1.04-5.5,2.68h-.07v-2.28ZM851.85,390.96c3.12,0,4.9,2.11,5.06,5.57h-10.43c.4-3.15,2.15-5.57,5.37-5.57M852.01,407.06c3.92,0,6.64-2.11,7.44-5.84h-2.65c-.6,2.35-2.28,3.55-4.8,3.55-3.49,0-5.4-2.68-5.6-6.2h13.41c0-5.73-2.78-9.76-7.98-9.76-4.93,0-8.22,4.09-8.22,9.12s3.09,9.12,8.38,9.12M836.49,389.25h-2.72v17.34h2.72v-9.62c0-3.25,2.35-5.27,5.03-5.27.54,0,.8.03,1.21.17h.1v-2.62c-.34-.13-.6-.2-1.11-.2-2.31,0-4.12,1.41-5.16,3.09h-.07v-2.88ZM823.14,390.96c3.12,0,4.9,2.11,5.06,5.57h-10.43c.4-3.15,2.15-5.57,5.37-5.57M823.31,407.06c3.92,0,6.64-2.11,7.44-5.84h-2.65c-.6,2.35-2.28,3.55-4.8,3.55-3.49,0-5.4-2.68-5.6-6.2h13.41c0-5.73-2.78-9.76-7.98-9.76-4.93,0-8.22,4.09-8.22,9.12s3.09,9.12,8.38,9.12M804.16,404.81c-3.32,0-5-2.88-5-6.81s1.68-6.84,4.96-6.84c3.59,0,5.53,2.82,5.53,6.84s-1.64,6.81-5.5,6.81M804.06,407.09c2.45,0,4.06-.94,5.37-2.62h.07v2.11h2.72v-23.98h-2.72v9.09h-.07c-1.11-1.64-2.98-2.85-5.43-2.85-4.29,0-7.61,3.35-7.61,9.12s2.95,9.12,7.68,9.12M782.36,389.25h-2.72v17.34h2.72v-10.66c0-2.85,2.01-4.8,4.76-4.8,2.45,0,3.92,1.27,3.92,3.52v11.94h2.72v-12.17c0-3.59-2.21-5.57-5.84-5.57-2.52,0-4.26,1.04-5.5,2.68h-.07v-2.28ZM767.97,404.84c-1.78,0-3.59-.5-3.59-2.82,0-2.55,2.18-3.02,4.9-3.52,1.48-.27,3.05-.7,3.96-1.27v2.95c0,2.01-1.64,4.66-5.27,4.66M776.16,406.75c.7,0,1.14-.13,1.48-.27v-1.98h-.1c-1.51.34-1.84-.44-1.84-1.84v-8.25c0-4.12-2.72-5.5-6.41-5.5-4.59,0-6.81,2.52-6.91,5.87h2.62c.1-2.62,1.51-3.82,4.33-3.82,2.48,0,3.89,1.11,3.89,3.05s-1.71,2.11-4.16,2.48c-4.33.67-7.55,1.51-7.55,5.6,0,3.29,2.58,4.83,5.87,4.83,2.95,0,4.73-1.41,5.77-2.75h.03c.27,1.78,1.21,2.58,2.98,2.58M748.42,389.25h-2.72v17.34h2.72v-9.62c0-3.25,2.35-5.27,5.03-5.27.54,0,.8.03,1.21.17h.1v-2.62c-.34-.13-.6-.2-1.11-.2-2.31,0-4.12,1.41-5.16,3.09h-.07v-2.88ZM731.15,385.96h2.62v-3.19h-2.62v3.19ZM736.65,385.96h2.62v-3.19h-2.62v3.19ZM742.02,406.59v-17.34h-2.72v10.66c0,2.75-1.78,4.83-4.53,4.83-2.45,0-3.89-1.31-3.89-3.55v-11.94h-2.72v12.01c0,3.59,2.28,5.73,5.84,5.73,2.52,0,3.99-1.11,5.23-2.78h.07v2.38h2.72ZM710.46,406.59h3.02v-11.3h11.03v-2.55h-11.03v-7.48h13.25v-2.65h-16.26v23.98ZM692.32,406.59h3.25v-3.32h-3.25v3.32ZM692.69,400.79h2.55c.03-3.42.77-4.26,3.55-6.57,1.58-1.31,3.09-2.88,3.09-5.63,0-3.52-2.58-6.41-7.31-6.41-5.6,0-7.91,3.59-8.02,8.15h2.75c.1-3.42,1.71-5.73,5.16-5.73,2.95,0,4.53,1.88,4.53,4.02s-1.31,3.22-2.78,4.53c-2.55,2.25-3.49,3.96-3.52,7.65M673.17,382.61h-2.72v23.98h2.72v-10.66c0-2.85,2.01-4.8,4.76-4.8,2.45,0,3.92,1.27,3.92,3.52v11.94h2.72v-12.17c0-3.59-2.21-5.57-5.84-5.57-2.52,0-4.26,1.04-5.5,2.68h-.07v-8.92ZM660.46,407.06c4.33,0,7.04-2.41,7.41-6.57h-2.68c-.23,2.68-1.91,4.29-4.73,4.29-3.69,0-5.6-3.02-5.6-6.84s1.91-6.87,5.6-6.87c2.62,0,4.26,1.44,4.66,3.79h2.75c-.6-3.69-3.32-6.04-7.41-6.04-5.16,0-8.38,4.09-8.38,9.12s3.22,9.12,8.38,9.12M646.65,385.96h2.72v-3.35h-2.72v3.35ZM646.65,406.59h2.72v-17.34h-2.72v17.34ZM634.91,404.81c-3.32,0-5-2.88-5-6.81s1.68-6.84,4.96-6.84c3.59,0,5.53,2.82,5.53,6.84s-1.64,6.81-5.5,6.81M634.81,407.09c2.45,0,4.06-.94,5.37-2.62h.07v2.11h2.72v-23.98h-2.72v9.09h-.07c-1.11-1.64-2.98-2.85-5.43-2.85-4.29,0-7.61,3.35-7.61,9.12s2.95,9.12,7.68,9.12M613.98,389.25h-2.72v17.34h2.72v-9.62c0-3.25,2.35-5.27,5.03-5.27.54,0,.8.03,1.21.17h.1v-2.62c-.34-.13-.6-.2-1.11-.2-2.31,0-4.12,1.41-5.16,3.09h-.07v-2.88ZM596.71,385.96h2.62v-3.19h-2.62v3.19ZM602.21,385.96h2.62v-3.19h-2.62v3.19ZM607.58,406.59v-17.34h-2.72v10.66c0,2.75-1.78,4.83-4.53,4.83-2.45,0-3.89-1.31-3.89-3.55v-11.94h-2.72v12.01c0,3.59,2.28,5.73,5.84,5.73,2.52,0,3.99-1.11,5.23-2.78h.07v2.38h2.72ZM582.86,391.46h2.38v15.12h2.72v-15.12h3.22v-2.21h-3.22v-2.65c0-1.41.64-1.84,2.38-1.84.27,0,.4,0,.87.03v-2.31c-.37-.03-.8-.07-1.37-.07-2.88,0-4.6,1.07-4.6,4.06v2.78h-2.38v2.21ZM569.18,407.09c3.99,0,6.84-1.78,6.84-5.27,0-3.99-2.92-4.76-6.41-5.47-2.98-.6-4.66-.97-4.66-2.85,0-1.37,1.01-2.48,3.49-2.48s3.82,1.01,4.09,3.29h2.78c-.4-3.39-2.52-5.43-6.81-5.43-4.02,0-6.24,1.88-6.24,4.76,0,3.79,3.05,4.49,6.47,5.2,3.19.67,4.53,1.17,4.53,3.12,0,1.61-1.17,2.85-4.02,2.85-2.58,0-4.59-.84-4.96-3.86h-2.78c.27,3.89,2.92,6.14,7.68,6.14M551.54,404.78c-3.69,0-5.6-3.02-5.6-6.84s1.91-6.87,5.6-6.87,5.57,3.05,5.57,6.87-1.88,6.84-5.57,6.84M551.54,407.06c5.2,0,8.35-4.09,8.35-9.12s-3.15-9.12-8.35-9.12-8.38,4.09-8.38,9.12,3.22,9.12,8.38,9.12M537.62,406.59h2.72v-23.98h-2.72v23.98ZM528.07,407.09c3.99,0,6.84-1.78,6.84-5.27,0-3.99-2.92-4.76-6.41-5.47-2.98-.6-4.66-.97-4.66-2.85,0-1.37,1.01-2.48,3.49-2.48s3.82,1.01,4.09,3.29h2.78c-.4-3.39-2.52-5.43-6.81-5.43-4.02,0-6.24,1.88-6.24,4.76,0,3.79,3.05,4.49,6.47,5.2,3.19.67,4.53,1.17,4.53,3.12,0,1.61-1.17,2.85-4.02,2.85-2.58,0-4.59-.84-4.96-3.86h-2.78c.27,3.89,2.92,6.14,7.68,6.14M510.02,403.7c-3.22,0-4.93-2.48-4.93-6.27s1.64-6.3,4.9-6.3c3.69,0,5.3,2.35,5.3,6.14s-1.27,6.44-5.27,6.44M510.19,412.36c4.59,0,7.61-2.15,7.61-6.71v-16.4h-2.72v2.21h-.07c-1.17-1.64-2.78-2.62-5.3-2.62-4.02,0-7.41,3.15-7.41,8.55,0,5,3.09,8.59,7.58,8.59,2.48,0,3.86-1.04,5.13-2.68h.07v2.45c0,3.02-1.78,4.46-4.96,4.46-2.68,0-4.49-.74-4.76-2.65h-2.52c.3,2.98,2.85,4.8,7.34,4.8M488.29,389.25h-2.72v17.34h2.72v-10.66c0-2.85,2.01-4.8,4.76-4.8,2.45,0,3.92,1.27,3.92,3.52v11.94h2.72v-12.17c0-3.59-2.21-5.57-5.84-5.57-2.52,0-4.26,1.04-5.5,2.68h-.07v-2.28ZM481.89,406.59v-17.34h-2.72v10.66c0,2.75-1.78,4.83-4.53,4.83-2.45,0-3.89-1.31-3.89-3.55v-11.94h-2.72v12.01c0,3.59,2.28,5.73,5.84,5.73,2.52,0,3.99-1.11,5.23-2.78h.07v2.38h2.72ZM457.74,404.81c-3.69,0-5.5-2.92-5.5-6.81s1.74-6.84,5.53-6.84c3.29,0,4.86,2.95,4.86,6.84s-1.58,6.81-4.9,6.81M457.94,407.09c4.69,0,7.48-3.55,7.48-9.12s-2.98-9.12-7.38-9.12c-2.52,0-4.26,1.11-5.57,2.88h-.07v-9.12h-2.72v23.98h2.72v-2.28h.07c1.41,1.95,3.12,2.78,5.47,2.78M443.29,385.96h2.72v-3.35h-2.72v3.35ZM443.29,406.59h2.72v-17.34h-2.72v17.34ZM432.66,390.96c3.12,0,4.9,2.11,5.06,5.57h-10.43c.4-3.15,2.15-5.57,5.37-5.57M432.83,407.06c3.92,0,6.64-2.11,7.44-5.84h-2.65c-.6,2.35-2.28,3.55-4.8,3.55-3.49,0-5.4-2.68-5.6-6.2h13.41c0-5.73-2.78-9.76-7.98-9.76-4.93,0-8.22,4.09-8.22,9.12s3.09,9.12,8.38,9.12M407.07,385.23h7.28c3.52,0,4.86,1.48,4.86,4.39,0,2.72-1.68,4.39-5.03,4.39h-7.11v-8.79ZM404.05,406.59h3.02v-10.13h6.67c3.22,0,4.63,1.24,4.86,4.76.27,4.02.37,4.93.87,5.37h3.25v-.13c-.44-.3-.84-1.27-1.11-5.13-.23-3.55-1.01-5.23-3.45-6.1v-.1c2.88-.94,4.16-3.02,4.16-5.94,0-3.92-2.85-6.57-7.08-6.57h-11.2v23.98Z"/>
    </g>
    <rect class="cls-14" y="1643.19" width="1170" height="889.81"/>
    <g>
      <path class="cls-6" d="M76.38,1717.1h6.52v12.6h12.64v-12.6h6.52v32.17h-6.52v-14.17h-12.64v14.17h-6.52v-32.17Z"/>
      <path class="cls-6" d="M120.35,1746.7h-.09c-1.17,1.75-2.83,3.1-6.79,3.1-4.72,0-8.05-2.47-8.05-7.06,0-5.08,4.14-6.71,9.27-7.42,3.83-.54,5.58-.86,5.58-2.61s-1.3-2.75-3.87-2.75c-2.88,0-4.27,1.04-4.45,3.24h-5.45c.18-4.05,3.2-7.6,9.94-7.6s9.72,3.1,9.72,8.5v11.74c0,1.75.27,2.79.81,3.2v.22h-5.9c-.36-.45-.58-1.53-.72-2.56ZM120.39,1741.12v-3.46c-1.08.63-2.75.99-4.27,1.35-3.2.72-4.77,1.44-4.77,3.6s1.44,2.93,3.6,2.93c3.51,0,5.44-2.16,5.44-4.41Z"/>
      <path class="cls-6" d="M128.58,1741.8h5.67c.4,2.66,2.29,3.83,5.04,3.83s4.23-1.04,4.23-2.66c0-2.21-2.92-2.43-6.08-3.06-4.14-.81-8.19-1.94-8.19-6.97s4.14-7.38,9.4-7.38c6.08,0,9.45,3.01,9.9,7.65h-5.53c-.27-2.47-1.84-3.38-4.46-3.38-2.38,0-3.96.9-3.96,2.57,0,1.98,3.06,2.16,6.34,2.83,3.87.81,8.14,1.89,8.14,7.29,0,4.63-3.96,7.42-9.72,7.42-6.7,0-10.44-3.24-10.8-8.14Z"/>
      <path class="cls-6" d="M150.05,1726.19h3.2v-7.2h5.98v7.2h3.96v4.05h-3.96v12.24c0,1.71.95,2.29,2.29,2.29.77,0,1.8-.04,1.8-.04v4.5s-1.39.09-3.82.09c-2.97,0-6.25-1.17-6.25-5.54v-13.54h-3.2v-4.05Z"/>
      <path class="cls-6" d="M172.77,1737.75c0-7.2,4.09-12.19,9.85-12.19,3.24,0,5.26,1.48,6.53,3.42h.13v-11.88h6.12v32.17h-5.9v-3.01h-.09c-1.35,2.21-3.64,3.69-6.88,3.69-5.8,0-9.76-4.72-9.76-12.19ZM189.42,1737.88c0-4.41-1.44-7.38-5.35-7.38-3.38,0-5.08,2.97-5.08,7.25s1.75,7.06,4.91,7.06c3.64,0,5.53-2.7,5.53-6.93Z"/>
      <path class="cls-6" d="M213.94,1749.27v-2.7h-.13c-1.57,2.12-3.38,3.33-6.61,3.33-5.13,0-8.01-3.29-8.01-8.32v-15.39h6.07v14.35c0,2.7,1.22,4.18,3.83,4.18,2.88,0,4.63-2.16,4.63-5.22v-13.32h6.12v23.08h-5.9Z"/>
      <path class="cls-6" d="M230.73,1749.94h6.08c.49,1.44,1.8,2.57,4.63,2.57,3.46,0,5.13-1.67,5.13-4.82v-2.52h-.14c-1.35,1.53-3.1,2.7-6.03,2.7-5.13,0-10.17-4.05-10.17-11.03s4.14-11.29,9.99-11.29c2.88,0,4.99,1.12,6.39,3.06h.09v-2.43h5.89v21.33c0,3.24-1.04,5.44-2.75,7.02-1.93,1.8-4.9,2.61-8.32,2.61-6.3,0-10.17-2.7-10.8-7.2ZM246.88,1736.71c0-3.38-1.8-6.25-5.49-6.25-3.11,0-5.17,2.43-5.17,6.3s2.07,6.21,5.22,6.21c3.87,0,5.44-2.83,5.44-6.25Z"/>
      <path class="cls-6" d="M255.44,1737.7c0-6.84,4.63-12.15,11.38-12.15,7.42,0,11.38,5.67,11.38,13.9h-16.74c.45,3.55,2.43,5.76,5.89,5.76,2.39,0,3.78-1.08,4.46-2.83h6.03c-.86,4.09-4.5,7.56-10.44,7.56-7.65,0-11.97-5.35-11.97-12.24ZM261.55,1735.23h10.26c-.18-2.92-2.12-4.95-4.9-4.95-3.24,0-4.82,1.93-5.36,4.95Z"/>
      <path class="cls-6" d="M287.02,1729.33h.13c1.58-2.47,3.69-3.78,6.84-3.78,4.77,0,7.96,3.6,7.96,8.64v15.07h-6.12v-14.17c0-2.47-1.44-4.23-4-4.23-2.7,0-4.68,2.16-4.68,5.31v13.09h-6.12v-23.08h5.98v3.15Z"/>
      <path class="cls-6" d="M320.32,1749.27v-2.7h-.13c-1.57,2.12-3.38,3.33-6.61,3.33-5.13,0-8.01-3.29-8.01-8.32v-15.39h6.07v14.35c0,2.7,1.22,4.18,3.83,4.18,2.88,0,4.63-2.16,4.63-5.22v-13.32h6.12v23.08h-5.9Z"/>
      <path class="cls-6" d="M329.55,1749.94h6.07c.5,1.44,1.8,2.57,4.63,2.57,3.46,0,5.13-1.67,5.13-4.82v-2.52h-.13c-1.35,1.53-3.11,2.7-6.03,2.7-5.13,0-10.17-4.05-10.17-11.03s4.14-11.29,9.99-11.29c2.88,0,5,1.12,6.39,3.06h.09v-2.43h5.9v21.33c0,3.24-1.04,5.44-2.75,7.02-1.94,1.8-4.91,2.61-8.33,2.61-6.3,0-10.17-2.7-10.8-7.2ZM345.7,1736.71c0-3.38-1.8-6.25-5.49-6.25-3.1,0-5.17,2.43-5.17,6.3s2.07,6.21,5.22,6.21c3.87,0,5.45-2.83,5.45-6.25Z"/>
      <path class="cls-6" d="M363.43,1717.1h14.13c3.74,0,6.52,1.08,8.42,3.01,1.8,1.85,2.88,4.37,2.88,7.33,0,6.08-4,10.17-10.75,10.17h-7.92v11.65h-6.75v-32.17ZM370.18,1732.31h6.75c3.42,0,5.22-1.89,5.22-4.82s-1.89-4.72-5.13-4.72h-6.84v9.54Z"/>
      <path class="cls-6" d="M391.69,1717.1h6.12v32.17h-6.12v-32.17Z"/>
      <path class="cls-6" d="M415.68,1746.7h-.09c-1.17,1.75-2.83,3.1-6.79,3.1-4.72,0-8.05-2.47-8.05-7.06,0-5.08,4.14-6.71,9.27-7.42,3.83-.54,5.58-.86,5.58-2.61s-1.3-2.75-3.87-2.75c-2.88,0-4.27,1.04-4.45,3.24h-5.45c.18-4.05,3.2-7.6,9.94-7.6s9.72,3.1,9.72,8.5v11.74c0,1.75.27,2.79.81,3.2v.22h-5.9c-.36-.45-.58-1.53-.72-2.56ZM415.72,1741.12v-3.46c-1.08.63-2.75.99-4.27,1.35-3.2.72-4.77,1.44-4.77,3.6s1.44,2.93,3.6,2.93c3.51,0,5.44-2.16,5.44-4.41Z"/>
      <path class="cls-6" d="M423.55,1726.19h3.2v-7.2h5.98v7.2h3.96v4.05h-3.96v12.24c0,1.71.95,2.29,2.29,2.29.77,0,1.8-.04,1.8-.04v4.5s-1.39.09-3.82.09c-2.97,0-6.25-1.17-6.25-5.54v-13.54h-3.2v-4.05Z"/>
      <path class="cls-6" d="M439.08,1744.59l11.88-13.45v-.14h-10.53v-4.81h17.64v4.9l-11.61,13.14v.13h12.19v4.91h-19.57v-4.68Z"/>
      <path class="cls-6" d="M473.27,1731.32c1.94-1.4,3.65-2.47,3.65-5.22s-2.03-4.41-4.77-4.41c-3.33,0-5.58,2.12-5.62,5.62h-5.8c.13-5.99,4.05-10.8,11.38-10.8,6.88,0,10.93,4.09,10.93,9.4,0,4.46-2.34,6.25-4.27,7.74-3.38,2.56-4.68,3.01-4.68,6.21h-5.49c0-5.26,1.94-6.57,4.68-8.55ZM468.06,1742.74h6.57v6.52h-6.57v-6.52Z"/>
      <path class="cls-12" d="M76.92,1784.1h5.17l10.44,26.73h.09l10.35-26.73h5.26v32.17h-3.87v-26.46h-.09s-.86,2.52-1.44,4.05l-8.82,22.41h-3.1l-8.82-22.41c-.63-1.62-1.44-4.05-1.44-4.05h-.09v26.46h-3.65v-32.17Z"/>
      <path class="cls-12" d="M112.43,1804.66c0-6.75,4.41-12.24,11.02-12.24,6.98,0,10.71,5.4,10.71,13.09h-18c.27,4.73,2.83,8.33,7.51,8.33,3.38,0,5.62-1.62,6.43-4.77h3.55c-1.08,5-4.72,7.83-9.99,7.83-7.11,0-11.25-5.49-11.25-12.24ZM116.25,1802.77h13.99c-.22-4.63-2.61-7.47-6.79-7.47s-6.66,3.24-7.2,7.47Z"/>
      <path class="cls-12" d="M141.36,1796.07h.09c1.67-2.21,4-3.6,7.38-3.6,4.86,0,7.83,2.65,7.83,7.47v16.33h-3.64v-16.02c0-3.01-1.98-4.72-5.26-4.72-3.69,0-6.39,2.61-6.39,6.43v14.31h-3.64v-32.17h3.64v11.97Z"/>
      <path class="cls-12" d="M165.12,1796.87h.09c1.39-2.25,3.83-4.14,6.93-4.14.67,0,1.04.09,1.49.27v3.51h-.14c-.54-.18-.9-.23-1.62-.23-3.6,0-6.75,2.7-6.75,7.07v12.91h-3.64v-23.26h3.64v3.87Z"/>
      <path class="cls-12" d="M198.33,1813.03h-.04c-1.4,1.8-3.78,3.69-7.74,3.69-4.41,0-7.87-2.07-7.87-6.48,0-5.49,4.32-6.62,10.12-7.52,3.29-.49,5.58-.81,5.58-3.33s-1.89-4.09-5.22-4.09c-3.78,0-5.67,1.62-5.8,5.13h-3.51c.13-4.5,3.1-7.88,9.27-7.88,4.95,0,8.59,1.84,8.59,7.38v11.07c0,1.89.45,2.92,2.47,2.47h.13v2.66c-.45.18-1.04.36-1.98.36-2.38,0-3.65-1.08-4-3.46ZM198.42,1807.67v-3.96c-1.21.77-3.33,1.35-5.31,1.71-3.65.67-6.57,1.3-6.57,4.72,0,3.11,2.43,3.78,4.82,3.78,4.86,0,7.06-3.55,7.06-6.25Z"/>
      <path class="cls-12" d="M207.15,1784.1h3.64v32.17h-3.64v-32.17Z"/>
      <path class="cls-12" d="M214.39,1808.71h3.74c.5,4.05,3.19,5.17,6.66,5.17,3.82,0,5.4-1.67,5.4-3.83,0-2.61-1.8-3.28-6.08-4.18-4.59-.95-8.68-1.89-8.68-6.97,0-3.87,2.97-6.39,8.37-6.39,5.76,0,8.59,2.75,9.13,7.29h-3.74c-.36-3.06-2.02-4.41-5.49-4.41s-4.68,1.48-4.68,3.33c0,2.52,2.25,3.01,6.25,3.82,4.68.95,8.59,1.98,8.59,7.33,0,4.68-3.82,7.06-9.18,7.06-6.39,0-9.94-3.01-10.3-8.23Z"/>
      <path class="cls-12" d="M255.03,1801.91c4.05-2.34,6.52-3.92,6.52-7.65s-2.61-6.34-6.71-6.34c-2.16,0-3.78.72-4.9,1.93-1.21,1.3-1.75,3.01-1.75,6.17h-3.96c0-3.96,1.04-6.48,2.92-8.37,1.98-1.93,4.86-2.88,8.01-2.88,6.25,0,10.3,3.96,10.3,9.45,0,5.94-4.05,7.92-9,10.66-3.33,1.84-7.6,4.37-8.46,7.79h16.83v3.6h-21.37c.36-8.23,6.16-11.25,11.56-14.35Z"/>
      <path class="cls-12" d="M273.43,1814.2c-3.29-2.97-4.37-7.2-4.37-13.54,0-9.58,4.09-15.93,11.92-15.93,6.17,0,9.22,4.09,9.72,8.55h-3.74c-.27-2.92-2.34-5.35-5.89-5.35-6.03,0-8.19,4.86-8.32,12.42h.09c1.98-2.74,4.77-4.27,8.46-4.27,5.67,0,10.12,4.68,10.17,10.35.04,5.76-4.59,10.53-10.35,10.53-3.38,0-5.85-1.04-7.69-2.75ZM287.97,1806.55c0-4.36-3.06-7.38-7.06-7.38-4.41,0-7.47,2.92-7.47,7.33s3.28,7.38,7.6,7.38c4,0,6.93-2.97,6.93-7.33Z"/>
      <path class="cls-12" d="M301.47,1793.64c0-5.49,3.15-8.91,7.29-8.91s7.2,3.33,7.2,8.91-2.88,8.91-7.2,8.91-7.29-3.51-7.29-8.91ZM312.63,1793.64c0-3.51-1.39-6.21-3.87-6.21s-3.87,2.61-3.87,6.21,1.35,6.21,3.87,6.21,3.87-2.61,3.87-6.21ZM325.99,1785.44h3.06l-17.68,30.82h-3.06l17.68-30.82ZM321.4,1808.03c0-5.49,3.15-8.91,7.29-8.91s7.2,3.33,7.2,8.91-2.88,8.91-7.2,8.91-7.29-3.51-7.29-8.91ZM332.56,1808.03c0-3.51-1.39-6.21-3.87-6.21s-3.87,2.61-3.87,6.21,1.35,6.21,3.87,6.21,3.87-2.61,3.87-6.21Z"/>
      <path class="cls-12" d="M345.3,1804.7c0-7.74,4.46-12.24,10.21-12.24,3.29,0,5.8,1.62,7.29,3.82h.09v-12.19h3.64v32.17h-3.64v-2.83h-.09c-1.75,2.25-3.92,3.51-7.2,3.51-6.34,0-10.3-4.77-10.3-12.24ZM363.12,1804.75c0-5.4-2.61-9.18-7.42-9.18-4.41,0-6.66,3.96-6.66,9.18s2.25,9.13,6.7,9.13c5.17,0,7.38-3.87,7.38-9.13Z"/>
      <path class="cls-12" d="M370.18,1804.66c0-6.75,4.41-12.24,11.02-12.24,6.98,0,10.71,5.4,10.71,13.09h-18c.27,4.73,2.83,8.33,7.51,8.33,3.38,0,5.62-1.62,6.43-4.77h3.55c-1.08,5-4.72,7.83-9.99,7.83-7.11,0-11.25-5.49-11.25-12.24ZM374.01,1802.77h13.99c-.22-4.63-2.61-7.47-6.79-7.47s-6.66,3.24-7.2,7.47Z"/>
      <path class="cls-12" d="M399.12,1796.87h.09c1.39-2.25,3.83-4.14,6.93-4.14.67,0,1.04.09,1.49.27v3.51h-.14c-.54-.18-.9-.23-1.62-.23-3.6,0-6.75,2.7-6.75,7.07v12.91h-3.64v-23.26h3.64v3.87Z"/>
      <path class="cls-12" d="M418.6,1784.1h5.17l10.44,26.73h.09l10.35-26.73h5.26v32.17h-3.87v-26.46h-.09s-.85,2.52-1.44,4.05l-8.82,22.41h-3.11l-8.82-22.41c-.63-1.62-1.44-4.05-1.44-4.05h-.09v26.46h-3.64v-32.17Z"/>
      <path class="cls-12" d="M469.68,1813.03h-.04c-1.4,1.8-3.78,3.69-7.74,3.69-4.41,0-7.87-2.07-7.87-6.48,0-5.49,4.32-6.62,10.12-7.52,3.29-.49,5.58-.81,5.58-3.33s-1.89-4.09-5.22-4.09c-3.78,0-5.67,1.62-5.8,5.13h-3.51c.13-4.5,3.1-7.88,9.27-7.88,4.95,0,8.59,1.84,8.59,7.38v11.07c0,1.89.45,2.92,2.47,2.47h.13v2.66c-.45.18-1.04.36-1.98.36-2.38,0-3.65-1.08-4-3.46ZM469.77,1807.67v-3.96c-1.21.77-3.33,1.35-5.31,1.71-3.65.67-6.57,1.3-6.57,4.72,0,3.11,2.43,3.78,4.82,3.78,4.86,0,7.06-3.55,7.06-6.25ZM459.01,1784.32h3.51v4.27h-3.51v-4.27ZM466.39,1784.32h3.51v4.27h-3.51v-4.27Z"/>
      <path class="cls-12" d="M482.01,1796.07h.09c1.67-2.21,4-3.6,7.38-3.6,4.86,0,7.83,2.65,7.83,7.47v16.33h-3.64v-16.02c0-3.01-1.98-4.72-5.26-4.72-3.69,0-6.39,2.61-6.39,6.43v14.31h-3.64v-23.26h3.64v3.06Z"/>
      <path class="cls-12" d="M505.77,1796.07h.09c1.67-2.21,4-3.6,7.38-3.6,4.86,0,7.83,2.65,7.83,7.47v16.33h-3.64v-16.02c0-3.01-1.98-4.72-5.26-4.72-3.69,0-6.39,2.61-6.39,6.43v14.31h-3.64v-23.26h3.64v3.06Z"/>
      <path class="cls-12" d="M524.57,1804.66c0-6.75,4.41-12.24,11.02-12.24,6.98,0,10.71,5.4,10.71,13.09h-18c.27,4.73,2.83,8.33,7.51,8.33,3.38,0,5.62-1.62,6.43-4.77h3.55c-1.08,5-4.72,7.83-9.99,7.83-7.11,0-11.25-5.49-11.25-12.24ZM528.4,1802.77h13.99c-.22-4.63-2.61-7.47-6.79-7.47s-6.66,3.24-7.2,7.47Z"/>
      <path class="cls-12" d="M553.51,1796.87h.09c1.39-2.25,3.83-4.14,6.93-4.14.67,0,1.04.09,1.49.27v3.51h-.14c-.54-.18-.9-.23-1.62-.23-3.6,0-6.75,2.7-6.75,7.07v12.91h-3.64v-23.26h3.64v3.87Z"/>
      <path class="cls-12" d="M570.97,1808.71h3.74c.5,4.05,3.19,5.17,6.66,5.17,3.82,0,5.4-1.67,5.4-3.83,0-2.61-1.8-3.28-6.08-4.18-4.59-.95-8.68-1.89-8.68-6.97,0-3.87,2.97-6.39,8.37-6.39,5.76,0,8.59,2.75,9.13,7.29h-3.73c-.36-3.06-2.02-4.41-5.49-4.41s-4.68,1.48-4.68,3.33c0,2.52,2.25,3.01,6.25,3.82,4.68.95,8.59,1.98,8.59,7.33,0,4.68-3.83,7.06-9.18,7.06-6.39,0-9.94-3.01-10.3-8.23Z"/>
      <path class="cls-12" d="M593.96,1793.01h3.65v3.28h.09c1.75-2.38,4.09-3.82,7.47-3.82,5.89,0,9.99,4.5,9.99,12.24s-3.83,12.24-10.12,12.24c-3.15,0-5.4-.94-7.33-3.42h-.09v10.21h-3.65v-30.73ZM611.42,1804.75c0-5.22-2.21-9.18-6.62-9.18-5.08,0-7.42,4.14-7.42,9.18s2.03,9.13,7.38,9.13c4.46,0,6.66-3.87,6.66-9.13Z"/>
      <path class="cls-12" d="M622.45,1796.87h.09c1.39-2.25,3.82-4.14,6.93-4.14.67,0,1.04.09,1.48.27v3.51h-.13c-.54-.18-.9-.23-1.62-.23-3.6,0-6.75,2.7-6.75,7.07v12.91h-3.65v-23.26h3.65v3.87Z"/>
      <path class="cls-12" d="M632.03,1804.66c0-6.75,4.41-12.24,11.02-12.24,6.97,0,10.71,5.4,10.71,13.09h-18c.27,4.73,2.83,8.33,7.51,8.33,3.37,0,5.62-1.62,6.43-4.77h3.55c-1.08,5-4.72,7.83-9.99,7.83-7.11,0-11.25-5.49-11.25-12.24ZM635.86,1802.77h13.99c-.22-4.63-2.61-7.47-6.79-7.47s-6.66,3.24-7.2,7.47Z"/>
      <path class="cls-12" d="M657.32,1784.1h3.65v4.5h-3.65v-4.5ZM657.32,1793.01h3.65v23.26h-3.65v-23.26Z"/>
      <path class="cls-12" d="M664.97,1813.39l12.96-17.05v-.13h-12.19v-3.19h17.28v2.16l-13.36,17.64v.13h13.86v3.33h-18.54v-2.88Z"/>
      <path class="cls-12" d="M684.91,1804.66c0-6.75,4.41-12.24,11.02-12.24,6.97,0,10.71,5.4,10.71,13.09h-18c.27,4.73,2.83,8.33,7.51,8.33,3.37,0,5.62-1.62,6.43-4.77h3.55c-1.08,5-4.72,7.83-9.99,7.83-7.11,0-11.25-5.49-11.25-12.24ZM688.73,1802.77h13.99c-.22-4.63-2.61-7.47-6.79-7.47s-6.66,3.24-7.2,7.47Z"/>
      <path class="cls-12" d="M713.84,1796.07h.09c1.67-2.21,4-3.6,7.38-3.6,4.86,0,7.83,2.65,7.83,7.47v16.33h-3.64v-16.02c0-3.01-1.98-4.72-5.26-4.72-3.69,0-6.39,2.61-6.39,6.43v14.31h-3.65v-23.26h3.65v3.06Z"/>
      <path class="cls-12" d="M741.11,1784.1h3.65v4.5h-3.65v-4.5ZM741.11,1793.01h3.65v23.26h-3.65v-23.26Z"/>
      <path class="cls-12" d="M753.35,1796.07h.09c1.67-2.21,4-3.6,7.38-3.6,4.86,0,7.83,2.65,7.83,7.47v16.33h-3.64v-16.02c0-3.01-1.98-4.72-5.26-4.72-3.69,0-6.39,2.61-6.39,6.43v14.31h-3.65v-32.17h3.65v11.97Z"/>
      <path class="cls-12" d="M777.11,1796.87h.09c1.39-2.25,3.82-4.14,6.93-4.14.67,0,1.04.09,1.48.27v3.51h-.13c-.54-.18-.9-.23-1.62-.23-3.6,0-6.75,2.7-6.75,7.07v12.91h-3.65v-23.26h3.65v3.87Z"/>
      <path class="cls-12" d="M786.7,1804.66c0-6.75,4.41-12.24,11.02-12.24,6.97,0,10.71,5.4,10.71,13.09h-18c.27,4.73,2.83,8.33,7.51,8.33,3.37,0,5.62-1.62,6.43-4.77h3.55c-1.08,5-4.72,7.83-9.99,7.83-7.11,0-11.25-5.49-11.25-12.24ZM790.52,1802.77h13.99c-.22-4.63-2.61-7.47-6.79-7.47s-6.66,3.24-7.2,7.47Z"/>
      <path class="cls-12" d="M819.68,1784.1h13.63c3.38,0,5.94.9,7.74,2.79,1.31,1.35,2.07,3.2,2.07,5.49,0,3.55-1.98,5.76-5.17,6.75v.13c3.64.86,6.48,3.46,6.48,7.79,0,2.47-.85,4.59-2.34,6.17-1.8,1.93-4.59,3.06-8.05,3.06h-14.35v-32.17ZM832.82,1797.86c3.92,0,6.25-1.93,6.25-5.26,0-3.1-2.12-5-5.71-5h-9.63v10.26h9.09ZM833.86,1812.62c2.29,0,3.96-.58,5.04-1.62.9-.95,1.44-2.21,1.44-3.74,0-4-2.83-5.98-6.75-5.98h-9.85v11.34h10.12Z"/>
      <path class="cls-12" d="M847.27,1804.66c0-6.75,4.41-12.24,11.02-12.24,6.97,0,10.71,5.4,10.71,13.09h-18c.27,4.73,2.83,8.33,7.51,8.33,3.37,0,5.62-1.62,6.43-4.77h3.55c-1.08,5-4.72,7.83-9.99,7.83-7.11,0-11.25-5.49-11.25-12.24ZM851.09,1802.77h13.99c-.22-4.63-2.61-7.47-6.79-7.47s-6.66,3.24-7.2,7.47Z"/>
      <path class="cls-12" d="M872.55,1784.1h3.65v4.5h-3.65v-4.5ZM872.55,1793.01h3.65v23.26h-3.65v-23.26Z"/>
      <path class="cls-12" d="M884.79,1796.07h.09c1.67-2.21,4-3.6,7.38-3.6,4.86,0,7.83,2.65,7.83,7.47v16.33h-3.64v-16.02c0-3.01-1.98-4.72-5.26-4.72-3.69,0-6.39,2.61-6.39,6.43v14.31h-3.65v-23.26h3.65v3.06Z"/>
      <path class="cls-12" d="M903.6,1804.66c0-6.75,4.41-12.24,11.02-12.24,6.97,0,10.71,5.4,10.71,13.09h-18c.27,4.73,2.83,8.33,7.51,8.33,3.37,0,5.62-1.62,6.43-4.77h3.55c-1.08,5-4.72,7.83-9.99,7.83-7.11,0-11.25-5.49-11.25-12.24ZM907.43,1802.77h13.99c-.22-4.63-2.61-7.47-6.79-7.47s-6.66,3.24-7.2,7.47Z"/>
      <path class="cls-12" d="M934.56,1808.71h3.73c.5,4.05,3.2,5.17,6.66,5.17,3.82,0,5.4-1.67,5.4-3.83,0-2.61-1.8-3.28-6.07-4.18-4.59-.95-8.68-1.89-8.68-6.97,0-3.87,2.97-6.39,8.37-6.39,5.76,0,8.59,2.75,9.13,7.29h-3.74c-.36-3.06-2.02-4.41-5.49-4.41s-4.68,1.48-4.68,3.33c0,2.52,2.25,3.01,6.25,3.82,4.68.95,8.59,1.98,8.59,7.33,0,4.68-3.83,7.06-9.18,7.06-6.39,0-9.95-3.01-10.3-8.23Z"/>
      <path class="cls-12" d="M956.7,1804.66c0-6.75,4.32-12.24,11.25-12.24s11.2,5.49,11.2,12.24-4.23,12.24-11.2,12.24-11.25-5.49-11.25-12.24ZM975.42,1804.66c0-5.13-2.52-9.22-7.47-9.22s-7.51,4.09-7.51,9.22,2.56,9.18,7.51,9.18,7.47-4.05,7.47-9.18Z"/>
      <path class="cls-12" d="M74.09,1850.01h3.91l4.09,14.35c.54,1.93,1.26,4.99,1.26,4.99h.09s.67-3.06,1.17-4.9l3.92-14.44h3.82l3.78,14.44c.5,1.89,1.12,4.9,1.12,4.9h.09s.72-3.06,1.3-4.99l4.32-14.35h3.78l-7.6,23.26h-3.73l-3.87-14.08c-.54-1.94-1.12-4.86-1.12-4.86h-.09s-.63,2.92-1.17,4.86l-3.92,14.08h-3.78l-7.38-23.26Z"/>
      <path class="cls-12" d="M107.66,1861.66c0-6.75,4.41-12.24,11.02-12.24,6.98,0,10.71,5.4,10.71,13.09h-18c.27,4.73,2.83,8.33,7.51,8.33,3.38,0,5.62-1.62,6.43-4.77h3.55c-1.08,5-4.72,7.83-9.99,7.83-7.11,0-11.25-5.49-11.25-12.24ZM111.48,1859.77h13.99c-.22-4.63-2.61-7.47-6.79-7.47s-6.66,3.24-7.2,7.47Z"/>
      <path class="cls-12" d="M132.95,1841.1h3.64v4.5h-3.64v-4.5ZM132.95,1850.01h3.64v23.26h-3.64v-23.26Z"/>
      <path class="cls-12" d="M140.06,1850.01h3.38v-7.33h3.64v7.33h4.5v2.97h-4.5v15.12c0,1.62.86,2.16,2.34,2.16.72,0,1.53-.18,1.94-.32h.13v3.15c-.86.18-1.84.31-2.92.31-2.97,0-5.13-1.21-5.13-4.5v-15.93h-3.38v-2.97Z"/>
      <path class="cls-12" d="M155.35,1877c.99-.36,2.03-1.21,2.03-3.73h-2.07v-4.46h4.37v4.59c0,3.29-1.75,5.13-4.32,5.62v-2.03Z"/>
      <path class="cls-12" d="M169.98,1861.7c0-7.74,4.46-12.24,10.21-12.24,3.28,0,5.8,1.62,7.29,3.82h.09v-12.19h3.65v32.17h-3.65v-2.83h-.09c-1.75,2.25-3.92,3.51-7.2,3.51-6.34,0-10.3-4.77-10.3-12.24ZM187.8,1861.75c0-5.4-2.61-9.18-7.42-9.18-4.41,0-6.66,3.96-6.66,9.18s2.25,9.13,6.71,9.13c5.17,0,7.38-3.87,7.38-9.13Z"/>
      <path class="cls-12" d="M210.43,1870.03h-.04c-1.4,1.8-3.78,3.69-7.74,3.69-4.41,0-7.87-2.07-7.87-6.48,0-5.49,4.32-6.62,10.12-7.52,3.29-.49,5.58-.81,5.58-3.33s-1.89-4.09-5.22-4.09c-3.78,0-5.67,1.62-5.8,5.13h-3.51c.13-4.5,3.1-7.88,9.27-7.88,4.95,0,8.59,1.84,8.59,7.38v11.07c0,1.89.45,2.92,2.47,2.47h.13v2.66c-.45.18-1.04.36-1.98.36-2.38,0-3.65-1.08-4-3.46ZM210.52,1864.67v-3.96c-1.21.77-3.33,1.35-5.31,1.71-3.65.67-6.57,1.3-6.57,4.72,0,3.11,2.43,3.78,4.82,3.78,4.86,0,7.06-3.55,7.06-6.25Z"/>
      <path class="cls-12" d="M217.63,1865.71h3.73c.5,4.05,3.2,5.17,6.66,5.17,3.83,0,5.4-1.67,5.4-3.83,0-2.61-1.8-3.28-6.07-4.18-4.59-.95-8.68-1.89-8.68-6.97,0-3.87,2.97-6.39,8.37-6.39,5.76,0,8.59,2.75,9.13,7.29h-3.73c-.36-3.06-2.03-4.41-5.49-4.41s-4.68,1.48-4.68,3.33c0,2.52,2.25,3.01,6.25,3.82,4.68.95,8.59,1.98,8.59,7.33,0,4.68-3.83,7.06-9.18,7.06-6.39,0-9.94-3.01-10.3-8.23Z"/>
      <path class="cls-12" d="M239.14,1865.71h3.73c.5,4.05,3.2,5.17,6.66,5.17,3.83,0,5.4-1.67,5.4-3.83,0-2.61-1.8-3.28-6.07-4.18-4.59-.95-8.68-1.89-8.68-6.97,0-3.87,2.97-6.39,8.37-6.39,5.76,0,8.59,2.75,9.13,7.29h-3.73c-.36-3.06-2.03-4.41-5.49-4.41s-4.68,1.48-4.68,3.33c0,2.52,2.25,3.01,6.25,3.82,4.68.95,8.59,1.98,8.59,7.33,0,4.68-3.83,7.06-9.18,7.06-6.39,0-9.94-3.01-10.3-8.23Z"/>
      <path class="cls-12" d="M267.81,1865.71h3.74c.5,4.05,3.19,5.17,6.66,5.17,3.82,0,5.4-1.67,5.4-3.83,0-2.61-1.8-3.28-6.08-4.18-4.59-.95-8.68-1.89-8.68-6.97,0-3.87,2.97-6.39,8.37-6.39,5.76,0,8.59,2.75,9.13,7.29h-3.74c-.36-3.06-2.02-4.41-5.49-4.41s-4.68,1.48-4.68,3.33c0,2.52,2.25,3.01,6.25,3.82,4.68.95,8.59,1.98,8.59,7.33,0,4.68-3.82,7.06-9.18,7.06-6.39,0-9.94-3.01-10.3-8.23Z"/>
      <path class="cls-12" d="M290.8,1841.1h3.64v4.5h-3.64v-4.5ZM290.8,1850.01h3.64v23.26h-3.64v-23.26Z"/>
      <path class="cls-12" d="M298.09,1861.66c0-6.75,4.41-12.24,11.02-12.24,6.97,0,10.71,5.4,10.71,13.09h-18c.27,4.73,2.83,8.33,7.51,8.33,3.38,0,5.62-1.62,6.43-4.77h3.56c-1.08,5-4.73,7.83-9.99,7.83-7.11,0-11.25-5.49-11.25-12.24ZM301.92,1859.77h14c-.23-4.63-2.61-7.47-6.79-7.47s-6.66,3.24-7.2,7.47Z"/>
      <path class="cls-12" d="M329.23,1861.7c0-7.74,4.46-12.24,10.21-12.24,3.29,0,5.8,1.62,7.29,3.82h.09v-12.19h3.64v32.17h-3.64v-2.83h-.09c-1.75,2.25-3.92,3.51-7.2,3.51-6.34,0-10.3-4.77-10.3-12.24ZM347.05,1861.75c0-5.4-2.61-9.18-7.42-9.18-4.41,0-6.66,3.96-6.66,9.18s2.25,9.13,6.7,9.13c5.17,0,7.38-3.87,7.38-9.13Z"/>
      <path class="cls-12" d="M354.12,1861.66c0-6.75,4.41-12.24,11.02-12.24,6.98,0,10.71,5.4,10.71,13.09h-18c.27,4.73,2.83,8.33,7.51,8.33,3.38,0,5.62-1.62,6.43-4.77h3.55c-1.08,5-4.72,7.83-9.99,7.83-7.11,0-11.25-5.49-11.25-12.24ZM357.94,1859.77h13.99c-.22-4.63-2.61-7.47-6.79-7.47s-6.66,3.24-7.2,7.47Z"/>
      <path class="cls-12" d="M383.05,1853.07h.09c1.67-2.21,4-3.6,7.38-3.6,4.86,0,7.83,2.65,7.83,7.47v16.33h-3.64v-16.02c0-3.01-1.98-4.72-5.26-4.72-3.69,0-6.39,2.61-6.39,6.43v14.31h-3.64v-23.26h3.64v3.06Z"/>
      <path class="cls-12" d="M410.86,1841.1h4.27l14.67,22.36c1.08,1.67,2.34,4.14,2.34,4.14h.09v-26.5h3.78v32.17h-4.14l-14.76-22.41c-1.04-1.58-2.38-4-2.38-4h-.09v26.41h-3.78v-32.17Z"/>
      <path class="cls-12" d="M455.77,1870.03h-.04c-1.4,1.8-3.78,3.69-7.74,3.69-4.41,0-7.87-2.07-7.87-6.48,0-5.49,4.32-6.62,10.12-7.52,3.29-.49,5.58-.81,5.58-3.33s-1.89-4.09-5.22-4.09c-3.78,0-5.67,1.62-5.8,5.13h-3.51c.13-4.5,3.1-7.88,9.27-7.88,4.95,0,8.59,1.84,8.59,7.38v11.07c0,1.89.45,2.92,2.47,2.47h.13v2.66c-.45.18-1.04.36-1.98.36-2.38,0-3.65-1.08-4-3.46ZM455.86,1864.67v-3.96c-1.21.77-3.33,1.35-5.31,1.71-3.65.67-6.57,1.3-6.57,4.72,0,3.11,2.43,3.78,4.82,3.78,4.86,0,7.06-3.55,7.06-6.25Z"/>
      <path class="cls-12" d="M463.15,1861.66c0-6.75,4.32-12.24,11.25-12.24,5.49,0,9.13,3.15,9.94,8.1h-3.69c-.54-3.15-2.75-5.08-6.25-5.08-4.95,0-7.51,4.09-7.51,9.22s2.56,9.18,7.51,9.18c3.78,0,6.03-2.16,6.34-5.76h3.6c-.5,5.58-4.14,8.82-9.94,8.82-6.93,0-11.25-5.49-11.25-12.24Z"/>
      <path class="cls-12" d="M491.45,1853.07h.09c1.66-2.21,4-3.6,7.38-3.6,4.86,0,7.83,2.65,7.83,7.47v16.33h-3.64v-16.02c0-3.01-1.98-4.72-5.27-4.72-3.69,0-6.39,2.61-6.39,6.43v14.31h-3.64v-32.17h3.64v11.97Z"/>
      <path class="cls-12" d="M515.31,1870.21h-.09v3.06h-3.64v-32.17h3.64v12.24h.09c1.75-2.38,4.09-3.87,7.47-3.87,5.9,0,9.9,4.5,9.9,12.24s-3.74,12.24-10.04,12.24c-3.15,0-5.44-1.12-7.33-3.73ZM528.94,1861.75c0-5.22-2.11-9.18-6.52-9.18-5.08,0-7.42,4.14-7.42,9.18s2.43,9.13,7.38,9.13c4.46,0,6.57-3.87,6.57-9.13Z"/>
      <path class="cls-12" d="M550.58,1870.03h-.04c-1.39,1.8-3.78,3.69-7.74,3.69-4.41,0-7.88-2.07-7.88-6.48,0-5.49,4.32-6.62,10.12-7.52,3.28-.49,5.58-.81,5.58-3.33s-1.89-4.09-5.22-4.09c-3.78,0-5.67,1.62-5.8,5.13h-3.51c.13-4.5,3.11-7.88,9.27-7.88,4.95,0,8.59,1.84,8.59,7.38v11.07c0,1.89.45,2.92,2.47,2.47h.14v2.66c-.45.18-1.04.36-1.98.36-2.38,0-3.64-1.08-4-3.46ZM550.67,1864.67v-3.96c-1.21.77-3.33,1.35-5.31,1.71-3.64.67-6.57,1.3-6.57,4.72,0,3.11,2.43,3.78,4.81,3.78,4.86,0,7.06-3.55,7.06-6.25Z"/>
      <path class="cls-12" d="M562.91,1853.87h.09c1.39-2.25,3.82-4.14,6.93-4.14.67,0,1.03.09,1.48.27v3.51h-.13c-.54-.18-.9-.23-1.62-.23-3.6,0-6.75,2.7-6.75,7.07v12.91h-3.64v-23.26h3.64v3.87Z"/>
      <path class="cls-12" d="M573.22,1865.71h3.74c.5,4.05,3.19,5.17,6.66,5.17,3.82,0,5.4-1.67,5.4-3.83,0-2.61-1.8-3.28-6.08-4.18-4.59-.95-8.68-1.89-8.68-6.97,0-3.87,2.97-6.39,8.37-6.39,5.76,0,8.59,2.75,9.13,7.29h-3.73c-.36-3.06-2.02-4.41-5.49-4.41s-4.68,1.48-4.68,3.33c0,2.52,2.25,3.01,6.25,3.82,4.68.95,8.59,1.98,8.59,7.33,0,4.68-3.83,7.06-9.18,7.06-6.39,0-9.94-3.01-10.3-8.23Z"/>
      <path class="cls-12" d="M596.21,1841.1h3.65v4.5h-3.65v-4.5ZM596.21,1850.01h3.65v23.26h-3.65v-23.26Z"/>
      <path class="cls-12" d="M603.32,1850.01h3.38v-7.33h3.64v7.33h4.5v2.97h-4.5v15.12c0,1.62.85,2.16,2.34,2.16.72,0,1.53-.18,1.93-.32h.14v3.15c-.86.18-1.85.31-2.93.31-2.97,0-5.13-1.21-5.13-4.5v-15.93h-3.38v-2.97Z"/>
      <path class="cls-12" d="M617.68,1870.39l12.96-17.05v-.13h-12.19v-3.19h17.28v2.16l-13.36,17.64v.13h13.86v3.33h-18.54v-2.88Z"/>
      <path class="cls-12" d="M650.71,1870.21h-.09v3.06h-3.65v-32.17h3.65v12.24h.09c1.75-2.38,4.09-3.87,7.47-3.87,5.89,0,9.9,4.5,9.9,12.24s-3.74,12.24-10.03,12.24c-3.15,0-5.45-1.12-7.33-3.73ZM664.34,1861.75c0-5.22-2.11-9.18-6.52-9.18-5.08,0-7.42,4.14-7.42,9.18s2.43,9.13,7.38,9.13c4.46,0,6.57-3.87,6.57-9.13Z"/>
      <path class="cls-12" d="M671.86,1841.1h3.64v32.17h-3.64v-32.17Z"/>
      <path class="cls-12" d="M679.28,1861.66c0-6.75,4.32-12.24,11.25-12.24s11.2,5.49,11.2,12.24-4.23,12.24-11.2,12.24-11.25-5.49-11.25-12.24ZM698,1861.66c0-5.13-2.52-9.22-7.47-9.22s-7.51,4.09-7.51,9.22,2.56,9.18,7.51,9.18,7.47-4.05,7.47-9.18Z"/>
      <path class="cls-12" d="M704.08,1861.66c0-6.75,4.32-12.24,11.25-12.24,5.49,0,9.13,3.15,9.94,8.1h-3.69c-.54-3.15-2.74-5.08-6.25-5.08-4.95,0-7.51,4.09-7.51,9.22s2.56,9.18,7.51,9.18c3.78,0,6.03-2.16,6.34-5.76h3.6c-.5,5.58-4.14,8.82-9.94,8.82-6.93,0-11.25-5.49-11.25-12.24Z"/>
      <path class="cls-12" d="M735.8,1860.71l-3.42,3.24v9.31h-3.65v-32.17h3.65v18.85l10.21-9.94h4.63l-8.91,8.37,9.99,14.89h-4.27l-8.23-12.55Z"/>
      <path class="cls-12" d="M750.74,1841.1h3.65v4.5h-3.65v-4.5ZM750.74,1850.01h3.65v23.26h-3.65v-23.26Z"/>
      <path class="cls-12" d="M758.03,1861.66c0-6.75,4.41-12.24,11.02-12.24,6.97,0,10.71,5.4,10.71,13.09h-18c.27,4.73,2.83,8.33,7.51,8.33,3.37,0,5.62-1.62,6.43-4.77h3.55c-1.08,5-4.72,7.83-9.99,7.83-7.11,0-11.25-5.49-11.25-12.24ZM761.85,1859.77h13.99c-.22-4.63-2.61-7.47-6.79-7.47s-6.66,3.24-7.2,7.47Z"/>
      <path class="cls-12" d="M786.96,1853.87h.09c1.39-2.25,3.82-4.14,6.93-4.14.67,0,1.04.09,1.48.27v3.51h-.13c-.54-.18-.9-.23-1.62-.23-3.6,0-6.75,2.7-6.75,7.07v12.91h-3.65v-23.26h3.65v3.87Z"/>
      <path class="cls-12" d="M796.55,1861.66c0-6.75,4.41-12.24,11.02-12.24,6.97,0,10.71,5.4,10.71,13.09h-18c.27,4.73,2.83,8.33,7.51,8.33,3.37,0,5.62-1.62,6.43-4.77h3.55c-1.08,5-4.72,7.83-9.99,7.83-7.11,0-11.25-5.49-11.25-12.24ZM800.37,1859.77h13.99c-.22-4.63-2.61-7.47-6.79-7.47s-6.66,3.24-7.2,7.47Z"/>
      <path class="cls-12" d="M825.48,1853.07h.09c1.67-2.21,4-3.6,7.38-3.6,4.86,0,7.83,2.65,7.83,7.47v16.33h-3.64v-16.02c0-3.01-1.98-4.72-5.26-4.72-3.69,0-6.39,2.61-6.39,6.43v14.31h-3.65v-23.26h3.65v3.06Z"/>
      <path class="cls-12" d="M845.15,1877c.99-.36,2.02-1.21,2.02-3.73h-2.07v-4.46h4.37v4.59c0,3.29-1.75,5.13-4.32,5.62v-2.03Z"/>
      <path class="cls-12" d="M74,1907.01h3.92l4.82,14.76c.67,2.07,1.53,4.91,1.53,4.91h.09s.86-2.88,1.53-4.91l4.91-14.76h3.78l-8.37,23.26h-4.05l-8.15-23.26Z"/>
      <path class="cls-12" d="M95.37,1918.66c0-6.75,4.41-12.24,11.02-12.24,6.97,0,10.71,5.4,10.71,13.09h-18c.27,4.73,2.83,8.33,7.51,8.33,3.38,0,5.62-1.62,6.43-4.77h3.56c-1.08,5-4.73,7.83-9.99,7.83-7.11,0-11.25-5.49-11.25-12.24ZM99.2,1916.77h14c-.23-4.63-2.61-7.47-6.79-7.47s-6.66,3.24-7.2,7.47Z"/>
      <path class="cls-12" d="M124.31,1910.87h.09c1.39-2.25,3.82-4.14,6.93-4.14.67,0,1.03.09,1.48.27v3.51h-.13c-.54-.18-.9-.23-1.62-.23-3.6,0-6.75,2.7-6.75,7.07v12.91h-3.64v-23.26h3.64v3.87Z"/>
      <path class="cls-12" d="M134.61,1931.57h3.38c.36,2.57,2.79,3.55,6.39,3.55,4.27,0,6.66-1.93,6.66-5.98v-3.29h-.09c-1.71,2.21-3.55,3.6-6.88,3.6-6.03,0-10.17-4.82-10.17-11.52,0-7.25,4.54-11.47,9.94-11.47,3.38,0,5.54,1.3,7.11,3.51h.09v-2.97h3.64v22c0,6.12-4.05,9-10.21,9s-9.45-2.43-9.85-6.43ZM151.31,1917.76c0-5.08-2.16-8.23-7.11-8.23-4.37,0-6.57,3.42-6.57,8.46s2.29,8.41,6.62,8.41c5.35,0,7.06-3.73,7.06-8.64Z"/>
      <path class="cls-12" d="M159.77,1898.1h3.64v32.17h-3.64v-32.17Z"/>
      <path class="cls-12" d="M168.5,1898.1h3.64v4.5h-3.64v-4.5ZM168.5,1907.01h3.64v23.26h-3.64v-23.26Z"/>
      <path class="cls-12" d="M175.79,1918.66c0-6.75,4.32-12.24,11.25-12.24,5.49,0,9.13,3.15,9.95,8.1h-3.69c-.54-3.15-2.75-5.08-6.25-5.08-4.95,0-7.51,4.09-7.51,9.22s2.57,9.18,7.51,9.18c3.78,0,6.03-2.16,6.34-5.76h3.6c-.5,5.58-4.14,8.82-9.95,8.82-6.93,0-11.25-5.49-11.25-12.24Z"/>
      <path class="cls-12" d="M204.09,1910.07h.09c1.67-2.21,4-3.6,7.38-3.6,4.86,0,7.83,2.65,7.83,7.47v16.33h-3.64v-16.02c0-3.01-1.98-4.72-5.26-4.72-3.69,0-6.39,2.61-6.39,6.43v14.31h-3.64v-32.17h3.64v11.97Z"/>
      <path class="cls-12" d="M222.9,1918.66c0-6.75,4.41-12.24,11.02-12.24,6.98,0,10.71,5.4,10.71,13.09h-18c.27,4.73,2.83,8.33,7.51,8.33,3.38,0,5.62-1.62,6.43-4.77h3.55c-1.08,5-4.72,7.83-9.99,7.83-7.11,0-11.25-5.49-11.25-12.24ZM226.73,1916.77h13.99c-.22-4.63-2.61-7.47-6.79-7.47s-6.66,3.24-7.2,7.47Z"/>
      <path class="cls-12" d="M251.84,1910.07h.09c1.67-2.21,4-3.6,7.38-3.6,4.86,0,7.83,2.65,7.83,7.47v16.33h-3.64v-16.02c0-3.01-1.98-4.72-5.26-4.72-3.69,0-6.39,2.61-6.39,6.43v14.31h-3.64v-23.26h3.64v3.06Z"/>
      <path class="cls-12" d="M279.1,1907.01h3.64v3.33h.09c1.44-2.25,3.91-3.87,6.84-3.87s5.08,1.44,6.08,4.14h.09c1.49-2.66,4.28-4.14,7.11-4.14,4.14,0,7.07,2.65,7.07,7.47v16.33h-3.65v-16.15c0-2.88-1.93-4.59-4.27-4.59-3.01,0-5.71,2.61-5.71,6.25v14.49h-3.64v-16.15c0-2.88-1.62-4.59-4-4.59-2.83,0-5.99,2.61-5.99,6.25v14.49h-3.64v-23.26Z"/>
      <path class="cls-12" d="M314.83,1898.1h3.64v4.5h-3.64v-4.5ZM314.83,1907.01h3.64v23.26h-3.64v-23.26Z"/>
      <path class="cls-12" d="M321.94,1907.01h3.38v-7.33h3.65v7.33h4.5v2.97h-4.5v15.12c0,1.62.85,2.16,2.34,2.16.72,0,1.53-.18,1.93-.32h.13v3.15c-.85.18-1.84.31-2.92.31-2.97,0-5.13-1.21-5.13-4.5v-15.93h-3.38v-2.97Z"/>
      <path class="cls-12" d="M342.1,1907.01h3.91l4.09,14.35c.54,1.93,1.26,4.99,1.26,4.99h.09s.67-3.06,1.17-4.9l3.92-14.44h3.82l3.78,14.44c.5,1.89,1.12,4.9,1.12,4.9h.09s.72-3.06,1.3-4.99l4.32-14.35h3.78l-7.6,23.26h-3.73l-3.87-14.08c-.54-1.94-1.12-4.86-1.12-4.86h-.09s-.63,2.92-1.17,4.86l-3.92,14.08h-3.78l-7.38-23.26Z"/>
      <path class="cls-12" d="M375.67,1918.66c0-6.75,4.41-12.24,11.02-12.24,6.98,0,10.71,5.4,10.71,13.09h-18c.27,4.73,2.83,8.33,7.51,8.33,3.38,0,5.62-1.62,6.43-4.77h3.55c-1.08,5-4.72,7.83-9.99,7.83-7.11,0-11.25-5.49-11.25-12.24ZM379.5,1916.77h13.99c-.22-4.63-2.61-7.47-6.79-7.47s-6.66,3.24-7.2,7.47Z"/>
      <path class="cls-12" d="M404.61,1910.07h.09c1.67-2.21,4-3.6,7.38-3.6,4.86,0,7.83,2.65,7.83,7.47v16.33h-3.64v-16.02c0-3.01-1.98-4.72-5.26-4.72-3.69,0-6.39,2.61-6.39,6.43v14.31h-3.64v-23.26h3.64v3.06Z"/>
      <path class="cls-12" d="M424.72,1898.1h3.64v4.5h-3.64v-4.5ZM424.72,1907.01h3.64v23.26h-3.64v-23.26Z"/>
      <path class="cls-12" d="M432.73,1931.57h3.37c.36,2.57,2.79,3.55,6.39,3.55,4.28,0,6.66-1.93,6.66-5.98v-3.29h-.09c-1.71,2.21-3.55,3.6-6.88,3.6-6.03,0-10.17-4.82-10.17-11.52,0-7.25,4.54-11.47,9.95-11.47,3.37,0,5.53,1.3,7.11,3.51h.09v-2.97h3.64v22c0,6.12-4.05,9-10.21,9s-9.45-2.43-9.85-6.43ZM449.43,1917.76c0-5.08-2.16-8.23-7.11-8.23-4.36,0-6.57,3.42-6.57,8.46s2.29,8.41,6.61,8.41c5.36,0,7.07-3.73,7.07-8.64Z"/>
      <path class="cls-12" d="M456.45,1918.66c0-6.75,4.41-12.24,11.02-12.24,6.97,0,10.71,5.4,10.71,13.09h-18c.27,4.73,2.83,8.33,7.51,8.33,3.38,0,5.62-1.62,6.43-4.77h3.56c-1.08,5-4.73,7.83-9.99,7.83-7.11,0-11.25-5.49-11.25-12.24ZM460.27,1916.77h14c-.23-4.63-2.61-7.47-6.79-7.47s-6.66,3.24-7.2,7.47Z"/>
      <path class="cls-12" d="M485.38,1910.87h.09c1.39-2.25,3.82-4.14,6.93-4.14.67,0,1.03.09,1.48.27v3.51h-.13c-.54-.18-.9-.23-1.62-.23-3.6,0-6.75,2.7-6.75,7.07v12.91h-3.64v-23.26h3.64v3.87Z"/>
      <path class="cls-12" d="M518.59,1927.03h-.04c-1.39,1.8-3.78,3.69-7.74,3.69-4.41,0-7.88-2.07-7.88-6.48,0-5.49,4.32-6.62,10.12-7.52,3.28-.49,5.58-.81,5.58-3.33s-1.89-4.09-5.22-4.09c-3.78,0-5.67,1.62-5.8,5.13h-3.51c.13-4.5,3.11-7.88,9.27-7.88,4.95,0,8.59,1.84,8.59,7.38v11.07c0,1.89.45,2.92,2.47,2.47h.14v2.66c-.45.18-1.04.36-1.98.36-2.38,0-3.64-1.08-4-3.46ZM518.68,1921.67v-3.96c-1.21.77-3.33,1.35-5.31,1.71-3.64.67-6.57,1.3-6.57,4.72,0,3.11,2.43,3.78,4.81,3.78,4.86,0,7.06-3.55,7.06-6.25Z"/>
      <path class="cls-12" d="M527.41,1898.1h3.65v32.17h-3.65v-32.17Z"/>
      <path class="cls-12" d="M534.66,1922.71h3.73c.5,4.05,3.2,5.17,6.66,5.17,3.83,0,5.4-1.67,5.4-3.83,0-2.61-1.8-3.28-6.07-4.18-4.59-.95-8.68-1.89-8.68-6.97,0-3.87,2.97-6.39,8.37-6.39,5.76,0,8.59,2.75,9.13,7.29h-3.73c-.36-3.06-2.03-4.41-5.49-4.41s-4.68,1.48-4.68,3.33c0,2.52,2.25,3.01,6.25,3.82,4.68.95,8.59,1.98,8.59,7.33,0,4.68-3.83,7.06-9.18,7.06-6.39,0-9.94-3.01-10.3-8.23Z"/>
      <path class="cls-12" d="M563.37,1921.36h3.73c.5,3.82,3.2,6.25,7.56,6.25s7.25-2.97,7.25-7.47-3.2-7.33-7.25-7.33c-3.33,0-5.62,1.35-6.93,3.19h-3.64l3.42-16.56h16.42v3.38h-13.77l-2.02,9.27h.09c1.75-1.66,4.09-2.61,7.06-2.61,5.49,0,10.48,3.92,10.48,10.75s-4.68,10.71-11.07,10.71-11.07-3.87-11.34-9.58Z"/>
      <path class="cls-12" d="M595.45,1907.64c0-5.49,3.15-8.91,7.29-8.91s7.2,3.33,7.2,8.91-2.88,8.91-7.2,8.91-7.29-3.51-7.29-8.91ZM606.61,1907.64c0-3.51-1.39-6.21-3.87-6.21s-3.87,2.61-3.87,6.21,1.35,6.21,3.87,6.21,3.87-2.61,3.87-6.21ZM619.97,1899.44h3.06l-17.68,30.82h-3.06l17.68-30.82ZM615.38,1922.03c0-5.49,3.15-8.91,7.29-8.91s7.2,3.33,7.2,8.91-2.88,8.91-7.2,8.91-7.29-3.51-7.29-8.91ZM626.54,1922.03c0-3.51-1.4-6.21-3.87-6.21s-3.87,2.61-3.87,6.21,1.35,6.21,3.87,6.21,3.87-2.61,3.87-6.21Z"/>
      <path class="cls-12" d="M639.28,1918.7c0-7.74,4.46-12.24,10.21-12.24,3.28,0,5.8,1.62,7.29,3.82h.09v-12.19h3.64v32.17h-3.64v-2.83h-.09c-1.75,2.25-3.91,3.51-7.2,3.51-6.34,0-10.3-4.77-10.3-12.24ZM657.1,1918.75c0-5.4-2.61-9.18-7.42-9.18-4.41,0-6.66,3.96-6.66,9.18s2.25,9.13,6.7,9.13c5.17,0,7.38-3.87,7.38-9.13Z"/>
      <path class="cls-12" d="M664.16,1918.66c0-6.75,4.41-12.24,11.02-12.24,6.97,0,10.71,5.4,10.71,13.09h-18c.27,4.73,2.83,8.33,7.51,8.33,3.37,0,5.62-1.62,6.43-4.77h3.55c-1.08,5-4.72,7.83-9.99,7.83-7.11,0-11.25-5.49-11.25-12.24ZM667.99,1916.77h13.99c-.22-4.63-2.61-7.47-6.79-7.47s-6.66,3.24-7.2,7.47Z"/>
      <path class="cls-12" d="M693.1,1910.87h.09c1.39-2.25,3.82-4.14,6.93-4.14.67,0,1.04.09,1.48.27v3.51h-.13c-.54-.18-.9-.23-1.62-.23-3.6,0-6.75,2.7-6.75,7.07v12.91h-3.65v-23.26h3.65v3.87Z"/>
      <path class="cls-12" d="M712.58,1898.1h21.82v3.55h-17.77v10.04h14.8v3.42h-14.8v15.16h-4.05v-32.17Z"/>
      <path class="cls-12" d="M740.12,1910.87h.09c1.39-2.25,3.82-4.14,6.93-4.14.67,0,1.04.09,1.48.27v3.51h-.13c-.54-.18-.9-.23-1.62-.23-3.6,0-6.75,2.7-6.75,7.07v12.91h-3.65v-23.26h3.65v3.87Z"/>
      <path class="cls-12" d="M765.28,1927.03h-.04c-1.39,1.8-3.78,3.69-7.74,3.69-4.41,0-7.88-2.07-7.88-6.48,0-5.49,4.32-6.62,10.12-7.52,3.29-.49,5.58-.81,5.58-3.33s-1.89-4.09-5.22-4.09c-3.78,0-5.67,1.62-5.8,5.13h-3.51c.13-4.5,3.1-7.88,9.27-7.88,4.95,0,8.59,1.84,8.59,7.38v11.07c0,1.89.45,2.92,2.47,2.47h.13v2.66c-.45.18-1.03.36-1.98.36-2.38,0-3.64-1.08-4-3.46ZM765.37,1921.67v-3.96c-1.21.77-3.33,1.35-5.31,1.71-3.64.67-6.57,1.3-6.57,4.72,0,3.11,2.43,3.78,4.81,3.78,4.86,0,7.06-3.55,7.06-6.25Z"/>
      <path class="cls-12" d="M788.77,1930.27v-3.2h-.09c-1.67,2.25-3.64,3.74-7.02,3.74-4.77,0-7.83-2.88-7.83-7.69v-16.11h3.64v16.02c0,3.02,1.94,4.77,5.22,4.77,3.69,0,6.08-2.79,6.08-6.48v-14.31h3.64v23.26h-3.64Z"/>
      <path class="cls-12" d="M796.06,1918.66c0-6.75,4.41-12.24,11.02-12.24,6.97,0,10.71,5.4,10.71,13.09h-18c.27,4.73,2.83,8.33,7.51,8.33,3.37,0,5.62-1.62,6.43-4.77h3.55c-1.08,5-4.72,7.83-9.99,7.83-7.11,0-11.25-5.49-11.25-12.24ZM799.88,1916.77h13.99c-.22-4.63-2.61-7.47-6.79-7.47s-6.66,3.24-7.2,7.47Z"/>
      <path class="cls-12" d="M824.99,1910.07h.09c1.67-2.21,4-3.6,7.38-3.6,4.86,0,7.83,2.65,7.83,7.47v16.33h-3.64v-16.02c0-3.01-1.98-4.72-5.26-4.72-3.69,0-6.39,2.61-6.39,6.43v14.31h-3.65v-23.26h3.65v3.06Z"/>
      <path class="cls-12" d="M844.61,1925.81h4.37v4.46h-4.37v-4.46Z"/>
      <path class="cls-12" d="M851.95,1911.23h3.19c.27,2.02,1.8,3.1,4,3.1s3.74-1.57,3.74-3.87c0-2.43-1.62-3.83-3.74-3.83-1.67,0-2.88.67-3.55,1.49h-2.97l1.89-10.04h10.62v2.7h-8.46l-.9,4.63h.09c.9-.81,2.25-1.4,4-1.4,3.38,0,6.3,2.48,6.3,6.44s-3.01,6.52-6.97,6.52-6.97-2.21-7.24-5.76Z"/>
      <path class="cls-13" d="M165.26,2037.1h4.05v32.17h-4.05v-32.17Z"/>
      <path class="cls-13" d="M178.09,2049.07h.09c1.67-2.21,4-3.6,7.38-3.6,4.86,0,7.83,2.65,7.83,7.47v16.33h-3.64v-16.02c0-3.01-1.98-4.72-5.26-4.72-3.69,0-6.39,2.61-6.39,6.43v14.31h-3.64v-23.26h3.64v3.06Z"/>
      <path class="cls-13" d="M196.04,2046.01h3.2v-3.74c0-4,2.29-5.44,6.16-5.44.77,0,1.35.04,1.84.09v3.1c-.63-.04-.81-.04-1.17-.04-2.34,0-3.19.58-3.19,2.47v3.56h4.32v2.97h-4.32v20.29h-3.64v-20.29h-3.2v-2.97Z"/>
      <path class="cls-13" d="M208.33,2057.66c0-6.75,4.32-12.24,11.25-12.24s11.2,5.49,11.2,12.24-4.23,12.24-11.2,12.24-11.25-5.49-11.25-12.24ZM227.05,2057.66c0-5.13-2.52-9.22-7.47-9.22s-7.51,4.09-7.51,9.22,2.56,9.18,7.51,9.18,7.47-4.05,7.47-9.18Z"/>
      <path class="cls-13" d="M232.49,2061.71h3.74c.5,4.05,3.19,5.17,6.66,5.17,3.82,0,5.4-1.67,5.4-3.83,0-2.61-1.8-3.28-6.08-4.18-4.59-.95-8.68-1.89-8.68-6.97,0-3.87,2.97-6.39,8.37-6.39,5.76,0,8.59,2.75,9.13,7.29h-3.74c-.36-3.06-2.02-4.41-5.49-4.41s-4.68,1.48-4.68,3.33c0,2.52,2.25,3.01,6.25,3.82,4.68.95,8.59,1.98,8.59,7.33,0,4.68-3.82,7.06-9.18,7.06-6.39,0-9.94-3.01-10.3-8.23Z"/>
      <path class="cls-13" d="M260.8,2066.39l12.96-17.05v-.13h-12.19v-3.19h17.28v2.16l-13.36,17.64v.13h13.86v3.33h-18.54v-2.88Z"/>
      <path class="cls-13" d="M297.29,2069.27v-3.2h-.09c-1.67,2.25-3.64,3.74-7.02,3.74-4.77,0-7.83-2.88-7.83-7.69v-16.11h3.65v16.02c0,3.02,1.93,4.77,5.22,4.77,3.69,0,6.07-2.79,6.07-6.48v-14.31h3.65v23.26h-3.65Z"/>
      <path class="cls-13" d="M309.08,2049.87h.09c1.39-2.25,3.82-4.14,6.93-4.14.67,0,1.03.09,1.48.27v3.51h-.13c-.54-.18-.9-.23-1.62-.23-3.6,0-6.75,2.7-6.75,7.07v12.91h-3.64v-23.26h3.64v3.87Z"/>
      <path class="cls-13" d="M325.82,2057.66c0-6.75,4.41-12.24,11.02-12.24,6.98,0,10.71,5.4,10.71,13.09h-18c.27,4.73,2.83,8.33,7.51,8.33,3.38,0,5.62-1.62,6.43-4.77h3.55c-1.08,5-4.72,7.83-9.99,7.83-7.11,0-11.25-5.49-11.25-12.24ZM329.64,2055.77h13.99c-.22-4.63-2.61-7.47-6.79-7.47s-6.66,3.24-7.2,7.47Z"/>
      <path class="cls-13" d="M356.1,2057.07l-7.74-11.07h4.23l5.54,8.46h.09l5.76-8.46h4l-7.65,10.66,9.09,12.6h-4.28l-6.88-9.99h-.09l-6.75,9.99h-4.09l8.77-12.19Z"/>
      <path class="cls-13" d="M371.72,2046.01h3.64v3.28h.09c1.75-2.38,4.09-3.82,7.47-3.82,5.9,0,9.99,4.5,9.99,12.24s-3.83,12.24-10.12,12.24c-3.15,0-5.4-.94-7.33-3.42h-.09v10.21h-3.64v-30.73ZM389.18,2057.75c0-5.22-2.2-9.18-6.61-9.18-5.08,0-7.42,4.14-7.42,9.18s2.02,9.13,7.38,9.13c4.46,0,6.66-3.87,6.66-9.13Z"/>
      <path class="cls-13" d="M410.37,2066.03h-.04c-1.4,1.8-3.78,3.69-7.74,3.69-4.41,0-7.87-2.07-7.87-6.48,0-5.49,4.32-6.62,10.12-7.52,3.29-.49,5.58-.81,5.58-3.33s-1.89-4.09-5.22-4.09c-3.78,0-5.67,1.62-5.8,5.13h-3.51c.13-4.5,3.1-7.88,9.27-7.88,4.95,0,8.59,1.84,8.59,7.38v11.07c0,1.89.45,2.92,2.47,2.47h.13v2.66c-.45.18-1.04.36-1.98.36-2.38,0-3.65-1.08-4-3.46ZM410.46,2060.67v-3.96c-1.21.77-3.33,1.35-5.31,1.71-3.65.67-6.57,1.3-6.57,4.72,0,3.11,2.43,3.78,4.82,3.78,4.86,0,7.06-3.55,7.06-6.25Z"/>
      <path class="cls-13" d="M422.25,2049.07h.09c1.67-2.21,4-3.6,7.38-3.6,4.86,0,7.83,2.65,7.83,7.47v16.33h-3.64v-16.02c0-3.01-1.98-4.72-5.26-4.72-3.69,0-6.39,2.61-6.39,6.43v14.31h-3.64v-23.26h3.64v3.06Z"/>
      <path class="cls-13" d="M440.43,2061.71h3.73c.5,4.05,3.2,5.17,6.66,5.17,3.83,0,5.4-1.67,5.4-3.83,0-2.61-1.8-3.28-6.07-4.18-4.59-.95-8.68-1.89-8.68-6.97,0-3.87,2.97-6.39,8.37-6.39,5.76,0,8.59,2.75,9.13,7.29h-3.73c-.36-3.06-2.03-4.41-5.49-4.41s-4.68,1.48-4.68,3.33c0,2.52,2.25,3.01,6.25,3.82,4.68.95,8.59,1.98,8.59,7.33,0,4.68-3.83,7.06-9.18,7.06-6.39,0-9.94-3.01-10.3-8.23Z"/>
      <path class="cls-13" d="M462.98,2037.1h3.64v4.5h-3.64v-4.5ZM462.98,2046.01h3.64v23.26h-3.64v-23.26Z"/>
      <path class="cls-13" d="M468.74,2046.01h3.92l4.81,14.76c.67,2.07,1.53,4.91,1.53,4.91h.09s.85-2.88,1.53-4.91l4.9-14.76h3.78l-8.37,23.26h-4.05l-8.14-23.26Z"/>
      <path class="cls-13" d="M489.66,2057.66c0-6.75,4.41-12.24,11.02-12.24,6.98,0,10.71,5.4,10.71,13.09h-18c.27,4.73,2.83,8.33,7.51,8.33,3.38,0,5.62-1.62,6.43-4.77h3.55c-1.08,5-4.72,7.83-9.99,7.83-7.11,0-11.25-5.49-11.25-12.24ZM493.49,2055.77h13.99c-.22-4.63-2.61-7.47-6.79-7.47s-6.66,3.24-7.2,7.47Z"/>
      <path class="cls-13" d="M518.15,2049.07h.09c1.66-2.21,4-3.6,7.38-3.6,4.86,0,7.83,2.65,7.83,7.47v16.33h-3.64v-16.02c0-3.01-1.98-4.72-5.27-4.72-3.69,0-6.39,2.61-6.39,6.43v14.31h-3.64v-23.26h3.64v3.06Z"/>
      <path class="cls-13" d="M545.06,2037.1h4.05v13.68h17.19v-13.68h4.05v32.17h-4.05v-15.21h-17.19v15.21h-4.05v-32.17Z"/>
      <path class="cls-13" d="M589.65,2066.03h-.04c-1.39,1.8-3.78,3.69-7.74,3.69-4.41,0-7.88-2.07-7.88-6.48,0-5.49,4.32-6.62,10.12-7.52,3.28-.49,5.58-.81,5.58-3.33s-1.89-4.09-5.22-4.09c-3.78,0-5.67,1.62-5.8,5.13h-3.51c.13-4.5,3.11-7.88,9.27-7.88,4.95,0,8.59,1.84,8.59,7.38v11.07c0,1.89.45,2.92,2.47,2.47h.13v2.66c-.45.18-1.03.36-1.98.36-2.38,0-3.64-1.08-4-3.46ZM589.74,2060.67v-3.96c-1.21.77-3.33,1.35-5.31,1.71-3.64.67-6.57,1.3-6.57,4.72,0,3.11,2.43,3.78,4.81,3.78,4.86,0,7.06-3.55,7.06-6.25Z"/>
      <path class="cls-13" d="M598.02,2037.1h3.64v32.17h-3.64v-32.17Z"/>
      <path class="cls-13" d="M604.81,2046.01h3.38v-7.33h3.64v7.33h4.5v2.97h-4.5v15.12c0,1.62.85,2.16,2.34,2.16.72,0,1.53-.18,1.93-.32h.14v3.15c-.86.18-1.85.31-2.93.31-2.97,0-5.13-1.21-5.13-4.5v-15.93h-3.38v-2.97Z"/>
      <path class="cls-13" d="M634.47,2069.27v-3.2h-.09c-1.67,2.25-3.64,3.74-7.02,3.74-4.77,0-7.83-2.88-7.83-7.69v-16.11h3.64v16.02c0,3.02,1.94,4.77,5.22,4.77,3.69,0,6.08-2.79,6.08-6.48v-14.31h3.64v23.26h-3.64Z"/>
      <path class="cls-13" d="M646.26,2049.07h.09c1.67-2.21,4-3.6,7.38-3.6,4.86,0,7.83,2.65,7.83,7.47v16.33h-3.64v-16.02c0-3.01-1.98-4.72-5.26-4.72-3.69,0-6.39,2.61-6.39,6.43v14.31h-3.65v-23.26h3.65v3.06Z"/>
      <path class="cls-13" d="M665.34,2070.57h3.38c.36,2.57,2.79,3.55,6.39,3.55,4.28,0,6.66-1.93,6.66-5.98v-3.29h-.09c-1.71,2.21-3.56,3.6-6.88,3.6-6.03,0-10.17-4.82-10.17-11.52,0-7.25,4.54-11.47,9.94-11.47,3.38,0,5.54,1.3,7.11,3.51h.09v-2.97h3.64v22c0,6.12-4.05,9-10.21,9s-9.45-2.43-9.85-6.43ZM682.03,2056.76c0-5.08-2.16-8.23-7.11-8.23-4.37,0-6.57,3.42-6.57,8.46s2.29,8.41,6.61,8.41c5.35,0,7.06-3.73,7.06-8.64Z"/>
      <path class="cls-13" d="M162.16,2075.7v-.9h525.73v.9H162.16Z"/>
    </g>
    <path class="cls-13" d="M116.96,2052.87l-20.94-18.69,3.34-4.24,27.71,25.37v.09l-27.71,25.37-3.34-4.15,20.94-18.78h-42.97v-4.96h42.97Z"/>
    <g class="cls-9">
      <g>
        <polyline class="cls-2" points="-38.49 1475.13 10.23 1633.29 10.23 1658.55"/>
        <polyline class="cls-2" points="-151.04 771.41 -106.77 832.47 837.72 670.03 1143.72 481.54"/>
        <polyline class="cls-2" points="837.72 670.03 870.51 770.1 972.81 938.95 977.47 1019.57 1025.29 1112.17 1023.11 1658.55"/>
        <polyline class="cls-2" points="1347.65 1127.86 1025.29 1453.34 974.63 1483.36 570.65 1479.72 216.2 1588.89 10.23 1617.49 -151.04 1617.49"/>
        <polyline class="cls-2" points="961.34 593.88 1100.5 724.24 1133.25 771.55 1198.76 806.49 1277.36 806.49 1347.65 770.1"/>
        <polyline class="cls-2" points="570.65 1479.72 570.65 1416.6 402.84 1418.32 171.29 1429.63 87.74 1446.96 -77.58 1483.85 -154.91 1490.07"/>
        <polyline class="cls-2" points="1124.22 758.5 1073.88 787.07 1002.24 746.84 912.4 839.24 747.21 990.25 760 1077.13 701.11 1104.04 602.91 1382.81 570.65 1416.6 430.44 1472.7 156.63 1525.96 -151.04 1583.27"/>
        <polyline class="cls-2" points="339.37 1550.95 295.02 1338.4 244.86 1208.91 120.74 606.12 -151.04 466.39"/>
        <polyline class="cls-2" points="625.23 901.47 600.35 957.13 555.15 979.12 556.77 995.01 634.54 1013.33 659.07 1076.46 612.13 1096.77 568.67 1054.42 528.92 1070.52 474.23 1064.85 459.9 1093.58 491.89 1118.71 473.93 1150.93 437.73 1169.01 405.92 1127.86 374.72 1129.03 346.78 1176.39 439.88 1238.49 473.99 1234.23 549.41 1139.86 595.69 1149.87 584.63 1200.99 543.13 1257.94 480.95 1301.36 406.79 1294.37 314.71 1230.19 249.21 1220.15 191.3 1273.47 131.75 1289.11 98.7 1408.15 106.9 1535.22 143.65 1573.83 140.31 1654.84"/>
        <polyline class="cls-2" points="464.87 939.13 476.66 991.26 400.87 1056.03 405.92 1127.86"/>
        <polyline class="cls-2" points="-154.91 1398.19 -106.77 1373.96 -28.77 1392.24 28.25 1368.57 41.44 1287.93 125.35 1186.44 309.64 1117.1 353.47 1056.03 389.92 954.69 886.01 842.5 912.4 839.24"/>
        <polyline class="cls-2" points="-151.04 1114.85 264.36 1075.88 373.28 1000.96"/>
        <polyline class="cls-2" points="-151.04 1227.58 -87.82 1289.11 -27.87 1262.38 4.8 1195.92 97.82 1140.34 107.71 992.75 74.78 801.25"/>
        <polyline class="cls-2" points="634.54 1013.33 690.02 1006.62 679.77 955.5 711.77 939.96 747.21 990.25"/>
        <polyline class="cls-2" points="-106.77 832.47 -19.04 905.81 93.74 930.49 869.66 751.72"/>
        <line class="cls-2" x1="-151.04" y1="771.41" x2="1347.65" y2="435.88"/>
        <line class="cls-2" x1="309.64" y1="975.15" x2="240.27" y2="683.8"/>
        <polyline class="cls-2" points="-154.91 975.15 107.71 992.75 209.07 1000.78 389.92 954.69 316.82 606.12 120.74 606.12"/>
        <line class="cls-2" x1="448.18" y1="637.26" x2="513.64" y2="926.71"/>
        <line class="cls-2" x1="625.23" y1="901.47" x2="581.84" y2="713.18"/>
        <polyline class="cls-2" points="677.54 588.71 819.44 1070.67 863.38 1142.35 904.81 1141.11 982.46 1300.75 934.13 1350.44 1024.07 1416.8"/>
        <polyline class="cls-2" points="656.54 1480.43 664.45 1419.22 940.84 1099.42 1096.79 1014.02 1347.65 814.17"/>
        <polyline class="cls-2" points="113.01 1356.59 195 1330.6 299.76 1361.13 350.1 1329.02 400.64 1363.12 532.82 1368.67 598.5 1293.8 759.24 1432.56 759.24 1658.55"/>
        <polyline class="cls-2" points="584.63 1200.99 888.88 1435.1 945.84 1658.55"/>
        <polyline class="cls-2" points="660.87 1348.6 972.81 938.95 1073.88 863.47 1116.99 894.33 1096.79 1014.02"/>
        <line class="cls-2" x1="584.61" y1="1309.64" x2="543.13" y2="1257.94"/>
        <polyline class="cls-2" points="787.35 1178.94 893.67 1267.73 1347.65 1070.3"/>
        <polyline class="cls-2" points="893.67 1267.73 812.12 1369.01 820.54 1658.55"/>
        <polyline class="cls-2" points="929.05 1190.95 1233.51 1053.1 1300.95 982.85 1347.65 967.92"/>
        <polyline class="cls-2" points="216.2 1588.89 236.32 1510.46 171.29 1429.63"/>
      </g>
    </g>
    
    
    
    
    <g class="cls-10">
      <g>
        <path class="cls-15" d="M1067.46,1897.24c23.79,0,46.81,8.61,64.8,24.25,19.93,17.33,31.92,41.37,33.76,67.72s-6.69,51.83-24.01,71.76c-18.79,21.61-46,34-74.68,34-23.79,0-46.81-8.61-64.8-24.25-41.14-35.77-45.51-98.33-9.75-139.47,18.79-21.61,46-34,74.68-34M1067.46,1843.22c-42.73,0-85.21,17.8-115.44,52.58-55.39,63.72-48.64,160.28,15.08,215.67,28.94,25.16,64.67,37.5,100.23,37.5,42.73,0,85.21-17.8,115.44-52.58,55.39-63.72,48.64-160.28-15.08-215.67-28.94-25.16-64.67-37.5-100.23-37.5h0Z"/>
        <line class="cls-4" x1="933.19" y1="2446.66" x2="933.19" y2="2767.39"/>
        <path class="cls-15" d="M1200.88,2198.45l74.59,238.32h-422.78l80.32-238.32h267.86M1240.57,2144.43h-346.35l-116.73,346.35h571.48l-108.4-346.35h0Z"/>
        <line class="cls-3" x1="583.09" y1="2463.85" x2="1543.38" y2="2463.85"/>
      </g>
    </g>
  </g>
</svg>