<?xml version="1.0" encoding="UTF-8"?>
<svg id="Ebene_2" data-name="Ebene 2" xmlns="http://www.w3.org/2000/svg" xmlns:xlink="http://www.w3.org/1999/xlink" viewBox="0 0 1170 2533">
  <defs>
    <style>
      .cls-1, .cls-2, .cls-3 {
        fill: none;
      }

      .cls-4 {
        fill: #05141d;
      }

      .cls-5 {
        fill: #01141e;
      }

      .cls-6 {
        fill: #2b2b2a;
      }

      .cls-7 {
        clip-path: url(#clippath-1);
      }

      .cls-8 {
        clip-path: url(#clippath-2);
      }

      .cls-9 {
        fill: #fff;
      }

      .cls-2 {
        stroke: #c7c7c6;
        stroke-width: 21.54px;
      }

      .cls-2, .cls-3 {
        stroke-miterlimit: 10;
      }

      .cls-10 {
        fill: #03161d;
      }

      .cls-11 {
        fill: red;
      }

      .cls-3 {
        stroke: red;
        stroke-width: 21.64px;
      }

      .cls-12 {
        fill: #ededed;
      }

      .cls-13 {
        fill: #c7c7c6;
      }

      .cls-14 {
        clip-path: url(#clippath);
      }
    
      .cls-13{display:none!important}
    </style>
    <clipPath id="clippath">
      <rect class="cls-1" x="107.1" y="125.82" width="918.12" height="246.85"/>
    </clipPath>
    <clipPath id="clippath-1">
      <rect class="cls-1" x="0" y="103.13" width="1170" height="1460.65"/>
    </clipPath>
    <clipPath id="clippath-2">
      <rect class="cls-1" x="525.94" y="2077.38" width="644.06" height="454.62"/>
    </clipPath>
  </defs>
  <g id="Ebene_1-2" data-name="Ebene 1">
    <rect class="cls-9" x="0" y="0" width="1170" height="2533"/>
    <g class="cls-14">
      <path class="cls-11" d="M1019.99,297.73c2.83,0,5.23-2.4,5.23-5.23s-2.4-5.23-5.23-5.23-5.12,2.4-5.12,5.23,2.4,5.23,5.12,5.23M998.84,297.41c2.83,0,6.98-1.09,8.94-3.92v-2.18c-.98.87-2.62,2.29-5.56,2.29-5.01,0-7.08-3.71-7.08-7.52v-40.22h12.75v-2.83h-12.75v-14.06h-2.94c-1.85,8.61-5.89,13.51-12.1,15.04v1.85h7.41v39.78c0,8.5,5.99,11.77,11.34,11.77M941.51,296.64c6.43-.33,13.73-.33,21.04,0v-2.07c-3.49-.44-7.3-1.53-7.3-6.43v-28.34c0-4.9,2.29-12.97,7.52-12.97,4.25,0,5.01,5.45,9.37,5.45,2.51,0,4.14-2.07,4.14-4.47,0-3.49-3.38-6.76-8.83-6.76-6.32,0-11.12,4.25-13.62,13.62h-.65l2.72-11.99c-.33-.98-.87-1.53-1.74-1.85-2.51,1.96-7.3,4.36-12.97,5.12v2.07c4.36-.33,6.43.22,6.43,3.71v36.4c0,4.9-2.94,5.99-6.1,6.43v2.07ZM913.83,243.13c9.37,0,14.28,8.39,12.97,22.34h-26.16c.11-14.93,4.58-22.34,13.19-22.34M919.17,294.9c-11.44,0-17.98-11.01-18.53-27.14h30.08c3.49,0,4.58-2.4,4.58-6.87,0-13.73-10.03-19.84-20.6-19.84-14.06,0-22.89,11.66-22.89,28.56,0,17.77,10.03,28.23,24.2,28.23,9.59,0,16.46-4.9,18.96-11.23h-2.51c-2.62,6.32-8.61,8.28-13.3,8.28M866.86,296.64c6.76-.54,13.84-.54,20.6,0v-2.07c-3.38-.44-6.43-1.53-6.43-6.43v-32.48c0-6.65,0-10.79.65-12.97-.44-.98-.98-1.53-1.85-1.85-3.6,2.4-7.3,4.25-12.53,5.12v2.07c3.81,0,6.1,2.83,6.1,7.63v32.48c0,4.9-3.05,5.99-6.54,6.43v2.07ZM876.45,231.36c2.72,0,5.12-2.29,5.12-5.12s-2.4-5.01-5.12-5.01-5.01,2.18-5.01,5.01,2.29,5.12,5.01,5.12M810.62,296.64c6.65-.33,13.3-.33,19.95,0v-2.07c-3.27-.65-6.21-1.53-6.21-6.43v-28.66c0-7.52,4.9-13.73,12.64-13.73s12.21,5.89,12.21,13.73v28.66c0,4.9-2.72,5.78-5.99,6.43v2.07c6.54-.33,13.19-.33,19.84,0v-2.07c-3.27-.44-6.21-1.53-6.21-6.43v-28.99c0-14.5-9.05-18.09-16.35-18.09-12.21,0-16.68,10.03-17.33,13.3h-.44l2.07-11.66c-.33-.98-.87-1.53-1.74-1.85-2.51,2.07-7.08,4.36-12.75,5.12v2.07c4.36-.33,6.43.22,6.43,3.71v36.4c0,4.9-2.72,5.99-6.1,6.43v2.07ZM783.05,295.66c-10.25,0-17.44-12.21-17.44-28.77s6.1-23.65,14.06-23.65c10.35,0,17.44,11.99,17.44,28.77s-5.99,23.65-14.06,23.65M781.52,297.84c12.53,0,23.98-9.7,23.98-28.45s-11.34-28.34-24.3-28.34-23.87,9.7-23.87,28.45,11.23,28.34,24.2,28.34M732.36,296.64c6.76-.54,13.84-.54,20.6,0v-2.07c-3.38-.44-6.43-1.53-6.43-6.43v-32.48c0-6.65,0-10.79.65-12.97-.44-.98-.98-1.53-1.85-1.85-3.6,2.4-7.3,4.25-12.53,5.12v2.07c3.81,0,6.1,2.83,6.1,7.63v32.48c0,4.9-3.05,5.99-6.54,6.43v2.07ZM741.96,231.36c2.72,0,5.12-2.29,5.12-5.12s-2.4-5.01-5.12-5.01-5.01,2.18-5.01,5.01,2.29,5.12,5.01,5.12M717.98,297.41c2.83,0,6.98-1.09,8.94-3.92v-2.18c-.98.87-2.62,2.29-5.56,2.29-5.01,0-7.08-3.71-7.08-7.52v-40.22h12.75v-2.83h-12.75v-14.06h-2.94c-1.85,8.61-5.89,13.51-12.1,15.04v1.85h7.41v39.78c0,8.5,5.99,11.77,11.33,11.77M665.77,265.58c16.89-16.24,21.69-20.93,28.12-21.47v-2.07c-5.01.33-12.64.33-19.62,0v2.07c11.23.54-4.36,15.48-14.39,23.21v-32.59c0-6.65,0-10.79.65-12.97-.44-.98-.98-1.53-1.85-1.85-3.6,2.4-7.3,4.25-12.53,5.12v2.07c3.81,0,6.1,2.83,6.1,7.63v53.41c0,4.9-3.05,5.99-6.54,6.43v2.07c6.76-.54,13.84-.54,20.6,0v-2.07c-3.38-.44-6.43-1.53-6.43-6.43v-18.2l14.82,17.87c6.43,7.63,12.42,10.14,19.07,10.14l2.72-2.07c-2.62,0-8.17-3.81-13.08-9.7l-17.66-20.6ZM591.12,296.64c6.65-.33,13.3-.33,19.95,0v-2.07c-3.27-.65-6.21-1.53-6.21-6.43v-28.66c0-7.52,4.9-13.73,12.64-13.73s12.21,5.89,12.21,13.73v28.66c0,4.9-2.72,5.78-5.99,6.43v2.07c6.54-.33,13.19-.33,19.84,0v-2.07c-3.27-.44-6.21-1.53-6.21-6.43v-28.99c0-14.5-9.05-18.09-16.35-18.09-12.21,0-16.68,10.03-17.33,13.3h-.44l2.07-11.66c-.33-.98-.87-1.53-1.74-1.85-2.51,2.07-7.08,4.36-12.75,5.12v2.07c4.36-.33,6.43.22,6.43,3.71v36.4c0,4.9-2.72,5.99-6.1,6.43v2.07ZM574.66,297.84c4.25-1.2,7.52-1.2,12.75-1.2v-2.07c-4.03-.87-6.21-2.07-6.21-7.74v-43.38c0-1.42-.33-2.07-2.18-1.74l-11.66,1.09v2.07c5.34.22,6.32,1.63,6.32,5.99v28.12c-.98,7.63-5.45,14.06-13.19,14.06s-12.42-6.65-12.42-14.06v-35.53c0-1.42-.76-1.85-2.18-1.74l-11.66,1.09v2.07c5.12.22,6.32,1.85,6.32,5.99v28.45c0,14.82,9.37,18.31,16.46,18.31,12.1,0,16.89-9.92,17.22-11.66h.54l-1.53,10.03c0,.98.65,1.53,1.42,1.85M523.87,220.57c-7.74,0-14.6,4.25-14.6,17.33v5.56c-1.31.54-3.92,1.09-6.1,1.09v2.07h6.1v41.53c0,4.9-3.05,5.99-6.54,6.43v2.07c6.76-.54,13.84-.54,21.8,0v-2.07c-4.58-.44-7.63-1.53-7.63-6.43v-41.53h11.99v-3.16h-11.99v-6.87c0-7.19.54-13.84,5.67-13.84,6.21,0,4.69,9.16,9.81,9.16,2.62,0,3.05-2.18,3.05-3.49,0-3.27-3.6-7.85-11.55-7.85M465.45,297.41c2.83,0,6.98-1.09,8.94-3.92v-2.18c-.98.87-2.62,2.29-5.56,2.29-5.01,0-7.08-3.71-7.08-7.52v-40.22h12.75v-2.83h-12.75v-14.06h-2.94c-1.85,8.61-5.89,13.51-12.1,15.04v1.85h7.41v39.78c0,8.5,5.99,11.77,11.33,11.77M416.52,294.68c-11.55,0-16.46-14.28-16.46-27.36,0-16.35,7.74-23.87,15.91-23.87,5.78,0,11.01,3.49,13.19,10.35v28.77c0,5.89-5.01,12.1-12.64,12.1M430.47,297.84c4.25-1.2,7.19-1.2,12.42-1.2v-2.07c-4.03-.87-6.1-2.07-6.1-7.74v-52.1c0-6.65,0-10.79.65-12.97-.33-.98-.98-1.53-1.85-1.85-3.6,2.4-7.3,4.25-12.53,5.12v2.07c3.81,0,6.1,2.83,6.1,7.63v13.19c-2.83-3.92-8.5-6.87-15.26-6.87-12.64,0-22.23,9.92-22.23,28.23s8.83,28.56,21.69,28.56c9.37,0,15.04-5.89,16.68-9.16h.54l-1.53,7.3c0,.98.65,1.53,1.42,1.85M360.06,293.7c-4.9,0-10.68-3.16-10.68-11.55,0-5.45,2.62-12.64,24.2-15.59v13.51c0,7.85-6.54,13.62-13.51,13.62M381.2,259.04c0-12.64-3.16-17.98-16.35-17.98s-21.69,6.21-21.47,13.62c0,3.05,1.42,5.01,4.58,5.01,9.37,0-1.74-16.35,14.5-16.35,9.92,0,11.12,6.21,11.12,16.02v4.9c-27.25,3.81-33.24,11.44-33.24,19.84,0,10.14,7.96,13.73,15.26,13.73,9.05,0,15.26-5.23,17.98-9.59h.76v1.63c0,4.58,1.96,7.96,7.19,7.96,1.63,0,3.6-.22,5.23-1.74v-1.96c-3.49.54-5.56-1.74-5.56-5.78v-29.32ZM326.49,297.41c2.83,0,6.98-1.09,8.94-3.92v-2.18c-.98.87-2.62,2.29-5.56,2.29-5.01,0-7.08-3.71-7.08-7.52v-40.22h12.75v-2.83h-12.75v-14.06h-2.94c-1.85,8.61-5.89,13.51-12.1,15.04v1.85h7.41v39.78c0,8.5,5.99,11.77,11.34,11.77M284.86,297.95c10.03,0,19.62-5.89,19.62-18.09,0-14.06-13.41-18.42-22.78-22.56-8.83-3.81-13.73-8.94-13.73-15.91s5.34-11.88,12.97-11.88c6.98,0,12.97,3.92,16.68,12.21h2.18l-.65-13.62h-2.18c-.54,1.53-1.74,1.85-3.05,1.85-3.49,0-6.43-2.72-13.41-2.72-12.53,0-19.29,8.17-19.29,17.11,0,10.25,8.5,16.78,19.07,21.36,7.19,3.05,16.57,7.74,16.57,17.11,0,6.87-4.9,12.64-14.17,12.64-10.03,0-16.35-6.54-19.4-14.06h-2.18l.87,15.26h2.51c0-1.74,1.74-3.05,3.16-3.05,2.83,0,8.5,4.36,17.22,4.36M209.66,243.13c9.37,0,14.28,8.39,12.97,22.34h-26.16c.11-14.93,4.58-22.34,13.19-22.34M215,294.9c-11.44,0-17.98-11.01-18.53-27.14h30.08c3.49,0,4.58-2.4,4.58-6.87,0-13.73-10.03-19.84-20.6-19.84-14.06,0-22.89,11.66-22.89,28.56,0,17.77,10.03,28.23,24.2,28.23,9.59,0,16.46-4.9,18.96-11.23h-2.51c-2.62,6.32-8.61,8.28-13.3,8.28M162.68,296.64c6.76-.54,13.84-.54,20.6,0v-2.07c-3.38-.44-6.43-1.53-6.43-6.43v-32.48c0-6.65,0-10.79.65-12.97-.44-.98-.98-1.53-1.85-1.85-3.6,2.4-7.3,4.25-12.53,5.12v2.07c3.81,0,6.1,2.83,6.1,7.63v32.48c0,4.9-3.05,5.99-6.54,6.43v2.07ZM172.27,231.36c2.72,0,5.12-2.29,5.12-5.12s-2.4-5.01-5.12-5.01-5.01,2.18-5.01,5.01,2.29,5.12,5.01,5.12M131.95,294.68c-11.55,0-16.46-14.28-16.46-27.36,0-16.35,7.74-23.87,15.91-23.87,5.78,0,11.01,3.49,13.19,10.35v28.77c0,5.89-5.01,12.1-12.64,12.1M145.9,297.84c4.25-1.2,7.19-1.2,12.42-1.2v-2.07c-4.03-.87-6.1-2.07-6.1-7.74v-52.1c0-6.65,0-10.79.65-12.97-.33-.98-.98-1.53-1.85-1.85-3.6,2.4-7.3,4.25-12.53,5.12v2.07c3.81,0,6.1,2.83,6.1,7.63v13.19c-2.83-3.92-8.5-6.87-15.26-6.87-12.64,0-22.23,9.92-22.23,28.23s8.83,28.56,21.69,28.56c9.37,0,15.04-5.89,16.68-9.16h.54l-1.53,7.3c0,.98.65,1.53,1.42,1.85"/>
      <path class="cls-6" d="M590.35,213.01c.44.44.76.44,1.42,0,3.81-3.38,5.89-8.39,5.89-12.64,0-3.71-2.07-7.08-5.67-7.08-2.83,0-5.01,1.85-5.01,5.23,0,2.83,2.29,4.58,4.36,4.58.87,0,1.09-.11,1.63-.22.22.33.22.76.22,1.09,0,2.94-1.85,6.32-3.49,7.96l.65,1.09ZM554.39,202.55c6.43-.33,13.73-.33,21.04,0v-2.07c-3.49-.44-7.3-1.53-7.3-6.43v-28.34c0-4.9,2.29-12.97,7.52-12.97,4.25,0,5.01,5.45,9.37,5.45,2.51,0,4.14-2.07,4.14-4.47,0-3.49-3.38-6.76-8.83-6.76-6.32,0-11.12,4.25-13.62,13.62h-.65l2.72-11.99c-.33-.98-.87-1.53-1.74-1.85-2.51,1.96-7.3,4.36-12.97,5.12v2.07c4.36-.33,6.43.22,6.43,3.71v36.4c0,4.9-2.94,5.99-6.1,6.43v2.07ZM526.27,201.57c-10.25,0-17.44-12.21-17.44-28.77s6.1-23.65,14.06-23.65c10.35,0,17.44,11.99,17.44,28.77s-5.99,23.65-14.06,23.65M524.74,203.75c12.53,0,23.98-9.7,23.98-28.45s-11.33-28.34-24.3-28.34-23.87,9.7-23.87,28.45,11.23,28.34,24.2,28.34M481.8,150.02c5.99.11,7.96,1.42,5.89,7.19l-10.46,32.26-11.34-32.26c-2.07-5.78-.87-7.08,4.58-7.19v-2.07h-21.25v2.07c4.14.11,6.32,1.42,8.28,7.19l16.24,45.34h1.42l15.26-45.34c2.07-5.78,4.58-7.08,10.14-7.19v-2.07h-18.75v2.07ZM387.74,202.55c6.43-.33,13.73-.33,21.04,0v-2.07c-3.49-.44-7.3-1.53-7.3-6.43v-28.34c0-4.9,2.29-12.97,7.52-12.97,4.25,0,5.01,5.45,9.37,5.45,2.51,0,4.14-2.07,4.14-4.47,0-3.49-3.38-6.76-8.83-6.76-6.32,0-11.12,4.25-13.62,13.62h-.65l2.72-11.99c-.33-.98-.87-1.53-1.74-1.85-2.51,1.96-7.3,4.36-12.97,5.12v2.07c4.36-.33,6.43.22,6.43,3.71v36.4c0,4.9-2.94,5.99-6.1,6.43v2.07ZM362.57,202.55c6.76-.54,13.84-.54,20.6,0v-2.07c-3.38-.44-6.43-1.53-6.43-6.43v-32.48c0-6.65,0-10.79.65-12.97-.44-.98-.98-1.53-1.85-1.85-3.6,2.4-7.3,4.25-12.53,5.12v2.07c3.81,0,6.1,2.83,6.1,7.63v32.48c0,4.9-3.05,5.99-6.54,6.43v2.07ZM372.16,137.27c2.72,0,5.12-2.29,5.12-5.12s-2.4-5.01-5.12-5.01-5.01,2.18-5.01,5.01,2.29,5.12,5.01,5.12M331.83,200.59c-11.55,0-16.46-14.28-16.46-27.36,0-16.35,7.74-23.87,15.91-23.87,5.78,0,11.01,3.49,13.19,10.35v28.77c0,5.89-5.01,12.1-12.64,12.1M345.78,203.75c4.25-1.2,7.19-1.2,12.42-1.2v-2.07c-4.03-.87-6.1-2.07-6.1-7.74v-52.1c0-6.65,0-10.79.65-12.97-.33-.98-.98-1.53-1.85-1.85-3.6,2.4-7.3,4.25-12.53,5.12v2.07c3.81,0,6.1,2.83,6.1,7.63v13.19c-2.83-3.92-8.5-6.87-15.26-6.87-12.64,0-22.23,9.92-22.23,28.23s8.83,28.56,21.69,28.56c9.37,0,15.04-5.89,16.68-9.16h.54l-1.53,7.3c0,.98.65,1.53,1.42,1.85M258.05,202.55c6.76-.54,13.84-.54,20.6,0v-2.07c-3.38-.44-6.43-1.53-6.43-6.43v-53.41c0-6.65,0-10.79.65-12.97-.44-.98-.98-1.53-1.85-1.85-3.6,2.4-7.3,4.25-12.53,5.12v2.07c3.81,0,6.1,2.83,6.1,7.63v53.41c0,4.9-3.05,5.99-6.54,6.43v2.07ZM234.18,202.55c6.76-.54,13.84-.54,20.6,0v-2.07c-3.38-.44-6.43-1.53-6.43-6.43v-53.41c0-6.65,0-10.79.65-12.97-.44-.98-.98-1.53-1.85-1.85-3.6,2.4-7.3,4.25-12.53,5.12v2.07c3.81,0,6.1,2.83,6.1,7.63v53.41c0,4.9-3.05,5.99-6.54,6.43v2.07ZM207.81,149.04c9.37,0,14.28,8.39,12.97,22.34h-26.16c.11-14.93,4.58-22.34,13.19-22.34M213.15,200.81c-11.44,0-17.98-11.01-18.53-27.14h30.08c3.49,0,4.58-2.4,4.58-6.87,0-13.73-10.03-19.84-20.6-19.84-14.06,0-22.89,11.66-22.89,28.56,0,17.77,10.03,28.23,24.2,28.23,9.59,0,16.46-4.9,18.96-11.23h-2.51c-2.62,6.32-8.61,8.28-13.3,8.28M172.49,203.31c2.83,0,6.98-1.09,8.94-3.92v-2.18c-.98.87-2.62,2.29-5.56,2.29-5.01,0-7.08-3.71-7.08-7.52v-40.22h12.75v-2.83h-12.75v-14.06h-2.94c-1.85,8.61-5.89,13.51-12.1,15.04v1.85h7.41v39.78c0,8.5,5.99,11.77,11.33,11.77M130.86,203.86c10.03,0,19.62-5.89,19.62-18.09,0-14.06-13.41-18.42-22.78-22.56-8.83-3.81-13.73-8.94-13.73-15.91s5.34-11.88,12.97-11.88c6.98,0,12.97,3.92,16.68,12.21h2.18l-.65-13.62h-2.18c-.54,1.53-1.74,1.85-3.05,1.85-3.49,0-6.43-2.72-13.41-2.72-12.53,0-19.29,8.17-19.29,17.11,0,10.25,8.5,16.78,19.07,21.36,7.19,3.05,16.57,7.74,16.57,17.11,0,6.87-4.9,12.64-14.17,12.64-10.03,0-16.35-6.54-19.4-14.06h-2.18l.87,15.26h2.51c0-1.74,1.74-3.05,3.16-3.05,2.83,0,8.5,4.36,17.22,4.36"/>
      <path class="cls-5" d="M917.12,366.9h3.25v-3.32h-3.25v3.32ZM905.75,351.78h2.52v11.87c0,2.45,1.61,3.35,3.82,3.35.8,0,1.54-.1,2.18-.23v-2.35h-.1c-.3.1-.91.23-1.44.23-1.11,0-1.74-.4-1.74-1.61v-11.27h3.35v-2.21h-3.35v-5.47h-2.72v5.47h-2.52v2.21ZM892.2,342.92h-2.72v23.98h2.72v-10.66c0-2.85,2.01-4.8,4.76-4.8,2.45,0,3.92,1.27,3.92,3.52v11.94h2.72v-12.17c0-3.59-2.21-5.57-5.84-5.57-2.52,0-4.26,1.04-5.5,2.68h-.07v-8.92ZM879.49,367.37c4.33,0,7.04-2.41,7.41-6.57h-2.68c-.23,2.68-1.91,4.29-4.73,4.29-3.69,0-5.6-3.02-5.6-6.84s1.91-6.87,5.6-6.87c2.62,0,4.26,1.44,4.66,3.79h2.75c-.6-3.69-3.32-6.04-7.41-6.04-5.16,0-8.38,4.09-8.38,9.12s3.22,9.12,8.38,9.12M865.67,346.28h2.72v-3.35h-2.72v3.35ZM865.67,366.9h2.72v-17.34h-2.72v17.34ZM850.68,349.56h-2.72v17.34h2.72v-10.66c0-2.85,2.01-4.8,4.76-4.8,2.45,0,3.92,1.27,3.92,3.52v11.94h2.72v-12.17c0-3.59-2.21-5.57-5.84-5.57-2.52,0-4.26,1.04-5.5,2.68h-.07v-2.28ZM832,351.27c3.12,0,4.9,2.11,5.06,5.57h-10.43c.4-3.15,2.15-5.57,5.37-5.57M832.17,367.37c3.92,0,6.64-2.11,7.44-5.84h-2.65c-.6,2.35-2.28,3.55-4.8,3.55-3.49,0-5.4-2.68-5.6-6.2h13.41c0-5.73-2.78-9.76-7.98-9.76-4.93,0-8.22,4.09-8.22,9.12s3.09,9.12,8.38,9.12M816.64,349.56h-2.72v17.34h2.72v-9.62c0-3.25,2.35-5.27,5.03-5.27.54,0,.8.03,1.21.17h.1v-2.62c-.34-.13-.6-.2-1.11-.2-2.31,0-4.12,1.41-5.16,3.09h-.07v-2.88ZM803.3,351.27c3.12,0,4.9,2.11,5.06,5.57h-10.43c.4-3.15,2.15-5.57,5.37-5.57M803.47,367.37c3.92,0,6.64-2.11,7.44-5.84h-2.65c-.6,2.35-2.28,3.55-4.8,3.55-3.49,0-5.4-2.68-5.6-6.2h13.41c0-5.73-2.78-9.76-7.98-9.76-4.93,0-8.22,4.09-8.22,9.12s3.09,9.12,8.38,9.12M784.32,365.12c-3.32,0-5-2.88-5-6.81s1.68-6.84,4.96-6.84c3.59,0,5.53,2.82,5.53,6.84s-1.64,6.81-5.5,6.81M784.22,367.41c2.45,0,4.06-.94,5.37-2.62h.07v2.11h2.72v-23.98h-2.72v9.09h-.07c-1.11-1.64-2.98-2.85-5.43-2.85-4.29,0-7.61,3.35-7.61,9.12s2.95,9.12,7.68,9.12M762.52,349.56h-2.72v17.34h2.72v-10.66c0-2.85,2.01-4.8,4.76-4.8,2.45,0,3.92,1.27,3.92,3.52v11.94h2.72v-12.17c0-3.59-2.21-5.57-5.84-5.57-2.52,0-4.26,1.04-5.5,2.68h-.07v-2.28ZM748.13,365.16c-1.78,0-3.59-.5-3.59-2.82,0-2.55,2.18-3.02,4.9-3.52,1.48-.27,3.05-.7,3.96-1.27v2.95c0,2.01-1.64,4.66-5.27,4.66M756.32,367.07c.7,0,1.14-.13,1.48-.27v-1.98h-.1c-1.51.34-1.84-.44-1.84-1.84v-8.25c0-4.12-2.72-5.5-6.41-5.5-4.59,0-6.81,2.52-6.91,5.87h2.62c.1-2.62,1.51-3.82,4.33-3.82,2.48,0,3.89,1.11,3.89,3.05s-1.71,2.11-4.16,2.48c-4.33.67-7.55,1.51-7.55,5.6,0,3.29,2.58,4.83,5.87,4.83,2.95,0,4.73-1.41,5.77-2.75h.03c.27,1.78,1.21,2.58,2.98,2.58M728.58,349.56h-2.72v17.34h2.72v-9.62c0-3.25,2.35-5.27,5.03-5.27.54,0,.8.03,1.21.17h.1v-2.62c-.34-.13-.6-.2-1.11-.2-2.31,0-4.12,1.41-5.16,3.09h-.07v-2.88ZM711.31,346.28h2.62v-3.19h-2.62v3.19ZM716.81,346.28h2.62v-3.19h-2.62v3.19ZM722.18,366.9v-17.34h-2.72v10.66c0,2.75-1.78,4.83-4.53,4.83-2.45,0-3.89-1.31-3.89-3.55v-11.94h-2.72v12.01c0,3.59,2.28,5.73,5.84,5.73,2.52,0,3.99-1.11,5.23-2.78h.07v2.38h2.72ZM690.62,366.9h3.02v-11.3h11.03v-2.55h-11.03v-7.48h13.25v-2.65h-16.26v23.98ZM672.48,366.9h3.25v-3.32h-3.25v3.32ZM672.85,361.1h2.55c.03-3.42.77-4.26,3.55-6.57,1.58-1.31,3.09-2.88,3.09-5.63,0-3.52-2.58-6.41-7.31-6.41-5.6,0-7.91,3.59-8.02,8.15h2.75c.1-3.42,1.71-5.73,5.16-5.73,2.95,0,4.53,1.88,4.53,4.02s-1.31,3.22-2.78,4.53c-2.55,2.25-3.49,3.96-3.52,7.65M653.33,342.92h-2.72v23.98h2.72v-10.66c0-2.85,2.01-4.8,4.76-4.8,2.45,0,3.92,1.27,3.92,3.52v11.94h2.72v-12.17c0-3.59-2.21-5.57-5.84-5.57-2.52,0-4.26,1.04-5.5,2.68h-.07v-8.92ZM640.62,367.37c4.33,0,7.04-2.41,7.41-6.57h-2.68c-.23,2.68-1.91,4.29-4.73,4.29-3.69,0-5.6-3.02-5.6-6.84s1.91-6.87,5.6-6.87c2.62,0,4.26,1.44,4.66,3.79h2.75c-.6-3.69-3.32-6.04-7.41-6.04-5.16,0-8.38,4.09-8.38,9.12s3.22,9.12,8.38,9.12M626.8,346.28h2.72v-3.35h-2.72v3.35ZM626.8,366.9h2.72v-17.34h-2.72v17.34ZM615.07,365.12c-3.32,0-5-2.88-5-6.81s1.68-6.84,4.96-6.84c3.59,0,5.53,2.82,5.53,6.84s-1.64,6.81-5.5,6.81M614.96,367.41c2.45,0,4.06-.94,5.37-2.62h.07v2.11h2.72v-23.98h-2.72v9.09h-.07c-1.11-1.64-2.98-2.85-5.43-2.85-4.29,0-7.61,3.35-7.61,9.12s2.95,9.12,7.68,9.12M594.14,349.56h-2.72v17.34h2.72v-9.62c0-3.25,2.35-5.27,5.03-5.27.54,0,.8.03,1.21.17h.1v-2.62c-.34-.13-.6-.2-1.11-.2-2.31,0-4.12,1.41-5.16,3.09h-.07v-2.88ZM576.87,346.28h2.62v-3.19h-2.62v3.19ZM582.37,346.28h2.62v-3.19h-2.62v3.19ZM587.73,366.9v-17.34h-2.72v10.66c0,2.75-1.78,4.83-4.53,4.83-2.45,0-3.89-1.31-3.89-3.55v-11.94h-2.72v12.01c0,3.59,2.28,5.73,5.84,5.73,2.52,0,3.99-1.11,5.23-2.78h.07v2.38h2.72ZM563.02,351.78h2.38v15.12h2.72v-15.12h3.22v-2.21h-3.22v-2.65c0-1.41.64-1.84,2.38-1.84.27,0,.4,0,.87.03v-2.31c-.37-.03-.8-.07-1.37-.07-2.88,0-4.6,1.07-4.6,4.06v2.78h-2.38v2.21ZM549.34,367.41c3.99,0,6.84-1.78,6.84-5.27,0-3.99-2.92-4.76-6.41-5.47-2.98-.6-4.66-.97-4.66-2.85,0-1.37,1.01-2.48,3.49-2.48s3.82,1.01,4.09,3.29h2.78c-.4-3.39-2.52-5.43-6.81-5.43-4.02,0-6.24,1.88-6.24,4.76,0,3.79,3.05,4.49,6.47,5.2,3.19.67,4.53,1.17,4.53,3.12,0,1.61-1.17,2.85-4.02,2.85-2.58,0-4.59-.84-4.96-3.86h-2.78c.27,3.89,2.92,6.14,7.68,6.14M531.7,365.09c-3.69,0-5.6-3.02-5.6-6.84s1.91-6.87,5.6-6.87,5.57,3.05,5.57,6.87-1.88,6.84-5.57,6.84M531.7,367.37c5.2,0,8.35-4.09,8.35-9.12s-3.15-9.12-8.35-9.12-8.38,4.09-8.38,9.12,3.22,9.12,8.38,9.12M517.78,366.9h2.72v-23.98h-2.72v23.98ZM508.22,367.41c3.99,0,6.84-1.78,6.84-5.27,0-3.99-2.92-4.76-6.41-5.47-2.98-.6-4.66-.97-4.66-2.85,0-1.37,1.01-2.48,3.49-2.48s3.82,1.01,4.09,3.29h2.78c-.4-3.39-2.52-5.43-6.81-5.43-4.02,0-6.24,1.88-6.24,4.76,0,3.79,3.05,4.49,6.47,5.2,3.19.67,4.53,1.17,4.53,3.12,0,1.61-1.17,2.85-4.02,2.85-2.58,0-4.59-.84-4.96-3.86h-2.78c.27,3.89,2.92,6.14,7.68,6.14M490.18,364.02c-3.22,0-4.93-2.48-4.93-6.27s1.64-6.3,4.9-6.3c3.69,0,5.3,2.35,5.3,6.14s-1.27,6.44-5.27,6.44M490.35,372.67c4.59,0,7.61-2.15,7.61-6.71v-16.4h-2.72v2.21h-.07c-1.17-1.64-2.78-2.62-5.3-2.62-4.02,0-7.41,3.15-7.41,8.55,0,5,3.09,8.59,7.58,8.59,2.48,0,3.86-1.04,5.13-2.68h.07v2.45c0,3.02-1.78,4.46-4.96,4.46-2.68,0-4.49-.74-4.76-2.65h-2.52c.3,2.98,2.85,4.8,7.34,4.8M468.45,349.56h-2.72v17.34h2.72v-10.66c0-2.85,2.01-4.8,4.76-4.8,2.45,0,3.92,1.27,3.92,3.52v11.94h2.72v-12.17c0-3.59-2.21-5.57-5.84-5.57-2.52,0-4.26,1.04-5.5,2.68h-.07v-2.28ZM462.05,366.9v-17.34h-2.72v10.66c0,2.75-1.78,4.83-4.53,4.83-2.45,0-3.89-1.31-3.89-3.55v-11.94h-2.72v12.01c0,3.59,2.28,5.73,5.84,5.73,2.52,0,3.99-1.11,5.23-2.78h.07v2.38h2.72ZM437.9,365.12c-3.69,0-5.5-2.92-5.5-6.81s1.74-6.84,5.53-6.84c3.29,0,4.86,2.95,4.86,6.84s-1.58,6.81-4.9,6.81M438.1,367.41c4.69,0,7.48-3.55,7.48-9.12s-2.98-9.12-7.38-9.12c-2.52,0-4.26,1.11-5.57,2.88h-.07v-9.12h-2.72v23.98h2.72v-2.28h.07c1.41,1.95,3.12,2.78,5.47,2.78M423.45,346.28h2.72v-3.35h-2.72v3.35ZM423.45,366.9h2.72v-17.34h-2.72v17.34ZM412.82,351.27c3.12,0,4.9,2.11,5.06,5.57h-10.43c.4-3.15,2.15-5.57,5.37-5.57M412.98,367.37c3.92,0,6.64-2.11,7.44-5.84h-2.65c-.6,2.35-2.28,3.55-4.8,3.55-3.49,0-5.4-2.68-5.6-6.2h13.41c0-5.73-2.78-9.76-7.98-9.76-4.93,0-8.22,4.09-8.22,9.12s3.09,9.12,8.38,9.12M387.23,345.54h7.28c3.52,0,4.86,1.48,4.86,4.39,0,2.72-1.68,4.39-5.03,4.39h-7.11v-8.79ZM384.21,366.9h3.02v-10.13h6.67c3.22,0,4.63,1.24,4.86,4.76.27,4.02.37,4.93.87,5.37h3.25v-.13c-.44-.3-.84-1.27-1.11-5.13-.23-3.55-1.01-5.23-3.45-6.1v-.1c2.88-.94,4.16-3.02,4.16-5.94,0-3.92-2.85-6.57-7.08-6.57h-11.2v23.98Z"/>
    </g>
    <rect class="cls-12" y="1563.82" width="1170" height="968.18"/>
    <g>
      <path class="cls-4" d="M76.38,1637.73h23.04v5.54h-16.51v7.74h13.99v5.58h-13.99v13.32h-6.53v-32.17Z"/>
      <path class="cls-4" d="M115.85,1669.9v-2.7h-.13c-1.58,2.12-3.38,3.33-6.62,3.33-5.13,0-8.01-3.29-8.01-8.32v-15.39h6.08v14.35c0,2.7,1.21,4.18,3.82,4.18,2.88,0,4.63-2.16,4.63-5.22v-13.32h6.12v23.08h-5.89ZM103.61,1638.63h5.76v5.13h-5.76v-5.13ZM113.64,1638.63h5.76v5.13h-5.76v-5.13Z"/>
      <path class="cls-4" d="M131.82,1649.83h.13c1.67-2.43,3.55-3.64,6.71-3.64,4.77,0,7.96,3.6,7.96,8.64v15.07h-6.12v-14.17c0-2.47-1.44-4.23-4-4.23-2.7,0-4.68,2.16-4.68,5.31v13.09h-6.12v-32.17h6.12v12.1Z"/>
      <path class="cls-4" d="M150.5,1637.73h6.12v32.17h-6.12v-32.17Z"/>
      <path class="cls-4" d="M159.23,1662.43h5.67c.4,2.66,2.29,3.83,5.04,3.83s4.23-1.04,4.23-2.66c0-2.21-2.92-2.43-6.08-3.06-4.14-.81-8.19-1.94-8.19-6.97s4.14-7.38,9.4-7.38c6.08,0,9.45,3.01,9.9,7.65h-5.54c-.27-2.47-1.84-3.38-4.46-3.38-2.38,0-3.96.9-3.96,2.57,0,1.98,3.06,2.16,6.34,2.83,3.87.81,8.15,1.89,8.15,7.29,0,4.63-3.96,7.42-9.72,7.42-6.71,0-10.44-3.24-10.8-8.14Z"/>
      <path class="cls-4" d="M180.69,1646.82h3.2v-7.2h5.98v7.2h3.96v4.05h-3.96v12.24c0,1.71.95,2.29,2.29,2.29.76,0,1.8-.04,1.8-.04v4.5s-1.39.09-3.83.09c-2.97,0-6.25-1.17-6.25-5.54v-13.54h-3.2v-4.05Z"/>
      <path class="cls-4" d="M203.41,1658.38c0-7.2,4.1-12.19,9.86-12.19,3.24,0,5.26,1.48,6.52,3.42h.13v-11.88h6.12v32.17h-5.89v-3.01h-.09c-1.35,2.21-3.64,3.69-6.88,3.69-5.8,0-9.76-4.72-9.76-12.19ZM220.06,1658.52c0-4.41-1.44-7.38-5.35-7.38-3.38,0-5.08,2.97-5.08,7.25s1.75,7.06,4.91,7.06c3.64,0,5.53-2.7,5.53-6.93Z"/>
      <path class="cls-4" d="M244.59,1669.9v-2.7h-.13c-1.58,2.12-3.38,3.33-6.62,3.33-5.13,0-8.01-3.29-8.01-8.32v-15.39h6.08v14.35c0,2.7,1.21,4.18,3.82,4.18,2.88,0,4.63-2.16,4.63-5.22v-13.32h6.12v23.08h-5.89Z"/>
      <path class="cls-4" d="M260.88,1658.38c0-7.2,4.1-12.19,9.86-12.19,3.24,0,5.26,1.48,6.52,3.42h.13v-11.88h6.12v32.17h-5.89v-3.01h-.09c-1.35,2.21-3.64,3.69-6.88,3.69-5.8,0-9.76-4.72-9.76-12.19ZM277.53,1658.52c0-4.41-1.44-7.38-5.35-7.38-3.38,0-5.08,2.97-5.08,7.25s1.75,7.06,4.91,7.06c3.64,0,5.53-2.7,5.53-6.93Z"/>
      <path class="cls-4" d="M287.47,1637.73h6.12v5.49h-6.12v-5.49ZM287.47,1646.82h6.12v23.08h-6.12v-23.08Z"/>
      <path class="cls-4" d="M296.43,1658.38c0-6.88,4.5-12.19,11.52-12.19,5.99,0,9.67,3.46,10.49,8.46h-5.99c-.4-2.03-1.98-3.56-4.23-3.56-3.69,0-5.58,2.83-5.58,7.29s1.75,7.29,5.49,7.29c2.47,0,4.23-1.31,4.63-3.92h5.89c-.41,4.9-4.23,8.82-10.39,8.82-7.29,0-11.83-5.31-11.83-12.19Z"/>
      <path class="cls-4" d="M327.43,1649.83h.13c1.67-2.43,3.55-3.64,6.71-3.64,4.77,0,7.96,3.6,7.96,8.64v15.07h-6.12v-14.17c0-2.47-1.44-4.23-4-4.23-2.7,0-4.68,2.16-4.68,5.31v13.09h-6.12v-32.17h6.12v12.1Z"/>
      <path class="cls-4" d="M359.56,1667.02h-.09v2.88h-5.9v-32.17h6.12v11.88h.13c1.26-1.94,3.24-3.42,6.43-3.42,5.81,0,9.95,4.99,9.95,12.19s-3.96,12.19-9.76,12.19c-3.24,0-5.54-1.39-6.88-3.55ZM370,1658.38c0-4.27-1.71-7.25-5.13-7.25-3.87,0-5.31,3.11-5.31,7.38s2.11,6.93,5.53,6.93c3.15,0,4.91-2.61,4.91-7.06Z"/>
      <path class="cls-4" d="M377.92,1658.34c0-6.84,4.64-12.15,11.38-12.15,7.42,0,11.38,5.67,11.38,13.9h-16.74c.45,3.55,2.43,5.76,5.89,5.76,2.38,0,3.78-1.08,4.46-2.83h6.03c-.85,4.09-4.5,7.56-10.44,7.56-7.65,0-11.97-5.35-11.97-12.24ZM384.04,1655.86h10.26c-.18-2.92-2.12-4.95-4.91-4.95-3.24,0-4.81,1.93-5.35,4.95Z"/>
      <path class="cls-4" d="M402.4,1658.38c0-6.88,4.91-12.19,12.06-12.19s12.06,5.31,12.06,12.19-4.9,12.19-12.06,12.19-12.06-5.31-12.06-12.19ZM420.31,1658.38c0-4.5-2.12-7.56-5.85-7.56s-5.85,3.06-5.85,7.56,2.07,7.51,5.85,7.51,5.85-3.01,5.85-7.51Z"/>
      <path class="cls-4" d="M435.34,1667.02h-.09v2.88h-5.9v-32.17h6.12v11.88h.13c1.26-1.94,3.24-3.42,6.43-3.42,5.81,0,9.95,4.99,9.95,12.19s-3.96,12.19-9.76,12.19c-3.24,0-5.54-1.39-6.88-3.55ZM445.78,1658.38c0-4.27-1.71-7.25-5.13-7.25-3.87,0-5.31,3.11-5.31,7.38s2.12,6.93,5.53,6.93c3.15,0,4.91-2.61,4.91-7.06Z"/>
      <path class="cls-4" d="M468.64,1667.34h-.09c-1.17,1.75-2.83,3.1-6.79,3.1-4.72,0-8.05-2.47-8.05-7.06,0-5.08,4.14-6.71,9.27-7.42,3.82-.54,5.58-.86,5.58-2.61s-1.3-2.75-3.87-2.75c-2.88,0-4.28,1.04-4.46,3.24h-5.45c.18-4.05,3.2-7.6,9.95-7.6s9.72,3.1,9.72,8.5v11.74c0,1.75.27,2.79.81,3.2v.22h-5.89c-.36-.45-.58-1.53-.72-2.56ZM468.68,1661.76v-3.46c-1.08.63-2.74.99-4.27,1.35-3.19.72-4.77,1.44-4.77,3.6s1.44,2.93,3.6,2.93c3.51,0,5.44-2.16,5.44-4.41Z"/>
      <path class="cls-4" d="M477.19,1658.38c0-6.88,4.5-12.19,11.52-12.19,5.99,0,9.67,3.46,10.49,8.46h-5.99c-.4-2.03-1.98-3.56-4.23-3.56-3.69,0-5.58,2.83-5.58,7.29s1.75,7.29,5.49,7.29c2.47,0,4.23-1.31,4.63-3.92h5.89c-.41,4.9-4.23,8.82-10.39,8.82-7.29,0-11.83-5.31-11.83-12.19Z"/>
      <path class="cls-4" d="M508.19,1649.83h.13c1.67-2.43,3.55-3.64,6.71-3.64,4.77,0,7.96,3.6,7.96,8.64v15.07h-6.12v-14.17c0-2.47-1.44-4.23-4-4.23-2.7,0-4.68,2.16-4.68,5.31v13.09h-6.12v-32.17h6.12v12.1Z"/>
      <path class="cls-4" d="M524.98,1646.82h3.2v-7.2h5.98v7.2h3.96v4.05h-3.96v12.24c0,1.71.95,2.29,2.29,2.29.76,0,1.8-.04,1.8-.04v4.5s-1.39.09-3.82.09c-2.97,0-6.25-1.17-6.25-5.54v-13.54h-3.2v-4.05Z"/>
      <path class="cls-4" d="M539.92,1658.34c0-6.84,4.64-12.15,11.38-12.15,7.42,0,11.38,5.67,11.38,13.9h-16.74c.45,3.55,2.43,5.76,5.89,5.76,2.38,0,3.78-1.08,4.46-2.83h6.03c-.85,4.09-4.5,7.56-10.44,7.56-7.65,0-11.97-5.35-11.97-12.24ZM546.04,1655.86h10.26c-.18-2.92-2.12-4.95-4.91-4.95-3.24,0-4.81,1.93-5.35,4.95Z"/>
      <path class="cls-4" d="M563.72,1646.82h3.2v-7.2h5.98v7.2h3.96v4.05h-3.96v12.24c0,1.71.95,2.29,2.29,2.29.76,0,1.8-.04,1.8-.04v4.5s-1.39.09-3.82.09c-2.97,0-6.25-1.17-6.25-5.54v-13.54h-3.2v-4.05Z"/>
      <path class="cls-4" d="M591.62,1651.95c1.94-1.4,3.65-2.47,3.65-5.22s-2.03-4.41-4.77-4.41c-3.33,0-5.58,2.12-5.62,5.62h-5.8c.14-5.99,4.05-10.8,11.38-10.8,6.88,0,10.93,4.09,10.93,9.4,0,4.46-2.34,6.25-4.27,7.74-3.38,2.56-4.68,3.01-4.68,6.21h-5.49c0-5.26,1.93-6.57,4.68-8.55ZM586.4,1663.38h6.57v6.52h-6.57v-6.52Z"/>
      <path class="cls-10" d="M75.26,1733.03l19.26-24.75v-.13h-18.13v-3.42h23.13v3.15l-19.53,25.24v.14h20.29v3.64h-25.02v-3.87Z"/>
      <path class="cls-10" d="M100.73,1713.64h3.92l4.09,14.35c.54,1.93,1.26,4.99,1.26,4.99h.09s.67-3.06,1.17-4.9l3.91-14.44h3.83l3.78,14.44c.49,1.89,1.12,4.9,1.12,4.9h.09s.72-3.06,1.3-4.99l4.32-14.35h3.78l-7.6,23.26h-3.74l-3.87-14.08c-.54-1.94-1.12-4.86-1.12-4.86h-.09s-.63,2.92-1.17,4.86l-3.91,14.08h-3.78l-7.38-23.26Z"/>
      <path class="cls-10" d="M136.05,1704.73h3.65v4.5h-3.65v-4.5ZM136.05,1713.64h3.65v23.26h-3.65v-23.26Z"/>
      <path class="cls-10" d="M143.16,1729.34h3.73c.5,4.05,3.2,5.17,6.66,5.17,3.82,0,5.4-1.67,5.4-3.83,0-2.61-1.8-3.28-6.07-4.18-4.59-.95-8.68-1.89-8.68-6.97,0-3.87,2.97-6.39,8.37-6.39,5.76,0,8.59,2.75,9.13,7.29h-3.74c-.36-3.06-2.02-4.41-5.49-4.41s-4.68,1.48-4.68,3.33c0,2.52,2.25,3.01,6.25,3.82,4.68.95,8.59,1.98,8.59,7.33,0,4.68-3.83,7.06-9.18,7.06-6.39,0-9.95-3.01-10.3-8.23Z"/>
      <path class="cls-10" d="M165.3,1725.29c0-6.75,4.32-12.24,11.25-12.24,5.49,0,9.13,3.15,9.94,8.1h-3.69c-.54-3.15-2.74-5.08-6.25-5.08-4.95,0-7.51,4.09-7.51,9.22s2.56,9.18,7.51,9.18c3.78,0,6.03-2.16,6.34-5.76h3.6c-.5,5.58-4.14,8.82-9.94,8.82-6.93,0-11.25-5.49-11.25-12.24Z"/>
      <path class="cls-10" d="M193.6,1716.7h.09c1.67-2.21,4-3.6,7.38-3.6,4.86,0,7.83,2.65,7.83,7.47v16.33h-3.64v-16.02c0-3.01-1.98-4.72-5.26-4.72-3.69,0-6.39,2.61-6.39,6.43v14.31h-3.65v-32.17h3.65v11.97Z"/>
      <path class="cls-10" d="M212.41,1725.29c0-6.75,4.41-12.24,11.02-12.24,6.97,0,10.71,5.4,10.71,13.09h-18c.27,4.73,2.83,8.33,7.51,8.33,3.37,0,5.62-1.62,6.43-4.77h3.55c-1.08,5-4.72,7.83-9.99,7.83-7.11,0-11.25-5.49-11.25-12.24ZM216.24,1723.4h13.99c-.22-4.63-2.61-7.47-6.79-7.47s-6.66,3.24-7.2,7.47Z"/>
      <path class="cls-10" d="M241.35,1716.7h.09c1.67-2.21,4-3.6,7.38-3.6,4.86,0,7.83,2.65,7.83,7.47v16.33h-3.64v-16.02c0-3.01-1.98-4.72-5.26-4.72-3.69,0-6.39,2.61-6.39,6.43v14.31h-3.65v-23.26h3.65v3.06Z"/>
      <path class="cls-10" d="M268.26,1728.53h3.82c.27,3.38,2.61,5.85,6.75,5.85,2.34,0,4-.68,5.22-2.03,1.84-1.98,2.57-5.44,2.75-10.03h-.09c-1.98,2.47-4.82,3.91-8.5,3.91-5.67,0-10.21-4.68-10.26-10.35-.04-5.76,4.54-10.53,10.8-10.53,3.01,0,5.35.95,7.11,2.29,3.51,2.7,4.63,7.11,4.63,14,0,6.25-1.26,10.75-4.32,13.45-1.84,1.62-4.32,2.47-7.25,2.47-6.07,0-10.39-3.6-10.66-9.04ZM286.26,1715.75c0-4.36-3.38-7.33-7.51-7.33s-7.29,2.97-7.29,7.33,3.24,7.38,7.25,7.38c4.63,0,7.56-3.01,7.56-7.38Z"/>
      <path class="cls-10" d="M294.27,1721.47c0-9.99,4.73-16.11,12.01-16.11s11.92,6.03,11.92,16.11-4.27,16.11-11.97,16.11-11.97-6.3-11.97-16.11ZM314.29,1721.47c0-7.83-2.65-12.87-8.01-12.87s-8.1,4.9-8.1,12.87,2.66,12.82,8.1,12.82,8.01-4.86,8.01-12.82Z"/>
      <path class="cls-10" d="M344.62,1736.9v-3.2h-.09c-1.67,2.25-3.64,3.74-7.02,3.74-4.77,0-7.83-2.88-7.83-7.69v-16.11h3.64v16.02c0,3.02,1.94,4.77,5.22,4.77,3.69,0,6.08-2.79,6.08-6.48v-14.31h3.64v23.26h-3.64Z"/>
      <path class="cls-10" d="M356.86,1716.7h.09c1.67-2.21,4-3.6,7.38-3.6,4.86,0,7.83,2.65,7.83,7.47v16.33h-3.64v-16.02c0-3.01-1.98-4.72-5.26-4.72-3.69,0-6.39,2.61-6.39,6.43v14.31h-3.65v-23.26h3.65v3.06Z"/>
      <path class="cls-10" d="M375.67,1725.34c0-7.74,4.46-12.24,10.21-12.24,3.28,0,5.8,1.62,7.29,3.82h.09v-12.19h3.64v32.17h-3.64v-2.83h-.09c-1.75,2.25-3.91,3.51-7.2,3.51-6.34,0-10.3-4.77-10.3-12.24ZM393.49,1725.38c0-5.4-2.61-9.18-7.42-9.18-4.41,0-6.66,3.96-6.66,9.18s2.25,9.13,6.7,9.13c5.17,0,7.38-3.87,7.38-9.13Z"/>
      <path class="cls-10" d="M408.66,1728.53h3.82c.27,3.38,2.61,5.85,6.75,5.85,2.34,0,4-.68,5.22-2.03,1.84-1.98,2.57-5.44,2.75-10.03h-.09c-1.98,2.47-4.82,3.91-8.5,3.91-5.67,0-10.21-4.68-10.26-10.35-.04-5.76,4.54-10.53,10.8-10.53,3.01,0,5.35.95,7.11,2.29,3.51,2.7,4.63,7.11,4.63,14,0,6.25-1.26,10.75-4.32,13.45-1.84,1.62-4.32,2.47-7.25,2.47-6.07,0-10.39-3.6-10.66-9.04ZM426.66,1715.75c0-4.36-3.38-7.33-7.51-7.33s-7.29,2.97-7.29,7.33,3.24,7.38,7.25,7.38c4.63,0,7.56-3.01,7.56-7.38Z"/>
      <path class="cls-10" d="M433.72,1727.99h3.73c.5,3.82,3.2,6.25,7.56,6.25s7.25-2.97,7.25-7.47-3.2-7.33-7.25-7.33c-3.33,0-5.62,1.35-6.93,3.19h-3.64l3.42-16.56h16.42v3.38h-13.77l-2.03,9.27h.09c1.75-1.66,4.09-2.61,7.06-2.61,5.49,0,10.49,3.92,10.49,10.75s-4.68,10.71-11.07,10.71-11.07-3.87-11.34-9.58Z"/>
      <path class="cls-10" d="M465.81,1714.27c0-5.49,3.15-8.91,7.29-8.91s7.2,3.33,7.2,8.91-2.88,8.91-7.2,8.91-7.29-3.51-7.29-8.91ZM476.97,1714.27c0-3.51-1.39-6.21-3.87-6.21s-3.87,2.61-3.87,6.21,1.35,6.21,3.87,6.21,3.87-2.61,3.87-6.21ZM490.33,1706.08h3.06l-17.68,30.82h-3.06l17.68-30.82ZM485.74,1728.67c0-5.49,3.15-8.91,7.29-8.91s7.2,3.33,7.2,8.91-2.88,8.91-7.2,8.91-7.29-3.51-7.29-8.91ZM496.9,1728.67c0-3.51-1.4-6.21-3.87-6.21s-3.87,2.61-3.87,6.21,1.35,6.21,3.87,6.21,3.87-2.61,3.87-6.21Z"/>
      <path class="cls-10" d="M509.64,1725.34c0-7.74,4.46-12.24,10.21-12.24,3.28,0,5.8,1.62,7.29,3.82h.09v-12.19h3.64v32.17h-3.64v-2.83h-.09c-1.75,2.25-3.91,3.51-7.2,3.51-6.34,0-10.3-4.77-10.3-12.24ZM527.46,1725.38c0-5.4-2.61-9.18-7.42-9.18-4.41,0-6.66,3.96-6.66,9.18s2.25,9.13,6.7,9.13c5.17,0,7.38-3.87,7.38-9.13Z"/>
      <path class="cls-10" d="M534.52,1725.29c0-6.75,4.41-12.24,11.02-12.24,6.97,0,10.71,5.4,10.71,13.09h-18c.27,4.73,2.83,8.33,7.51,8.33,3.37,0,5.62-1.62,6.43-4.77h3.55c-1.08,5-4.72,7.83-9.99,7.83-7.11,0-11.25-5.49-11.25-12.24ZM538.35,1723.4h13.99c-.22-4.63-2.61-7.47-6.79-7.47s-6.66,3.24-7.2,7.47Z"/>
      <path class="cls-10" d="M563.46,1717.51h.09c1.39-2.25,3.82-4.14,6.93-4.14.67,0,1.04.09,1.48.27v3.51h-.13c-.54-.18-.9-.23-1.62-.23-3.6,0-6.75,2.7-6.75,7.07v12.91h-3.65v-23.26h3.65v3.87Z"/>
      <path class="cls-10" d="M582.94,1704.73h21.82v3.55h-17.77v10.04h14.8v3.42h-14.8v15.16h-4.05v-32.17Z"/>
      <path class="cls-10" d="M610.48,1717.51h.09c1.39-2.25,3.82-4.14,6.93-4.14.67,0,1.04.09,1.48.27v3.51h-.13c-.54-.18-.9-.23-1.62-.23-3.6,0-6.75,2.7-6.75,7.07v12.91h-3.65v-23.26h3.65v3.87Z"/>
      <path class="cls-10" d="M635.63,1733.66h-.04c-1.39,1.8-3.78,3.69-7.74,3.69-4.41,0-7.88-2.07-7.88-6.48,0-5.49,4.32-6.62,10.12-7.52,3.29-.49,5.58-.81,5.58-3.33s-1.89-4.09-5.22-4.09c-3.78,0-5.67,1.62-5.8,5.13h-3.51c.13-4.5,3.1-7.88,9.27-7.88,4.95,0,8.59,1.84,8.59,7.38v11.07c0,1.89.45,2.92,2.47,2.47h.13v2.66c-.45.18-1.03.36-1.98.36-2.38,0-3.64-1.08-4-3.46ZM635.72,1728.31v-3.96c-1.21.77-3.33,1.35-5.31,1.71-3.64.67-6.57,1.3-6.57,4.72,0,3.11,2.43,3.78,4.81,3.78,4.86,0,7.06-3.55,7.06-6.25Z"/>
      <path class="cls-10" d="M659.13,1736.9v-3.2h-.09c-1.67,2.25-3.64,3.74-7.02,3.74-4.77,0-7.83-2.88-7.83-7.69v-16.11h3.64v16.02c0,3.02,1.94,4.77,5.22,4.77,3.69,0,6.08-2.79,6.08-6.48v-14.31h3.64v23.26h-3.64Z"/>
      <path class="cls-10" d="M666.42,1725.29c0-6.75,4.41-12.24,11.02-12.24,6.97,0,10.71,5.4,10.71,13.09h-18c.27,4.73,2.83,8.33,7.51,8.33,3.37,0,5.62-1.62,6.43-4.77h3.55c-1.08,5-4.72,7.83-9.99,7.83-7.11,0-11.25-5.49-11.25-12.24ZM670.24,1723.4h13.99c-.22-4.63-2.61-7.47-6.79-7.47s-6.66,3.24-7.2,7.47Z"/>
      <path class="cls-10" d="M695.35,1716.7h.09c1.67-2.21,4-3.6,7.38-3.6,4.86,0,7.83,2.65,7.83,7.47v16.33h-3.64v-16.02c0-3.01-1.98-4.72-5.26-4.72-3.69,0-6.39,2.61-6.39,6.43v14.31h-3.65v-23.26h3.65v3.06Z"/>
      <path class="cls-10" d="M722.62,1704.73h3.65v4.5h-3.65v-4.5ZM722.62,1713.64h3.65v23.26h-3.65v-23.26Z"/>
      <path class="cls-10" d="M734.86,1716.7h.09c1.67-2.21,4-3.6,7.38-3.6,4.86,0,7.83,2.65,7.83,7.47v16.33h-3.64v-16.02c0-3.01-1.98-4.72-5.26-4.72-3.69,0-6.39,2.61-6.39,6.43v14.31h-3.65v-23.26h3.65v3.06Z"/>
      <path class="cls-10" d="M762.67,1704.73h11.7c9.67,0,14.26,6.57,14.26,16.2s-4.9,15.97-14.58,15.97h-11.38v-32.17ZM773.92,1733.35c7.56,0,10.57-4.86,10.57-12.42s-2.7-12.69-10.26-12.69h-7.51v25.11h7.2Z"/>
      <path class="cls-10" d="M791.6,1725.29c0-6.75,4.41-12.24,11.02-12.24,6.97,0,10.71,5.4,10.71,13.09h-18c.27,4.73,2.83,8.33,7.51,8.33,3.37,0,5.62-1.62,6.43-4.77h3.55c-1.08,5-4.72,7.83-9.99,7.83-7.11,0-11.25-5.49-11.25-12.24ZM795.43,1723.4h13.99c-.22-4.63-2.61-7.47-6.79-7.47s-6.66,3.24-7.2,7.47Z"/>
      <path class="cls-10" d="M831.7,1736.9v-3.2h-.09c-1.67,2.25-3.64,3.74-7.02,3.74-4.77,0-7.83-2.88-7.83-7.69v-16.11h3.64v16.02c0,3.02,1.94,4.77,5.22,4.77,3.69,0,6.08-2.79,6.08-6.48v-14.31h3.64v23.26h-3.64Z"/>
      <path class="cls-10" d="M838.81,1713.64h3.38v-7.33h3.64v7.33h4.5v2.97h-4.5v15.12c0,1.62.85,2.16,2.34,2.16.72,0,1.53-.18,1.93-.32h.14v3.15c-.86.18-1.85.31-2.93.31-2.97,0-5.13-1.21-5.13-4.5v-15.93h-3.38v-2.97Z"/>
      <path class="cls-10" d="M852.62,1729.34h3.73c.5,4.05,3.2,5.17,6.66,5.17,3.82,0,5.4-1.67,5.4-3.83,0-2.61-1.8-3.28-6.07-4.18-4.59-.95-8.68-1.89-8.68-6.97,0-3.87,2.97-6.39,8.37-6.39,5.76,0,8.59,2.75,9.13,7.29h-3.74c-.36-3.06-2.02-4.41-5.49-4.41s-4.68,1.48-4.68,3.33c0,2.52,2.25,3.01,6.25,3.82,4.68.95,8.59,1.98,8.59,7.33,0,4.68-3.83,7.06-9.18,7.06-6.39,0-9.95-3.01-10.3-8.23Z"/>
      <path class="cls-10" d="M874.76,1725.29c0-6.75,4.32-12.24,11.25-12.24,5.49,0,9.13,3.15,9.94,8.1h-3.69c-.54-3.15-2.74-5.08-6.25-5.08-4.95,0-7.51,4.09-7.51,9.22s2.56,9.18,7.51,9.18c3.78,0,6.03-2.16,6.34-5.76h3.6c-.5,5.58-4.14,8.82-9.94,8.82-6.93,0-11.25-5.49-11.25-12.24Z"/>
      <path class="cls-10" d="M903.07,1716.7h.09c1.67-2.21,4-3.6,7.38-3.6,4.86,0,7.83,2.65,7.83,7.47v16.33h-3.64v-16.02c0-3.01-1.98-4.72-5.26-4.72-3.69,0-6.39,2.61-6.39,6.43v14.31h-3.65v-32.17h3.65v11.97Z"/>
      <path class="cls-10" d="M923.32,1704.73h3.64v32.17h-3.64v-32.17Z"/>
      <path class="cls-10" d="M946.31,1733.66h-.04c-1.39,1.8-3.78,3.69-7.74,3.69-4.41,0-7.88-2.07-7.88-6.48,0-5.49,4.32-6.62,10.12-7.52,3.29-.49,5.58-.81,5.58-3.33s-1.89-4.09-5.22-4.09c-3.78,0-5.67,1.62-5.8,5.13h-3.51c.13-4.5,3.1-7.88,9.27-7.88,4.95,0,8.59,1.84,8.59,7.38v11.07c0,1.89.45,2.92,2.47,2.47h.13v2.66c-.45.18-1.03.36-1.98.36-2.38,0-3.64-1.08-4-3.46ZM946.4,1728.31v-3.96c-1.21.77-3.33,1.35-5.31,1.71-3.64.67-6.57,1.3-6.57,4.72,0,3.11,2.43,3.78,4.81,3.78,4.86,0,7.06-3.55,7.06-6.25Z"/>
      <path class="cls-10" d="M958.64,1716.7h.09c1.67-2.21,4-3.6,7.38-3.6,4.86,0,7.83,2.65,7.83,7.47v16.33h-3.64v-16.02c0-3.01-1.98-4.72-5.26-4.72-3.69,0-6.39,2.61-6.39,6.43v14.31h-3.65v-23.26h3.65v3.06Z"/>
      <path class="cls-10" d="M977.45,1725.34c0-7.74,4.46-12.24,10.21-12.24,3.28,0,5.8,1.62,7.29,3.82h.09v-12.19h3.64v32.17h-3.64v-2.83h-.09c-1.75,2.25-3.91,3.51-7.2,3.51-6.34,0-10.3-4.77-10.3-12.24ZM995.27,1725.38c0-5.4-2.61-9.18-7.42-9.18-4.41,0-6.66,3.96-6.66,9.18s2.25,9.13,6.7,9.13c5.17,0,7.38-3.87,7.38-9.13Z"/>
      <path class="cls-10" d="M80.03,1773.7h.09c1.67-2.21,4-3.6,7.38-3.6,4.86,0,7.83,2.65,7.83,7.47v16.33h-3.64v-16.02c0-3.01-1.98-4.72-5.26-4.72-3.69,0-6.39,2.61-6.39,6.43v14.31h-3.65v-32.17h3.65v11.97Z"/>
      <path class="cls-10" d="M114.41,1790.66h-.04c-1.39,1.8-3.78,3.69-7.74,3.69-4.41,0-7.88-2.07-7.88-6.48,0-5.49,4.32-6.62,10.12-7.52,3.29-.49,5.58-.81,5.58-3.33s-1.89-4.09-5.22-4.09c-3.78,0-5.67,1.62-5.8,5.13h-3.51c.13-4.5,3.1-7.88,9.27-7.88,4.95,0,8.59,1.84,8.59,7.38v11.07c0,1.89.45,2.92,2.47,2.47h.13v2.66c-.45.18-1.03.36-1.98.36-2.38,0-3.64-1.08-4-3.46ZM114.5,1785.31v-3.96c-1.21.77-3.33,1.35-5.31,1.71-3.64.67-6.57,1.3-6.57,4.72,0,3.11,2.43,3.78,4.81,3.78,4.86,0,7.06-3.55,7.06-6.25Z"/>
      <path class="cls-10" d="M126.83,1790.84h-.09v3.06h-3.65v-32.17h3.65v12.24h.09c1.75-2.38,4.09-3.87,7.47-3.87,5.89,0,9.9,4.5,9.9,12.24s-3.74,12.24-10.03,12.24c-3.15,0-5.45-1.12-7.33-3.73ZM140.46,1782.38c0-5.22-2.11-9.18-6.52-9.18-5.08,0-7.42,4.14-7.42,9.18s2.43,9.13,7.38,9.13c4.46,0,6.57-3.87,6.57-9.13Z"/>
      <path class="cls-10" d="M146.54,1782.29c0-6.75,4.41-12.24,11.02-12.24,6.97,0,10.71,5.4,10.71,13.09h-18c.27,4.73,2.83,8.33,7.51,8.33,3.37,0,5.62-1.62,6.43-4.77h3.55c-1.08,5-4.72,7.83-9.99,7.83-7.11,0-11.25-5.49-11.25-12.24ZM150.36,1780.4h13.99c-.22-4.63-2.61-7.47-6.79-7.47s-6.66,3.24-7.2,7.47Z"/>
      <path class="cls-10" d="M175.47,1773.7h.09c1.67-2.21,4-3.6,7.38-3.6,4.86,0,7.83,2.65,7.83,7.47v16.33h-3.64v-16.02c0-3.01-1.98-4.72-5.26-4.72-3.69,0-6.39,2.61-6.39,6.43v14.31h-3.65v-23.26h3.65v3.06Z"/>
      <path class="cls-10" d="M201.26,1783.01h3.96c.54,5.45,3.87,8.28,9.94,8.28,4.46,0,7.65-2.02,7.65-6.03,0-4.41-3.87-5.44-9.63-6.71-5.67-1.26-10.53-2.88-10.53-8.95,0-5.31,4.41-8.5,10.93-8.5,8.05,0,11.38,4.09,12.19,10.03h-3.82c-.58-4.59-3.56-6.88-8.28-6.88-4.36,0-7.24,1.84-7.24,5.17,0,3.65,3.6,4.73,8.41,5.67,6.25,1.26,11.97,2.79,11.97,10.04,0,6.03-4.9,9.4-11.83,9.4-9.04,0-13.37-5.04-13.72-11.52Z"/>
      <path class="cls-10" d="M229.43,1770.64h3.38v-7.33h3.64v7.33h4.5v2.97h-4.5v15.12c0,1.62.85,2.16,2.34,2.16.72,0,1.53-.18,1.93-.32h.14v3.15c-.86.18-1.85.31-2.93.31-2.97,0-5.13-1.21-5.13-4.5v-15.93h-3.38v-2.97Z"/>
      <path class="cls-10" d="M248.37,1774.51h.09c1.39-2.25,3.82-4.14,6.93-4.14.67,0,1.04.09,1.48.27v3.51h-.13c-.54-.18-.9-.23-1.62-.23-3.6,0-6.75,2.7-6.75,7.07v12.91h-3.65v-23.26h3.65v3.87Z"/>
      <path class="cls-10" d="M273.52,1790.66h-.04c-1.39,1.8-3.78,3.69-7.74,3.69-4.41,0-7.88-2.07-7.88-6.48,0-5.49,4.32-6.62,10.12-7.52,3.29-.49,5.58-.81,5.58-3.33s-1.89-4.09-5.22-4.09c-3.78,0-5.67,1.62-5.8,5.13h-3.51c.13-4.5,3.1-7.88,9.27-7.88,4.95,0,8.59,1.84,8.59,7.38v11.07c0,1.89.45,2.92,2.47,2.47h.13v2.66c-.45.18-1.03.36-1.98.36-2.38,0-3.64-1.08-4-3.46ZM273.61,1785.31v-3.96c-1.21.77-3.33,1.35-5.31,1.71-3.64.67-6.57,1.3-6.57,4.72,0,3.11,2.43,3.78,4.81,3.78,4.86,0,7.06-3.55,7.06-6.25Z"/>
      <path class="cls-10" d="M288.91,1794.17v-2.97h.09c4.81.95,8.46-1.62,8.46-6.75,0-4.37-2.48-7.02-7.02-7.02h-1.22v-2.79h1.35c3.33,0,5.67-2.21,5.67-5.45,0-2.88-1.89-4.9-5.13-4.9-3.46,0-5.26,2.2-5.26,5.35v24.25h-3.65v-24.48c0-4.77,3.38-8.05,9.04-8.05,4.81,0,8.59,3.06,8.59,7.69,0,3.29-1.67,5.53-4.86,6.66v.09c3.42.99,6.21,3.73,6.21,8.5,0,6.12-3.78,10.08-9.99,10.08-.67,0-1.58-.09-2.29-.23Z"/>
      <path class="cls-10" d="M303.99,1782.29c0-6.75,4.41-12.24,11.02-12.24,6.97,0,10.71,5.4,10.71,13.09h-18c.27,4.73,2.83,8.33,7.51,8.33,3.37,0,5.62-1.62,6.43-4.77h3.55c-1.08,5-4.72,7.83-9.99,7.83-7.11,0-11.25-5.49-11.25-12.24ZM307.81,1780.4h13.99c-.22-4.63-2.61-7.47-6.79-7.47s-6.66,3.24-7.2,7.47Z"/>
      <path class="cls-10" d="M332.92,1773.7h.09c1.67-2.21,4-3.6,7.38-3.6,4.86,0,7.83,2.65,7.83,7.47v16.33h-3.64v-16.02c0-3.01-1.98-4.72-5.26-4.72-3.69,0-6.39,2.61-6.39,6.43v14.31h-3.65v-23.26h3.65v3.06Z"/>
      <path class="cls-10" d="M356.77,1790.84h-.09v3.06h-3.65v-32.17h3.65v12.24h.09c1.75-2.38,4.09-3.87,7.47-3.87,5.89,0,9.9,4.5,9.9,12.24s-3.74,12.24-10.03,12.24c-3.15,0-5.45-1.12-7.33-3.73ZM370.41,1782.38c0-5.22-2.11-9.18-6.52-9.18-5.08,0-7.42,4.14-7.42,9.18s2.43,9.13,7.38,9.13c4.46,0,6.57-3.87,6.57-9.13Z"/>
      <path class="cls-10" d="M376.48,1782.29c0-6.75,4.41-12.24,11.02-12.24,6.97,0,10.71,5.4,10.71,13.09h-18c.27,4.73,2.83,8.33,7.51,8.33,3.37,0,5.62-1.62,6.43-4.77h3.55c-1.08,5-4.72,7.83-9.99,7.83-7.11,0-11.25-5.49-11.25-12.24ZM380.31,1780.4h13.99c-.22-4.63-2.61-7.47-6.79-7.47s-6.66,3.24-7.2,7.47Z"/>
      <path class="cls-10" d="M401.91,1761.73h3.64v32.17h-3.64v-32.17Z"/>
      <path class="cls-10" d="M424.9,1790.66h-.04c-1.39,1.8-3.78,3.69-7.74,3.69-4.41,0-7.88-2.07-7.88-6.48,0-5.49,4.32-6.62,10.12-7.52,3.29-.49,5.58-.81,5.58-3.33s-1.89-4.09-5.22-4.09c-3.78,0-5.67,1.62-5.8,5.13h-3.51c.13-4.5,3.1-7.88,9.27-7.88,4.95,0,8.59,1.84,8.59,7.38v11.07c0,1.89.45,2.92,2.47,2.47h.13v2.66c-.45.18-1.03.36-1.98.36-2.38,0-3.64-1.08-4-3.46ZM424.99,1785.31v-3.96c-1.21.77-3.33,1.35-5.31,1.71-3.64.67-6.57,1.3-6.57,4.72,0,3.11,2.43,3.78,4.81,3.78,4.86,0,7.06-3.55,7.06-6.25ZM414.24,1761.95h3.51v4.27h-3.51v-4.27ZM421.61,1761.95h3.51v4.27h-3.51v-4.27Z"/>
      <path class="cls-10" d="M432.1,1786.34h3.73c.5,4.05,3.2,5.17,6.66,5.17,3.82,0,5.4-1.67,5.4-3.83,0-2.61-1.8-3.28-6.07-4.18-4.59-.95-8.68-1.89-8.68-6.97,0-3.87,2.97-6.39,8.37-6.39,5.76,0,8.59,2.75,9.13,7.29h-3.74c-.36-3.06-2.02-4.41-5.49-4.41s-4.68,1.48-4.68,3.33c0,2.52,2.25,3.01,6.25,3.82,4.68.95,8.59,1.98,8.59,7.33,0,4.68-3.83,7.06-9.18,7.06-6.39,0-9.95-3.01-10.3-8.23Z"/>
      <path class="cls-10" d="M453.16,1770.64h3.38v-7.33h3.64v7.33h4.5v2.97h-4.5v15.12c0,1.62.85,2.16,2.34,2.16.72,0,1.53-.18,1.93-.32h.14v3.15c-.86.18-1.85.31-2.93.31-2.97,0-5.13-1.21-5.13-4.5v-15.93h-3.38v-2.97Z"/>
      <path class="cls-10" d="M468.46,1761.73h3.65v4.5h-3.65v-4.5ZM468.46,1770.64h3.65v23.26h-3.65v-23.26Z"/>
      <path class="cls-10" d="M476.47,1795.2h3.38c.36,2.57,2.79,3.55,6.39,3.55,4.28,0,6.66-1.93,6.66-5.98v-3.29h-.09c-1.71,2.21-3.56,3.6-6.88,3.6-6.03,0-10.17-4.82-10.17-11.52,0-7.25,4.54-11.47,9.94-11.47,3.38,0,5.54,1.3,7.11,3.51h.09v-2.97h3.64v22c0,6.12-4.05,9-10.21,9s-9.45-2.43-9.85-6.43ZM493.16,1781.39c0-5.08-2.16-8.23-7.11-8.23-4.37,0-6.57,3.42-6.57,8.46s2.29,8.41,6.61,8.41c5.35,0,7.06-3.73,7.06-8.64Z"/>
      <path class="cls-10" d="M516.29,1793.9v-3.2h-.09c-1.67,2.25-3.64,3.74-7.02,3.74-4.77,0-7.83-2.88-7.83-7.69v-16.11h3.64v16.02c0,3.02,1.94,4.77,5.22,4.77,3.69,0,6.08-2.79,6.08-6.48v-14.31h3.64v23.26h-3.64Z"/>
      <path class="cls-10" d="M528.53,1773.7h.09c1.67-2.21,4-3.6,7.38-3.6,4.86,0,7.83,2.65,7.83,7.47v16.33h-3.64v-16.02c0-3.01-1.98-4.72-5.26-4.72-3.69,0-6.39,2.61-6.39,6.43v14.31h-3.65v-23.26h3.65v3.06Z"/>
      <path class="cls-10" d="M548.06,1795.2h3.38c.36,2.57,2.79,3.55,6.39,3.55,4.28,0,6.66-1.93,6.66-5.98v-3.29h-.09c-1.71,2.21-3.56,3.6-6.88,3.6-6.03,0-10.17-4.82-10.17-11.52,0-7.25,4.54-11.47,9.94-11.47,3.38,0,5.54,1.3,7.11,3.51h.09v-2.97h3.64v22c0,6.12-4.05,9-10.21,9s-9.45-2.43-9.85-6.43ZM564.76,1781.39c0-5.08-2.16-8.23-7.11-8.23-4.37,0-6.57,3.42-6.57,8.46s2.29,8.41,6.61,8.41c5.35,0,7.06-3.73,7.06-8.64Z"/>
      <path class="cls-10" d="M578.93,1782.29c0-6.75,4.41-12.24,11.02-12.24,6.97,0,10.71,5.4,10.71,13.09h-18c.27,4.73,2.83,8.33,7.51,8.33,3.37,0,5.62-1.62,6.43-4.77h3.55c-1.08,5-4.72,7.83-9.99,7.83-7.11,0-11.25-5.49-11.25-12.24ZM582.76,1780.4h13.99c-.22-4.63-2.61-7.47-6.79-7.47s-6.66,3.24-7.2,7.47Z"/>
      <path class="cls-10" d="M607.87,1774.51h.09c1.39-2.25,3.82-4.14,6.93-4.14.67,0,1.04.09,1.48.27v3.51h-.13c-.54-.18-.9-.23-1.62-.23-3.6,0-6.75,2.7-6.75,7.07v12.91h-3.65v-23.26h3.65v3.87Z"/>
      <path class="cls-10" d="M619.79,1761.73h3.64v32.17h-3.64v-32.17Z"/>
      <path class="cls-10" d="M627.22,1782.29c0-6.75,4.41-12.24,11.02-12.24,6.97,0,10.71,5.4,10.71,13.09h-18c.27,4.73,2.83,8.33,7.51,8.33,3.37,0,5.62-1.62,6.43-4.77h3.55c-1.08,5-4.72,7.83-9.99,7.83-7.11,0-11.25-5.49-11.25-12.24ZM631.04,1780.4h13.99c-.22-4.63-2.61-7.47-6.79-7.47s-6.66,3.24-7.2,7.47Z"/>
      <path class="cls-10" d="M656.24,1790.84h-.09v3.06h-3.65v-32.17h3.65v12.24h.09c1.75-2.38,4.09-3.87,7.47-3.87,5.89,0,9.9,4.5,9.9,12.24s-3.74,12.24-10.03,12.24c-3.15,0-5.45-1.12-7.33-3.73ZM669.88,1782.38c0-5.22-2.11-9.18-6.52-9.18-5.08,0-7.42,4.14-7.42,9.18s2.43,9.13,7.38,9.13c4.46,0,6.57-3.87,6.57-9.13Z"/>
      <path class="cls-10" d="M675.1,1770.64h3.38v-7.33h3.64v7.33h4.5v2.97h-4.5v15.12c0,1.62.85,2.16,2.34,2.16.72,0,1.53-.18,1.93-.32h.14v3.15c-.86.18-1.85.31-2.93.31-2.97,0-5.13-1.21-5.13-4.5v-15.93h-3.38v-2.97Z"/>
      <path class="cls-10" d="M690.39,1797.63c.99-.36,2.02-1.21,2.02-3.73h-2.07v-4.46h4.37v4.59c0,3.29-1.75,5.13-4.32,5.62v-2.03Z"/>
      <path class="cls-10" d="M705.02,1782.34c0-7.74,4.46-12.24,10.21-12.24,3.28,0,5.8,1.62,7.29,3.82h.09v-12.19h3.64v32.17h-3.64v-2.83h-.09c-1.75,2.25-3.91,3.51-7.2,3.51-6.34,0-10.3-4.77-10.3-12.24ZM722.84,1782.38c0-5.4-2.61-9.18-7.42-9.18-4.41,0-6.66,3.96-6.66,9.18s2.25,9.13,6.7,9.13c5.17,0,7.38-3.87,7.38-9.13Z"/>
      <path class="cls-10" d="M745.47,1790.66h-.04c-1.39,1.8-3.78,3.69-7.74,3.69-4.41,0-7.88-2.07-7.88-6.48,0-5.49,4.32-6.62,10.12-7.52,3.29-.49,5.58-.81,5.58-3.33s-1.89-4.09-5.22-4.09c-3.78,0-5.67,1.62-5.8,5.13h-3.51c.13-4.5,3.1-7.88,9.27-7.88,4.95,0,8.59,1.84,8.59,7.38v11.07c0,1.89.45,2.92,2.47,2.47h.13v2.66c-.45.18-1.03.36-1.98.36-2.38,0-3.64-1.08-4-3.46ZM745.56,1785.31v-3.96c-1.21.77-3.33,1.35-5.31,1.71-3.64.67-6.57,1.3-6.57,4.72,0,3.11,2.43,3.78,4.81,3.78,4.86,0,7.06-3.55,7.06-6.25Z"/>
      <path class="cls-10" d="M757.8,1774.51h.09c1.39-2.25,3.82-4.14,6.93-4.14.67,0,1.04.09,1.48.27v3.51h-.13c-.54-.18-.9-.23-1.62-.23-3.6,0-6.75,2.7-6.75,7.07v12.91h-3.65v-23.26h3.65v3.87Z"/>
      <path class="cls-10" d="M784.4,1793.9v-3.2h-.09c-1.67,2.25-3.64,3.74-7.02,3.74-4.77,0-7.83-2.88-7.83-7.69v-16.11h3.64v16.02c0,3.02,1.94,4.77,5.22,4.77,3.69,0,6.08-2.79,6.08-6.48v-14.31h3.64v23.26h-3.64Z"/>
      <path class="cls-10" d="M796.64,1773.7h.09c1.67-2.21,4-3.6,7.38-3.6,4.86,0,7.83,2.65,7.83,7.47v16.33h-3.64v-16.02c0-3.01-1.98-4.72-5.26-4.72-3.69,0-6.39,2.61-6.39,6.43v14.31h-3.65v-23.26h3.65v3.06Z"/>
      <path class="cls-10" d="M814.82,1770.64h3.38v-7.33h3.64v7.33h4.5v2.97h-4.5v15.12c0,1.62.85,2.16,2.34,2.16.72,0,1.53-.18,1.93-.32h.14v3.15c-.86.18-1.85.31-2.93.31-2.97,0-5.13-1.21-5.13-4.5v-15.93h-3.38v-2.97Z"/>
      <path class="cls-10" d="M828.59,1782.29c0-6.75,4.41-12.24,11.02-12.24,6.97,0,10.71,5.4,10.71,13.09h-18c.27,4.73,2.83,8.33,7.51,8.33,3.37,0,5.62-1.62,6.43-4.77h3.55c-1.08,5-4.72,7.83-9.99,7.83-7.11,0-11.25-5.49-11.25-12.24ZM832.41,1780.4h13.99c-.22-4.63-2.61-7.47-6.79-7.47s-6.66,3.24-7.2,7.47Z"/>
      <path class="cls-10" d="M857.52,1774.51h.09c1.39-2.25,3.82-4.14,6.93-4.14.67,0,1.04.09,1.48.27v3.51h-.13c-.54-.18-.9-.23-1.62-.23-3.6,0-6.75,2.7-6.75,7.07v12.91h-3.65v-23.26h3.65v3.87Z"/>
      <path class="cls-10" d="M76.92,1818.73h4.05v15.97l15.84-15.97h5.08l-13,12.87,14.08,19.3h-4.72l-12.1-16.56-5.17,5.17v11.38h-4.05v-32.17Z"/>
      <path class="cls-10" d="M102.26,1839.29c0-6.75,4.32-12.24,11.25-12.24s11.2,5.49,11.2,12.24-4.23,12.24-11.2,12.24-11.25-5.49-11.25-12.24ZM120.98,1839.29c0-5.13-2.52-9.22-7.47-9.22s-7.51,4.09-7.51,9.22,2.56,9.18,7.51,9.18,7.47-4.05,7.47-9.18Z"/>
      <path class="cls-10" d="M128.36,1827.64h3.65v3.33h.09c1.44-2.25,3.92-3.87,6.84-3.87s5.08,1.44,6.07,4.14h.09c1.49-2.66,4.28-4.14,7.11-4.14,4.14,0,7.06,2.65,7.06,7.47v16.33h-3.64v-16.15c0-2.88-1.94-4.59-4.28-4.59-3.01,0-5.71,2.61-5.71,6.25v14.49h-3.64v-16.15c0-2.88-1.62-4.59-4-4.59-2.83,0-5.98,2.61-5.98,6.25v14.49h-3.65v-23.26Z"/>
      <path class="cls-10" d="M164.09,1827.64h3.65v3.33h.09c1.44-2.25,3.92-3.87,6.84-3.87s5.08,1.44,6.07,4.14h.09c1.49-2.66,4.28-4.14,7.11-4.14,4.14,0,7.06,2.65,7.06,7.47v16.33h-3.64v-16.15c0-2.88-1.94-4.59-4.28-4.59-3.01,0-5.71,2.61-5.71,6.25v14.49h-3.64v-16.15c0-2.88-1.62-4.59-4-4.59-2.83,0-5.98,2.61-5.98,6.25v14.49h-3.65v-23.26Z"/>
      <path class="cls-10" d="M198.51,1839.29c0-6.75,4.41-12.24,11.02-12.24,6.97,0,10.71,5.4,10.71,13.09h-18c.27,4.73,2.83,8.33,7.51,8.33,3.37,0,5.62-1.62,6.43-4.77h3.55c-1.08,5-4.72,7.83-9.99,7.83-7.11,0-11.25-5.49-11.25-12.24ZM202.34,1837.4h13.99c-.22-4.63-2.61-7.47-6.79-7.47s-6.66,3.24-7.2,7.47Z"/>
      <path class="cls-10" d="M227.44,1830.7h.09c1.67-2.21,4-3.6,7.38-3.6,4.86,0,7.83,2.65,7.83,7.47v16.33h-3.64v-16.02c0-3.01-1.98-4.72-5.26-4.72-3.69,0-6.39,2.61-6.39,6.43v14.31h-3.65v-23.26h3.65v3.06Z"/>
      <path class="cls-10" d="M245.63,1827.64h3.38v-7.33h3.64v7.33h4.5v2.97h-4.5v15.12c0,1.62.85,2.16,2.34,2.16.72,0,1.53-.18,1.93-.32h.14v3.15c-.86.18-1.85.31-2.93.31-2.97,0-5.13-1.21-5.13-4.5v-15.93h-3.38v-2.97Z"/>
      <path class="cls-10" d="M275.19,1847.66h-.04c-1.39,1.8-3.78,3.69-7.74,3.69-4.41,0-7.88-2.07-7.88-6.48,0-5.49,4.32-6.62,10.12-7.52,3.29-.49,5.58-.81,5.58-3.33s-1.89-4.09-5.22-4.09c-3.78,0-5.67,1.62-5.8,5.13h-3.51c.13-4.5,3.1-7.88,9.27-7.88,4.95,0,8.59,1.84,8.59,7.38v11.07c0,1.89.45,2.92,2.47,2.47h.13v2.66c-.45.18-1.03.36-1.98.36-2.38,0-3.64-1.08-4-3.46ZM275.28,1842.31v-3.96c-1.21.77-3.33,1.35-5.31,1.71-3.64.67-6.57,1.3-6.57,4.72,0,3.11,2.43,3.78,4.81,3.78,4.86,0,7.06-3.55,7.06-6.25Z"/>
      <path class="cls-10" d="M287.52,1831.51h.09c1.39-2.25,3.82-4.14,6.93-4.14.67,0,1.04.09,1.48.27v3.51h-.13c-.54-.18-.9-.23-1.62-.23-3.6,0-6.75,2.7-6.75,7.07v12.91h-3.65v-23.26h3.65v3.87Z"/>
      <path class="cls-10" d="M297.1,1839.29c0-6.75,4.41-12.24,11.02-12.24,6.97,0,10.71,5.4,10.71,13.09h-18c.27,4.73,2.83,8.33,7.51,8.33,3.37,0,5.62-1.62,6.43-4.77h3.55c-1.08,5-4.72,7.83-9.99,7.83-7.11,0-11.25-5.49-11.25-12.24ZM300.93,1837.4h13.99c-.22-4.63-2.61-7.47-6.79-7.47s-6.66,3.24-7.2,7.47Z"/>
      <path class="cls-10" d="M321.49,1854.63c.99-.36,2.02-1.21,2.02-3.73h-2.07v-4.46h4.37v4.59c0,3.29-1.75,5.13-4.32,5.62v-2.03Z"/>
      <path class="cls-10" d="M337.96,1818.73h13.41c3.37,0,5.98,1.12,7.65,3.11,1.35,1.57,2.16,3.69,2.16,6.12,0,5.89-3.38,9.45-10.39,9.45h-8.78v13.5h-4.05v-32.17ZM342.01,1834.12h8.46c4.54,0,6.71-2.29,6.71-5.99s-2.39-5.89-6.48-5.89h-8.68v11.88Z"/>
      <path class="cls-10" d="M363.75,1827.64h3.19v-3.74c0-4,2.29-5.44,6.17-5.44.76,0,1.35.04,1.84.09v3.1c-.63-.04-.81-.04-1.17-.04-2.34,0-3.19.58-3.19,2.47v3.56h4.32v2.97h-4.32v20.29h-3.65v-20.29h-3.19v-2.97ZM378.01,1818.73h3.65v4.5h-3.65v-4.5ZM378.01,1827.64h3.65v23.26h-3.65v-23.26Z"/>
      <path class="cls-10" d="M385.12,1827.64h3.19v-3.46c0-4,2.29-5.45,6.17-5.45.72,0,1.26.04,1.75.09v3.11c-.54-.04-.76-.04-1.12-.04-2.29,0-3.15.58-3.15,2.47v3.29h7.42v-3.74c0-4,2.29-5.44,6.17-5.44.77,0,1.35.04,1.84.09v3.1c-.63-.04-.81-.04-1.17-.04-2.34,0-3.19.58-3.19,2.47v3.56h4.32v2.97h-4.32v20.29h-3.65v-20.29h-7.42v20.29h-3.65v-20.29h-3.19v-2.97Z"/>
      <path class="cls-10" d="M408.93,1839.29c0-6.75,4.41-12.24,11.02-12.24,6.97,0,10.71,5.4,10.71,13.09h-18c.27,4.73,2.83,8.33,7.51,8.33,3.37,0,5.62-1.62,6.43-4.77h3.55c-1.08,5-4.72,7.83-9.99,7.83-7.11,0-11.25-5.49-11.25-12.24ZM412.75,1837.4h13.99c-.22-4.63-2.61-7.47-6.79-7.47s-6.66,3.24-7.2,7.47Z"/>
      <path class="cls-10" d="M456.18,1850.9v-3.2h-.09c-1.67,2.25-3.64,3.74-7.02,3.74-4.77,0-7.83-2.88-7.83-7.69v-16.11h3.64v16.02c0,3.02,1.94,4.77,5.22,4.77,3.69,0,6.08-2.79,6.08-6.48v-14.31h3.64v23.26h-3.64Z"/>
      <path class="cls-10" d="M468.42,1830.7h.09c1.67-2.21,4-3.6,7.38-3.6,4.86,0,7.83,2.65,7.83,7.47v16.33h-3.64v-16.02c0-3.01-1.98-4.72-5.26-4.72-3.69,0-6.39,2.61-6.39,6.43v14.31h-3.65v-23.26h3.65v3.06Z"/>
      <path class="cls-10" d="M487.23,1839.34c0-7.74,4.46-12.24,10.21-12.24,3.28,0,5.8,1.62,7.29,3.82h.09v-12.19h3.64v32.17h-3.64v-2.83h-.09c-1.75,2.25-3.91,3.51-7.2,3.51-6.34,0-10.3-4.77-10.3-12.24ZM505.05,1839.38c0-5.4-2.61-9.18-7.42-9.18-4.41,0-6.66,3.96-6.66,9.18s2.25,9.13,6.7,9.13c5.17,0,7.38-3.87,7.38-9.13Z"/>
      <path class="cls-10" d="M519.99,1852.2h3.38c.36,2.57,2.79,3.55,6.39,3.55,4.28,0,6.66-1.93,6.66-5.98v-3.29h-.09c-1.71,2.21-3.56,3.6-6.88,3.6-6.03,0-10.17-4.82-10.17-11.52,0-7.25,4.54-11.47,9.94-11.47,3.38,0,5.54,1.3,7.11,3.51h.09v-2.97h3.64v22c0,6.12-4.05,9-10.21,9s-9.45-2.43-9.85-6.43ZM536.68,1838.39c0-5.08-2.16-8.23-7.11-8.23-4.37,0-6.57,3.42-6.57,8.46s2.29,8.41,6.61,8.41c5.35,0,7.06-3.73,7.06-8.64Z"/>
      <path class="cls-10" d="M543.7,1839.29c0-6.75,4.41-12.24,11.02-12.24,6.97,0,10.71,5.4,10.71,13.09h-18c.27,4.73,2.83,8.33,7.51,8.33,3.37,0,5.62-1.62,6.43-4.77h3.55c-1.08,5-4.72,7.83-9.99,7.83-7.11,0-11.25-5.49-11.25-12.24ZM547.53,1837.4h13.99c-.22-4.63-2.61-7.47-6.79-7.47s-6.66,3.24-7.2,7.47Z"/>
      <path class="cls-10" d="M567.15,1848.02l12.96-17.05v-.13h-12.19v-3.19h17.28v2.16l-13.36,17.64v.13h13.86v3.33h-18.54v-2.88Z"/>
      <path class="cls-10" d="M589.29,1818.73h3.65v4.5h-3.65v-4.5ZM589.29,1827.64h3.65v23.26h-3.65v-23.26Z"/>
      <path class="cls-10" d="M596.58,1839.29c0-6.75,4.41-12.24,11.02-12.24,6.97,0,10.71,5.4,10.71,13.09h-18c.27,4.73,2.83,8.33,7.51,8.33,3.37,0,5.62-1.62,6.43-4.77h3.55c-1.08,5-4.72,7.83-9.99,7.83-7.11,0-11.25-5.49-11.25-12.24ZM600.4,1837.4h13.99c-.22-4.63-2.61-7.47-6.79-7.47s-6.66,3.24-7.2,7.47Z"/>
      <path class="cls-10" d="M622,1818.73h3.64v32.17h-3.64v-32.17Z"/>
      <path class="cls-10" d="M629.25,1827.64h3.38v-7.33h3.64v7.33h4.5v2.97h-4.5v15.12c0,1.62.85,2.16,2.34,2.16.72,0,1.53-.18,1.93-.32h.14v3.15c-.86.18-1.85.31-2.93.31-2.97,0-5.13-1.21-5.13-4.5v-15.93h-3.38v-2.97Z"/>
      <path class="cls-10" d="M643.01,1839.29c0-6.75,4.41-12.24,11.02-12.24,6.97,0,10.71,5.4,10.71,13.09h-18c.27,4.73,2.83,8.33,7.51,8.33,3.37,0,5.62-1.62,6.43-4.77h3.55c-1.08,5-4.72,7.83-9.99,7.83-7.11,0-11.25-5.49-11.25-12.24ZM646.84,1837.4h13.99c-.22-4.63-2.61-7.47-6.79-7.47s-6.66,3.24-7.2,7.47Z"/>
      <path class="cls-10" d="M666.82,1843.34h3.73c.5,4.05,3.2,5.17,6.66,5.17,3.82,0,5.4-1.67,5.4-3.83,0-2.61-1.8-3.28-6.07-4.18-4.59-.95-8.68-1.89-8.68-6.97,0-3.87,2.97-6.39,8.37-6.39,5.76,0,8.59,2.75,9.13,7.29h-3.74c-.36-3.06-2.02-4.41-5.49-4.41s-4.68,1.48-4.68,3.33c0,2.52,2.25,3.01,6.25,3.82,4.68.95,8.59,1.98,8.59,7.33,0,4.68-3.83,7.06-9.18,7.06-6.39,0-9.95-3.01-10.3-8.23Z"/>
      <path class="cls-10" d="M706.78,1818.73h4.54l11.88,32.17h-4.41l-3.42-9.81h-12.82l-3.46,9.81h-4.14l11.83-32.17ZM703.72,1837.81h10.53l-3.69-10.8c-.63-1.8-1.44-4.54-1.44-4.54h-.09s-.85,2.7-1.48,4.54l-3.83,10.8Z"/>
      <path class="cls-10" d="M729.77,1830.7h.09c1.67-2.21,4-3.6,7.38-3.6,4.86,0,7.83,2.65,7.83,7.47v16.33h-3.64v-16.02c0-3.01-1.98-4.72-5.26-4.72-3.69,0-6.39,2.61-6.39,6.43v14.31h-3.65v-23.26h3.65v3.06Z"/>
      <path class="cls-10" d="M748.4,1843.34h3.73c.5,4.05,3.2,5.17,6.66,5.17,3.82,0,5.4-1.67,5.4-3.83,0-2.61-1.8-3.28-6.07-4.18-4.59-.95-8.68-1.89-8.68-6.97,0-3.87,2.97-6.39,8.37-6.39,5.76,0,8.59,2.75,9.13,7.29h-3.74c-.36-3.06-2.02-4.41-5.49-4.41s-4.68,1.48-4.68,3.33c0,2.52,2.25,3.01,6.25,3.82,4.68.95,8.59,1.98,8.59,7.33,0,4.68-3.83,7.06-9.18,7.06-6.39,0-9.95-3.01-10.3-8.23Z"/>
      <path class="cls-10" d="M769.46,1827.64h3.38v-7.33h3.64v7.33h4.5v2.97h-4.5v15.12c0,1.62.85,2.16,2.34,2.16.72,0,1.53-.18,1.93-.32h.14v3.15c-.86.18-1.85.31-2.93.31-2.97,0-5.13-1.21-5.13-4.5v-15.93h-3.38v-2.97Z"/>
      <path class="cls-10" d="M799.03,1847.66h-.04c-1.39,1.8-3.78,3.69-7.74,3.69-4.41,0-7.88-2.07-7.88-6.48,0-5.49,4.32-6.62,10.12-7.52,3.29-.49,5.58-.81,5.58-3.33s-1.89-4.09-5.22-4.09c-3.78,0-5.67,1.62-5.8,5.13h-3.51c.13-4.5,3.1-7.88,9.27-7.88,4.95,0,8.59,1.84,8.59,7.38v11.07c0,1.89.45,2.92,2.47,2.47h.13v2.66c-.45.18-1.03.36-1.98.36-2.38,0-3.64-1.08-4-3.46ZM799.12,1842.31v-3.96c-1.21.77-3.33,1.35-5.31,1.71-3.64.67-6.57,1.3-6.57,4.72,0,3.11,2.43,3.78,4.81,3.78,4.86,0,7.06-3.55,7.06-6.25Z"/>
      <path class="cls-10" d="M811.36,1831.51h.09c1.39-2.25,3.82-4.14,6.93-4.14.67,0,1.04.09,1.48.27v3.51h-.13c-.54-.18-.9-.23-1.62-.23-3.6,0-6.75,2.7-6.75,7.07v12.91h-3.65v-23.26h3.65v3.87Z"/>
      <path class="cls-10" d="M826.79,1831.51h.09c1.39-2.25,3.82-4.14,6.93-4.14.67,0,1.04.09,1.48.27v3.51h-.13c-.54-.18-.9-.23-1.62-.23-3.6,0-6.75,2.7-6.75,7.07v12.91h-3.65v-23.26h3.65v3.87Z"/>
      <path class="cls-10" d="M836.38,1839.29c0-6.75,4.41-12.24,11.02-12.24,6.97,0,10.71,5.4,10.71,13.09h-18c.27,4.73,2.83,8.33,7.51,8.33,3.37,0,5.62-1.62,6.43-4.77h3.55c-1.08,5-4.72,7.83-9.99,7.83-7.11,0-11.25-5.49-11.25-12.24ZM840.2,1837.4h13.99c-.22-4.63-2.61-7.47-6.79-7.47s-6.66,3.24-7.2,7.47Z"/>
      <path class="cls-10" d="M865.31,1830.7h.09c1.67-2.21,4-3.6,7.38-3.6,4.86,0,7.83,2.65,7.83,7.47v16.33h-3.64v-16.02c0-3.01-1.98-4.72-5.26-4.72-3.69,0-6.39,2.61-6.39,6.43v14.31h-3.65v-23.26h3.65v3.06Z"/>
      <path class="cls-10" d="M884.93,1846.44h4.37v4.46h-4.37v-4.46Z"/>
      <path class="cls-10" d="M892.27,1831.01h3.06c.13,2.52,1.44,4.05,4.23,4.05,2.29,0,3.78-1.12,3.78-3.33,0-1.98-1.44-3.06-4-3.06h-1.17v-2.47h1.12c2.21,0,3.51-.99,3.51-2.7s-1.35-2.74-3.2-2.74c-2.34,0-3.6,1.48-3.69,3.69h-3.06c.09-3.64,2.61-6.12,6.79-6.12,3.64,0,6.25,1.94,6.25,5.08,0,2.03-1.21,3.24-3.01,3.83v.09c2.47.58,3.74,2.16,3.74,4.68,0,3.69-3.15,5.62-6.93,5.62-4.5,0-7.38-2.52-7.42-6.62Z"/>
      <path class="cls-11" d="M165.26,1957.73h4.05v32.17h-4.05v-32.17Z"/>
      <path class="cls-11" d="M178.09,1969.7h.09c1.67-2.21,4-3.6,7.38-3.6,4.86,0,7.83,2.65,7.83,7.47v16.33h-3.64v-16.02c0-3.01-1.98-4.72-5.26-4.72-3.69,0-6.39,2.61-6.39,6.43v14.31h-3.65v-23.26h3.65v3.06Z"/>
      <path class="cls-11" d="M196.04,1966.64h3.19v-3.74c0-4,2.29-5.44,6.17-5.44.76,0,1.35.04,1.84.09v3.1c-.63-.04-.81-.04-1.17-.04-2.34,0-3.19.58-3.19,2.47v3.56h4.32v2.97h-4.32v20.29h-3.65v-20.29h-3.19v-2.97Z"/>
      <path class="cls-11" d="M208.33,1978.29c0-6.75,4.32-12.24,11.25-12.24s11.2,5.49,11.2,12.24-4.23,12.24-11.2,12.24-11.25-5.49-11.25-12.24ZM227.05,1978.29c0-5.13-2.52-9.22-7.47-9.22s-7.51,4.09-7.51,9.22,2.56,9.18,7.51,9.18,7.47-4.05,7.47-9.18Z"/>
      <path class="cls-11" d="M232.49,1982.34h3.73c.5,4.05,3.2,5.17,6.66,5.17,3.82,0,5.4-1.67,5.4-3.83,0-2.61-1.8-3.28-6.07-4.18-4.59-.95-8.68-1.89-8.68-6.97,0-3.87,2.97-6.39,8.37-6.39,5.76,0,8.59,2.75,9.13,7.29h-3.74c-.36-3.06-2.02-4.41-5.49-4.41s-4.68,1.48-4.68,3.33c0,2.52,2.25,3.01,6.25,3.82,4.68.95,8.59,1.98,8.59,7.33,0,4.68-3.83,7.06-9.18,7.06-6.39,0-9.95-3.01-10.3-8.23Z"/>
      <path class="cls-11" d="M260.8,1987.02l12.96-17.05v-.13h-12.19v-3.19h17.28v2.16l-13.36,17.64v.13h13.86v3.33h-18.54v-2.88Z"/>
      <path class="cls-11" d="M297.29,1989.9v-3.2h-.09c-1.67,2.25-3.64,3.74-7.02,3.74-4.77,0-7.83-2.88-7.83-7.69v-16.11h3.64v16.02c0,3.02,1.94,4.77,5.22,4.77,3.69,0,6.08-2.79,6.08-6.48v-14.31h3.64v23.26h-3.64Z"/>
      <path class="cls-11" d="M310.65,1979.01h3.96c.54,5.45,3.87,8.28,9.94,8.28,4.46,0,7.65-2.02,7.65-6.03,0-4.41-3.87-5.44-9.63-6.71-5.67-1.26-10.53-2.88-10.53-8.95,0-5.31,4.41-8.5,10.93-8.5,8.05,0,11.38,4.09,12.19,10.03h-3.82c-.58-4.59-3.56-6.88-8.28-6.88-4.36,0-7.24,1.84-7.24,5.17,0,3.65,3.6,4.73,8.41,5.67,6.25,1.26,11.97,2.79,11.97,10.04,0,6.03-4.9,9.4-11.83,9.4-9.04,0-13.37-5.04-13.72-11.52Z"/>
      <path class="cls-11" d="M338.38,1966.64h3.38v-7.33h3.64v7.33h4.5v2.97h-4.5v15.12c0,1.62.85,2.16,2.34,2.16.72,0,1.53-.18,1.93-.32h.14v3.15c-.86.18-1.85.31-2.93.31-2.97,0-5.13-1.21-5.13-4.5v-15.93h-3.38v-2.97Z"/>
      <path class="cls-11" d="M356.87,1970.51h.09c1.39-2.25,3.82-4.14,6.93-4.14.67,0,1.04.09,1.48.27v3.51h-.13c-.54-.18-.9-.23-1.62-.23-3.6,0-6.75,2.7-6.75,7.07v12.91h-3.65v-23.26h3.65v3.87Z"/>
      <path class="cls-11" d="M381.57,1986.66h-.04c-1.39,1.8-3.78,3.69-7.74,3.69-4.41,0-7.88-2.07-7.88-6.48,0-5.49,4.32-6.62,10.12-7.52,3.29-.49,5.58-.81,5.58-3.33s-1.89-4.09-5.22-4.09c-3.78,0-5.67,1.62-5.8,5.13h-3.51c.13-4.5,3.1-7.88,9.27-7.88,4.95,0,8.59,1.84,8.59,7.38v11.07c0,1.89.45,2.92,2.47,2.47h.13v2.66c-.45.18-1.03.36-1.98.36-2.38,0-3.64-1.08-4-3.46ZM381.66,1981.31v-3.96c-1.21.77-3.33,1.35-5.31,1.71-3.64.67-6.57,1.3-6.57,4.72,0,3.11,2.43,3.78,4.81,3.78,4.86,0,7.06-3.55,7.06-6.25Z"/>
      <path class="cls-11" d="M396.51,1990.17v-2.97h.09c4.81.95,8.46-1.62,8.46-6.75,0-4.37-2.48-7.02-7.02-7.02h-1.22v-2.79h1.35c3.33,0,5.67-2.21,5.67-5.45,0-2.88-1.89-4.9-5.13-4.9-3.46,0-5.26,2.2-5.26,5.35v24.25h-3.65v-24.48c0-4.77,3.38-8.05,9.04-8.05,4.81,0,8.59,3.06,8.59,7.69,0,3.29-1.67,5.53-4.86,6.66v.09c3.42.99,6.21,3.73,6.21,8.5,0,6.12-3.78,10.08-9.99,10.08-.67,0-1.58-.09-2.29-.23Z"/>
      <path class="cls-11" d="M411.14,1978.29c0-6.75,4.41-12.24,11.02-12.24,6.97,0,10.71,5.4,10.71,13.09h-18c.27,4.73,2.83,8.33,7.51,8.33,3.37,0,5.62-1.62,6.43-4.77h3.55c-1.08,5-4.72,7.83-9.99,7.83-7.11,0-11.25-5.49-11.25-12.24ZM414.96,1976.4h13.99c-.22-4.63-2.61-7.47-6.79-7.47s-6.66,3.24-7.2,7.47Z"/>
      <path class="cls-11" d="M439.62,1969.7h.09c1.67-2.21,4-3.6,7.38-3.6,4.86,0,7.83,2.65,7.83,7.47v16.33h-3.64v-16.02c0-3.01-1.98-4.72-5.26-4.72-3.69,0-6.39,2.61-6.39,6.43v14.31h-3.65v-23.26h3.65v3.06Z"/>
      <path class="cls-11" d="M463.02,1986.84h-.09v3.06h-3.65v-32.17h3.65v12.24h.09c1.75-2.38,4.09-3.87,7.47-3.87,5.89,0,9.9,4.5,9.9,12.24s-3.74,12.24-10.03,12.24c-3.15,0-5.45-1.12-7.33-3.73ZM476.66,1978.38c0-5.22-2.11-9.18-6.52-9.18-5.08,0-7.42,4.14-7.42,9.18s2.43,9.13,7.38,9.13c4.46,0,6.57-3.87,6.57-9.13Z"/>
      <path class="cls-11" d="M482.28,1978.29c0-6.75,4.41-12.24,11.02-12.24,6.97,0,10.71,5.4,10.71,13.09h-18c.27,4.73,2.83,8.33,7.51,8.33,3.37,0,5.62-1.62,6.43-4.77h3.55c-1.08,5-4.72,7.83-9.99,7.83-7.11,0-11.25-5.49-11.25-12.24ZM486.11,1976.4h13.99c-.22-4.63-2.61-7.47-6.79-7.47s-6.66,3.24-7.2,7.47Z"/>
      <path class="cls-11" d="M507.26,1957.73h3.64v32.17h-3.64v-32.17Z"/>
      <path class="cls-11" d="M529.8,1986.66h-.04c-1.39,1.8-3.78,3.69-7.74,3.69-4.41,0-7.88-2.07-7.88-6.48,0-5.49,4.32-6.62,10.12-7.52,3.29-.49,5.58-.81,5.58-3.33s-1.89-4.09-5.22-4.09c-3.78,0-5.67,1.62-5.8,5.13h-3.51c.13-4.5,3.1-7.88,9.27-7.88,4.95,0,8.59,1.84,8.59,7.38v11.07c0,1.89.45,2.92,2.47,2.47h.13v2.66c-.45.18-1.03.36-1.98.36-2.38,0-3.64-1.08-4-3.46ZM529.89,1981.31v-3.96c-1.21.77-3.33,1.35-5.31,1.71-3.64.67-6.57,1.3-6.57,4.72,0,3.11,2.43,3.78,4.81,3.78,4.86,0,7.06-3.55,7.06-6.25ZM519.13,1957.95h3.51v4.27h-3.51v-4.27ZM526.51,1957.95h3.51v4.27h-3.51v-4.27Z"/>
      <path class="cls-11" d="M536.55,1982.34h3.73c.5,4.05,3.2,5.17,6.66,5.17,3.82,0,5.4-1.67,5.4-3.83,0-2.61-1.8-3.28-6.07-4.18-4.59-.95-8.68-1.89-8.68-6.97,0-3.87,2.97-6.39,8.37-6.39,5.76,0,8.59,2.75,9.13,7.29h-3.74c-.36-3.06-2.02-4.41-5.49-4.41s-4.68,1.48-4.68,3.33c0,2.52,2.25,3.01,6.25,3.82,4.68.95,8.59,1.98,8.59,7.33,0,4.68-3.83,7.06-9.18,7.06-6.39,0-9.95-3.01-10.3-8.23Z"/>
      <path class="cls-11" d="M557.16,1966.64h3.38v-7.33h3.64v7.33h4.5v2.97h-4.5v15.12c0,1.62.85,2.16,2.34,2.16.72,0,1.53-.18,1.93-.32h.14v3.15c-.86.18-1.85.31-2.93.31-2.97,0-5.13-1.21-5.13-4.5v-15.93h-3.38v-2.97Z"/>
      <path class="cls-11" d="M572.01,1957.73h3.65v4.5h-3.65v-4.5ZM572.01,1966.64h3.65v23.26h-3.65v-23.26Z"/>
      <path class="cls-11" d="M579.57,1991.2h3.38c.36,2.57,2.79,3.55,6.39,3.55,4.28,0,6.66-1.93,6.66-5.98v-3.29h-.09c-1.71,2.21-3.56,3.6-6.88,3.6-6.03,0-10.17-4.82-10.17-11.52,0-7.25,4.54-11.47,9.94-11.47,3.38,0,5.54,1.3,7.11,3.51h.09v-2.97h3.64v22c0,6.12-4.05,9-10.21,9s-9.45-2.43-9.85-6.43ZM596.26,1977.39c0-5.08-2.16-8.23-7.11-8.23-4.37,0-6.57,3.42-6.57,8.46s2.29,8.41,6.61,8.41c5.35,0,7.06-3.73,7.06-8.64Z"/>
      <path class="cls-11" d="M618.94,1989.9v-3.2h-.09c-1.67,2.25-3.64,3.74-7.02,3.74-4.77,0-7.83-2.88-7.83-7.69v-16.11h3.64v16.02c0,3.02,1.94,4.77,5.22,4.77,3.69,0,6.08-2.79,6.08-6.48v-14.31h3.64v23.26h-3.64Z"/>
      <path class="cls-11" d="M630.73,1969.7h.09c1.67-2.21,4-3.6,7.38-3.6,4.86,0,7.83,2.65,7.83,7.47v16.33h-3.64v-16.02c0-3.01-1.98-4.72-5.26-4.72-3.69,0-6.39,2.61-6.39,6.43v14.31h-3.65v-23.26h3.65v3.06Z"/>
      <path class="cls-11" d="M649.81,1991.2h3.38c.36,2.57,2.79,3.55,6.39,3.55,4.28,0,6.66-1.93,6.66-5.98v-3.29h-.09c-1.71,2.21-3.56,3.6-6.88,3.6-6.03,0-10.17-4.82-10.17-11.52,0-7.25,4.54-11.47,9.94-11.47,3.38,0,5.54,1.3,7.11,3.51h.09v-2.97h3.64v22c0,6.12-4.05,9-10.21,9s-9.45-2.43-9.85-6.43ZM666.51,1977.39c0-5.08-2.16-8.23-7.11-8.23-4.37,0-6.57,3.42-6.57,8.46s2.29,8.41,6.61,8.41c5.35,0,7.06-3.73,7.06-8.64Z"/>
      <path class="cls-11" d="M162.16,1996.33v-.9h510.2v.9H162.16Z"/>
    </g>
    <path class="cls-11" d="M118.22,1967.94l-20.94-18.69,3.34-4.24,27.71,25.37v.09l-27.71,25.37-3.34-4.15,20.94-18.78h-42.97v-4.96h42.97Z"/>
    <g class="cls-7">
      <g>
        <polyline class="cls-2" points="-38.49 1395.72 10.23 1553.88 10.23 1579.13"/>
        <polyline class="cls-2" points="-151.04 692 -106.77 753.06 837.72 590.62 1143.72 402.12"/>
        <polyline class="cls-2" points="837.72 590.62 870.51 690.68 972.81 859.54 977.47 940.16 1025.29 1032.76 1023.11 1579.13"/>
        <polyline class="cls-2" points="1347.65 1048.44 1025.29 1373.92 974.63 1403.95 570.65 1400.31 216.2 1509.48 10.23 1538.08 -151.04 1538.08"/>
        <polyline class="cls-2" points="961.34 514.46 1100.5 644.83 1133.25 692.14 1198.76 727.07 1277.36 727.07 1347.65 690.68"/>
        <polyline class="cls-2" points="570.65 1400.31 570.65 1337.19 402.84 1338.91 171.29 1350.22 87.74 1367.55 -77.58 1404.44 -154.91 1410.66"/>
        <polyline class="cls-2" points="1124.22 679.09 1073.88 707.65 1002.24 667.43 912.4 759.83 747.21 910.84 760 997.72 701.11 1024.62 602.91 1303.4 570.65 1337.19 430.44 1393.29 156.63 1446.55 -151.04 1503.85"/>
        <polyline class="cls-2" points="339.37 1471.54 295.02 1258.99 244.86 1129.5 120.74 526.7 -151.04 386.98"/>
        <polyline class="cls-2" points="625.23 822.06 600.35 877.72 555.15 899.71 556.77 915.59 634.54 933.92 659.07 997.04 612.13 1017.36 568.67 975.01 528.92 991.11 474.23 985.44 459.9 1014.17 491.89 1039.3 473.93 1071.52 437.73 1089.6 405.92 1048.44 374.72 1049.62 346.78 1096.98 439.88 1159.08 473.99 1154.81 549.41 1060.44 595.69 1070.45 584.63 1121.57 543.13 1178.52 480.95 1221.95 406.79 1214.95 314.71 1150.78 249.21 1140.73 191.3 1194.06 131.75 1209.7 98.7 1328.73 106.9 1455.81 143.65 1494.42 140.31 1575.42"/>
        <polyline class="cls-2" points="464.87 859.72 476.66 911.84 400.87 976.62 405.92 1048.44"/>
        <polyline class="cls-2" points="-154.91 1318.77 -106.77 1294.55 -28.77 1312.82 28.25 1289.15 41.44 1208.51 125.35 1107.03 309.64 1037.69 353.47 976.62 389.92 875.28 886.01 763.08 912.4 759.83"/>
        <polyline class="cls-2" points="-151.04 1035.44 264.36 996.46 373.28 921.54"/>
        <polyline class="cls-2" points="-151.04 1148.17 -87.82 1209.7 -27.87 1182.96 4.8 1116.5 97.82 1060.93 107.71 913.34 74.78 721.83"/>
        <polyline class="cls-2" points="634.54 933.92 690.02 927.21 679.77 876.09 711.77 860.55 747.21 910.84"/>
        <polyline class="cls-2" points="-106.77 753.06 -19.04 826.39 93.74 851.08 869.66 672.31"/>
        <line class="cls-2" x1="-151.04" y1="692" x2="1347.65" y2="356.47"/>
        <line class="cls-2" x1="309.64" y1="895.74" x2="240.27" y2="604.39"/>
        <polyline class="cls-2" points="-154.91 895.74 107.71 913.34 209.07 921.37 389.92 875.28 316.82 526.7 120.74 526.7"/>
        <line class="cls-2" x1="448.18" y1="557.84" x2="513.64" y2="847.3"/>
        <line class="cls-2" x1="625.23" y1="822.06" x2="581.84" y2="633.76"/>
        <polyline class="cls-2" points="677.54 509.29 819.44 991.26 863.38 1062.94 904.81 1061.7 982.46 1221.33 934.13 1271.03 1024.07 1337.38"/>
        <polyline class="cls-2" points="656.54 1401.01 664.45 1339.8 940.84 1020.01 1096.79 934.6 1347.65 734.76"/>
        <polyline class="cls-2" points="113.01 1277.18 195 1251.19 299.76 1281.71 350.1 1249.61 400.64 1283.71 532.82 1289.25 598.5 1214.39 759.24 1353.15 759.24 1579.13"/>
        <polyline class="cls-2" points="584.63 1121.57 888.88 1355.69 945.84 1579.13"/>
        <polyline class="cls-2" points="660.87 1269.19 972.81 859.54 1073.88 784.06 1116.99 814.92 1096.79 934.6"/>
        <line class="cls-2" x1="584.61" y1="1230.22" x2="543.13" y2="1178.52"/>
        <polyline class="cls-2" points="787.35 1099.53 893.67 1188.32 1347.65 990.88"/>
        <polyline class="cls-2" points="893.67 1188.32 812.12 1289.59 820.54 1579.13"/>
        <polyline class="cls-2" points="929.05 1111.54 1233.51 973.69 1300.95 903.44 1347.65 888.51"/>
        <polyline class="cls-2" points="216.2 1509.48 236.32 1431.05 171.29 1350.22"/>
      </g>
    </g>
    <polyline class="cls-3" points="298.28 1274.6 339.37 1471.54 570.65 1400.31 815.4 1402.51 818.66 1514.45"/>
    <rect class="cls-11" x="846.89" y="1469.26" width="28.58" height="28.58"/>
    <rect class="cls-11" x="333.36" y="1285.9" width="28.58" height="28.58"/>
    <g class="cls-8">
      <g>
        <circle class="cls-13" cx="888.65" cy="2331.06" r="82.42"/>
        <path class="cls-13" d="M888.65,2468.33c-71.99,0-143.87-20.21-207.87-58.45-48.51-28.99-75.82-58.32-76.96-59.56l-17.76-19.26,17.76-19.26c1.14-1.23,28.45-30.57,76.96-59.56,64-38.24,135.88-58.45,207.87-58.45s143.87,20.21,207.87,58.45c48.51,28.99,75.82,58.32,76.96,59.56l17.76,19.26-17.76,19.26c-1.14,1.23-28.45,30.57-76.96,59.56-64,38.24-135.88,58.45-207.87,58.45ZM666.93,2331.06c11.01,8.97,26.06,20.06,44.69,31.06,55.52,32.78,115.08,49.4,177.03,49.4s121.51-16.62,177.03-49.4c18.63-11,33.69-22.1,44.69-31.06-11-8.96-26.06-20.06-44.69-31.06-55.52-32.78-115.08-49.4-177.03-49.4s-121.51,16.62-177.03,49.4c-18.63,11-33.69,22.1-44.69,31.06Z"/>
      </g>
    </g>
  </g>
</svg>