<?xml version="1.0" encoding="UTF-8"?>
<svg id="Ebene_2" data-name="Ebene 2" xmlns="http://www.w3.org/2000/svg" xmlns:xlink="http://www.w3.org/1999/xlink" viewBox="0 0 1170 2533">
  <defs>
    <style>
      .cls-1, .cls-2, .cls-3, .cls-4 {
        fill: none;
      }

      .cls-5 {
        fill: #05141d;
      }

      .cls-6 {
        fill: #01141e;
      }

      .cls-7 {
        fill: #2b2b2a;
      }

      .cls-8 {
        clip-path: url(#clippath-1);
      }

      .cls-9 {
        clip-path: url(#clippath-2);
      }

      .cls-10 {
        fill: #fff;
      }

      .cls-2 {
        stroke-width: 31.22px;
      }

      .cls-2, .cls-3 {
        stroke: #c7c7c6;
      }

      .cls-2, .cls-3, .cls-4 {
        stroke-miterlimit: 10;
      }

      .cls-3 {
        stroke-width: 21.54px;
      }

      .cls-11 {
        fill: #03161d;
      }

      .cls-12 {
        fill: red;
      }

      .cls-4 {
        stroke: red;
        stroke-width: 21.64px;
      }

      .cls-13 {
        fill: #ededed;
      }

      .cls-14 {
        fill: #c7c7c6;
      }

      .cls-15 {
        clip-path: url(#clippath);
      }
    </style>
    <clipPath id="clippath">
      <rect class="cls-1" x="107.1" y="125.82" width="918.12" height="246.85"/>
    </clipPath>
    <clipPath id="clippath-1">
      <rect class="cls-1" y="103.17" width="1170" height="1460.65"/>
    </clipPath>
    <clipPath id="clippath-2">
      <rect class="cls-1" x="386.59" y="1774.96" width="783.41" height="757.04"/>
    </clipPath>
  </defs>
  <g id="Ebene_1-2" data-name="Ebene 1">
    <rect class="cls-10" y="0" width="1170" height="2533"/>
    <g class="cls-15">
      <path class="cls-12" d="M1019.99,297.73c2.83,0,5.23-2.4,5.23-5.23s-2.4-5.23-5.23-5.23-5.12,2.4-5.12,5.23,2.4,5.23,5.12,5.23M998.84,297.41c2.83,0,6.98-1.09,8.94-3.92v-2.18c-.98.87-2.62,2.29-5.56,2.29-5.01,0-7.08-3.71-7.08-7.52v-40.22h12.75v-2.83h-12.75v-14.06h-2.94c-1.85,8.61-5.89,13.51-12.1,15.04v1.85h7.41v39.78c0,8.5,5.99,11.77,11.34,11.77M941.51,296.64c6.43-.33,13.73-.33,21.04,0v-2.07c-3.49-.44-7.3-1.53-7.3-6.43v-28.34c0-4.9,2.29-12.97,7.52-12.97,4.25,0,5.01,5.45,9.37,5.45,2.51,0,4.14-2.07,4.14-4.47,0-3.49-3.38-6.76-8.83-6.76-6.32,0-11.12,4.25-13.62,13.62h-.65l2.72-11.99c-.33-.98-.87-1.53-1.74-1.85-2.51,1.96-7.3,4.36-12.97,5.12v2.07c4.36-.33,6.43.22,6.43,3.71v36.4c0,4.9-2.94,5.99-6.1,6.43v2.07ZM913.83,243.13c9.37,0,14.28,8.39,12.97,22.34h-26.16c.11-14.93,4.58-22.34,13.19-22.34M919.17,294.9c-11.44,0-17.98-11.01-18.53-27.14h30.08c3.49,0,4.58-2.4,4.58-6.87,0-13.73-10.03-19.84-20.6-19.84-14.06,0-22.89,11.66-22.89,28.56,0,17.77,10.03,28.23,24.2,28.23,9.59,0,16.46-4.9,18.96-11.23h-2.51c-2.62,6.32-8.61,8.28-13.3,8.28M866.86,296.64c6.76-.54,13.84-.54,20.6,0v-2.07c-3.38-.44-6.43-1.53-6.43-6.43v-32.48c0-6.65,0-10.79.65-12.97-.44-.98-.98-1.53-1.85-1.85-3.6,2.4-7.3,4.25-12.53,5.12v2.07c3.81,0,6.1,2.83,6.1,7.63v32.48c0,4.9-3.05,5.99-6.54,6.43v2.07ZM876.45,231.36c2.72,0,5.12-2.29,5.12-5.12s-2.4-5.01-5.12-5.01-5.01,2.18-5.01,5.01,2.29,5.12,5.01,5.12M810.62,296.64c6.65-.33,13.3-.33,19.95,0v-2.07c-3.27-.65-6.21-1.53-6.21-6.43v-28.66c0-7.52,4.9-13.73,12.64-13.73s12.21,5.89,12.21,13.73v28.66c0,4.9-2.72,5.78-5.99,6.43v2.07c6.54-.33,13.19-.33,19.84,0v-2.07c-3.27-.44-6.21-1.53-6.21-6.43v-28.99c0-14.5-9.05-18.09-16.35-18.09-12.21,0-16.68,10.03-17.33,13.3h-.44l2.07-11.66c-.33-.98-.87-1.53-1.74-1.85-2.51,2.07-7.08,4.36-12.75,5.12v2.07c4.36-.33,6.43.22,6.43,3.71v36.4c0,4.9-2.72,5.99-6.1,6.43v2.07ZM783.05,295.66c-10.25,0-17.44-12.21-17.44-28.77s6.1-23.65,14.06-23.65c10.35,0,17.44,11.99,17.44,28.77s-5.99,23.65-14.06,23.65M781.52,297.84c12.53,0,23.98-9.7,23.98-28.45s-11.34-28.34-24.3-28.34-23.87,9.7-23.87,28.45,11.23,28.34,24.2,28.34M732.36,296.64c6.76-.54,13.84-.54,20.6,0v-2.07c-3.38-.44-6.43-1.53-6.43-6.43v-32.48c0-6.65,0-10.79.65-12.97-.44-.98-.98-1.53-1.85-1.85-3.6,2.4-7.3,4.25-12.53,5.12v2.07c3.81,0,6.1,2.83,6.1,7.63v32.48c0,4.9-3.05,5.99-6.54,6.43v2.07ZM741.96,231.36c2.72,0,5.12-2.29,5.12-5.12s-2.4-5.01-5.12-5.01-5.01,2.18-5.01,5.01,2.29,5.12,5.01,5.12M717.98,297.41c2.83,0,6.98-1.09,8.94-3.92v-2.18c-.98.87-2.62,2.29-5.56,2.29-5.01,0-7.08-3.71-7.08-7.52v-40.22h12.75v-2.83h-12.75v-14.06h-2.94c-1.85,8.61-5.89,13.51-12.1,15.04v1.85h7.41v39.78c0,8.5,5.99,11.77,11.33,11.77M665.77,265.58c16.89-16.24,21.69-20.93,28.12-21.47v-2.07c-5.01.33-12.64.33-19.62,0v2.07c11.23.54-4.36,15.48-14.39,23.21v-32.59c0-6.65,0-10.79.65-12.97-.44-.98-.98-1.53-1.85-1.85-3.6,2.4-7.3,4.25-12.53,5.12v2.07c3.81,0,6.1,2.83,6.1,7.63v53.41c0,4.9-3.05,5.99-6.54,6.43v2.07c6.76-.54,13.84-.54,20.6,0v-2.07c-3.38-.44-6.43-1.53-6.43-6.43v-18.2l14.82,17.87c6.43,7.63,12.42,10.14,19.07,10.14l2.72-2.07c-2.62,0-8.17-3.81-13.08-9.7l-17.66-20.6ZM591.12,296.64c6.65-.33,13.3-.33,19.95,0v-2.07c-3.27-.65-6.21-1.53-6.21-6.43v-28.66c0-7.52,4.9-13.73,12.64-13.73s12.21,5.89,12.21,13.73v28.66c0,4.9-2.72,5.78-5.99,6.43v2.07c6.54-.33,13.19-.33,19.84,0v-2.07c-3.27-.44-6.21-1.53-6.21-6.43v-28.99c0-14.5-9.05-18.09-16.35-18.09-12.21,0-16.68,10.03-17.33,13.3h-.44l2.07-11.66c-.33-.98-.87-1.53-1.74-1.85-2.51,2.07-7.08,4.36-12.75,5.12v2.07c4.36-.33,6.43.22,6.43,3.71v36.4c0,4.9-2.72,5.99-6.1,6.43v2.07ZM574.66,297.84c4.25-1.2,7.52-1.2,12.75-1.2v-2.07c-4.03-.87-6.21-2.07-6.21-7.74v-43.38c0-1.42-.33-2.07-2.18-1.74l-11.66,1.09v2.07c5.34.22,6.32,1.63,6.32,5.99v28.12c-.98,7.63-5.45,14.06-13.19,14.06s-12.42-6.65-12.42-14.06v-35.53c0-1.42-.76-1.85-2.18-1.74l-11.66,1.09v2.07c5.12.22,6.32,1.85,6.32,5.99v28.45c0,14.82,9.37,18.31,16.46,18.31,12.1,0,16.89-9.92,17.22-11.66h.54l-1.53,10.03c0,.98.65,1.53,1.42,1.85M523.87,220.57c-7.74,0-14.6,4.25-14.6,17.33v5.56c-1.31.54-3.92,1.09-6.1,1.09v2.07h6.1v41.53c0,4.9-3.05,5.99-6.54,6.43v2.07c6.76-.54,13.84-.54,21.8,0v-2.07c-4.58-.44-7.63-1.53-7.63-6.43v-41.53h11.99v-3.16h-11.99v-6.87c0-7.19.54-13.84,5.67-13.84,6.21,0,4.69,9.16,9.81,9.16,2.62,0,3.05-2.18,3.05-3.49,0-3.27-3.6-7.85-11.55-7.85M465.45,297.41c2.83,0,6.98-1.09,8.94-3.92v-2.18c-.98.87-2.62,2.29-5.56,2.29-5.01,0-7.08-3.71-7.08-7.52v-40.22h12.75v-2.83h-12.75v-14.06h-2.94c-1.85,8.61-5.89,13.51-12.1,15.04v1.85h7.41v39.78c0,8.5,5.99,11.77,11.33,11.77M416.52,294.68c-11.55,0-16.46-14.28-16.46-27.36,0-16.35,7.74-23.87,15.91-23.87,5.78,0,11.01,3.49,13.19,10.35v28.77c0,5.89-5.01,12.1-12.64,12.1M430.47,297.84c4.25-1.2,7.19-1.2,12.42-1.2v-2.07c-4.03-.87-6.1-2.07-6.1-7.74v-52.1c0-6.65,0-10.79.65-12.97-.33-.98-.98-1.53-1.85-1.85-3.6,2.4-7.3,4.25-12.53,5.12v2.07c3.81,0,6.1,2.83,6.1,7.63v13.19c-2.83-3.92-8.5-6.87-15.26-6.87-12.64,0-22.23,9.92-22.23,28.23s8.83,28.56,21.69,28.56c9.37,0,15.04-5.89,16.68-9.16h.54l-1.53,7.3c0,.98.65,1.53,1.42,1.85M360.06,293.7c-4.9,0-10.68-3.16-10.68-11.55,0-5.45,2.62-12.64,24.2-15.59v13.51c0,7.85-6.54,13.62-13.51,13.62M381.2,259.04c0-12.64-3.16-17.98-16.35-17.98s-21.69,6.21-21.47,13.62c0,3.05,1.42,5.01,4.58,5.01,9.37,0-1.74-16.35,14.5-16.35,9.92,0,11.12,6.21,11.12,16.02v4.9c-27.25,3.81-33.24,11.44-33.24,19.84,0,10.14,7.96,13.73,15.26,13.73,9.05,0,15.26-5.23,17.98-9.59h.76v1.63c0,4.58,1.96,7.96,7.19,7.96,1.63,0,3.6-.22,5.23-1.74v-1.96c-3.49.54-5.56-1.74-5.56-5.78v-29.32ZM326.49,297.41c2.83,0,6.98-1.09,8.94-3.92v-2.18c-.98.87-2.62,2.29-5.56,2.29-5.01,0-7.08-3.71-7.08-7.52v-40.22h12.75v-2.83h-12.75v-14.06h-2.94c-1.85,8.61-5.89,13.51-12.1,15.04v1.85h7.41v39.78c0,8.5,5.99,11.77,11.34,11.77M284.86,297.95c10.03,0,19.62-5.89,19.62-18.09,0-14.06-13.41-18.42-22.78-22.56-8.83-3.81-13.73-8.94-13.73-15.91s5.34-11.88,12.97-11.88c6.98,0,12.97,3.92,16.68,12.21h2.18l-.65-13.62h-2.18c-.54,1.53-1.74,1.85-3.05,1.85-3.49,0-6.43-2.72-13.41-2.72-12.53,0-19.29,8.17-19.29,17.11,0,10.25,8.5,16.78,19.07,21.36,7.19,3.05,16.57,7.74,16.57,17.11,0,6.87-4.9,12.64-14.17,12.64-10.03,0-16.35-6.54-19.4-14.06h-2.18l.87,15.26h2.51c0-1.74,1.74-3.05,3.16-3.05,2.83,0,8.5,4.36,17.22,4.36M209.66,243.13c9.37,0,14.28,8.39,12.97,22.34h-26.16c.11-14.93,4.58-22.34,13.19-22.34M215,294.9c-11.44,0-17.98-11.01-18.53-27.14h30.08c3.49,0,4.58-2.4,4.58-6.87,0-13.73-10.03-19.84-20.6-19.84-14.06,0-22.89,11.66-22.89,28.56,0,17.77,10.03,28.23,24.2,28.23,9.59,0,16.46-4.9,18.96-11.23h-2.51c-2.62,6.32-8.61,8.28-13.3,8.28M162.68,296.64c6.76-.54,13.84-.54,20.6,0v-2.07c-3.38-.44-6.43-1.53-6.43-6.43v-32.48c0-6.65,0-10.79.65-12.97-.44-.98-.98-1.53-1.85-1.85-3.6,2.4-7.3,4.25-12.53,5.12v2.07c3.81,0,6.1,2.83,6.1,7.63v32.48c0,4.9-3.05,5.99-6.54,6.43v2.07ZM172.27,231.36c2.72,0,5.12-2.29,5.12-5.12s-2.4-5.01-5.12-5.01-5.01,2.18-5.01,5.01,2.29,5.12,5.01,5.12M131.95,294.68c-11.55,0-16.46-14.28-16.46-27.36,0-16.35,7.74-23.87,15.91-23.87,5.78,0,11.01,3.49,13.19,10.35v28.77c0,5.89-5.01,12.1-12.64,12.1M145.9,297.84c4.25-1.2,7.19-1.2,12.42-1.2v-2.07c-4.03-.87-6.1-2.07-6.1-7.74v-52.1c0-6.65,0-10.79.65-12.97-.33-.98-.98-1.53-1.85-1.85-3.6,2.4-7.3,4.25-12.53,5.12v2.07c3.81,0,6.1,2.83,6.1,7.63v13.19c-2.83-3.92-8.5-6.87-15.26-6.87-12.64,0-22.23,9.92-22.23,28.23s8.83,28.56,21.69,28.56c9.37,0,15.04-5.89,16.68-9.16h.54l-1.53,7.3c0,.98.65,1.53,1.42,1.85"/>
      <path class="cls-7" d="M590.35,213.01c.44.44.76.44,1.42,0,3.81-3.38,5.89-8.39,5.89-12.64,0-3.71-2.07-7.08-5.67-7.08-2.83,0-5.01,1.85-5.01,5.23,0,2.83,2.29,4.58,4.36,4.58.87,0,1.09-.11,1.63-.22.22.33.22.76.22,1.09,0,2.94-1.85,6.32-3.49,7.96l.65,1.09ZM554.39,202.55c6.43-.33,13.73-.33,21.04,0v-2.07c-3.49-.44-7.3-1.53-7.3-6.43v-28.34c0-4.9,2.29-12.97,7.52-12.97,4.25,0,5.01,5.45,9.37,5.45,2.51,0,4.14-2.07,4.14-4.47,0-3.49-3.38-6.76-8.83-6.76-6.32,0-11.12,4.25-13.62,13.62h-.65l2.72-11.99c-.33-.98-.87-1.53-1.74-1.85-2.51,1.96-7.3,4.36-12.97,5.12v2.07c4.36-.33,6.43.22,6.43,3.71v36.4c0,4.9-2.94,5.99-6.1,6.43v2.07ZM526.27,201.57c-10.25,0-17.44-12.21-17.44-28.77s6.1-23.65,14.06-23.65c10.35,0,17.44,11.99,17.44,28.77s-5.99,23.65-14.06,23.65M524.74,203.75c12.53,0,23.98-9.7,23.98-28.45s-11.33-28.34-24.3-28.34-23.87,9.7-23.87,28.45,11.23,28.34,24.2,28.34M481.8,150.02c5.99.11,7.96,1.42,5.89,7.19l-10.46,32.26-11.34-32.26c-2.07-5.78-.87-7.08,4.58-7.19v-2.07h-21.25v2.07c4.14.11,6.32,1.42,8.28,7.19l16.24,45.34h1.42l15.26-45.34c2.07-5.78,4.58-7.08,10.14-7.19v-2.07h-18.75v2.07ZM387.74,202.55c6.43-.33,13.73-.33,21.04,0v-2.07c-3.49-.44-7.3-1.53-7.3-6.43v-28.34c0-4.9,2.29-12.97,7.52-12.97,4.25,0,5.01,5.45,9.37,5.45,2.51,0,4.14-2.07,4.14-4.47,0-3.49-3.38-6.76-8.83-6.76-6.32,0-11.12,4.25-13.62,13.62h-.65l2.72-11.99c-.33-.98-.87-1.53-1.74-1.85-2.51,1.96-7.3,4.36-12.97,5.12v2.07c4.36-.33,6.43.22,6.43,3.71v36.4c0,4.9-2.94,5.99-6.1,6.43v2.07ZM362.57,202.55c6.76-.54,13.84-.54,20.6,0v-2.07c-3.38-.44-6.43-1.53-6.43-6.43v-32.48c0-6.65,0-10.79.65-12.97-.44-.98-.98-1.53-1.85-1.85-3.6,2.4-7.3,4.25-12.53,5.12v2.07c3.81,0,6.1,2.83,6.1,7.63v32.48c0,4.9-3.05,5.99-6.54,6.43v2.07ZM372.16,137.27c2.72,0,5.12-2.29,5.12-5.12s-2.4-5.01-5.12-5.01-5.01,2.18-5.01,5.01,2.29,5.12,5.01,5.12M331.83,200.59c-11.55,0-16.46-14.28-16.46-27.36,0-16.35,7.74-23.87,15.91-23.87,5.78,0,11.01,3.49,13.19,10.35v28.77c0,5.89-5.01,12.1-12.64,12.1M345.78,203.75c4.25-1.2,7.19-1.2,12.42-1.2v-2.07c-4.03-.87-6.1-2.07-6.1-7.74v-52.1c0-6.65,0-10.79.65-12.97-.33-.98-.98-1.53-1.85-1.85-3.6,2.4-7.3,4.25-12.53,5.12v2.07c3.81,0,6.1,2.83,6.1,7.63v13.19c-2.83-3.92-8.5-6.87-15.26-6.87-12.64,0-22.23,9.92-22.23,28.23s8.83,28.56,21.69,28.56c9.37,0,15.04-5.89,16.68-9.16h.54l-1.53,7.3c0,.98.65,1.53,1.42,1.85M258.05,202.55c6.76-.54,13.84-.54,20.6,0v-2.07c-3.38-.44-6.43-1.53-6.43-6.43v-53.41c0-6.65,0-10.79.65-12.97-.44-.98-.98-1.53-1.85-1.85-3.6,2.4-7.3,4.25-12.53,5.12v2.07c3.81,0,6.1,2.83,6.1,7.63v53.41c0,4.9-3.05,5.99-6.54,6.43v2.07ZM234.18,202.55c6.76-.54,13.84-.54,20.6,0v-2.07c-3.38-.44-6.43-1.53-6.43-6.43v-53.41c0-6.65,0-10.79.65-12.97-.44-.98-.98-1.53-1.85-1.85-3.6,2.4-7.3,4.25-12.53,5.12v2.07c3.81,0,6.1,2.83,6.1,7.63v53.41c0,4.9-3.05,5.99-6.54,6.43v2.07ZM207.81,149.04c9.37,0,14.28,8.39,12.97,22.34h-26.16c.11-14.93,4.58-22.34,13.19-22.34M213.15,200.81c-11.44,0-17.98-11.01-18.53-27.14h30.08c3.49,0,4.58-2.4,4.58-6.87,0-13.73-10.03-19.84-20.6-19.84-14.06,0-22.89,11.66-22.89,28.56,0,17.77,10.03,28.23,24.2,28.23,9.59,0,16.46-4.9,18.96-11.23h-2.51c-2.62,6.32-8.61,8.28-13.3,8.28M172.49,203.31c2.83,0,6.98-1.09,8.94-3.92v-2.18c-.98.87-2.62,2.29-5.56,2.29-5.01,0-7.08-3.71-7.08-7.52v-40.22h12.75v-2.83h-12.75v-14.06h-2.94c-1.85,8.61-5.89,13.51-12.1,15.04v1.85h7.41v39.78c0,8.5,5.99,11.77,11.33,11.77M130.86,203.86c10.03,0,19.62-5.89,19.62-18.09,0-14.06-13.41-18.42-22.78-22.56-8.83-3.81-13.73-8.94-13.73-15.91s5.34-11.88,12.97-11.88c6.98,0,12.97,3.92,16.68,12.21h2.18l-.65-13.62h-2.18c-.54,1.53-1.74,1.85-3.05,1.85-3.49,0-6.43-2.72-13.41-2.72-12.53,0-19.29,8.17-19.29,17.11,0,10.25,8.5,16.78,19.07,21.36,7.19,3.05,16.57,7.74,16.57,17.11,0,6.87-4.9,12.64-14.17,12.64-10.03,0-16.35-6.54-19.4-14.06h-2.18l.87,15.26h2.51c0-1.74,1.74-3.05,3.16-3.05,2.83,0,8.5,4.36,17.22,4.36"/>
      <path class="cls-6" d="M917.12,366.9h3.25v-3.32h-3.25v3.32ZM905.75,351.78h2.52v11.87c0,2.45,1.61,3.35,3.82,3.35.8,0,1.54-.1,2.18-.23v-2.35h-.1c-.3.1-.91.23-1.44.23-1.11,0-1.74-.4-1.74-1.61v-11.27h3.35v-2.21h-3.35v-5.47h-2.72v5.47h-2.52v2.21ZM892.2,342.92h-2.72v23.98h2.72v-10.66c0-2.85,2.01-4.8,4.76-4.8,2.45,0,3.92,1.27,3.92,3.52v11.94h2.72v-12.17c0-3.59-2.21-5.57-5.84-5.57-2.52,0-4.26,1.04-5.5,2.68h-.07v-8.92ZM879.49,367.37c4.33,0,7.04-2.41,7.41-6.57h-2.68c-.23,2.68-1.91,4.29-4.73,4.29-3.69,0-5.6-3.02-5.6-6.84s1.91-6.87,5.6-6.87c2.62,0,4.26,1.44,4.66,3.79h2.75c-.6-3.69-3.32-6.04-7.41-6.04-5.16,0-8.38,4.09-8.38,9.12s3.22,9.12,8.38,9.12M865.67,346.28h2.72v-3.35h-2.72v3.35ZM865.67,366.9h2.72v-17.34h-2.72v17.34ZM850.68,349.56h-2.72v17.34h2.72v-10.66c0-2.85,2.01-4.8,4.76-4.8,2.45,0,3.92,1.27,3.92,3.52v11.94h2.72v-12.17c0-3.59-2.21-5.57-5.84-5.57-2.52,0-4.26,1.04-5.5,2.68h-.07v-2.28ZM832,351.27c3.12,0,4.9,2.11,5.06,5.57h-10.43c.4-3.15,2.15-5.57,5.37-5.57M832.17,367.37c3.92,0,6.64-2.11,7.44-5.84h-2.65c-.6,2.35-2.28,3.55-4.8,3.55-3.49,0-5.4-2.68-5.6-6.2h13.41c0-5.73-2.78-9.76-7.98-9.76-4.93,0-8.22,4.09-8.22,9.12s3.09,9.12,8.38,9.12M816.64,349.56h-2.72v17.34h2.72v-9.62c0-3.25,2.35-5.27,5.03-5.27.54,0,.8.03,1.21.17h.1v-2.62c-.34-.13-.6-.2-1.11-.2-2.31,0-4.12,1.41-5.16,3.09h-.07v-2.88ZM803.3,351.27c3.12,0,4.9,2.11,5.06,5.57h-10.43c.4-3.15,2.15-5.57,5.37-5.57M803.47,367.37c3.92,0,6.64-2.11,7.44-5.84h-2.65c-.6,2.35-2.28,3.55-4.8,3.55-3.49,0-5.4-2.68-5.6-6.2h13.41c0-5.73-2.78-9.76-7.98-9.76-4.93,0-8.22,4.09-8.22,9.12s3.09,9.12,8.38,9.12M784.32,365.12c-3.32,0-5-2.88-5-6.81s1.68-6.84,4.96-6.84c3.59,0,5.53,2.82,5.53,6.84s-1.64,6.81-5.5,6.81M784.22,367.41c2.45,0,4.06-.94,5.37-2.62h.07v2.11h2.72v-23.98h-2.72v9.09h-.07c-1.11-1.64-2.98-2.85-5.43-2.85-4.29,0-7.61,3.35-7.61,9.12s2.95,9.12,7.68,9.12M762.52,349.56h-2.72v17.34h2.72v-10.66c0-2.85,2.01-4.8,4.76-4.8,2.45,0,3.92,1.27,3.92,3.52v11.94h2.72v-12.17c0-3.59-2.21-5.57-5.84-5.57-2.52,0-4.26,1.04-5.5,2.68h-.07v-2.28ZM748.13,365.16c-1.78,0-3.59-.5-3.59-2.82,0-2.55,2.18-3.02,4.9-3.52,1.48-.27,3.05-.7,3.96-1.27v2.95c0,2.01-1.64,4.66-5.27,4.66M756.32,367.07c.7,0,1.14-.13,1.48-.27v-1.98h-.1c-1.51.34-1.84-.44-1.84-1.84v-8.25c0-4.12-2.72-5.5-6.41-5.5-4.59,0-6.81,2.52-6.91,5.87h2.62c.1-2.62,1.51-3.82,4.33-3.82,2.48,0,3.89,1.11,3.89,3.05s-1.71,2.11-4.16,2.48c-4.33.67-7.55,1.51-7.55,5.6,0,3.29,2.58,4.83,5.87,4.83,2.95,0,4.73-1.41,5.77-2.75h.03c.27,1.78,1.21,2.58,2.98,2.58M728.58,349.56h-2.72v17.34h2.72v-9.62c0-3.25,2.35-5.27,5.03-5.27.54,0,.8.03,1.21.17h.1v-2.62c-.34-.13-.6-.2-1.11-.2-2.31,0-4.12,1.41-5.16,3.09h-.07v-2.88ZM711.31,346.28h2.62v-3.19h-2.62v3.19ZM716.81,346.28h2.62v-3.19h-2.62v3.19ZM722.18,366.9v-17.34h-2.72v10.66c0,2.75-1.78,4.83-4.53,4.83-2.45,0-3.89-1.31-3.89-3.55v-11.94h-2.72v12.01c0,3.59,2.28,5.73,5.84,5.73,2.52,0,3.99-1.11,5.23-2.78h.07v2.38h2.72ZM690.62,366.9h3.02v-11.3h11.03v-2.55h-11.03v-7.48h13.25v-2.65h-16.26v23.98ZM672.48,366.9h3.25v-3.32h-3.25v3.32ZM672.85,361.1h2.55c.03-3.42.77-4.26,3.55-6.57,1.58-1.31,3.09-2.88,3.09-5.63,0-3.52-2.58-6.41-7.31-6.41-5.6,0-7.91,3.59-8.02,8.15h2.75c.1-3.42,1.71-5.73,5.16-5.73,2.95,0,4.53,1.88,4.53,4.02s-1.31,3.22-2.78,4.53c-2.55,2.25-3.49,3.96-3.52,7.65M653.33,342.92h-2.72v23.98h2.72v-10.66c0-2.85,2.01-4.8,4.76-4.8,2.45,0,3.92,1.27,3.92,3.52v11.94h2.72v-12.17c0-3.59-2.21-5.57-5.84-5.57-2.52,0-4.26,1.04-5.5,2.68h-.07v-8.92ZM640.62,367.37c4.33,0,7.04-2.41,7.41-6.57h-2.68c-.23,2.68-1.91,4.29-4.73,4.29-3.69,0-5.6-3.02-5.6-6.84s1.91-6.87,5.6-6.87c2.62,0,4.26,1.44,4.66,3.79h2.75c-.6-3.69-3.32-6.04-7.41-6.04-5.16,0-8.38,4.09-8.38,9.12s3.22,9.12,8.38,9.12M626.8,346.28h2.72v-3.35h-2.72v3.35ZM626.8,366.9h2.72v-17.34h-2.72v17.34ZM615.07,365.12c-3.32,0-5-2.88-5-6.81s1.68-6.84,4.96-6.84c3.59,0,5.53,2.82,5.53,6.84s-1.64,6.81-5.5,6.81M614.96,367.41c2.45,0,4.06-.94,5.37-2.62h.07v2.11h2.72v-23.98h-2.72v9.09h-.07c-1.11-1.64-2.98-2.85-5.43-2.85-4.29,0-7.61,3.35-7.61,9.12s2.95,9.12,7.68,9.12M594.14,349.56h-2.72v17.34h2.72v-9.62c0-3.25,2.35-5.27,5.03-5.27.54,0,.8.03,1.21.17h.1v-2.62c-.34-.13-.6-.2-1.11-.2-2.31,0-4.12,1.41-5.16,3.09h-.07v-2.88ZM576.87,346.28h2.62v-3.19h-2.62v3.19ZM582.37,346.28h2.62v-3.19h-2.62v3.19ZM587.73,366.9v-17.34h-2.72v10.66c0,2.75-1.78,4.83-4.53,4.83-2.45,0-3.89-1.31-3.89-3.55v-11.94h-2.72v12.01c0,3.59,2.28,5.73,5.84,5.73,2.52,0,3.99-1.11,5.23-2.78h.07v2.38h2.72ZM563.02,351.78h2.38v15.12h2.72v-15.12h3.22v-2.21h-3.22v-2.65c0-1.41.64-1.84,2.38-1.84.27,0,.4,0,.87.03v-2.31c-.37-.03-.8-.07-1.37-.07-2.88,0-4.6,1.07-4.6,4.06v2.78h-2.38v2.21ZM549.34,367.41c3.99,0,6.84-1.78,6.84-5.27,0-3.99-2.92-4.76-6.41-5.47-2.98-.6-4.66-.97-4.66-2.85,0-1.37,1.01-2.48,3.49-2.48s3.82,1.01,4.09,3.29h2.78c-.4-3.39-2.52-5.43-6.81-5.43-4.02,0-6.24,1.88-6.24,4.76,0,3.79,3.05,4.49,6.47,5.2,3.19.67,4.53,1.17,4.53,3.12,0,1.61-1.17,2.85-4.02,2.85-2.58,0-4.59-.84-4.96-3.86h-2.78c.27,3.89,2.92,6.14,7.68,6.14M531.7,365.09c-3.69,0-5.6-3.02-5.6-6.84s1.91-6.87,5.6-6.87,5.57,3.05,5.57,6.87-1.88,6.84-5.57,6.84M531.7,367.37c5.2,0,8.35-4.09,8.35-9.12s-3.15-9.12-8.35-9.12-8.38,4.09-8.38,9.12,3.22,9.12,8.38,9.12M517.78,366.9h2.72v-23.98h-2.72v23.98ZM508.22,367.41c3.99,0,6.84-1.78,6.84-5.27,0-3.99-2.92-4.76-6.41-5.47-2.98-.6-4.66-.97-4.66-2.85,0-1.37,1.01-2.48,3.49-2.48s3.82,1.01,4.09,3.29h2.78c-.4-3.39-2.52-5.43-6.81-5.43-4.02,0-6.24,1.88-6.24,4.76,0,3.79,3.05,4.49,6.47,5.2,3.19.67,4.53,1.17,4.53,3.12,0,1.61-1.17,2.85-4.02,2.85-2.58,0-4.59-.84-4.96-3.86h-2.78c.27,3.89,2.92,6.14,7.68,6.14M490.18,364.02c-3.22,0-4.93-2.48-4.93-6.27s1.64-6.3,4.9-6.3c3.69,0,5.3,2.35,5.3,6.14s-1.27,6.44-5.27,6.44M490.35,372.67c4.59,0,7.61-2.15,7.61-6.71v-16.4h-2.72v2.21h-.07c-1.17-1.64-2.78-2.62-5.3-2.62-4.02,0-7.41,3.15-7.41,8.55,0,5,3.09,8.59,7.58,8.59,2.48,0,3.86-1.04,5.13-2.68h.07v2.45c0,3.02-1.78,4.46-4.96,4.46-2.68,0-4.49-.74-4.76-2.65h-2.52c.3,2.98,2.85,4.8,7.34,4.8M468.45,349.56h-2.72v17.34h2.72v-10.66c0-2.85,2.01-4.8,4.76-4.8,2.45,0,3.92,1.27,3.92,3.52v11.94h2.72v-12.17c0-3.59-2.21-5.57-5.84-5.57-2.52,0-4.26,1.04-5.5,2.68h-.07v-2.28ZM462.05,366.9v-17.34h-2.72v10.66c0,2.75-1.78,4.83-4.53,4.83-2.45,0-3.89-1.31-3.89-3.55v-11.94h-2.72v12.01c0,3.59,2.28,5.73,5.84,5.73,2.52,0,3.99-1.11,5.23-2.78h.07v2.38h2.72ZM437.9,365.12c-3.69,0-5.5-2.92-5.5-6.81s1.74-6.84,5.53-6.84c3.29,0,4.86,2.95,4.86,6.84s-1.58,6.81-4.9,6.81M438.1,367.41c4.69,0,7.48-3.55,7.48-9.12s-2.98-9.12-7.38-9.12c-2.52,0-4.26,1.11-5.57,2.88h-.07v-9.12h-2.72v23.98h2.72v-2.28h.07c1.41,1.95,3.12,2.78,5.47,2.78M423.45,346.28h2.72v-3.35h-2.72v3.35ZM423.45,366.9h2.72v-17.34h-2.72v17.34ZM412.82,351.27c3.12,0,4.9,2.11,5.06,5.57h-10.43c.4-3.15,2.15-5.57,5.37-5.57M412.98,367.37c3.92,0,6.64-2.11,7.44-5.84h-2.65c-.6,2.35-2.28,3.55-4.8,3.55-3.49,0-5.4-2.68-5.6-6.2h13.41c0-5.73-2.78-9.76-7.98-9.76-4.93,0-8.22,4.09-8.22,9.12s3.09,9.12,8.38,9.12M387.23,345.54h7.28c3.52,0,4.86,1.48,4.86,4.39,0,2.72-1.68,4.39-5.03,4.39h-7.11v-8.79ZM384.21,366.9h3.02v-10.13h6.67c3.22,0,4.63,1.24,4.86,4.76.27,4.02.37,4.93.87,5.37h3.25v-.13c-.44-.3-.84-1.27-1.11-5.13-.23-3.55-1.01-5.23-3.45-6.1v-.1c2.88-.94,4.16-3.02,4.16-5.94,0-3.92-2.85-6.57-7.08-6.57h-11.2v23.98Z"/>
    </g>
    <rect class="cls-13" y="1563.82" width="1170" height="968.18"/>
    <g>
      <path class="cls-5" d="M76.38,1637.73h6.52v12.6h12.64v-12.6h6.52v32.17h-6.52v-14.17h-12.64v14.17h-6.52v-32.17Z"/>
      <path class="cls-5" d="M120.35,1667.34h-.09c-1.17,1.75-2.83,3.1-6.79,3.1-4.72,0-8.05-2.47-8.05-7.06,0-5.08,4.14-6.71,9.27-7.42,3.83-.54,5.58-.86,5.58-2.61s-1.3-2.75-3.87-2.75c-2.88,0-4.27,1.04-4.45,3.24h-5.45c.18-4.05,3.2-7.6,9.94-7.6s9.72,3.1,9.72,8.5v11.74c0,1.75.27,2.79.81,3.2v.22h-5.9c-.36-.45-.58-1.53-.72-2.56ZM120.39,1661.76v-3.46c-1.08.63-2.75.99-4.27,1.35-3.2.72-4.77,1.44-4.77,3.6s1.44,2.93,3.6,2.93c3.51,0,5.44-2.16,5.44-4.41Z"/>
      <path class="cls-5" d="M128.58,1662.43h5.67c.4,2.66,2.29,3.83,5.04,3.83s4.23-1.04,4.23-2.66c0-2.21-2.92-2.43-6.08-3.06-4.14-.81-8.19-1.94-8.19-6.97s4.14-7.38,9.4-7.38c6.08,0,9.45,3.01,9.9,7.65h-5.53c-.27-2.47-1.84-3.38-4.46-3.38-2.38,0-3.96.9-3.96,2.57,0,1.98,3.06,2.16,6.34,2.83,3.87.81,8.14,1.89,8.14,7.29,0,4.63-3.96,7.42-9.72,7.42-6.7,0-10.44-3.24-10.8-8.14Z"/>
      <path class="cls-5" d="M150.04,1646.82h3.2v-7.2h5.98v7.2h3.96v4.05h-3.96v12.24c0,1.71.95,2.29,2.29,2.29.77,0,1.8-.04,1.8-.04v4.5s-1.39.09-3.82.09c-2.97,0-6.25-1.17-6.25-5.54v-13.54h-3.2v-4.05Z"/>
      <path class="cls-5" d="M172.77,1658.38c0-7.2,4.09-12.19,9.85-12.19,3.24,0,5.26,1.48,6.53,3.42h.13v-11.88h6.12v32.17h-5.9v-3.01h-.09c-1.35,2.21-3.64,3.69-6.88,3.69-5.8,0-9.76-4.72-9.76-12.19ZM189.42,1658.52c0-4.41-1.44-7.38-5.35-7.38-3.38,0-5.08,2.97-5.08,7.25s1.75,7.06,4.91,7.06c3.64,0,5.53-2.7,5.53-6.93Z"/>
      <path class="cls-5" d="M213.94,1669.9v-2.7h-.13c-1.57,2.12-3.38,3.33-6.61,3.33-5.13,0-8.01-3.29-8.01-8.32v-15.39h6.07v14.35c0,2.7,1.22,4.18,3.83,4.18,2.88,0,4.63-2.16,4.63-5.22v-13.32h6.12v23.08h-5.9Z"/>
      <path class="cls-5" d="M230.59,1664.99l17.55-21.69v-.13h-16.42v-5.45h24.16v5.45l-16.96,21.06v.13h17.28v5.54h-25.6v-4.91Z"/>
      <path class="cls-5" d="M257.5,1658.34c0-6.84,4.63-12.15,11.38-12.15,7.42,0,11.38,5.67,11.38,13.9h-16.74c.45,3.55,2.43,5.76,5.89,5.76,2.39,0,3.78-1.08,4.46-2.83h6.03c-.86,4.09-4.5,7.56-10.44,7.56-7.65,0-11.97-5.35-11.97-12.24ZM263.62,1655.86h10.26c-.18-2.92-2.12-4.95-4.9-4.95-3.24,0-4.82,1.93-5.36,4.95Z"/>
      <path class="cls-5" d="M283.11,1637.73h6.12v5.49h-6.12v-5.49ZM283.11,1646.82h6.12v23.08h-6.12v-23.08Z"/>
      <path class="cls-5" d="M291.84,1646.82h3.2v-7.2h5.98v7.2h3.96v4.05h-3.96v12.24c0,1.71.95,2.29,2.29,2.29.77,0,1.8-.04,1.8-.04v4.5s-1.39.09-3.82.09c-2.97,0-6.25-1.17-6.25-5.54v-13.54h-3.2v-4.05Z"/>
      <path class="cls-5" d="M314.92,1665.22l11.88-13.45v-.14h-10.53v-4.81h17.64v4.9l-11.61,13.14v.13h12.19v4.91h-19.57v-4.68Z"/>
      <path class="cls-5" d="M352.09,1669.9v-2.7h-.13c-1.57,2.12-3.38,3.33-6.61,3.33-5.13,0-8.01-3.29-8.01-8.32v-15.39h6.07v14.35c0,2.7,1.22,4.18,3.83,4.18,2.88,0,4.63-2.16,4.63-5.22v-13.32h6.12v23.08h-5.9Z"/>
      <path class="cls-5" d="M367.71,1646.82h6.08l2.79,10.71c.5,1.89,1.04,4.32,1.04,4.32h.09s.5-2.47.99-4.37l2.88-10.66h5.22l3.01,10.66c.5,1.94,1.08,4.37,1.08,4.37h.09s.54-2.43,1.04-4.32l2.92-10.71h5.94l-6.88,23.08h-5.58l-3.06-11.34c-.5-1.84-1.04-4-1.04-4h-.09s-.58,2.16-1.08,4l-3.15,11.34h-5.53l-6.75-23.08Z"/>
      <path class="cls-5" d="M416.17,1667.34h-.09c-1.17,1.75-2.83,3.1-6.79,3.1-4.72,0-8.05-2.47-8.05-7.06,0-5.08,4.14-6.71,9.27-7.42,3.83-.54,5.58-.86,5.58-2.61s-1.3-2.75-3.87-2.75c-2.88,0-4.27,1.04-4.45,3.24h-5.45c.18-4.05,3.2-7.6,9.94-7.6s9.72,3.1,9.72,8.5v11.74c0,1.75.27,2.79.81,3.2v.22h-5.9c-.36-.45-.58-1.53-.72-2.56ZM416.22,1661.76v-3.46c-1.08.63-2.75.99-4.27,1.35-3.2.72-4.77,1.44-4.77,3.6s1.44,2.93,3.6,2.93c3.51,0,5.44-2.16,5.44-4.41Z"/>
      <path class="cls-5" d="M431.74,1650.51h.14c1.39-2.61,2.97-3.96,5.67-3.96.68,0,1.08.05,1.44.18v5.35h-.13c-4-.41-6.88,1.71-6.88,6.57v11.25h-6.12v-23.08h5.89v3.69Z"/>
      <path class="cls-5" d="M440.52,1646.82h3.19v-7.2h5.99v7.2h3.96v4.05h-3.96v12.24c0,1.71.94,2.29,2.29,2.29.76,0,1.8-.04,1.8-.04v4.5s-1.4.09-3.83.09c-2.97,0-6.25-1.17-6.25-5.54v-13.54h-3.19v-4.05Z"/>
      <path class="cls-5" d="M455.46,1658.34c0-6.84,4.63-12.15,11.38-12.15,7.42,0,11.38,5.67,11.38,13.9h-16.74c.45,3.55,2.43,5.76,5.89,5.76,2.38,0,3.78-1.08,4.46-2.83h6.03c-.85,4.09-4.5,7.56-10.44,7.56-7.65,0-11.97-5.35-11.97-12.24ZM461.58,1655.86h10.26c-.18-2.92-2.12-4.95-4.91-4.95-3.24,0-4.81,1.93-5.35,4.95Z"/>
      <path class="cls-5" d="M487.05,1649.97h.13c1.58-2.47,3.69-3.78,6.84-3.78,4.77,0,7.96,3.6,7.96,8.64v15.07h-6.12v-14.17c0-2.47-1.44-4.23-4-4.23-2.7,0-4.68,2.16-4.68,5.31v13.09h-6.12v-23.08h5.99v3.15Z"/>
      <path class="cls-5" d="M516.47,1651.95c1.94-1.4,3.65-2.47,3.65-5.22s-2.03-4.41-4.77-4.41c-3.33,0-5.58,2.12-5.62,5.62h-5.8c.13-5.99,4.05-10.8,11.38-10.8,6.88,0,10.93,4.09,10.93,9.4,0,4.46-2.34,6.25-4.27,7.74-3.38,2.56-4.68,3.01-4.68,6.21h-5.49c0-5.26,1.94-6.57,4.68-8.55ZM511.25,1663.38h6.57v6.52h-6.57v-6.52Z"/>
      <path class="cls-11" d="M76.92,1704.73h21.82v3.55h-17.77v10.04h14.8v3.42h-14.8v15.16h-4.05v-32.17Z"/>
      <path class="cls-11" d="M104.46,1717.51h.09c1.39-2.25,3.83-4.14,6.93-4.14.67,0,1.04.09,1.49.27v3.51h-.14c-.54-.18-.9-.23-1.62-.23-3.6,0-6.75,2.7-6.75,7.07v12.91h-3.64v-23.26h3.64v3.87Z"/>
      <path class="cls-11" d="M129.62,1733.66h-.04c-1.39,1.8-3.78,3.69-7.74,3.69-4.41,0-7.88-2.07-7.88-6.48,0-5.49,4.32-6.62,10.12-7.52,3.28-.49,5.58-.81,5.58-3.33s-1.89-4.09-5.22-4.09c-3.78,0-5.67,1.62-5.8,5.13h-3.51c.13-4.5,3.11-7.88,9.27-7.88,4.95,0,8.59,1.84,8.59,7.38v11.07c0,1.89.45,2.92,2.47,2.47h.14v2.66c-.45.18-1.04.36-1.98.36-2.38,0-3.64-1.08-4-3.46ZM129.7,1728.31v-3.96c-1.21.77-3.33,1.35-5.31,1.71-3.64.67-6.57,1.3-6.57,4.72,0,3.11,2.43,3.78,4.81,3.78,4.86,0,7.06-3.55,7.06-6.25Z"/>
      <path class="cls-11" d="M153.11,1736.9v-3.2h-.09c-1.67,2.25-3.65,3.74-7.02,3.74-4.77,0-7.83-2.88-7.83-7.69v-16.11h3.64v16.02c0,3.02,1.93,4.77,5.22,4.77,3.69,0,6.08-2.79,6.08-6.48v-14.31h3.64v23.26h-3.64Z"/>
      <path class="cls-11" d="M160.4,1725.29c0-6.75,4.41-12.24,11.02-12.24,6.97,0,10.71,5.4,10.71,13.09h-18c.27,4.73,2.83,8.33,7.51,8.33,3.38,0,5.62-1.62,6.43-4.77h3.56c-1.08,5-4.73,7.83-9.99,7.83-7.11,0-11.25-5.49-11.25-12.24ZM164.22,1723.4h14c-.23-4.63-2.61-7.47-6.79-7.47s-6.66,3.24-7.2,7.47Z"/>
      <path class="cls-11" d="M189.33,1716.7h.09c1.66-2.21,4-3.6,7.38-3.6,4.86,0,7.83,2.65,7.83,7.47v16.33h-3.64v-16.02c0-3.01-1.98-4.72-5.27-4.72-3.69,0-6.39,2.61-6.39,6.43v14.31h-3.64v-23.26h3.64v3.06Z"/>
      <path class="cls-11" d="M220.33,1733.84h-.09v3.06h-3.64v-32.17h3.64v12.24h.09c1.75-2.38,4.09-3.87,7.47-3.87,5.89,0,9.9,4.5,9.9,12.24s-3.73,12.24-10.03,12.24c-3.15,0-5.45-1.12-7.33-3.73ZM233.97,1725.38c0-5.22-2.12-9.18-6.53-9.18-5.08,0-7.42,4.14-7.42,9.18s2.43,9.13,7.38,9.13c4.46,0,6.57-3.87,6.57-9.13Z"/>
      <path class="cls-11" d="M244.99,1717.51h.09c1.39-2.25,3.82-4.14,6.93-4.14.67,0,1.03.09,1.48.27v3.51h-.13c-.54-.18-.9-.23-1.62-.23-3.6,0-6.75,2.7-6.75,7.07v12.91h-3.64v-23.26h3.64v3.87Z"/>
      <path class="cls-11" d="M270.15,1733.66h-.04c-1.4,1.8-3.78,3.69-7.74,3.69-4.41,0-7.87-2.07-7.87-6.48,0-5.49,4.32-6.62,10.12-7.52,3.29-.49,5.58-.81,5.58-3.33s-1.89-4.09-5.22-4.09c-3.78,0-5.67,1.62-5.8,5.13h-3.51c.13-4.5,3.1-7.88,9.27-7.88,4.95,0,8.59,1.84,8.59,7.38v11.07c0,1.89.45,2.92,2.47,2.47h.13v2.66c-.45.18-1.04.36-1.98.36-2.38,0-3.65-1.08-4-3.46ZM270.24,1728.31v-3.96c-1.21.77-3.33,1.35-5.31,1.71-3.65.67-6.57,1.3-6.57,4.72,0,3.11,2.43,3.78,4.82,3.78,4.86,0,7.06-3.55,7.06-6.25Z"/>
      <path class="cls-11" d="M293.64,1736.9v-3.2h-.09c-1.67,2.25-3.64,3.74-7.02,3.74-4.77,0-7.83-2.88-7.83-7.69v-16.11h3.65v16.02c0,3.02,1.93,4.77,5.22,4.77,3.69,0,6.07-2.79,6.07-6.48v-14.31h3.65v23.26h-3.65Z"/>
      <path class="cls-11" d="M300.93,1725.29c0-6.75,4.32-12.24,11.25-12.24,5.49,0,9.13,3.15,9.94,8.1h-3.69c-.54-3.15-2.75-5.08-6.25-5.08-4.95,0-7.51,4.09-7.51,9.22s2.56,9.18,7.51,9.18c3.78,0,6.03-2.16,6.34-5.76h3.6c-.5,5.58-4.14,8.82-9.94,8.82-6.93,0-11.25-5.49-11.25-12.24Z"/>
      <path class="cls-11" d="M329.23,1716.7h.09c1.66-2.21,4-3.6,7.38-3.6,4.86,0,7.83,2.65,7.83,7.47v16.33h-3.64v-16.02c0-3.01-1.98-4.72-5.27-4.72-3.69,0-6.39,2.61-6.39,6.43v14.31h-3.64v-32.17h3.64v11.97Z"/>
      <path class="cls-11" d="M348.04,1725.29c0-6.75,4.41-12.24,11.02-12.24,6.97,0,10.71,5.4,10.71,13.09h-18c.27,4.73,2.83,8.33,7.51,8.33,3.38,0,5.62-1.62,6.43-4.77h3.56c-1.08,5-4.73,7.83-9.99,7.83-7.11,0-11.25-5.49-11.25-12.24ZM351.87,1723.4h14c-.23-4.63-2.61-7.47-6.79-7.47s-6.66,3.24-7.2,7.47Z"/>
      <path class="cls-11" d="M376.98,1716.7h.09c1.66-2.21,4-3.6,7.38-3.6,4.86,0,7.83,2.65,7.83,7.47v16.33h-3.64v-16.02c0-3.01-1.98-4.72-5.27-4.72-3.69,0-6.39,2.61-6.39,6.43v14.31h-3.64v-23.26h3.64v3.06Z"/>
      <path class="cls-11" d="M407.98,1733.84h-.09v3.06h-3.64v-32.17h3.64v12.24h.09c1.75-2.38,4.09-3.87,7.47-3.87,5.89,0,9.9,4.5,9.9,12.24s-3.73,12.24-10.03,12.24c-3.15,0-5.45-1.12-7.33-3.73ZM421.62,1725.38c0-5.22-2.12-9.18-6.53-9.18-5.08,0-7.42,4.14-7.42,9.18s2.43,9.13,7.38,9.13c4.46,0,6.57-3.87,6.57-9.13Z"/>
      <path class="cls-11" d="M429,1704.73h3.64v4.5h-3.64v-4.5ZM429,1713.64h3.64v23.26h-3.64v-23.26Z"/>
      <path class="cls-11" d="M436.11,1729.34h3.74c.5,4.05,3.19,5.17,6.66,5.17,3.82,0,5.4-1.67,5.4-3.83,0-2.61-1.8-3.28-6.08-4.18-4.59-.95-8.68-1.89-8.68-6.97,0-3.87,2.97-6.39,8.37-6.39,5.76,0,8.59,2.75,9.13,7.29h-3.74c-.36-3.06-2.02-4.41-5.49-4.41s-4.68,1.48-4.68,3.33c0,2.52,2.25,3.01,6.25,3.82,4.68.95,8.59,1.98,8.59,7.33,0,4.68-3.82,7.06-9.18,7.06-6.39,0-9.94-3.01-10.3-8.23Z"/>
      <path class="cls-11" d="M465.31,1734.02l12.96-17.05v-.13h-12.19v-3.19h17.28v2.16l-13.36,17.64v.13h13.86v3.33h-18.54v-2.88Z"/>
      <path class="cls-11" d="M502.25,1736.9v-3.2h-.09c-1.67,2.25-3.65,3.74-7.02,3.74-4.77,0-7.83-2.88-7.83-7.69v-16.11h3.64v16.02c0,3.02,1.93,4.77,5.22,4.77,3.69,0,6.08-2.79,6.08-6.48v-14.31h3.64v23.26h-3.64Z"/>
      <path class="cls-11" d="M528.49,1722.55c4.05-2.34,6.52-3.92,6.52-7.65s-2.61-6.34-6.71-6.34c-2.16,0-3.78.72-4.9,1.93-1.21,1.3-1.75,3.01-1.75,6.17h-3.96c0-3.96,1.04-6.48,2.92-8.37,1.98-1.93,4.86-2.88,8.01-2.88,6.25,0,10.3,3.96,10.3,9.45,0,5.94-4.05,7.92-9,10.66-3.33,1.84-7.6,4.37-8.46,7.79h16.83v3.6h-21.37c.36-8.23,6.16-11.25,11.56-14.35Z"/>
      <path class="cls-11" d="M542.57,1740.63c.99-.36,2.03-1.21,2.03-3.73h-2.07v-4.46h4.37v4.59c0,3.29-1.75,5.13-4.32,5.62v-2.03Z"/>
      <path class="cls-11" d="M549.68,1726.73h3.73c.13,4.95,3.33,7.7,8.42,7.7,4.27,0,7.29-2.12,7.29-6.48,0-3.91-2.92-5.98-8.1-5.98h-1.93v-2.92h1.89c4.82,0,7.25-2.03,7.25-5.31s-3.01-5.4-6.71-5.4c-4.46,0-7.11,2.88-7.11,7.16h-3.69c.05-6.08,4.14-10.12,10.93-10.12,5.71,0,10.26,3.11,10.26,8.46,0,3.46-2.11,5.49-5.08,6.48v.13c4.32,1.12,6.21,3.87,6.21,7.88,0,5.89-4.81,9.27-11.07,9.27-6.79,0-12.15-3.82-12.28-10.84Z"/>
      <path class="cls-11" d="M576.19,1722.82h12.06v3.33h-12.06v-3.33Z"/>
      <path class="cls-11" d="M592.43,1713.64h3.65v3.33h.09c1.44-2.25,3.92-3.87,6.84-3.87s5.08,1.44,6.07,4.14h.09c1.49-2.66,4.28-4.14,7.11-4.14,4.14,0,7.06,2.65,7.06,7.47v16.33h-3.64v-16.15c0-2.88-1.94-4.59-4.28-4.59-3.01,0-5.71,2.61-5.71,6.25v14.49h-3.64v-16.15c0-2.88-1.62-4.59-4-4.59-2.83,0-5.98,2.61-5.98,6.25v14.49h-3.65v-23.26Z"/>
      <path class="cls-11" d="M642.43,1733.66h-.04c-1.39,1.8-3.78,3.69-7.74,3.69-4.41,0-7.88-2.07-7.88-6.48,0-5.49,4.32-6.62,10.12-7.52,3.29-.49,5.58-.81,5.58-3.33s-1.89-4.09-5.22-4.09c-3.78,0-5.67,1.62-5.8,5.13h-3.51c.13-4.5,3.1-7.88,9.27-7.88,4.95,0,8.59,1.84,8.59,7.38v11.07c0,1.89.45,2.92,2.47,2.47h.13v2.66c-.45.18-1.03.36-1.98.36-2.38,0-3.64-1.08-4-3.46ZM642.52,1728.31v-3.96c-1.21.77-3.33,1.35-5.31,1.71-3.64.67-6.57,1.3-6.57,4.72,0,3.11,2.43,3.78,4.81,3.78,4.86,0,7.06-3.55,7.06-6.25Z"/>
      <path class="cls-11" d="M651.25,1704.73h3.64v32.17h-3.64v-32.17Z"/>
      <path class="cls-11" d="M667.27,1704.73h3.64v32.17h-3.64v-32.17Z"/>
      <path class="cls-11" d="M690.26,1733.66h-.04c-1.39,1.8-3.78,3.69-7.74,3.69-4.41,0-7.88-2.07-7.88-6.48,0-5.49,4.32-6.62,10.12-7.52,3.29-.49,5.58-.81,5.58-3.33s-1.89-4.09-5.22-4.09c-3.78,0-5.67,1.62-5.8,5.13h-3.51c.13-4.5,3.1-7.88,9.27-7.88,4.95,0,8.59,1.84,8.59,7.38v11.07c0,1.89.45,2.92,2.47,2.47h.13v2.66c-.45.18-1.03.36-1.98.36-2.38,0-3.64-1.08-4-3.46ZM690.35,1728.31v-3.96c-1.21.77-3.33,1.35-5.31,1.71-3.64.67-6.57,1.3-6.57,4.72,0,3.11,2.43,3.78,4.81,3.78,4.86,0,7.06-3.55,7.06-6.25ZM679.6,1704.95h3.51v4.27h-3.51v-4.27ZM686.98,1704.95h3.51v4.27h-3.51v-4.27Z"/>
      <path class="cls-11" d="M702.59,1716.7h.09c1.67-2.21,4-3.6,7.38-3.6,4.86,0,7.83,2.65,7.83,7.47v16.33h-3.64v-16.02c0-3.01-1.98-4.72-5.26-4.72-3.69,0-6.39,2.61-6.39,6.43v14.31h-3.65v-23.26h3.65v3.06Z"/>
      <path class="cls-11" d="M722.12,1738.2h3.38c.36,2.57,2.79,3.55,6.39,3.55,4.28,0,6.66-1.93,6.66-5.98v-3.29h-.09c-1.71,2.21-3.56,3.6-6.88,3.6-6.03,0-10.17-4.82-10.17-11.52,0-7.25,4.54-11.47,9.94-11.47,3.38,0,5.54,1.3,7.11,3.51h.09v-2.97h3.64v22c0,6.12-4.05,9-10.21,9s-9.45-2.43-9.85-6.43ZM738.82,1724.39c0-5.08-2.16-8.23-7.11-8.23-4.37,0-6.57,3.42-6.57,8.46s2.29,8.41,6.61,8.41c5.35,0,7.06-3.73,7.06-8.64Z"/>
      <path class="cls-11" d="M745.84,1725.29c0-6.75,4.41-12.24,11.02-12.24,6.97,0,10.71,5.4,10.71,13.09h-18c.27,4.73,2.83,8.33,7.51,8.33,3.37,0,5.62-1.62,6.43-4.77h3.55c-1.08,5-4.72,7.83-9.99,7.83-7.11,0-11.25-5.49-11.25-12.24ZM749.66,1723.4h13.99c-.22-4.63-2.61-7.47-6.79-7.47s-6.66,3.24-7.2,7.47Z"/>
      <path class="cls-11" d="M774.77,1717.51h.09c1.39-2.25,3.82-4.14,6.93-4.14.67,0,1.04.09,1.48.27v3.51h-.13c-.54-.18-.9-.23-1.62-.23-3.6,0-6.75,2.7-6.75,7.07v12.91h-3.65v-23.26h3.65v3.87Z"/>
      <path class="cls-11" d="M807.98,1733.66h-.04c-1.39,1.8-3.78,3.69-7.74,3.69-4.41,0-7.88-2.07-7.88-6.48,0-5.49,4.32-6.62,10.12-7.52,3.29-.49,5.58-.81,5.58-3.33s-1.89-4.09-5.22-4.09c-3.78,0-5.67,1.62-5.8,5.13h-3.51c.13-4.5,3.1-7.88,9.27-7.88,4.95,0,8.59,1.84,8.59,7.38v11.07c0,1.89.45,2.92,2.47,2.47h.13v2.66c-.45.18-1.03.36-1.98.36-2.38,0-3.64-1.08-4-3.46ZM808.07,1728.31v-3.96c-1.21.77-3.33,1.35-5.31,1.71-3.64.67-6.57,1.3-6.57,4.72,0,3.11,2.43,3.78,4.81,3.78,4.86,0,7.06-3.55,7.06-6.25Z"/>
      <path class="cls-11" d="M831.47,1736.9v-3.2h-.09c-1.67,2.25-3.64,3.74-7.02,3.74-4.77,0-7.83-2.88-7.83-7.69v-16.11h3.64v16.02c0,3.02,1.94,4.77,5.22,4.77,3.69,0,6.08-2.79,6.08-6.48v-14.31h3.64v23.26h-3.64Z"/>
      <path class="cls-11" d="M838.58,1713.64h3.19v-3.74c0-4,2.29-5.44,6.17-5.44.76,0,1.35.04,1.84.09v3.1c-.63-.04-.81-.04-1.17-.04-2.34,0-3.19.58-3.19,2.47v3.56h4.32v2.97h-4.32v20.29h-3.65v-20.29h-3.19v-2.97Z"/>
      <path class="cls-11" d="M859.15,1725.34c0-7.74,4.46-12.24,10.21-12.24,3.28,0,5.8,1.62,7.29,3.82h.09v-12.19h3.64v32.17h-3.64v-2.83h-.09c-1.75,2.25-3.91,3.51-7.2,3.51-6.34,0-10.3-4.77-10.3-12.24ZM876.96,1725.38c0-5.4-2.61-9.18-7.42-9.18-4.41,0-6.66,3.96-6.66,9.18s2.25,9.13,6.7,9.13c5.17,0,7.38-3.87,7.38-9.13Z"/>
      <path class="cls-11" d="M884.03,1725.29c0-6.75,4.41-12.24,11.02-12.24,6.97,0,10.71,5.4,10.71,13.09h-18c.27,4.73,2.83,8.33,7.51,8.33,3.37,0,5.62-1.62,6.43-4.77h3.55c-1.08,5-4.72,7.83-9.99,7.83-7.11,0-11.25-5.49-11.25-12.24ZM887.86,1723.4h13.99c-.22-4.63-2.61-7.47-6.79-7.47s-6.66,3.24-7.2,7.47Z"/>
      <path class="cls-11" d="M912.96,1717.51h.09c1.39-2.25,3.82-4.14,6.93-4.14.67,0,1.04.09,1.48.27v3.51h-.13c-.54-.18-.9-.23-1.62-.23-3.6,0-6.75,2.7-6.75,7.07v12.91h-3.65v-23.26h3.65v3.87Z"/>
      <path class="cls-11" d="M930.42,1704.73h25.47v3.55h-10.71v28.62h-4.05v-28.62h-10.71v-3.55Z"/>
      <path class="cls-11" d="M953.1,1725.29c0-6.75,4.32-12.24,11.25-12.24s11.2,5.49,11.2,12.24-4.23,12.24-11.2,12.24-11.25-5.49-11.25-12.24ZM971.82,1725.29c0-5.13-2.52-9.22-7.47-9.22s-7.51,4.09-7.51,9.22,2.56,9.18,7.51,9.18,7.47-4.05,7.47-9.18Z"/>
      <path class="cls-11" d="M979.2,1704.73h3.65v4.5h-3.65v-4.5ZM979.2,1713.64h3.65v23.26h-3.65v-23.26Z"/>
      <path class="cls-11" d="M987.93,1704.73h3.64v32.17h-3.64v-32.17Z"/>
      <path class="cls-11" d="M995.36,1725.29c0-6.75,4.41-12.24,11.02-12.24,6.97,0,10.71,5.4,10.71,13.09h-18c.27,4.73,2.83,8.33,7.51,8.33,3.37,0,5.62-1.62,6.43-4.77h3.55c-1.08,5-4.72,7.83-9.99,7.83-7.11,0-11.25-5.49-11.25-12.24ZM999.18,1723.4h13.99c-.22-4.63-2.61-7.47-6.79-7.47s-6.66,3.24-7.2,7.47Z"/>
      <path class="cls-11" d="M1018.71,1713.64h3.38v-7.33h3.64v7.33h4.5v2.97h-4.5v15.12c0,1.62.85,2.16,2.34,2.16.72,0,1.53-.18,1.93-.32h.14v3.15c-.86.18-1.85.31-2.93.31-2.97,0-5.13-1.21-5.13-4.5v-15.93h-3.38v-2.97Z"/>
      <path class="cls-11" d="M1031.85,1713.64h3.38v-7.33h3.64v7.33h4.5v2.97h-4.5v15.12c0,1.62.85,2.16,2.34,2.16.72,0,1.53-.18,1.93-.32h.14v3.15c-.86.18-1.85.31-2.93.31-2.97,0-5.13-1.21-5.13-4.5v-15.93h-3.38v-2.97Z"/>
      <path class="cls-11" d="M1045.62,1725.29c0-6.75,4.41-12.24,11.02-12.24,6.97,0,10.71,5.4,10.71,13.09h-18c.27,4.73,2.83,8.33,7.51,8.33,3.37,0,5.62-1.62,6.43-4.77h3.55c-1.08,5-4.72,7.83-9.99,7.83-7.11,0-11.25-5.49-11.25-12.24ZM1049.45,1723.4h13.99c-.22-4.63-2.61-7.47-6.79-7.47s-6.66,3.24-7.2,7.47Z"/>
      <path class="cls-11" d="M1070.01,1740.63c.99-.36,2.02-1.21,2.02-3.73h-2.07v-4.46h4.37v4.59c0,3.29-1.75,5.13-4.32,5.62v-2.03Z"/>
      <path class="cls-11" d="M90.65,1790.66h-.04c-1.39,1.8-3.78,3.69-7.74,3.69-4.41,0-7.88-2.07-7.88-6.48,0-5.49,4.32-6.62,10.12-7.52,3.28-.49,5.58-.81,5.58-3.33s-1.89-4.09-5.22-4.09c-3.78,0-5.67,1.62-5.8,5.13h-3.51c.13-4.5,3.11-7.88,9.27-7.88,4.95,0,8.59,1.84,8.59,7.38v11.07c0,1.89.45,2.92,2.47,2.47h.14v2.66c-.45.18-1.04.36-1.98.36-2.38,0-3.64-1.08-4-3.46ZM90.74,1785.31v-3.96c-1.21.77-3.33,1.35-5.31,1.71-3.64.67-6.57,1.3-6.57,4.72,0,3.11,2.43,3.78,4.81,3.78,4.86,0,7.06-3.55,7.06-6.25Z"/>
      <path class="cls-11" d="M114.14,1793.9v-3.2h-.09c-1.67,2.25-3.65,3.74-7.02,3.74-4.77,0-7.83-2.88-7.83-7.69v-16.11h3.64v16.02c0,3.02,1.93,4.77,5.22,4.77,3.69,0,6.08-2.79,6.08-6.48v-14.31h3.64v23.26h-3.64Z"/>
      <path class="cls-11" d="M121.24,1770.64h3.2v-3.74c0-4,2.29-5.44,6.17-5.44.76,0,1.35.04,1.84.09v3.1c-.63-.04-.81-.04-1.17-.04-2.34,0-3.2.58-3.2,2.47v3.56h4.32v2.97h-4.32v20.29h-3.64v-20.29h-3.2v-2.97Z"/>
      <path class="cls-11" d="M134.48,1795.2h3.38c.36,2.57,2.79,3.55,6.39,3.55,4.27,0,6.66-1.93,6.66-5.98v-3.29h-.09c-1.71,2.21-3.55,3.6-6.88,3.6-6.03,0-10.17-4.82-10.17-11.52,0-7.25,4.54-11.47,9.94-11.47,3.38,0,5.54,1.3,7.11,3.51h.09v-2.97h3.64v22c0,6.12-4.05,9-10.21,9s-9.45-2.43-9.85-6.43ZM151.17,1781.39c0-5.08-2.16-8.23-7.11-8.23-4.37,0-6.57,3.42-6.57,8.46s2.29,8.41,6.62,8.41c5.35,0,7.06-3.73,7.06-8.64Z"/>
      <path class="cls-11" d="M163.14,1774.51h.09c1.39-2.25,3.83-4.14,6.93-4.14.67,0,1.04.09,1.49.27v3.51h-.14c-.54-.18-.9-.23-1.62-.23-3.6,0-6.75,2.7-6.75,7.07v12.91h-3.64v-23.26h3.64v3.87Z"/>
      <path class="cls-11" d="M189.73,1793.9v-3.2h-.09c-1.67,2.25-3.64,3.74-7.02,3.74-4.77,0-7.83-2.88-7.83-7.69v-16.11h3.65v16.02c0,3.02,1.93,4.77,5.22,4.77,3.69,0,6.07-2.79,6.07-6.48v-14.31h3.65v23.26h-3.65Z"/>
      <path class="cls-11" d="M201.97,1773.7h.09c1.67-2.21,4-3.6,7.38-3.6,4.86,0,7.83,2.65,7.83,7.47v16.33h-3.64v-16.02c0-3.01-1.98-4.72-5.26-4.72-3.69,0-6.39,2.61-6.39,6.43v14.31h-3.64v-23.26h3.64v3.06Z"/>
      <path class="cls-11" d="M220.78,1782.34c0-7.74,4.46-12.24,10.21-12.24,3.29,0,5.8,1.62,7.29,3.82h.09v-12.19h3.64v32.17h-3.64v-2.83h-.09c-1.75,2.25-3.92,3.51-7.2,3.51-6.34,0-10.3-4.77-10.3-12.24ZM238.6,1782.38c0-5.4-2.61-9.18-7.42-9.18-4.41,0-6.66,3.96-6.66,9.18s2.25,9.13,6.7,9.13c5.17,0,7.38-3.87,7.38-9.13Z"/>
      <path class="cls-11" d="M251.74,1770.64h3.92l4.81,14.76c.67,2.07,1.53,4.91,1.53,4.91h.09s.85-2.88,1.53-4.91l4.9-14.76h3.78l-8.37,23.26h-4.05l-8.14-23.26Z"/>
      <path class="cls-11" d="M273.12,1782.29c0-6.75,4.32-12.24,11.25-12.24s11.2,5.49,11.2,12.24-4.23,12.24-11.2,12.24-11.25-5.49-11.25-12.24ZM291.84,1782.29c0-5.13-2.52-9.22-7.47-9.22s-7.51,4.09-7.51,9.22,2.56,9.18,7.51,9.18,7.47-4.05,7.47-9.18Z"/>
      <path class="cls-11" d="M302.86,1773.7h.09c1.67-2.21,4-3.6,7.38-3.6,4.86,0,7.83,2.65,7.83,7.47v16.33h-3.64v-16.02c0-3.01-1.98-4.72-5.26-4.72-3.69,0-6.39,2.61-6.39,6.43v14.31h-3.64v-23.26h3.64v3.06Z"/>
      <path class="cls-11" d="M330.67,1761.73h5.17l10.44,26.73h.09l10.35-26.73h5.26v32.17h-3.87v-26.46h-.09s-.85,2.52-1.44,4.05l-8.82,22.41h-3.11l-8.82-22.41c-.63-1.62-1.44-4.05-1.44-4.05h-.09v26.46h-3.64v-32.17Z"/>
      <path class="cls-11" d="M366.18,1782.29c0-6.75,4.41-12.24,11.02-12.24,6.97,0,10.71,5.4,10.71,13.09h-18c.27,4.73,2.83,8.33,7.51,8.33,3.38,0,5.62-1.62,6.43-4.77h3.56c-1.08,5-4.73,7.83-9.99,7.83-7.11,0-11.25-5.49-11.25-12.24ZM370,1780.4h14c-.23-4.63-2.61-7.47-6.79-7.47s-6.66,3.24-7.2,7.47Z"/>
      <path class="cls-11" d="M395.11,1773.7h.09c1.66-2.21,4-3.6,7.38-3.6,4.86,0,7.83,2.65,7.83,7.47v16.33h-3.64v-16.02c0-3.01-1.98-4.72-5.27-4.72-3.69,0-6.39,2.61-6.39,6.43v14.31h-3.64v-23.26h3.64v3.06Z"/>
      <path class="cls-11" d="M413.74,1786.34h3.74c.5,4.05,3.19,5.17,6.66,5.17,3.82,0,5.4-1.67,5.4-3.83,0-2.61-1.8-3.28-6.08-4.18-4.59-.95-8.68-1.89-8.68-6.97,0-3.87,2.97-6.39,8.37-6.39,5.76,0,8.59,2.75,9.13,7.29h-3.74c-.36-3.06-2.02-4.41-5.49-4.41s-4.68,1.48-4.68,3.33c0,2.52,2.25,3.01,6.25,3.82,4.68.95,8.59,1.98,8.59,7.33,0,4.68-3.82,7.06-9.18,7.06-6.39,0-9.94-3.01-10.3-8.23Z"/>
      <path class="cls-11" d="M434.8,1770.64h3.38v-7.33h3.64v7.33h4.5v2.97h-4.5v15.12c0,1.62.86,2.16,2.34,2.16.72,0,1.53-.18,1.94-.32h.13v3.15c-.86.18-1.84.31-2.92.31-2.97,0-5.13-1.21-5.13-4.5v-15.93h-3.38v-2.97Z"/>
      <path class="cls-11" d="M453.75,1774.51h.09c1.39-2.25,3.83-4.14,6.93-4.14.67,0,1.04.09,1.49.27v3.51h-.14c-.54-.18-.9-.23-1.62-.23-3.6,0-6.75,2.7-6.75,7.07v12.91h-3.64v-23.26h3.64v3.87Z"/>
      <path class="cls-11" d="M480.34,1793.9v-3.2h-.09c-1.67,2.25-3.64,3.74-7.02,3.74-4.77,0-7.83-2.88-7.83-7.69v-16.11h3.65v16.02c0,3.02,1.93,4.77,5.22,4.77,3.69,0,6.07-2.79,6.07-6.48v-14.31h3.65v23.26h-3.65Z"/>
      <path class="cls-11" d="M503.2,1790.66h-.04c-1.39,1.8-3.78,3.69-7.74,3.69-4.41,0-7.88-2.07-7.88-6.48,0-5.49,4.32-6.62,10.12-7.52,3.28-.49,5.58-.81,5.58-3.33s-1.89-4.09-5.22-4.09c-3.78,0-5.67,1.62-5.8,5.13h-3.51c.13-4.5,3.11-7.88,9.27-7.88,4.95,0,8.59,1.84,8.59,7.38v11.07c0,1.89.45,2.92,2.47,2.47h.14v2.66c-.45.18-1.04.36-1.98.36-2.38,0-3.64-1.08-4-3.46ZM503.29,1785.31v-3.96c-1.21.77-3.33,1.35-5.31,1.71-3.64.67-6.57,1.3-6.57,4.72,0,3.11,2.43,3.78,4.81,3.78,4.86,0,7.06-3.55,7.06-6.25Z"/>
      <path class="cls-11" d="M509.95,1770.64h3.38v-7.33h3.64v7.33h4.5v2.97h-4.5v15.12c0,1.62.86,2.16,2.34,2.16.72,0,1.53-.18,1.94-.32h.13v3.15c-.86.18-1.84.31-2.92.31-2.97,0-5.13-1.21-5.13-4.5v-15.93h-3.38v-2.97Z"/>
      <path class="cls-11" d="M525.25,1761.73h3.64v4.5h-3.64v-4.5ZM525.25,1770.64h3.64v23.26h-3.64v-23.26Z"/>
      <path class="cls-11" d="M532.54,1782.29c0-6.75,4.32-12.24,11.25-12.24s11.2,5.49,11.2,12.24-4.23,12.24-11.2,12.24-11.25-5.49-11.25-12.24ZM551.26,1782.29c0-5.13-2.52-9.22-7.47-9.22s-7.51,4.09-7.51,9.22,2.56,9.18,7.51,9.18,7.47-4.05,7.47-9.18Z"/>
      <path class="cls-11" d="M562.28,1773.7h.09c1.67-2.21,4-3.6,7.38-3.6,4.86,0,7.83,2.65,7.83,7.47v16.33h-3.64v-16.02c0-3.01-1.98-4.72-5.26-4.72-3.69,0-6.39,2.61-6.39,6.43v14.31h-3.64v-23.26h3.64v3.06Z"/>
      <path class="cls-11" d="M581.95,1797.63c.99-.36,2.02-1.21,2.02-3.73h-2.07v-4.46h4.36v4.59c0,3.29-1.75,5.13-4.32,5.62v-2.03Z"/>
      <path class="cls-11" d="M596.39,1783.01h3.96c.54,5.45,3.87,8.28,9.94,8.28,4.46,0,7.65-2.02,7.65-6.03,0-4.41-3.87-5.44-9.63-6.71-5.67-1.26-10.53-2.88-10.53-8.95,0-5.31,4.41-8.5,10.93-8.5,8.05,0,11.38,4.09,12.19,10.03h-3.82c-.58-4.59-3.56-6.88-8.28-6.88-4.36,0-7.24,1.84-7.24,5.17,0,3.65,3.6,4.73,8.41,5.67,6.25,1.26,11.97,2.79,11.97,10.04,0,6.03-4.9,9.4-11.83,9.4-9.04,0-13.37-5.04-13.72-11.52Z"/>
      <path class="cls-11" d="M624.74,1782.29c0-6.75,4.32-12.24,11.25-12.24,5.49,0,9.13,3.15,9.94,8.1h-3.69c-.54-3.15-2.74-5.08-6.25-5.08-4.95,0-7.51,4.09-7.51,9.22s2.56,9.18,7.51,9.18c3.78,0,6.03-2.16,6.34-5.76h3.6c-.5,5.58-4.14,8.82-9.94,8.82-6.93,0-11.25-5.49-11.25-12.24Z"/>
      <path class="cls-11" d="M653.05,1773.7h.09c1.67-2.21,4-3.6,7.38-3.6,4.86,0,7.83,2.65,7.83,7.47v16.33h-3.64v-16.02c0-3.01-1.98-4.72-5.26-4.72-3.69,0-6.39,2.61-6.39,6.43v14.31h-3.65v-32.17h3.65v11.97Z"/>
      <path class="cls-11" d="M670.42,1770.64h3.92l4.09,14.35c.54,1.93,1.26,4.99,1.26,4.99h.09s.67-3.06,1.17-4.9l3.91-14.44h3.83l3.78,14.44c.49,1.89,1.12,4.9,1.12,4.9h.09s.72-3.06,1.3-4.99l4.32-14.35h3.78l-7.6,23.26h-3.74l-3.87-14.08c-.54-1.94-1.12-4.86-1.12-4.86h-.09s-.63,2.92-1.17,4.86l-3.91,14.08h-3.78l-7.38-23.26Z"/>
      <path class="cls-11" d="M719.33,1790.66h-.04c-1.39,1.8-3.78,3.69-7.74,3.69-4.41,0-7.88-2.07-7.88-6.48,0-5.49,4.32-6.62,10.12-7.52,3.29-.49,5.58-.81,5.58-3.33s-1.89-4.09-5.22-4.09c-3.78,0-5.67,1.62-5.8,5.13h-3.51c.13-4.5,3.1-7.88,9.27-7.88,4.95,0,8.59,1.84,8.59,7.38v11.07c0,1.89.45,2.92,2.47,2.47h.13v2.66c-.45.18-1.03.36-1.98.36-2.38,0-3.64-1.08-4-3.46ZM719.42,1785.31v-3.96c-1.21.77-3.33,1.35-5.31,1.71-3.64.67-6.57,1.3-6.57,4.72,0,3.11,2.43,3.78,4.81,3.78,4.86,0,7.06-3.55,7.06-6.25Z"/>
      <path class="cls-11" d="M731.66,1773.7h.09c1.67-2.21,4-3.6,7.38-3.6,4.86,0,7.83,2.65,7.83,7.47v16.33h-3.64v-16.02c0-3.01-1.98-4.72-5.26-4.72-3.69,0-6.39,2.61-6.39,6.43v14.31h-3.65v-23.26h3.65v3.06Z"/>
      <path class="cls-11" d="M751.19,1795.2h3.38c.36,2.57,2.79,3.55,6.39,3.55,4.28,0,6.66-1.93,6.66-5.98v-3.29h-.09c-1.71,2.21-3.56,3.6-6.88,3.6-6.03,0-10.17-4.82-10.17-11.52,0-7.25,4.54-11.47,9.94-11.47,3.38,0,5.54,1.3,7.11,3.51h.09v-2.97h3.64v22c0,6.12-4.05,9-10.21,9s-9.45-2.43-9.85-6.43ZM767.89,1781.39c0-5.08-2.16-8.23-7.11-8.23-4.37,0-6.57,3.42-6.57,8.46s2.29,8.41,6.61,8.41c5.35,0,7.06-3.73,7.06-8.64Z"/>
      <path class="cls-11" d="M774.91,1782.29c0-6.75,4.41-12.24,11.02-12.24,6.97,0,10.71,5.4,10.71,13.09h-18c.27,4.73,2.83,8.33,7.51,8.33,3.37,0,5.62-1.62,6.43-4.77h3.55c-1.08,5-4.72,7.83-9.99,7.83-7.11,0-11.25-5.49-11.25-12.24ZM778.73,1780.4h13.99c-.22-4.63-2.61-7.47-6.79-7.47s-6.66,3.24-7.2,7.47Z"/>
      <path class="cls-11" d="M803.84,1774.51h.09c1.39-2.25,3.82-4.14,6.93-4.14.67,0,1.04.09,1.48.27v3.51h-.13c-.54-.18-.9-.23-1.62-.23-3.6,0-6.75,2.7-6.75,7.07v12.91h-3.65v-23.26h3.65v3.87Z"/>
      <path class="cls-11" d="M814.15,1786.34h3.73c.5,4.05,3.2,5.17,6.66,5.17,3.82,0,5.4-1.67,5.4-3.83,0-2.61-1.8-3.28-6.07-4.18-4.59-.95-8.68-1.89-8.68-6.97,0-3.87,2.97-6.39,8.37-6.39,5.76,0,8.59,2.75,9.13,7.29h-3.74c-.36-3.06-2.02-4.41-5.49-4.41s-4.68,1.48-4.68,3.33c0,2.52,2.25,3.01,6.25,3.82,4.68.95,8.59,1.98,8.59,7.33,0,4.68-3.83,7.06-9.18,7.06-6.39,0-9.95-3.01-10.3-8.23Z"/>
      <path class="cls-11" d="M836.29,1782.29c0-6.75,4.32-12.24,11.25-12.24,5.49,0,9.13,3.15,9.94,8.1h-3.69c-.54-3.15-2.74-5.08-6.25-5.08-4.95,0-7.51,4.09-7.51,9.22s2.56,9.18,7.51,9.18c3.78,0,6.03-2.16,6.34-5.76h3.6c-.5,5.58-4.14,8.82-9.94,8.82-6.93,0-11.25-5.49-11.25-12.24Z"/>
      <path class="cls-11" d="M864.59,1773.7h.09c1.67-2.21,4-3.6,7.38-3.6,4.86,0,7.83,2.65,7.83,7.47v16.33h-3.64v-16.02c0-3.01-1.98-4.72-5.26-4.72-3.69,0-6.39,2.61-6.39,6.43v14.31h-3.65v-32.17h3.65v11.97Z"/>
      <path class="cls-11" d="M898.97,1790.66h-.04c-1.39,1.8-3.78,3.69-7.74,3.69-4.41,0-7.88-2.07-7.88-6.48,0-5.49,4.32-6.62,10.12-7.52,3.29-.49,5.58-.81,5.58-3.33s-1.89-4.09-5.22-4.09c-3.78,0-5.67,1.62-5.8,5.13h-3.51c.13-4.5,3.1-7.88,9.27-7.88,4.95,0,8.59,1.84,8.59,7.38v11.07c0,1.89.45,2.92,2.47,2.47h.13v2.66c-.45.18-1.03.36-1.98.36-2.38,0-3.64-1.08-4-3.46ZM899.06,1785.31v-3.96c-1.21.77-3.33,1.35-5.31,1.71-3.64.67-6.57,1.3-6.57,4.72,0,3.11,2.43,3.78,4.81,3.78,4.86,0,7.06-3.55,7.06-6.25Z"/>
      <path class="cls-11" d="M905.95,1770.64h3.19v-3.74c0-4,2.29-5.44,6.17-5.44.76,0,1.35.04,1.84.09v3.1c-.63-.04-.81-.04-1.17-.04-2.34,0-3.19.58-3.19,2.47v3.56h4.32v2.97h-4.32v20.29h-3.65v-20.29h-3.19v-2.97Z"/>
      <path class="cls-11" d="M918.73,1770.64h3.38v-7.33h3.64v7.33h4.5v2.97h-4.5v15.12c0,1.62.85,2.16,2.34,2.16.72,0,1.53-.18,1.93-.32h.14v3.15c-.86.18-1.85.31-2.93.31-2.97,0-5.13-1.21-5.13-4.5v-15.93h-3.38v-2.97Z"/>
      <path class="cls-11" d="M955.99,1793.9v-3.2h-.09c-1.67,2.25-3.64,3.74-7.02,3.74-4.77,0-7.83-2.88-7.83-7.69v-16.11h3.64v16.02c0,3.02,1.94,4.77,5.22,4.77,3.69,0,6.08-2.79,6.08-6.48v-14.31h3.64v23.26h-3.64Z"/>
      <path class="cls-11" d="M968.23,1773.7h.09c1.67-2.21,4-3.6,7.38-3.6,4.86,0,7.83,2.65,7.83,7.47v16.33h-3.64v-16.02c0-3.01-1.98-4.72-5.26-4.72-3.69,0-6.39,2.61-6.39,6.43v14.31h-3.65v-23.26h3.65v3.06Z"/>
      <path class="cls-11" d="M987.03,1782.34c0-7.74,4.46-12.24,10.21-12.24,3.28,0,5.8,1.62,7.29,3.82h.09v-12.19h3.64v32.17h-3.64v-2.83h-.09c-1.75,2.25-3.91,3.51-7.2,3.51-6.34,0-10.3-4.77-10.3-12.24ZM1004.85,1782.38c0-5.4-2.61-9.18-7.42-9.18-4.41,0-6.66,3.96-6.66,9.18s2.25,9.13,6.7,9.13c5.17,0,7.38-3.87,7.38-9.13Z"/>
      <path class="cls-11" d="M1019.07,1782.34c0-7.74,4.46-12.24,10.21-12.24,3.28,0,5.8,1.62,7.29,3.82h.09v-12.19h3.64v32.17h-3.64v-2.83h-.09c-1.75,2.25-3.91,3.51-7.2,3.51-6.34,0-10.3-4.77-10.3-12.24ZM1036.89,1782.38c0-5.4-2.61-9.18-7.42-9.18-4.41,0-6.66,3.96-6.66,9.18s2.25,9.13,6.7,9.13c5.17,0,7.38-3.87,7.38-9.13Z"/>
      <path class="cls-11" d="M1045.26,1761.73h3.65v4.5h-3.65v-4.5ZM1045.26,1770.64h3.65v23.26h-3.65v-23.26Z"/>
      <path class="cls-11" d="M1052.55,1782.29c0-6.75,4.41-12.24,11.02-12.24,6.97,0,10.71,5.4,10.71,13.09h-18c.27,4.73,2.83,8.33,7.51,8.33,3.37,0,5.62-1.62,6.43-4.77h3.55c-1.08,5-4.72,7.83-9.99,7.83-7.11,0-11.25-5.49-11.25-12.24ZM1056.38,1780.4h13.99c-.22-4.63-2.61-7.47-6.79-7.47s-6.66,3.24-7.2,7.47Z"/>
      <path class="cls-11" d="M76.92,1818.73h13.63c3.38,0,5.94.9,7.74,2.79,1.3,1.35,2.07,3.2,2.07,5.49,0,3.55-1.98,5.76-5.17,6.75v.13c3.65.86,6.48,3.46,6.48,7.79,0,2.47-.85,4.59-2.34,6.17-1.8,1.93-4.59,3.06-8.05,3.06h-14.35v-32.17ZM90.06,1832.5c3.92,0,6.25-1.93,6.25-5.26,0-3.1-2.12-5-5.71-5h-9.63v10.26h9.09ZM91.1,1847.26c2.29,0,3.96-.58,5.04-1.62.9-.95,1.44-2.21,1.44-3.74,0-4-2.83-5.98-6.75-5.98h-9.85v11.34h10.12Z"/>
      <path class="cls-11" d="M104.51,1839.29c0-6.75,4.41-12.24,11.02-12.24,6.98,0,10.71,5.4,10.71,13.09h-18c.27,4.73,2.83,8.33,7.51,8.33,3.38,0,5.62-1.62,6.43-4.77h3.55c-1.08,5-4.72,7.83-9.99,7.83-7.11,0-11.25-5.49-11.25-12.24ZM108.33,1837.4h13.99c-.22-4.63-2.61-7.47-6.79-7.47s-6.66,3.24-7.2,7.47Z"/>
      <path class="cls-11" d="M129.21,1852.2h3.37c.36,2.57,2.79,3.55,6.39,3.55,4.28,0,6.66-1.93,6.66-5.98v-3.29h-.09c-1.71,2.21-3.55,3.6-6.88,3.6-6.03,0-10.17-4.82-10.17-11.52,0-7.25,4.54-11.47,9.95-11.47,3.37,0,5.53,1.3,7.11,3.51h.09v-2.97h3.64v22c0,6.12-4.05,9-10.21,9s-9.45-2.43-9.85-6.43ZM145.91,1838.39c0-5.08-2.16-8.23-7.11-8.23-4.36,0-6.57,3.42-6.57,8.46s2.29,8.41,6.61,8.41c5.36,0,7.07-3.73,7.07-8.64Z"/>
      <path class="cls-11" d="M154.37,1818.73h3.65v32.17h-3.65v-32.17Z"/>
      <path class="cls-11" d="M161.79,1839.29c0-6.75,4.41-12.24,11.02-12.24,6.98,0,10.71,5.4,10.71,13.09h-18c.27,4.73,2.83,8.33,7.51,8.33,3.38,0,5.62-1.62,6.43-4.77h3.55c-1.08,5-4.72,7.83-9.99,7.83-7.11,0-11.25-5.49-11.25-12.24ZM165.62,1837.4h13.99c-.22-4.63-2.61-7.47-6.79-7.47s-6.66,3.24-7.2,7.47Z"/>
      <path class="cls-11" d="M187.08,1818.73h3.64v4.5h-3.64v-4.5ZM187.08,1827.64h3.64v23.26h-3.64v-23.26Z"/>
      <path class="cls-11" d="M194.19,1827.64h3.38v-7.33h3.64v7.33h4.5v2.97h-4.5v15.12c0,1.62.86,2.16,2.34,2.16.72,0,1.53-.18,1.94-.32h.13v3.15c-.86.18-1.84.31-2.92.31-2.97,0-5.13-1.21-5.13-4.5v-15.93h-3.38v-2.97Z"/>
      <path class="cls-11" d="M224.29,1850.9v-3.2h-.09c-1.67,2.25-3.64,3.74-7.02,3.74-4.77,0-7.83-2.88-7.83-7.69v-16.11h3.65v16.02c0,3.02,1.93,4.77,5.22,4.77,3.69,0,6.07-2.79,6.07-6.48v-14.31h3.65v23.26h-3.65Z"/>
      <path class="cls-11" d="M236.53,1830.7h.09c1.67-2.21,4-3.6,7.38-3.6,4.86,0,7.83,2.65,7.83,7.47v16.33h-3.64v-16.02c0-3.01-1.98-4.72-5.26-4.72-3.69,0-6.39,2.61-6.39,6.43v14.31h-3.64v-23.26h3.64v3.06Z"/>
      <path class="cls-11" d="M256.06,1852.2h3.37c.36,2.57,2.79,3.55,6.39,3.55,4.28,0,6.66-1.93,6.66-5.98v-3.29h-.09c-1.71,2.21-3.55,3.6-6.88,3.6-6.03,0-10.17-4.82-10.17-11.52,0-7.25,4.54-11.47,9.95-11.47,3.37,0,5.53,1.3,7.11,3.51h.09v-2.97h3.64v22c0,6.12-4.05,9-10.21,9s-9.45-2.43-9.85-6.43ZM272.76,1838.39c0-5.08-2.16-8.23-7.11-8.23-4.36,0-6.57,3.42-6.57,8.46s2.29,8.41,6.61,8.41c5.36,0,7.07-3.73,7.07-8.64Z"/>
      <path class="cls-11" d="M285.85,1827.64h3.92l4.82,14.76c.67,2.07,1.53,4.91,1.53,4.91h.09s.86-2.88,1.53-4.91l4.91-14.76h3.78l-8.37,23.26h-4.05l-8.15-23.26Z"/>
      <path class="cls-11" d="M307.23,1839.29c0-6.75,4.32-12.24,11.25-12.24s11.21,5.49,11.21,12.24-4.23,12.24-11.21,12.24-11.25-5.49-11.25-12.24ZM325.95,1839.29c0-5.13-2.52-9.22-7.47-9.22s-7.51,4.09-7.51,9.22,2.57,9.18,7.51,9.18,7.47-4.05,7.47-9.18Z"/>
      <path class="cls-11" d="M336.97,1830.7h.09c1.66-2.21,4-3.6,7.38-3.6,4.86,0,7.83,2.65,7.83,7.47v16.33h-3.64v-16.02c0-3.01-1.98-4.72-5.27-4.72-3.69,0-6.39,2.61-6.39,6.43v14.31h-3.64v-23.26h3.64v3.06Z"/>
      <path class="cls-11" d="M364.78,1818.73h4.05v15.97l15.84-15.97h5.08l-13,12.87,14.08,19.3h-4.72l-12.11-16.56-5.17,5.17v11.38h-4.05v-32.17Z"/>
      <path class="cls-11" d="M393.22,1818.73h3.64v4.5h-3.64v-4.5ZM393.22,1827.64h3.64v23.26h-3.64v-23.26Z"/>
      <path class="cls-11" d="M405.46,1830.7h.09c1.66-2.21,4-3.6,7.38-3.6,4.86,0,7.83,2.65,7.83,7.47v16.33h-3.64v-16.02c0-3.01-1.98-4.72-5.27-4.72-3.69,0-6.39,2.61-6.39,6.43v14.31h-3.64v-23.26h3.64v3.06Z"/>
      <path class="cls-11" d="M424.27,1839.34c0-7.74,4.46-12.24,10.21-12.24,3.28,0,5.8,1.62,7.29,3.82h.09v-12.19h3.65v32.17h-3.65v-2.83h-.09c-1.75,2.25-3.92,3.51-7.2,3.51-6.34,0-10.3-4.77-10.3-12.24ZM442.09,1839.38c0-5.4-2.61-9.18-7.42-9.18-4.41,0-6.66,3.96-6.66,9.18s2.25,9.13,6.71,9.13c5.17,0,7.38-3.87,7.38-9.13Z"/>
      <path class="cls-11" d="M449.16,1839.29c0-6.75,4.41-12.24,11.02-12.24,6.97,0,10.71,5.4,10.71,13.09h-18c.27,4.73,2.83,8.33,7.51,8.33,3.38,0,5.62-1.62,6.43-4.77h3.56c-1.08,5-4.73,7.83-9.99,7.83-7.11,0-11.25-5.49-11.25-12.24ZM452.98,1837.4h14c-.23-4.63-2.61-7.47-6.79-7.47s-6.66,3.24-7.2,7.47Z"/>
      <path class="cls-11" d="M478.09,1831.51h.09c1.39-2.25,3.82-4.14,6.93-4.14.67,0,1.03.09,1.48.27v3.51h-.13c-.54-.18-.9-.23-1.62-.23-3.6,0-6.75,2.7-6.75,7.07v12.91h-3.64v-23.26h3.64v3.87Z"/>
      <path class="cls-11" d="M493.53,1830.7h.09c1.66-2.21,4-3.6,7.38-3.6,4.86,0,7.83,2.65,7.83,7.47v16.33h-3.64v-16.02c0-3.01-1.98-4.72-5.27-4.72-3.69,0-6.39,2.61-6.39,6.43v14.31h-3.64v-23.26h3.64v3.06Z"/>
      <path class="cls-11" d="M513.15,1846.44h4.37v4.46h-4.37v-4.46Z"/>
      <path class="cls-11" d="M527.63,1818.73h25.47v3.55h-10.71v28.62h-4.05v-28.62h-10.71v-3.55Z"/>
      <path class="cls-11" d="M556.84,1831.51h.09c1.39-2.25,3.82-4.14,6.93-4.14.67,0,1.03.09,1.48.27v3.51h-.13c-.54-.18-.9-.23-1.62-.23-3.6,0-6.75,2.7-6.75,7.07v12.91h-3.64v-23.26h3.64v3.87Z"/>
      <path class="cls-11" d="M566.42,1839.29c0-6.75,4.32-12.24,11.25-12.24s11.21,5.49,11.21,12.24-4.23,12.24-11.21,12.24-11.25-5.49-11.25-12.24ZM585.14,1839.29c0-5.13-2.52-9.22-7.47-9.22s-7.51,4.09-7.51,9.22,2.57,9.18,7.51,9.18,7.47-4.05,7.47-9.18Z"/>
      <path class="cls-11" d="M590.59,1827.64h3.38v-7.33h3.64v7.33h4.5v2.97h-4.5v15.12c0,1.62.85,2.16,2.34,2.16.72,0,1.53-.18,1.93-.32h.14v3.15c-.86.18-1.85.31-2.93.31-2.97,0-5.13-1.21-5.13-4.5v-15.93h-3.38v-2.97Z"/>
      <path class="cls-11" d="M604.94,1848.02l12.96-17.05v-.13h-12.19v-3.19h17.28v2.16l-13.36,17.64v.13h13.86v3.33h-18.54v-2.88Z"/>
      <path class="cls-11" d="M625.1,1839.34c0-7.74,4.46-12.24,10.21-12.24,3.28,0,5.8,1.62,7.29,3.82h.09v-12.19h3.64v32.17h-3.64v-2.83h-.09c-1.75,2.25-3.91,3.51-7.2,3.51-6.34,0-10.3-4.77-10.3-12.24ZM642.92,1839.38c0-5.4-2.61-9.18-7.42-9.18-4.41,0-6.66,3.96-6.66,9.18s2.25,9.13,6.7,9.13c5.17,0,7.38-3.87,7.38-9.13Z"/>
      <path class="cls-11" d="M649.99,1839.29c0-6.75,4.41-12.24,11.02-12.24,6.97,0,10.71,5.4,10.71,13.09h-18c.27,4.73,2.83,8.33,7.51,8.33,3.37,0,5.62-1.62,6.43-4.77h3.55c-1.08,5-4.72,7.83-9.99,7.83-7.11,0-11.25-5.49-11.25-12.24ZM653.81,1837.4h13.99c-.22-4.63-2.61-7.47-6.79-7.47s-6.66,3.24-7.2,7.47Z"/>
      <path class="cls-11" d="M675.28,1827.64h3.65v3.33h.09c1.44-2.25,3.92-3.87,6.84-3.87s5.08,1.44,6.07,4.14h.09c1.49-2.66,4.28-4.14,7.11-4.14,4.14,0,7.06,2.65,7.06,7.47v16.33h-3.64v-16.15c0-2.88-1.94-4.59-4.28-4.59-3.01,0-5.71,2.61-5.71,6.25v14.49h-3.64v-16.15c0-2.88-1.62-4.59-4-4.59-2.83,0-5.98,2.61-5.98,6.25v14.49h-3.65v-23.26Z"/>
      <path class="cls-11" d="M721.9,1847.84h-.09v3.06h-3.65v-32.17h3.65v12.24h.09c1.75-2.38,4.09-3.87,7.47-3.87,5.89,0,9.9,4.5,9.9,12.24s-3.74,12.24-10.03,12.24c-3.15,0-5.45-1.12-7.33-3.73ZM735.53,1839.38c0-5.22-2.11-9.18-6.52-9.18-5.08,0-7.42,4.14-7.42,9.18s2.43,9.13,7.38,9.13c4.46,0,6.57-3.87,6.57-9.13Z"/>
      <path class="cls-11" d="M741.61,1839.29c0-6.75,4.41-12.24,11.02-12.24,6.97,0,10.71,5.4,10.71,13.09h-18c.27,4.73,2.83,8.33,7.51,8.33,3.37,0,5.62-1.62,6.43-4.77h3.55c-1.08,5-4.72,7.83-9.99,7.83-7.11,0-11.25-5.49-11.25-12.24ZM745.43,1837.4h13.99c-.22-4.63-2.61-7.47-6.79-7.47s-6.66,3.24-7.2,7.47Z"/>
      <path class="cls-11" d="M773.96,1838.35l-3.42,3.24v9.31h-3.65v-32.17h3.65v18.85l10.21-9.94h4.63l-8.91,8.37,9.99,14.89h-4.27l-8.23-12.55Z"/>
      <path class="cls-11" d="M786.24,1839.29c0-6.75,4.32-12.24,11.25-12.24s11.2,5.49,11.2,12.24-4.23,12.24-11.2,12.24-11.25-5.49-11.25-12.24ZM804.96,1839.29c0-5.13-2.52-9.22-7.47-9.22s-7.51,4.09-7.51,9.22,2.56,9.18,7.51,9.18,7.47-4.05,7.47-9.18Z"/>
      <path class="cls-11" d="M812.34,1827.64h3.65v3.33h.09c1.44-2.25,3.92-3.87,6.84-3.87s5.08,1.44,6.07,4.14h.09c1.49-2.66,4.28-4.14,7.11-4.14,4.14,0,7.06,2.65,7.06,7.47v16.33h-3.64v-16.15c0-2.88-1.94-4.59-4.28-4.59-3.01,0-5.71,2.61-5.71,6.25v14.49h-3.64v-16.15c0-2.88-1.62-4.59-4-4.59-2.83,0-5.98,2.61-5.98,6.25v14.49h-3.65v-23.26Z"/>
      <path class="cls-11" d="M848.07,1827.64h3.65v3.33h.09c1.44-2.25,3.92-3.87,6.84-3.87s5.08,1.44,6.07,4.14h.09c1.49-2.66,4.28-4.14,7.11-4.14,4.14,0,7.06,2.65,7.06,7.47v16.33h-3.64v-16.15c0-2.88-1.94-4.59-4.28-4.59-3.01,0-5.71,2.61-5.71,6.25v14.49h-3.64v-16.15c0-2.88-1.62-4.59-4-4.59-2.83,0-5.98,2.61-5.98,6.25v14.49h-3.65v-23.26Z"/>
      <path class="cls-11" d="M882.5,1839.29c0-6.75,4.41-12.24,11.02-12.24,6.97,0,10.71,5.4,10.71,13.09h-18c.27,4.73,2.83,8.33,7.51,8.33,3.37,0,5.62-1.62,6.43-4.77h3.55c-1.08,5-4.72,7.83-9.99,7.83-7.11,0-11.25-5.49-11.25-12.24ZM886.32,1837.4h13.99c-.22-4.63-2.61-7.47-6.79-7.47s-6.66,3.24-7.2,7.47Z"/>
      <path class="cls-11" d="M911.43,1830.7h.09c1.67-2.21,4-3.6,7.38-3.6,4.86,0,7.83,2.65,7.83,7.47v16.33h-3.64v-16.02c0-3.01-1.98-4.72-5.26-4.72-3.69,0-6.39,2.61-6.39,6.43v14.31h-3.65v-23.26h3.65v3.06Z"/>
      <path class="cls-11" d="M937.22,1843.34h3.73c.5,4.05,3.2,5.17,6.66,5.17,3.82,0,5.4-1.67,5.4-3.83,0-2.61-1.8-3.28-6.07-4.18-4.59-.95-8.68-1.89-8.68-6.97,0-3.87,2.97-6.39,8.37-6.39,5.76,0,8.59,2.75,9.13,7.29h-3.74c-.36-3.06-2.02-4.41-5.49-4.41s-4.68,1.48-4.68,3.33c0,2.52,2.25,3.01,6.25,3.82,4.68.95,8.59,1.98,8.59,7.33,0,4.68-3.83,7.06-9.18,7.06-6.39,0-9.95-3.01-10.3-8.23Z"/>
      <path class="cls-11" d="M960.21,1818.73h3.65v4.5h-3.65v-4.5ZM960.21,1827.64h3.65v23.26h-3.65v-23.26Z"/>
      <path class="cls-11" d="M967.5,1839.29c0-6.75,4.41-12.24,11.02-12.24,6.97,0,10.71,5.4,10.71,13.09h-18c.27,4.73,2.83,8.33,7.51,8.33,3.37,0,5.62-1.62,6.43-4.77h3.55c-1.08,5-4.72,7.83-9.99,7.83-7.11,0-11.25-5.49-11.25-12.24ZM971.33,1837.4h13.99c-.22-4.63-2.61-7.47-6.79-7.47s-6.66,3.24-7.2,7.47Z"/>
      <path class="cls-11" d="M998.64,1839.34c0-7.74,4.46-12.24,10.21-12.24,3.28,0,5.8,1.62,7.29,3.82h.09v-12.19h3.64v32.17h-3.64v-2.83h-.09c-1.75,2.25-3.91,3.51-7.2,3.51-6.34,0-10.3-4.77-10.3-12.24ZM1016.46,1839.38c0-5.4-2.61-9.18-7.42-9.18-4.41,0-6.66,3.96-6.66,9.18s2.25,9.13,6.7,9.13c5.17,0,7.38-3.87,7.38-9.13Z"/>
      <path class="cls-11" d="M1024.83,1818.73h3.65v4.5h-3.65v-4.5ZM1024.83,1827.64h3.65v23.26h-3.65v-23.26Z"/>
      <path class="cls-11" d="M1032.12,1839.29c0-6.75,4.41-12.24,11.02-12.24,6.97,0,10.71,5.4,10.71,13.09h-18c.27,4.73,2.83,8.33,7.51,8.33,3.37,0,5.62-1.62,6.43-4.77h3.55c-1.08,5-4.72,7.83-9.99,7.83-7.11,0-11.25-5.49-11.25-12.24ZM1035.95,1837.4h13.99c-.22-4.63-2.61-7.47-6.79-7.47s-6.66,3.24-7.2,7.47Z"/>
      <path class="cls-11" d="M75.8,1909.2h3.37c.36,2.57,2.79,3.55,6.39,3.55,4.28,0,6.66-1.93,6.66-5.98v-3.29h-.09c-1.71,2.21-3.55,3.6-6.88,3.6-6.03,0-10.17-4.82-10.17-11.52,0-7.25,4.54-11.47,9.95-11.47,3.37,0,5.53,1.3,7.11,3.51h.09v-2.97h3.64v22c0,6.12-4.05,9-10.21,9s-9.45-2.43-9.85-6.43ZM92.49,1895.39c0-5.08-2.16-8.23-7.11-8.23-4.36,0-6.57,3.42-6.57,8.46s2.29,8.41,6.61,8.41c5.36,0,7.07-3.73,7.07-8.64Z"/>
      <path class="cls-11" d="M100.95,1875.73h3.65v32.17h-3.65v-32.17Z"/>
      <path class="cls-11" d="M108.38,1896.29c0-6.75,4.41-12.24,11.02-12.24,6.98,0,10.71,5.4,10.71,13.09h-18c.27,4.73,2.83,8.33,7.51,8.33,3.38,0,5.62-1.62,6.43-4.77h3.55c-1.08,5-4.72,7.83-9.99,7.83-7.11,0-11.25-5.49-11.25-12.24ZM112.2,1894.4h13.99c-.22-4.63-2.61-7.47-6.79-7.47s-6.66,3.24-7.2,7.47Z"/>
      <path class="cls-11" d="M133.67,1875.73h3.64v4.5h-3.64v-4.5ZM133.67,1884.64h3.64v23.26h-3.64v-23.26Z"/>
      <path class="cls-11" d="M140.95,1896.29c0-6.75,4.32-12.24,11.25-12.24,5.49,0,9.13,3.15,9.94,8.1h-3.69c-.54-3.15-2.75-5.08-6.25-5.08-4.95,0-7.51,4.09-7.51,9.22s2.56,9.18,7.51,9.18c3.78,0,6.03-2.16,6.34-5.76h3.6c-.5,5.58-4.14,8.82-9.94,8.82-6.93,0-11.25-5.49-11.25-12.24Z"/>
      <path class="cls-11" d="M169.26,1887.7h.09c1.66-2.21,4-3.6,7.38-3.6,4.86,0,7.83,2.65,7.83,7.47v16.33h-3.64v-16.02c0-3.01-1.98-4.72-5.27-4.72-3.69,0-6.39,2.61-6.39,6.43v14.31h-3.64v-32.17h3.64v11.97Z"/>
      <path class="cls-11" d="M188.07,1896.29c0-6.75,4.41-12.24,11.02-12.24,6.97,0,10.71,5.4,10.71,13.09h-18c.27,4.73,2.83,8.33,7.51,8.33,3.38,0,5.62-1.62,6.43-4.77h3.56c-1.08,5-4.73,7.83-9.99,7.83-7.11,0-11.25-5.49-11.25-12.24ZM191.89,1894.4h14c-.23-4.63-2.61-7.47-6.79-7.47s-6.66,3.24-7.2,7.47Z"/>
      <path class="cls-11" d="M221.05,1875.73h21.82v3.55h-17.77v10.04h14.8v3.42h-14.8v15.16h-4.05v-32.17Z"/>
      <path class="cls-11" d="M246.66,1875.73h3.65v32.17h-3.65v-32.17Z"/>
      <path class="cls-11" d="M269.65,1904.66h-.04c-1.39,1.8-3.78,3.69-7.74,3.69-4.41,0-7.88-2.07-7.88-6.48,0-5.49,4.32-6.62,10.12-7.52,3.28-.49,5.58-.81,5.58-3.33s-1.89-4.09-5.22-4.09c-3.78,0-5.67,1.62-5.8,5.13h-3.51c.13-4.5,3.11-7.88,9.27-7.88,4.95,0,8.59,1.84,8.59,7.38v11.07c0,1.89.45,2.92,2.47,2.47h.14v2.66c-.45.18-1.04.36-1.98.36-2.38,0-3.64-1.08-4-3.46ZM269.74,1899.31v-3.96c-1.21.77-3.33,1.35-5.31,1.71-3.64.67-6.57,1.3-6.57,4.72,0,3.11,2.43,3.78,4.81,3.78,4.86,0,7.06-3.55,7.06-6.25ZM258.99,1875.95h3.51v4.27h-3.51v-4.27ZM266.37,1875.95h3.51v4.27h-3.51v-4.27Z"/>
      <path class="cls-11" d="M277.03,1896.29c0-6.75,4.32-12.24,11.25-12.24,5.49,0,9.13,3.15,9.95,8.1h-3.69c-.54-3.15-2.75-5.08-6.25-5.08-4.95,0-7.51,4.09-7.51,9.22s2.57,9.18,7.51,9.18c3.78,0,6.03-2.16,6.34-5.76h3.6c-.5,5.58-4.14,8.82-9.95,8.82-6.93,0-11.25-5.49-11.25-12.24Z"/>
      <path class="cls-11" d="M305.34,1887.7h.09c1.67-2.21,4-3.6,7.38-3.6,4.86,0,7.83,2.65,7.83,7.47v16.33h-3.64v-16.02c0-3.01-1.98-4.72-5.26-4.72-3.69,0-6.39,2.61-6.39,6.43v14.31h-3.64v-32.17h3.64v11.97Z"/>
      <path class="cls-11" d="M324.15,1896.29c0-6.75,4.41-12.24,11.02-12.24,6.98,0,10.71,5.4,10.71,13.09h-18c.27,4.73,2.83,8.33,7.51,8.33,3.38,0,5.62-1.62,6.43-4.77h3.55c-1.08,5-4.72,7.83-9.99,7.83-7.11,0-11.25-5.49-11.25-12.24ZM327.97,1894.4h13.99c-.22-4.63-2.61-7.47-6.79-7.47s-6.66,3.24-7.2,7.47Z"/>
      <path class="cls-11" d="M355.65,1905.02l12.96-17.05v-.13h-12.19v-3.19h17.28v2.16l-13.36,17.64v.13h13.86v3.33h-18.54v-2.88Z"/>
      <path class="cls-11" d="M392.59,1907.9v-3.2h-.09c-1.67,2.25-3.64,3.74-7.02,3.74-4.77,0-7.83-2.88-7.83-7.69v-16.11h3.65v16.02c0,3.02,1.93,4.77,5.22,4.77,3.69,0,6.07-2.79,6.07-6.48v-14.31h3.65v23.26h-3.65Z"/>
      <path class="cls-11" d="M400.6,1909.2h3.37c.36,2.57,2.79,3.55,6.39,3.55,4.28,0,6.66-1.93,6.66-5.98v-3.29h-.09c-1.71,2.21-3.55,3.6-6.88,3.6-6.03,0-10.17-4.82-10.17-11.52,0-7.25,4.54-11.47,9.95-11.47,3.37,0,5.53,1.3,7.11,3.51h.09v-2.97h3.64v22c0,6.12-4.05,9-10.21,9s-9.45-2.43-9.85-6.43ZM417.3,1895.39c0-5.08-2.16-8.23-7.11-8.23-4.36,0-6.57,3.42-6.57,8.46s2.29,8.41,6.61,8.41c5.36,0,7.07-3.73,7.07-8.64Z"/>
      <path class="cls-11" d="M424.32,1896.29c0-6.75,4.41-12.24,11.02-12.24,6.97,0,10.71,5.4,10.71,13.09h-18c.27,4.73,2.83,8.33,7.51,8.33,3.38,0,5.62-1.62,6.43-4.77h3.56c-1.08,5-4.73,7.83-9.99,7.83-7.11,0-11.25-5.49-11.25-12.24ZM428.14,1894.4h14c-.23-4.63-2.61-7.47-6.79-7.47s-6.66,3.24-7.2,7.47Z"/>
      <path class="cls-11" d="M446.86,1884.64h3.91l4.09,14.35c.54,1.93,1.26,4.99,1.26,4.99h.09s.67-3.06,1.17-4.9l3.92-14.44h3.82l3.78,14.44c.5,1.89,1.12,4.9,1.12,4.9h.09s.72-3.06,1.3-4.99l4.32-14.35h3.78l-7.6,23.26h-3.73l-3.87-14.08c-.54-1.94-1.12-4.86-1.12-4.86h-.09s-.63,2.92-1.17,4.86l-3.92,14.08h-3.78l-7.38-23.26Z"/>
      <path class="cls-11" d="M482.19,1875.73h3.64v4.5h-3.64v-4.5ZM482.19,1884.64h3.64v23.26h-3.64v-23.26Z"/>
      <path class="cls-11" d="M489.48,1896.29c0-6.75,4.41-12.24,11.02-12.24,6.97,0,10.71,5.4,10.71,13.09h-18c.27,4.73,2.83,8.33,7.51,8.33,3.38,0,5.62-1.62,6.43-4.77h3.56c-1.08,5-4.73,7.83-9.99,7.83-7.11,0-11.25-5.49-11.25-12.24ZM493.3,1894.4h14c-.23-4.63-2.61-7.47-6.79-7.47s-6.66,3.24-7.2,7.47Z"/>
      <path class="cls-11" d="M513.28,1900.34h3.74c.5,4.05,3.19,5.17,6.66,5.17,3.82,0,5.4-1.67,5.4-3.83,0-2.61-1.8-3.28-6.08-4.18-4.59-.95-8.68-1.89-8.68-6.97,0-3.87,2.97-6.39,8.37-6.39,5.76,0,8.59,2.75,9.13,7.29h-3.74c-.36-3.06-2.02-4.41-5.49-4.41s-4.68,1.48-4.68,3.33c0,2.52,2.25,3.01,6.25,3.82,4.68.95,8.59,1.98,8.59,7.33,0,4.68-3.82,7.06-9.18,7.06-6.39,0-9.94-3.01-10.3-8.23Z"/>
      <path class="cls-11" d="M535.42,1896.29c0-6.75,4.41-12.24,11.02-12.24,6.98,0,10.71,5.4,10.71,13.09h-18c.27,4.73,2.83,8.33,7.51,8.33,3.38,0,5.62-1.62,6.43-4.77h3.55c-1.08,5-4.72,7.83-9.99,7.83-7.11,0-11.25-5.49-11.25-12.24ZM539.24,1894.4h13.99c-.22-4.63-2.61-7.47-6.79-7.47s-6.66,3.24-7.2,7.47Z"/>
      <path class="cls-11" d="M564.35,1887.7h.09c1.67-2.21,4-3.6,7.38-3.6,4.86,0,7.83,2.65,7.83,7.47v16.33h-3.64v-16.02c0-3.01-1.98-4.72-5.26-4.72-3.69,0-6.39,2.61-6.39,6.43v14.31h-3.64v-23.26h3.64v3.06Z"/>
      <path class="cls-11" d="M584.02,1911.63c.99-.36,2.02-1.21,2.02-3.73h-2.07v-4.46h4.36v4.59c0,3.29-1.75,5.13-4.32,5.62v-2.03Z"/>
      <path class="cls-11" d="M614.21,1904.66h-.04c-1.39,1.8-3.78,3.69-7.74,3.69-4.41,0-7.88-2.07-7.88-6.48,0-5.49,4.32-6.62,10.12-7.52,3.29-.49,5.58-.81,5.58-3.33s-1.89-4.09-5.22-4.09c-3.78,0-5.67,1.62-5.8,5.13h-3.51c.13-4.5,3.1-7.88,9.27-7.88,4.95,0,8.59,1.84,8.59,7.38v11.07c0,1.89.45,2.92,2.47,2.47h.13v2.66c-.45.18-1.03.36-1.98.36-2.38,0-3.64-1.08-4-3.46ZM614.3,1899.31v-3.96c-1.21.77-3.33,1.35-5.31,1.71-3.64.67-6.57,1.3-6.57,4.72,0,3.11,2.43,3.78,4.81,3.78,4.86,0,7.06-3.55,7.06-6.25Z"/>
      <path class="cls-11" d="M637.7,1907.9v-3.2h-.09c-1.67,2.25-3.64,3.74-7.02,3.74-4.77,0-7.83-2.88-7.83-7.69v-16.11h3.64v16.02c0,3.02,1.94,4.77,5.22,4.77,3.69,0,6.08-2.79,6.08-6.48v-14.31h3.64v23.26h-3.64Z"/>
      <path class="cls-11" d="M644.81,1884.64h3.19v-3.74c0-4,2.29-5.44,6.17-5.44.76,0,1.35.04,1.84.09v3.1c-.63-.04-.81-.04-1.17-.04-2.34,0-3.19.58-3.19,2.47v3.56h4.32v2.97h-4.32v20.29h-3.65v-20.29h-3.19v-2.97Z"/>
      <path class="cls-11" d="M665.38,1896.34c0-7.74,4.46-12.24,10.21-12.24,3.28,0,5.8,1.62,7.29,3.82h.09v-12.19h3.64v32.17h-3.64v-2.83h-.09c-1.75,2.25-3.91,3.51-7.2,3.51-6.34,0-10.3-4.77-10.3-12.24ZM683.2,1896.38c0-5.4-2.61-9.18-7.42-9.18-4.41,0-6.66,3.96-6.66,9.18s2.25,9.13,6.7,9.13c5.17,0,7.38-3.87,7.38-9.13Z"/>
      <path class="cls-11" d="M690.26,1896.29c0-6.75,4.41-12.24,11.02-12.24,6.97,0,10.71,5.4,10.71,13.09h-18c.27,4.73,2.83,8.33,7.51,8.33,3.37,0,5.62-1.62,6.43-4.77h3.55c-1.08,5-4.72,7.83-9.99,7.83-7.11,0-11.25-5.49-11.25-12.24ZM694.09,1894.4h13.99c-.22-4.63-2.61-7.47-6.79-7.47s-6.66,3.24-7.2,7.47Z"/>
      <path class="cls-11" d="M719.2,1888.51h.09c1.39-2.25,3.82-4.14,6.93-4.14.67,0,1.04.09,1.48.27v3.51h-.13c-.54-.18-.9-.23-1.62-.23-3.6,0-6.75,2.7-6.75,7.07v12.91h-3.65v-23.26h3.65v3.87Z"/>
      <path class="cls-11" d="M737.2,1905.02l12.96-17.05v-.13h-12.19v-3.19h17.28v2.16l-13.36,17.64v.13h13.86v3.33h-18.54v-2.88Z"/>
      <path class="cls-11" d="M774.14,1907.9v-3.2h-.09c-1.67,2.25-3.64,3.74-7.02,3.74-4.77,0-7.83-2.88-7.83-7.69v-16.11h3.64v16.02c0,3.02,1.94,4.77,5.22,4.77,3.69,0,6.08-2.79,6.08-6.48v-14.31h3.64v23.26h-3.64Z"/>
      <path class="cls-11" d="M781.25,1900.34h3.73c.5,4.05,3.2,5.17,6.66,5.17,3.82,0,5.4-1.67,5.4-3.83,0-2.61-1.8-3.28-6.07-4.18-4.59-.95-8.68-1.89-8.68-6.97,0-3.87,2.97-6.39,8.37-6.39,5.76,0,8.59,2.75,9.13,7.29h-3.74c-.36-3.06-2.02-4.41-5.49-4.41s-4.68,1.48-4.68,3.33c0,2.52,2.25,3.01,6.25,3.82,4.68.95,8.59,1.98,8.59,7.33,0,4.68-3.83,7.06-9.18,7.06-6.39,0-9.95-3.01-10.3-8.23Z"/>
      <path class="cls-11" d="M818.73,1904.66h-.04c-1.39,1.8-3.78,3.69-7.74,3.69-4.41,0-7.88-2.07-7.88-6.48,0-5.49,4.32-6.62,10.12-7.52,3.29-.49,5.58-.81,5.58-3.33s-1.89-4.09-5.22-4.09c-3.78,0-5.67,1.62-5.8,5.13h-3.51c.13-4.5,3.1-7.88,9.27-7.88,4.95,0,8.59,1.84,8.59,7.38v11.07c0,1.89.45,2.92,2.47,2.47h.13v2.66c-.45.18-1.03.36-1.98.36-2.38,0-3.64-1.08-4-3.46ZM818.82,1899.31v-3.96c-1.21.77-3.33,1.35-5.31,1.71-3.64.67-6.57,1.3-6.57,4.72,0,3.11,2.43,3.78,4.81,3.78,4.86,0,7.06-3.55,7.06-6.25ZM808.07,1875.95h3.51v4.27h-3.51v-4.27ZM815.45,1875.95h3.51v4.27h-3.51v-4.27Z"/>
      <path class="cls-11" d="M825.49,1884.64h3.38v-7.33h3.64v7.33h4.5v2.97h-4.5v15.12c0,1.62.85,2.16,2.34,2.16.72,0,1.53-.18,1.93-.32h.14v3.15c-.86.18-1.85.31-2.93.31-2.97,0-5.13-1.21-5.13-4.5v-15.93h-3.38v-2.97Z"/>
      <path class="cls-11" d="M839.84,1905.02l12.96-17.05v-.13h-12.19v-3.19h17.28v2.16l-13.36,17.64v.13h13.86v3.33h-18.54v-2.88Z"/>
      <path class="cls-11" d="M862.11,1875.73h3.64v32.17h-3.64v-32.17Z"/>
      <path class="cls-11" d="M870.84,1875.73h3.65v4.5h-3.65v-4.5ZM870.84,1884.64h3.65v23.26h-3.65v-23.26Z"/>
      <path class="cls-11" d="M878.13,1896.29c0-6.75,4.32-12.24,11.25-12.24,5.49,0,9.13,3.15,9.94,8.1h-3.69c-.54-3.15-2.74-5.08-6.25-5.08-4.95,0-7.51,4.09-7.51,9.22s2.56,9.18,7.51,9.18c3.78,0,6.03-2.16,6.34-5.76h3.6c-.5,5.58-4.14,8.82-9.94,8.82-6.93,0-11.25-5.49-11.25-12.24Z"/>
      <path class="cls-11" d="M906.44,1887.7h.09c1.67-2.21,4-3.6,7.38-3.6,4.86,0,7.83,2.65,7.83,7.47v16.33h-3.64v-16.02c0-3.01-1.98-4.72-5.26-4.72-3.69,0-6.39,2.61-6.39,6.43v14.31h-3.65v-32.17h3.65v11.97Z"/>
      <path class="cls-11" d="M931.41,1884.64h3.92l4.09,14.35c.54,1.93,1.26,4.99,1.26,4.99h.09s.67-3.06,1.17-4.9l3.91-14.44h3.83l3.78,14.44c.49,1.89,1.12,4.9,1.12,4.9h.09s.72-3.06,1.3-4.99l4.32-14.35h3.78l-7.6,23.26h-3.74l-3.87-14.08c-.54-1.94-1.12-4.86-1.12-4.86h-.09s-.63,2.92-1.17,4.86l-3.91,14.08h-3.78l-7.38-23.26Z"/>
      <path class="cls-11" d="M964.98,1896.29c0-6.75,4.41-12.24,11.02-12.24,6.97,0,10.71,5.4,10.71,13.09h-18c.27,4.73,2.83,8.33,7.51,8.33,3.37,0,5.62-1.62,6.43-4.77h3.55c-1.08,5-4.72,7.83-9.99,7.83-7.11,0-11.25-5.49-11.25-12.24ZM968.81,1894.4h13.99c-.22-4.63-2.61-7.47-6.79-7.47s-6.66,3.24-7.2,7.47Z"/>
      <path class="cls-11" d="M993.92,1887.7h.09c1.67-2.21,4-3.6,7.38-3.6,4.86,0,7.83,2.65,7.83,7.47v16.33h-3.64v-16.02c0-3.01-1.98-4.72-5.26-4.72-3.69,0-6.39,2.61-6.39,6.43v14.31h-3.65v-23.26h3.65v3.06Z"/>
      <path class="cls-11" d="M1014.03,1875.73h3.65v4.5h-3.65v-4.5ZM1014.03,1884.64h3.65v23.26h-3.65v-23.26Z"/>
      <path class="cls-11" d="M1022.04,1909.2h3.38c.36,2.57,2.79,3.55,6.39,3.55,4.28,0,6.66-1.93,6.66-5.98v-3.29h-.09c-1.71,2.21-3.56,3.6-6.88,3.6-6.03,0-10.17-4.82-10.17-11.52,0-7.25,4.54-11.47,9.94-11.47,3.38,0,5.54,1.3,7.11,3.51h.09v-2.97h3.64v22c0,6.12-4.05,9-10.21,9s-9.45-2.43-9.85-6.43ZM1038.74,1895.39c0-5.08-2.16-8.23-7.11-8.23-4.37,0-6.57,3.42-6.57,8.46s2.29,8.41,6.61,8.41c5.35,0,7.06-3.73,7.06-8.64Z"/>
      <path class="cls-11" d="M1045.76,1896.29c0-6.75,4.41-12.24,11.02-12.24,6.97,0,10.71,5.4,10.71,13.09h-18c.27,4.73,2.83,8.33,7.51,8.33,3.37,0,5.62-1.62,6.43-4.77h3.55c-1.08,5-4.72,7.83-9.99,7.83-7.11,0-11.25-5.49-11.25-12.24ZM1049.58,1894.4h13.99c-.22-4.63-2.61-7.47-6.79-7.47s-6.66,3.24-7.2,7.47Z"/>
      <path class="cls-11" d="M1074.69,1888.51h.09c1.39-2.25,3.82-4.14,6.93-4.14.67,0,1.04.09,1.48.27v3.51h-.13c-.54-.18-.9-.23-1.62-.23-3.6,0-6.75,2.7-6.75,7.07v12.91h-3.65v-23.26h3.65v3.87Z"/>
      <path class="cls-11" d="M76.92,1932.73h4.05v15.97l15.84-15.97h5.08l-13,12.87,14.08,19.3h-4.72l-12.11-16.56-5.17,5.17v11.38h-4.05v-32.17Z"/>
      <path class="cls-11" d="M119.18,1961.66h-.04c-1.39,1.8-3.78,3.69-7.74,3.69-4.41,0-7.88-2.07-7.88-6.48,0-5.49,4.32-6.62,10.12-7.52,3.28-.49,5.58-.81,5.58-3.33s-1.89-4.09-5.22-4.09c-3.78,0-5.67,1.62-5.8,5.13h-3.51c.13-4.5,3.11-7.88,9.27-7.88,4.95,0,8.59,1.84,8.59,7.38v11.07c0,1.89.45,2.92,2.47,2.47h.14v2.66c-.45.18-1.04.36-1.98.36-2.38,0-3.64-1.08-4-3.46ZM119.27,1956.31v-3.96c-1.21.77-3.33,1.35-5.31,1.71-3.64.67-6.57,1.3-6.57,4.72,0,3.11,2.43,3.78,4.81,3.78,4.86,0,7.06-3.55,7.06-6.25Z"/>
      <path class="cls-11" d="M131.6,1961.84h-.09v3.06h-3.64v-32.17h3.64v12.24h.09c1.75-2.38,4.09-3.87,7.47-3.87,5.9,0,9.9,4.5,9.9,12.24s-3.74,12.24-10.04,12.24c-3.15,0-5.44-1.12-7.33-3.73ZM145.23,1953.38c0-5.22-2.11-9.18-6.52-9.18-5.08,0-7.42,4.14-7.42,9.18s2.43,9.13,7.38,9.13c4.46,0,6.57-3.87,6.57-9.13Z"/>
      <path class="cls-11" d="M152.61,1932.73h3.64v4.5h-3.64v-4.5ZM152.61,1941.64h3.64v23.26h-3.64v-23.26Z"/>
      <path class="cls-11" d="M164.85,1944.7h.09c1.67-2.21,4-3.6,7.38-3.6,4.86,0,7.83,2.65,7.83,7.47v16.33h-3.64v-16.02c0-3.01-1.98-4.72-5.26-4.72-3.69,0-6.39,2.61-6.39,6.43v14.31h-3.64v-23.26h3.64v3.06Z"/>
      <path class="cls-11" d="M183.66,1953.29c0-6.75,4.41-12.24,11.02-12.24,6.98,0,10.71,5.4,10.71,13.09h-18c.27,4.73,2.83,8.33,7.51,8.33,3.38,0,5.62-1.62,6.43-4.77h3.55c-1.08,5-4.72,7.83-9.99,7.83-7.11,0-11.25-5.49-11.25-12.24ZM187.49,1951.4h13.99c-.22-4.63-2.61-7.47-6.79-7.47s-6.66,3.24-7.2,7.47Z"/>
      <path class="cls-11" d="M212.59,1944.7h.09c1.67-2.21,4-3.6,7.38-3.6,4.86,0,7.83,2.65,7.83,7.47v16.33h-3.64v-16.02c0-3.01-1.98-4.72-5.26-4.72-3.69,0-6.39,2.61-6.39,6.43v14.31h-3.64v-23.26h3.64v3.06Z"/>
      <path class="cls-11" d="M240.4,1932.73h13.41c3.38,0,5.99,1.12,7.65,3.11,1.35,1.57,2.16,3.69,2.16,6.12,0,5.89-3.38,9.45-10.39,9.45h-8.77v13.5h-4.05v-32.17ZM244.45,1948.12h8.46c4.54,0,6.7-2.29,6.7-5.99s-2.38-5.89-6.48-5.89h-8.68v11.88Z"/>
      <path class="cls-11" d="M267.13,1932.73h3.65v32.17h-3.65v-32.17Z"/>
      <path class="cls-11" d="M290.13,1961.66h-.04c-1.39,1.8-3.78,3.69-7.74,3.69-4.41,0-7.88-2.07-7.88-6.48,0-5.49,4.32-6.62,10.12-7.52,3.28-.49,5.58-.81,5.58-3.33s-1.89-4.09-5.22-4.09c-3.78,0-5.67,1.62-5.8,5.13h-3.51c.13-4.5,3.11-7.88,9.27-7.88,4.95,0,8.59,1.84,8.59,7.38v11.07c0,1.89.45,2.92,2.47,2.47h.14v2.66c-.45.18-1.04.36-1.98.36-2.38,0-3.64-1.08-4-3.46ZM290.22,1956.31v-3.96c-1.21.77-3.33,1.35-5.31,1.71-3.64.67-6.57,1.3-6.57,4.72,0,3.11,2.43,3.78,4.81,3.78,4.86,0,7.06-3.55,7.06-6.25Z"/>
      <path class="cls-11" d="M296.88,1941.64h3.38v-7.33h3.64v7.33h4.5v2.97h-4.5v15.12c0,1.62.86,2.16,2.34,2.16.72,0,1.53-.18,1.94-.32h.13v3.15c-.86.18-1.84.31-2.92.31-2.97,0-5.13-1.21-5.13-4.5v-15.93h-3.38v-2.97Z"/>
      <path class="cls-11" d="M311.23,1962.02l12.96-17.05v-.13h-12.19v-3.19h17.28v2.16l-13.36,17.64v.13h13.86v3.33h-18.54v-2.88Z"/>
      <path class="cls-11" d="M344.17,1944.7h.09c1.67-2.21,4-3.6,7.38-3.6,4.86,0,7.83,2.65,7.83,7.47v16.33h-3.64v-16.02c0-3.01-1.98-4.72-5.26-4.72-3.69,0-6.39,2.61-6.39,6.43v14.31h-3.64v-32.17h3.64v11.97Z"/>
      <path class="cls-11" d="M378.55,1961.66h-.04c-1.39,1.8-3.78,3.69-7.74,3.69-4.41,0-7.88-2.07-7.88-6.48,0-5.49,4.32-6.62,10.12-7.52,3.28-.49,5.58-.81,5.58-3.33s-1.89-4.09-5.22-4.09c-3.78,0-5.67,1.62-5.8,5.13h-3.51c.13-4.5,3.11-7.88,9.27-7.88,4.95,0,8.59,1.84,8.59,7.38v11.07c0,1.89.45,2.92,2.47,2.47h.14v2.66c-.45.18-1.04.36-1.98.36-2.38,0-3.64-1.08-4-3.46ZM378.64,1956.31v-3.96c-1.21.77-3.33,1.35-5.31,1.71-3.64.67-6.57,1.3-6.57,4.72,0,3.11,2.43,3.78,4.81,3.78,4.86,0,7.06-3.55,7.06-6.25Z"/>
      <path class="cls-11" d="M390.97,1961.84h-.09v3.06h-3.64v-32.17h3.64v12.24h.09c1.75-2.38,4.09-3.87,7.47-3.87,5.9,0,9.9,4.5,9.9,12.24s-3.74,12.24-10.04,12.24c-3.15,0-5.44-1.12-7.33-3.73ZM404.61,1953.38c0-5.22-2.11-9.18-6.52-9.18-5.08,0-7.42,4.14-7.42,9.18s2.43,9.13,7.38,9.13c4.46,0,6.57-3.87,6.57-9.13Z"/>
      <path class="cls-11" d="M410.68,1953.29c0-6.75,4.41-12.24,11.02-12.24,6.98,0,10.71,5.4,10.71,13.09h-18c.27,4.73,2.83,8.33,7.51,8.33,3.38,0,5.62-1.62,6.43-4.77h3.55c-1.08,5-4.72,7.83-9.99,7.83-7.11,0-11.25-5.49-11.25-12.24ZM414.51,1951.4h13.99c-.22-4.63-2.61-7.47-6.79-7.47s-6.66,3.24-7.2,7.47Z"/>
      <path class="cls-11" d="M439.62,1944.7h.09c1.67-2.21,4-3.6,7.38-3.6,4.86,0,7.83,2.65,7.83,7.47v16.33h-3.64v-16.02c0-3.01-1.98-4.72-5.26-4.72-3.69,0-6.39,2.61-6.39,6.43v14.31h-3.64v-23.26h3.64v3.06Z"/>
      <path class="cls-11" d="M459.24,1960.44h4.36v4.46h-4.36v-4.46Z"/>
      <path class="cls-11" d="M469.54,1951.22c.31-6.66,3.82-12.55,7.2-15.66v-.04h-10.03v-2.79h13.41v2.66c-3.51,3.33-6.79,8.86-7.11,15.84h-3.46Z"/>
      <path class="cls-12" d="M165.26,2071.73h4.05v32.17h-4.05v-32.17Z"/>
      <path class="cls-12" d="M178.09,2083.7h.09c1.67-2.21,4-3.6,7.38-3.6,4.86,0,7.83,2.65,7.83,7.47v16.33h-3.64v-16.02c0-3.01-1.98-4.72-5.26-4.72-3.69,0-6.39,2.61-6.39,6.43v14.31h-3.64v-23.26h3.64v3.06Z"/>
      <path class="cls-12" d="M196.04,2080.64h3.2v-3.74c0-4,2.29-5.44,6.16-5.44.77,0,1.35.04,1.84.09v3.1c-.63-.04-.81-.04-1.17-.04-2.34,0-3.19.58-3.19,2.47v3.56h4.32v2.97h-4.32v20.29h-3.64v-20.29h-3.2v-2.97Z"/>
      <path class="cls-12" d="M208.32,2092.29c0-6.75,4.32-12.24,11.25-12.24s11.2,5.49,11.2,12.24-4.23,12.24-11.2,12.24-11.25-5.49-11.25-12.24ZM227.04,2092.29c0-5.13-2.52-9.22-7.47-9.22s-7.51,4.09-7.51,9.22,2.56,9.18,7.51,9.18,7.47-4.05,7.47-9.18Z"/>
      <path class="cls-12" d="M232.49,2096.34h3.74c.5,4.05,3.19,5.17,6.66,5.17,3.82,0,5.4-1.67,5.4-3.83,0-2.61-1.8-3.28-6.08-4.18-4.59-.95-8.68-1.89-8.68-6.97,0-3.87,2.97-6.39,8.37-6.39,5.76,0,8.59,2.75,9.13,7.29h-3.74c-.36-3.06-2.02-4.41-5.49-4.41s-4.68,1.48-4.68,3.33c0,2.52,2.25,3.01,6.25,3.82,4.68.95,8.59,1.98,8.59,7.33,0,4.68-3.82,7.06-9.18,7.06-6.39,0-9.94-3.01-10.3-8.23Z"/>
      <path class="cls-12" d="M260.79,2101.02l12.96-17.05v-.13h-12.19v-3.19h17.28v2.16l-13.36,17.64v.13h13.86v3.33h-18.54v-2.88Z"/>
      <path class="cls-12" d="M297.29,2103.9v-3.2h-.09c-1.67,2.25-3.64,3.74-7.02,3.74-4.77,0-7.83-2.88-7.83-7.69v-16.11h3.65v16.02c0,3.02,1.93,4.77,5.22,4.77,3.69,0,6.07-2.79,6.07-6.48v-14.31h3.65v23.26h-3.65Z"/>
      <path class="cls-12" d="M326.94,2103.9v-3.2h-.09c-1.67,2.25-3.64,3.74-7.02,3.74-4.77,0-7.83-2.88-7.83-7.69v-16.11h3.65v16.02c0,3.02,1.93,4.77,5.22,4.77,3.69,0,6.07-2.79,6.07-6.48v-14.31h3.65v23.26h-3.65Z"/>
      <path class="cls-12" d="M338.73,2083.7h.09c1.67-2.21,4-3.6,7.38-3.6,4.86,0,7.83,2.65,7.83,7.47v16.33h-3.64v-16.02c0-3.01-1.98-4.72-5.26-4.72-3.69,0-6.39,2.61-6.39,6.43v14.31h-3.64v-23.26h3.64v3.06Z"/>
      <path class="cls-12" d="M357.81,2105.2h3.38c.36,2.57,2.79,3.55,6.39,3.55,4.27,0,6.66-1.93,6.66-5.98v-3.29h-.09c-1.71,2.21-3.55,3.6-6.88,3.6-6.03,0-10.17-4.82-10.17-11.52,0-7.25,4.54-11.47,9.94-11.47,3.38,0,5.54,1.3,7.11,3.51h.09v-2.97h3.64v22c0,6.12-4.05,9-10.21,9s-9.45-2.43-9.85-6.43ZM374.51,2091.39c0-5.08-2.16-8.23-7.11-8.23-4.37,0-6.57,3.42-6.57,8.46s2.29,8.41,6.62,8.41c5.35,0,7.06-3.73,7.06-8.64Z"/>
      <path class="cls-12" d="M382.52,2071.73h3.64v32.17h-3.64v-32.17Z"/>
      <path class="cls-12" d="M389.49,2092.29c0-6.75,4.41-12.24,11.02-12.24,6.98,0,10.71,5.4,10.71,13.09h-18c.27,4.73,2.83,8.33,7.51,8.33,3.38,0,5.62-1.62,6.43-4.77h3.55c-1.08,5-4.72,7.83-9.99,7.83-7.11,0-11.25-5.49-11.25-12.24ZM393.32,2090.4h13.99c-.22-4.63-2.61-7.47-6.79-7.47s-6.66,3.24-7.2,7.47Z"/>
      <path class="cls-12" d="M414.33,2071.73h3.64v4.5h-3.64v-4.5ZM414.33,2080.64h3.64v23.26h-3.64v-23.26Z"/>
      <path class="cls-12" d="M421.17,2092.29c0-6.75,4.32-12.24,11.25-12.24,5.49,0,9.13,3.15,9.94,8.1h-3.69c-.54-3.15-2.75-5.08-6.25-5.08-4.95,0-7.51,4.09-7.51,9.22s2.56,9.18,7.51,9.18c3.78,0,6.03-2.16,6.34-5.76h3.6c-.5,5.58-4.14,8.82-9.94,8.82-6.93,0-11.25-5.49-11.25-12.24Z"/>
      <path class="cls-12" d="M449.03,2083.7h.09c1.67-2.21,4-3.6,7.38-3.6,4.86,0,7.83,2.65,7.83,7.47v16.33h-3.64v-16.02c0-3.01-1.98-4.72-5.26-4.72-3.69,0-6.39,2.61-6.39,6.43v14.31h-3.64v-32.17h3.64v11.97Z"/>
      <path class="cls-12" d="M467.39,2092.29c0-6.75,4.41-12.24,11.02-12.24,6.98,0,10.71,5.4,10.71,13.09h-18c.27,4.73,2.83,8.33,7.51,8.33,3.38,0,5.62-1.62,6.43-4.77h3.55c-1.08,5-4.72,7.83-9.99,7.83-7.11,0-11.25-5.49-11.25-12.24ZM471.21,2090.4h13.99c-.22-4.63-2.61-7.47-6.79-7.47s-6.66,3.24-7.2,7.47Z"/>
      <path class="cls-12" d="M495.87,2084.51h.09c1.39-2.25,3.83-4.14,6.93-4.14.67,0,1.04.09,1.49.27v3.51h-.14c-.54-.18-.9-.23-1.62-.23-3.6,0-6.75,2.7-6.75,7.07v12.91h-3.64v-23.26h3.64v3.87Z"/>
      <path class="cls-12" d="M511.89,2071.73h4.37l7.92,23.94c.5,1.48,1.26,4.32,1.26,4.32h.09s.76-2.88,1.26-4.32l7.83-23.94h4.23l-11.29,32.17h-4.46l-11.2-32.17Z"/>
      <path class="cls-12" d="M537.09,2092.29c0-6.75,4.41-12.24,11.02-12.24,6.98,0,10.71,5.4,10.71,13.09h-18c.27,4.73,2.83,8.33,7.51,8.33,3.38,0,5.62-1.62,6.43-4.77h3.55c-1.08,5-4.72,7.83-9.99,7.83-7.11,0-11.25-5.49-11.25-12.24ZM540.92,2090.4h13.99c-.22-4.63-2.61-7.47-6.79-7.47s-6.66,3.24-7.2,7.47Z"/>
      <path class="cls-12" d="M565.57,2084.51h.09c1.39-2.25,3.83-4.14,6.93-4.14.67,0,1.04.09,1.49.27v3.51h-.14c-.54-.18-.9-.23-1.62-.23-3.6,0-6.75,2.7-6.75,7.07v12.91h-3.64v-23.26h3.64v3.87Z"/>
      <path class="cls-12" d="M575.43,2080.64h3.38v-7.33h3.64v7.33h4.5v2.97h-4.5v15.12c0,1.62.86,2.16,2.34,2.16.72,0,1.53-.18,1.93-.32h.14v3.15c-.86.18-1.84.31-2.92.31-2.97,0-5.13-1.21-5.13-4.5v-15.93h-3.38v-2.97Z"/>
      <path class="cls-12" d="M588.75,2092.29c0-6.75,4.41-12.24,11.02-12.24,6.97,0,10.71,5.4,10.71,13.09h-18c.27,4.73,2.83,8.33,7.51,8.33,3.37,0,5.62-1.62,6.43-4.77h3.55c-1.08,5-4.72,7.83-9.99,7.83-7.11,0-11.25-5.49-11.25-12.24ZM592.57,2090.4h13.99c-.22-4.63-2.61-7.47-6.79-7.47s-6.66,3.24-7.2,7.47Z"/>
      <path class="cls-12" d="M613.59,2071.73h3.65v4.5h-3.65v-4.5ZM613.59,2080.64h3.65v23.26h-3.65v-23.26Z"/>
      <path class="cls-12" d="M621.87,2071.73h3.64v32.17h-3.64v-32.17Z"/>
      <path class="cls-12" d="M644.95,2103.9v-3.2h-.09c-1.67,2.25-3.64,3.74-7.02,3.74-4.77,0-7.83-2.88-7.83-7.69v-16.11h3.64v16.02c0,3.02,1.94,4.77,5.22,4.77,3.69,0,6.08-2.79,6.08-6.48v-14.31h3.64v23.26h-3.64Z"/>
      <path class="cls-12" d="M656.74,2083.7h.09c1.67-2.21,4-3.6,7.38-3.6,4.86,0,7.83,2.65,7.83,7.47v16.33h-3.64v-16.02c0-3.01-1.98-4.72-5.26-4.72-3.69,0-6.39,2.61-6.39,6.43v14.31h-3.65v-23.26h3.65v3.06Z"/>
      <path class="cls-12" d="M675.82,2105.2h3.38c.36,2.57,2.79,3.55,6.39,3.55,4.28,0,6.66-1.93,6.66-5.98v-3.29h-.09c-1.71,2.21-3.56,3.6-6.88,3.6-6.03,0-10.17-4.82-10.17-11.52,0-7.25,4.54-11.47,9.94-11.47,3.38,0,5.54,1.3,7.11,3.51h.09v-2.97h3.64v22c0,6.12-4.05,9-10.21,9s-9.45-2.43-9.85-6.43ZM692.52,2091.39c0-5.08-2.16-8.23-7.11-8.23-4.37,0-6.57,3.42-6.57,8.46s2.29,8.41,6.61,8.41c5.35,0,7.06-3.73,7.06-8.64Z"/>
      <path class="cls-12" d="M162.16,2110.33v-.9h536.21v.9H162.16Z"/>
    </g>
    <g class="cls-8">
      <g>
        <polyline class="cls-3" points="-38.49 1395.76 10.23 1553.92 10.23 1579.18"/>
        <polyline class="cls-3" points="-151.04 692.04 -106.77 753.1 837.72 590.66 1143.72 402.17"/>
        <polyline class="cls-3" points="837.72 590.66 870.51 690.73 972.81 859.58 977.47 940.2 1025.29 1032.8 1023.11 1579.18"/>
        <polyline class="cls-3" points="1347.65 1048.49 1025.29 1373.97 974.63 1403.99 570.65 1400.35 216.2 1509.52 10.23 1538.12 -151.04 1538.12"/>
        <polyline class="cls-3" points="961.34 514.51 1100.5 644.87 1133.25 692.18 1198.76 727.12 1277.36 727.12 1347.65 690.73"/>
        <polyline class="cls-3" points="570.65 1400.35 570.65 1337.23 402.84 1338.95 171.29 1350.26 87.74 1367.59 -77.58 1404.48 -154.91 1410.7"/>
        <polyline class="cls-3" points="1124.22 679.13 1073.88 707.7 1002.24 667.47 912.4 759.87 747.21 910.88 760 997.76 701.11 1024.67 602.91 1303.44 570.65 1337.23 430.44 1393.33 156.63 1446.59 -151.04 1503.9"/>
        <polyline class="cls-3" points="339.37 1471.58 295.02 1259.03 244.86 1129.54 120.74 526.75 -151.04 387.02"/>
        <polyline class="cls-3" points="625.23 822.1 600.35 877.76 555.15 899.75 556.77 915.64 634.54 933.96 659.07 997.09 612.13 1017.4 568.67 975.05 528.92 991.15 474.23 985.48 459.9 1014.21 491.89 1039.34 473.93 1071.56 437.73 1089.64 405.92 1048.49 374.72 1049.66 346.78 1097.02 439.88 1159.12 473.99 1154.86 549.41 1060.49 595.69 1070.5 584.63 1121.62 543.13 1178.57 480.95 1221.99 406.79 1215 314.71 1150.82 249.21 1140.78 191.3 1194.1 131.75 1209.74 98.7 1328.78 106.9 1455.85 143.65 1494.46 140.31 1575.47"/>
        <polyline class="cls-3" points="464.87 859.76 476.66 911.88 400.87 976.66 405.92 1048.49"/>
        <polyline class="cls-3" points="-154.91 1318.82 -106.77 1294.59 -28.77 1312.87 28.25 1289.2 41.44 1208.56 125.35 1107.07 309.64 1037.73 353.47 976.66 389.92 875.32 886.01 763.13 912.4 759.87"/>
        <polyline class="cls-3" points="-151.04 1035.48 264.36 996.51 373.28 921.59"/>
        <polyline class="cls-3" points="-151.04 1148.21 -87.82 1209.74 -27.87 1183.01 4.8 1116.55 97.82 1060.97 107.71 913.38 74.78 721.88"/>
        <polyline class="cls-3" points="634.54 933.96 690.02 927.25 679.77 876.13 711.77 860.59 747.21 910.88"/>
        <polyline class="cls-3" points="-106.77 753.1 -19.04 826.44 93.74 851.12 869.66 672.35"/>
        <line class="cls-3" x1="-151.04" y1="692.04" x2="1347.65" y2="356.51"/>
        <line class="cls-3" x1="309.64" y1="895.78" x2="240.27" y2="604.43"/>
        <polyline class="cls-3" points="-154.91 895.78 107.71 913.38 209.07 921.41 389.92 875.32 316.82 526.75 120.74 526.75"/>
        <line class="cls-3" x1="448.18" y1="557.89" x2="513.64" y2="847.34"/>
        <line class="cls-3" x1="625.23" y1="822.1" x2="581.84" y2="633.81"/>
        <polyline class="cls-3" points="677.54 509.34 819.44 991.3 863.38 1062.98 904.81 1061.74 982.46 1221.38 934.13 1271.07 1024.07 1337.43"/>
        <polyline class="cls-3" points="656.54 1401.06 664.45 1339.85 940.84 1020.05 1096.79 934.65 1347.65 734.8"/>
        <polyline class="cls-3" points="113.01 1277.22 195 1251.23 299.76 1281.76 350.1 1249.65 400.64 1283.75 532.82 1289.3 598.5 1214.43 759.24 1353.19 759.24 1579.18"/>
        <polyline class="cls-3" points="584.63 1121.62 888.88 1355.73 945.84 1579.18"/>
        <polyline class="cls-3" points="660.87 1269.23 972.81 859.58 1073.88 784.1 1116.99 814.96 1096.79 934.65"/>
        <line class="cls-3" x1="584.61" y1="1230.27" x2="543.13" y2="1178.57"/>
        <polyline class="cls-3" points="787.35 1099.57 893.67 1188.36 1347.65 990.93"/>
        <polyline class="cls-3" points="893.67 1188.36 812.12 1289.64 820.54 1579.18"/>
        <polyline class="cls-3" points="929.05 1111.58 1233.51 973.73 1300.95 903.48 1347.65 888.55"/>
        <polyline class="cls-3" points="216.2 1509.52 236.32 1431.09 171.29 1350.26"/>
      </g>
    </g>
    <polyline class="cls-4" points="127.16 557.89 244.86 1129.54 249.21 1140.78 295.02 1259.03 339.37 1471.58 570.65 1400.35 815.4 1402.55 818.66 1514.49"/>
    <rect class="cls-12" x="846.89" y="1469.3" width="28.58" height="28.58"/>
    <rect class="cls-12" x="333.36" y="1285.94" width="28.58" height="28.58"/>
    <rect class="cls-12" x="151.3" y="945.21" width="28.58" height="28.58"/>
    <path class="cls-12" d="M116.87,2083.58l-20.94-18.69,3.34-4.24,27.71,25.37v.09l-27.71,25.37-3.34-4.15,20.94-18.78h-42.97v-4.96h42.97Z"/>
    <g class="cls-9">
      <g>
        <path class="cls-14" d="M850.03,1983.61c15.95,0,31.09,6.89,41.53,18.91,19.89,22.88,17.46,57.68-5.42,77.57-10.01,8.7-22.81,13.49-36.04,13.49-15.95,0-31.09-6.89-41.53-18.91-9.64-11.08-14.38-25.26-13.35-39.91,1.02-14.65,7.69-28.03,18.78-37.66,10.01-8.7,22.81-13.49,36.04-13.49M850.03,1952.39c-20.05,0-40.2,6.96-56.52,21.15-35.93,31.24-39.74,85.69-8.5,121.62,17.05,19.61,41,29.65,65.1,29.65,20.05,0,40.2-6.96,56.52-21.15,35.93-31.24,39.74-85.69,8.5-121.62-17.05-19.61-41.01-29.65-65.1-29.65h0Z"/>
        <line class="cls-2" x1="886.04" y1="2383.61" x2="886.04" y2="2488.45"/>
        <line class="cls-2" x1="814.09" y1="2383.61" x2="814.09" y2="2488.45"/>
        <path class="cls-14" d="M850.06,2178.44l83.5,193.65h-167l83.5-193.65M850.06,2099.59l-130.96,303.72h261.92l-130.96-303.72h0Z"/>
        <path class="cls-14" d="M1098.64,1983.61c15.95,0,31.09,6.89,41.53,18.91,19.89,22.88,17.46,57.68-5.42,77.57-10.01,8.7-22.81,13.49-36.04,13.49-15.95,0-31.09-6.89-41.53-18.91-9.64-11.08-14.38-25.26-13.35-39.91,1.02-14.65,7.69-28.03,18.78-37.66,10.01-8.7,22.81-13.49,36.04-13.49M1098.64,1952.39c-20.05,0-40.2,6.96-56.52,21.15-35.93,31.24-39.74,85.69-8.5,121.62,17.05,19.61,41,29.65,65.1,29.65,20.05,0,40.2-6.96,56.52-21.15,35.93-31.24,39.74-85.69,8.5-121.62-17.05-19.61-41.01-29.65-65.1-29.65h0Z"/>
        <line class="cls-2" x1="1134.65" y1="2292.67" x2="1134.65" y2="2488.45"/>
        <line class="cls-2" x1="1062.71" y1="2292.67" x2="1062.71" y2="2488.45"/>
        <path class="cls-14" d="M1169.99,2153.46l22.66,132.87h-187.93l22.66-132.87h142.61M1196.33,2122.24h-195.31l-33.31,195.31h261.92l-33.31-195.31h0Z"/>
      </g>
    </g>
  </g>
</svg>