<?xml version="1.0" encoding="UTF-8"?>
<svg id="Ebene_2" data-name="Ebene 2" xmlns="http://www.w3.org/2000/svg" xmlns:xlink="http://www.w3.org/1999/xlink" viewBox="0 0 1170 2532">
  <defs>
    <style>
      .cls-1 {
        fill: none;
      }

      .cls-2 {
        fill: #05141d;
      }

      .cls-3 {
        fill: #01141e;
      }

      .cls-4 {
        fill: #2b2b2a;
      }

      .cls-5 {
        fill: #fff;
      }

      .cls-6 {
        fill: red;
      }

      .cls-7 {
        clip-path: url(#clippath);
      }
    </style>
    <clipPath id="clippath">
      <rect class="cls-1" x="126.94" y="165.51" width="918.12" height="246.85"/>
    </clipPath>
  </defs>
  <g id="Ebene_1-2" data-name="Ebene 1">
    <rect class="cls-5" width="1170" height="2532"/>
    <g class="cls-7">
      <path class="cls-6" d="M1039.83,337.42c2.83,0,5.23-2.4,5.23-5.23s-2.4-5.23-5.23-5.23-5.12,2.4-5.12,5.23,2.4,5.23,5.12,5.23M1018.68,337.09c2.83,0,6.98-1.09,8.94-3.92v-2.18c-.98.87-2.62,2.29-5.56,2.29-5.01,0-7.08-3.71-7.08-7.52v-40.22h12.75v-2.83h-12.75v-14.06h-2.94c-1.85,8.61-5.89,13.51-12.1,15.04v1.85h7.41v39.78c0,8.5,5.99,11.77,11.34,11.77M961.36,336.33c6.43-.33,13.73-.33,21.04,0v-2.07c-3.49-.44-7.3-1.53-7.3-6.43v-28.34c0-4.9,2.29-12.97,7.52-12.97,4.25,0,5.01,5.45,9.37,5.45,2.51,0,4.14-2.07,4.14-4.47,0-3.49-3.38-6.76-8.83-6.76-6.32,0-11.12,4.25-13.62,13.62h-.65l2.72-11.99c-.33-.98-.87-1.53-1.74-1.85-2.51,1.96-7.3,4.36-12.97,5.12v2.07c4.36-.33,6.43.22,6.43,3.71v36.4c0,4.9-2.94,5.99-6.1,6.43v2.07ZM933.67,282.81c9.37,0,14.28,8.39,12.97,22.34h-26.16c.11-14.93,4.58-22.34,13.19-22.34M939.01,334.58c-11.44,0-17.98-11.01-18.53-27.14h30.08c3.49,0,4.58-2.4,4.58-6.87,0-13.73-10.03-19.84-20.6-19.84-14.06,0-22.89,11.66-22.89,28.56,0,17.77,10.03,28.23,24.2,28.23,9.59,0,16.46-4.9,18.96-11.23h-2.51c-2.62,6.32-8.61,8.28-13.3,8.28M886.7,336.33c6.76-.54,13.84-.54,20.6,0v-2.07c-3.38-.44-6.43-1.53-6.43-6.43v-32.48c0-6.65,0-10.79.65-12.97-.44-.98-.98-1.53-1.85-1.85-3.6,2.4-7.3,4.25-12.53,5.12v2.07c3.81,0,6.1,2.83,6.1,7.63v32.48c0,4.9-3.05,5.99-6.54,6.43v2.07ZM896.29,271.04c2.72,0,5.12-2.29,5.12-5.12s-2.4-5.01-5.12-5.01-5.01,2.18-5.01,5.01,2.29,5.12,5.01,5.12M830.46,336.33c6.65-.33,13.3-.33,19.95,0v-2.07c-3.27-.65-6.21-1.53-6.21-6.43v-28.66c0-7.52,4.9-13.73,12.64-13.73s12.21,5.89,12.21,13.73v28.66c0,4.9-2.72,5.78-5.99,6.43v2.07c6.54-.33,13.19-.33,19.84,0v-2.07c-3.27-.44-6.21-1.53-6.21-6.43v-28.99c0-14.5-9.05-18.09-16.35-18.09-12.21,0-16.68,10.03-17.33,13.3h-.44l2.07-11.66c-.33-.98-.87-1.53-1.74-1.85-2.51,2.07-7.08,4.36-12.75,5.12v2.07c4.36-.33,6.43.22,6.43,3.71v36.4c0,4.9-2.72,5.99-6.1,6.43v2.07ZM802.89,335.35c-10.25,0-17.44-12.21-17.44-28.77s6.1-23.65,14.06-23.65c10.35,0,17.44,11.99,17.44,28.77s-5.99,23.65-14.06,23.65M801.36,337.53c12.53,0,23.98-9.7,23.98-28.45s-11.34-28.34-24.3-28.34-23.87,9.7-23.87,28.45,11.23,28.34,24.2,28.34M752.21,336.33c6.76-.54,13.84-.54,20.6,0v-2.07c-3.38-.44-6.43-1.53-6.43-6.43v-32.48c0-6.65,0-10.79.65-12.97-.44-.98-.98-1.53-1.85-1.85-3.6,2.4-7.3,4.25-12.53,5.12v2.07c3.81,0,6.1,2.83,6.1,7.63v32.48c0,4.9-3.05,5.99-6.54,6.43v2.07ZM761.8,271.04c2.72,0,5.12-2.29,5.12-5.12s-2.4-5.01-5.12-5.01-5.01,2.18-5.01,5.01,2.29,5.12,5.01,5.12M737.82,337.09c2.83,0,6.98-1.09,8.94-3.92v-2.18c-.98.87-2.62,2.29-5.56,2.29-5.01,0-7.08-3.71-7.08-7.52v-40.22h12.75v-2.83h-12.75v-14.06h-2.94c-1.85,8.61-5.89,13.51-12.1,15.04v1.85h7.41v39.78c0,8.5,5.99,11.77,11.33,11.77M685.62,305.27c16.89-16.24,21.69-20.93,28.12-21.47v-2.07c-5.01.33-12.64.33-19.62,0v2.07c11.23.54-4.36,15.48-14.39,23.21v-32.59c0-6.65,0-10.79.65-12.97-.44-.98-.98-1.53-1.85-1.85-3.6,2.4-7.3,4.25-12.53,5.12v2.07c3.81,0,6.1,2.83,6.1,7.63v53.41c0,4.9-3.05,5.99-6.54,6.43v2.07c6.76-.54,13.84-.54,20.6,0v-2.07c-3.38-.44-6.43-1.53-6.43-6.43v-18.2l14.82,17.87c6.43,7.63,12.42,10.14,19.07,10.14l2.72-2.07c-2.62,0-8.17-3.81-13.08-9.7l-17.66-20.6ZM610.96,336.33c6.65-.33,13.3-.33,19.95,0v-2.07c-3.27-.65-6.21-1.53-6.21-6.43v-28.66c0-7.52,4.9-13.73,12.64-13.73s12.21,5.89,12.21,13.73v28.66c0,4.9-2.72,5.78-5.99,6.43v2.07c6.54-.33,13.19-.33,19.84,0v-2.07c-3.27-.44-6.21-1.53-6.21-6.43v-28.99c0-14.5-9.05-18.09-16.35-18.09-12.21,0-16.68,10.03-17.33,13.3h-.44l2.07-11.66c-.33-.98-.87-1.53-1.74-1.85-2.51,2.07-7.08,4.36-12.75,5.12v2.07c4.36-.33,6.43.22,6.43,3.71v36.4c0,4.9-2.72,5.99-6.1,6.43v2.07ZM594.5,337.53c4.25-1.2,7.52-1.2,12.75-1.2v-2.07c-4.03-.87-6.21-2.07-6.21-7.74v-43.38c0-1.42-.33-2.07-2.18-1.74l-11.66,1.09v2.07c5.34.22,6.32,1.63,6.32,5.99v28.12c-.98,7.63-5.45,14.06-13.19,14.06s-12.42-6.65-12.42-14.06v-35.53c0-1.42-.76-1.85-2.18-1.74l-11.66,1.09v2.07c5.12.22,6.32,1.85,6.32,5.99v28.45c0,14.82,9.37,18.31,16.46,18.31,12.1,0,16.89-9.92,17.22-11.66h.54l-1.53,10.03c0,.98.65,1.53,1.42,1.85M543.71,260.25c-7.74,0-14.6,4.25-14.6,17.33v5.56c-1.31.54-3.92,1.09-6.1,1.09v2.07h6.1v41.53c0,4.9-3.05,5.99-6.54,6.43v2.07c6.76-.54,13.84-.54,21.8,0v-2.07c-4.58-.44-7.63-1.53-7.63-6.43v-41.53h11.99v-3.16h-11.99v-6.87c0-7.19.54-13.84,5.67-13.84,6.21,0,4.69,9.16,9.81,9.16,2.62,0,3.05-2.18,3.05-3.49,0-3.27-3.6-7.85-11.55-7.85M485.3,337.09c2.83,0,6.98-1.09,8.94-3.92v-2.18c-.98.87-2.62,2.29-5.56,2.29-5.01,0-7.08-3.71-7.08-7.52v-40.22h12.75v-2.83h-12.75v-14.06h-2.94c-1.85,8.61-5.89,13.51-12.1,15.04v1.85h7.41v39.78c0,8.5,5.99,11.77,11.33,11.77M436.36,334.37c-11.55,0-16.46-14.28-16.46-27.36,0-16.35,7.74-23.87,15.91-23.87,5.78,0,11.01,3.49,13.19,10.35v28.77c0,5.89-5.01,12.1-12.64,12.1M450.31,337.53c4.25-1.2,7.19-1.2,12.42-1.2v-2.07c-4.03-.87-6.1-2.07-6.1-7.74v-52.1c0-6.65,0-10.79.65-12.97-.33-.98-.98-1.53-1.85-1.85-3.6,2.4-7.3,4.25-12.53,5.12v2.07c3.81,0,6.1,2.83,6.1,7.63v13.19c-2.83-3.92-8.5-6.87-15.26-6.87-12.64,0-22.23,9.92-22.23,28.23s8.83,28.56,21.69,28.56c9.37,0,15.04-5.89,16.68-9.16h.54l-1.53,7.3c0,.98.65,1.53,1.42,1.85M379.9,333.39c-4.9,0-10.68-3.16-10.68-11.55,0-5.45,2.62-12.64,24.2-15.59v13.51c0,7.85-6.54,13.62-13.51,13.62M401.05,298.73c0-12.64-3.16-17.98-16.35-17.98s-21.69,6.21-21.47,13.62c0,3.05,1.42,5.01,4.58,5.01,9.37,0-1.74-16.35,14.5-16.35,9.92,0,11.12,6.21,11.12,16.02v4.9c-27.25,3.81-33.24,11.44-33.24,19.84,0,10.14,7.96,13.73,15.26,13.73,9.05,0,15.26-5.23,17.98-9.59h.76v1.63c0,4.58,1.96,7.96,7.19,7.96,1.63,0,3.6-.22,5.23-1.74v-1.96c-3.49.54-5.56-1.74-5.56-5.78v-29.32ZM346.33,337.09c2.83,0,6.98-1.09,8.94-3.92v-2.18c-.98.87-2.62,2.29-5.56,2.29-5.01,0-7.08-3.71-7.08-7.52v-40.22h12.75v-2.83h-12.75v-14.06h-2.94c-1.85,8.61-5.89,13.51-12.1,15.04v1.85h7.41v39.78c0,8.5,5.99,11.77,11.34,11.77M304.7,337.64c10.03,0,19.62-5.89,19.62-18.09,0-14.06-13.41-18.42-22.78-22.56-8.83-3.81-13.73-8.94-13.73-15.91s5.34-11.88,12.97-11.88c6.98,0,12.97,3.92,16.68,12.21h2.18l-.65-13.62h-2.18c-.54,1.53-1.74,1.85-3.05,1.85-3.49,0-6.43-2.72-13.41-2.72-12.53,0-19.29,8.17-19.29,17.11,0,10.25,8.5,16.78,19.07,21.36,7.19,3.05,16.57,7.74,16.57,17.11,0,6.87-4.9,12.64-14.17,12.64-10.03,0-16.35-6.54-19.4-14.06h-2.18l.87,15.26h2.51c0-1.74,1.74-3.05,3.16-3.05,2.83,0,8.5,4.36,17.22,4.36M229.5,282.81c9.37,0,14.28,8.39,12.97,22.34h-26.16c.11-14.93,4.58-22.34,13.19-22.34M234.84,334.58c-11.44,0-17.98-11.01-18.53-27.14h30.08c3.49,0,4.58-2.4,4.58-6.87,0-13.73-10.03-19.84-20.6-19.84-14.06,0-22.89,11.66-22.89,28.56,0,17.77,10.03,28.23,24.2,28.23,9.59,0,16.46-4.9,18.96-11.23h-2.51c-2.62,6.32-8.61,8.28-13.3,8.28M182.52,336.33c6.76-.54,13.84-.54,20.6,0v-2.07c-3.38-.44-6.43-1.53-6.43-6.43v-32.48c0-6.65,0-10.79.65-12.97-.44-.98-.98-1.53-1.85-1.85-3.6,2.4-7.3,4.25-12.53,5.12v2.07c3.81,0,6.1,2.83,6.1,7.63v32.48c0,4.9-3.05,5.99-6.54,6.43v2.07ZM192.12,271.04c2.72,0,5.12-2.29,5.12-5.12s-2.4-5.01-5.12-5.01-5.01,2.18-5.01,5.01,2.29,5.12,5.01,5.12M151.79,334.37c-11.55,0-16.46-14.28-16.46-27.36,0-16.35,7.74-23.87,15.91-23.87,5.78,0,11.01,3.49,13.19,10.35v28.77c0,5.89-5.01,12.1-12.64,12.1M165.74,337.53c4.25-1.2,7.19-1.2,12.42-1.2v-2.07c-4.03-.87-6.1-2.07-6.1-7.74v-52.1c0-6.65,0-10.79.65-12.97-.33-.98-.98-1.53-1.85-1.85-3.6,2.4-7.3,4.25-12.53,5.12v2.07c3.81,0,6.1,2.83,6.1,7.63v13.19c-2.83-3.92-8.5-6.87-15.26-6.87-12.64,0-22.23,9.92-22.23,28.23s8.83,28.56,21.69,28.56c9.37,0,15.04-5.89,16.68-9.16h.54l-1.53,7.3c0,.98.65,1.53,1.42,1.85"/>
      <path class="cls-4" d="M610.19,252.7c.44.44.76.44,1.42,0,3.81-3.38,5.89-8.39,5.89-12.64,0-3.71-2.07-7.08-5.67-7.08-2.83,0-5.01,1.85-5.01,5.23,0,2.83,2.29,4.58,4.36,4.58.87,0,1.09-.11,1.63-.22.22.33.22.76.22,1.09,0,2.94-1.85,6.32-3.49,7.96l.65,1.09ZM574.23,242.24c6.43-.33,13.73-.33,21.04,0v-2.07c-3.49-.44-7.3-1.53-7.3-6.43v-28.34c0-4.9,2.29-12.97,7.52-12.97,4.25,0,5.01,5.45,9.37,5.45,2.51,0,4.14-2.07,4.14-4.47,0-3.49-3.38-6.76-8.83-6.76-6.32,0-11.12,4.25-13.62,13.62h-.65l2.72-11.99c-.33-.98-.87-1.53-1.74-1.85-2.51,1.96-7.3,4.36-12.97,5.12v2.07c4.36-.33,6.43.22,6.43,3.71v36.4c0,4.9-2.94,5.99-6.1,6.43v2.07ZM546.11,241.25c-10.25,0-17.44-12.21-17.44-28.77s6.1-23.65,14.06-23.65c10.35,0,17.44,11.99,17.44,28.77s-5.99,23.65-14.06,23.65M544.58,243.43c12.53,0,23.98-9.7,23.98-28.45s-11.33-28.34-24.3-28.34-23.87,9.7-23.87,28.45,11.23,28.34,24.2,28.34M501.64,189.7c5.99.11,7.96,1.42,5.89,7.19l-10.46,32.26-11.34-32.26c-2.07-5.78-.87-7.08,4.58-7.19v-2.07h-21.25v2.07c4.14.11,6.32,1.42,8.28,7.19l16.24,45.34h1.42l15.26-45.34c2.07-5.78,4.58-7.08,10.14-7.19v-2.07h-18.75v2.07ZM407.58,242.24c6.43-.33,13.73-.33,21.04,0v-2.07c-3.49-.44-7.3-1.53-7.3-6.43v-28.34c0-4.9,2.29-12.97,7.52-12.97,4.25,0,5.01,5.45,9.37,5.45,2.51,0,4.14-2.07,4.14-4.47,0-3.49-3.38-6.76-8.83-6.76-6.32,0-11.12,4.25-13.62,13.62h-.65l2.72-11.99c-.33-.98-.87-1.53-1.74-1.85-2.51,1.96-7.3,4.36-12.97,5.12v2.07c4.36-.33,6.43.22,6.43,3.71v36.4c0,4.9-2.94,5.99-6.1,6.43v2.07ZM382.41,242.24c6.76-.54,13.84-.54,20.6,0v-2.07c-3.38-.44-6.43-1.53-6.43-6.43v-32.48c0-6.65,0-10.79.65-12.97-.44-.98-.98-1.53-1.85-1.85-3.6,2.4-7.3,4.25-12.53,5.12v2.07c3.81,0,6.1,2.83,6.1,7.63v32.48c0,4.9-3.05,5.99-6.54,6.43v2.07ZM392,176.95c2.72,0,5.12-2.29,5.12-5.12s-2.4-5.01-5.12-5.01-5.01,2.18-5.01,5.01,2.29,5.12,5.01,5.12M351.68,240.27c-11.55,0-16.46-14.28-16.46-27.36,0-16.35,7.74-23.87,15.91-23.87,5.78,0,11.01,3.49,13.19,10.35v28.77c0,5.89-5.01,12.1-12.64,12.1M365.63,243.43c4.25-1.2,7.19-1.2,12.42-1.2v-2.07c-4.03-.87-6.1-2.07-6.1-7.74v-52.1c0-6.65,0-10.79.65-12.97-.33-.98-.98-1.53-1.85-1.85-3.6,2.4-7.3,4.25-12.53,5.12v2.07c3.81,0,6.1,2.83,6.1,7.63v13.19c-2.83-3.92-8.5-6.87-15.26-6.87-12.64,0-22.23,9.92-22.23,28.23s8.83,28.56,21.69,28.56c9.37,0,15.04-5.89,16.68-9.16h.54l-1.53,7.3c0,.98.65,1.53,1.42,1.85M277.89,242.24c6.76-.54,13.84-.54,20.6,0v-2.07c-3.38-.44-6.43-1.53-6.43-6.43v-53.41c0-6.65,0-10.79.65-12.97-.44-.98-.98-1.53-1.85-1.85-3.6,2.4-7.3,4.25-12.53,5.12v2.07c3.81,0,6.1,2.83,6.1,7.63v53.41c0,4.9-3.05,5.99-6.54,6.43v2.07ZM254.02,242.24c6.76-.54,13.84-.54,20.6,0v-2.07c-3.38-.44-6.43-1.53-6.43-6.43v-53.41c0-6.65,0-10.79.65-12.97-.44-.98-.98-1.53-1.85-1.85-3.6,2.4-7.3,4.25-12.53,5.12v2.07c3.81,0,6.1,2.83,6.1,7.63v53.41c0,4.9-3.05,5.99-6.54,6.43v2.07ZM227.65,188.72c9.37,0,14.28,8.39,12.97,22.34h-26.16c.11-14.93,4.58-22.34,13.19-22.34M232.99,240.49c-11.44,0-17.98-11.01-18.53-27.14h30.08c3.49,0,4.58-2.4,4.58-6.87,0-13.73-10.03-19.84-20.6-19.84-14.06,0-22.89,11.66-22.89,28.56,0,17.77,10.03,28.23,24.2,28.23,9.59,0,16.46-4.9,18.96-11.23h-2.51c-2.62,6.32-8.61,8.28-13.3,8.28M192.33,243c2.83,0,6.98-1.09,8.94-3.92v-2.18c-.98.87-2.62,2.29-5.56,2.29-5.01,0-7.08-3.71-7.08-7.52v-40.22h12.75v-2.83h-12.75v-14.06h-2.94c-1.85,8.61-5.89,13.51-12.1,15.04v1.85h7.41v39.78c0,8.5,5.99,11.77,11.33,11.77M150.7,243.54c10.03,0,19.62-5.89,19.62-18.09,0-14.06-13.41-18.42-22.78-22.56-8.83-3.81-13.73-8.94-13.73-15.91s5.34-11.88,12.97-11.88c6.98,0,12.97,3.92,16.68,12.21h2.18l-.65-13.62h-2.18c-.54,1.53-1.74,1.85-3.05,1.85-3.49,0-6.43-2.72-13.41-2.72-12.53,0-19.29,8.17-19.29,17.11,0,10.25,8.5,16.78,19.07,21.36,7.19,3.05,16.57,7.74,16.57,17.11,0,6.87-4.9,12.64-14.17,12.64-10.03,0-16.35-6.54-19.4-14.06h-2.18l.87,15.26h2.51c0-1.74,1.74-3.05,3.16-3.05,2.83,0,8.5,4.36,17.22,4.36"/>
      <path class="cls-3" d="M936.96,406.59h3.25v-3.32h-3.25v3.32ZM925.59,391.46h2.52v11.87c0,2.45,1.61,3.35,3.82,3.35.8,0,1.54-.1,2.18-.23v-2.35h-.1c-.3.1-.91.23-1.44.23-1.11,0-1.74-.4-1.74-1.61v-11.27h3.35v-2.21h-3.35v-5.47h-2.72v5.47h-2.52v2.21ZM912.04,382.61h-2.72v23.98h2.72v-10.66c0-2.85,2.01-4.8,4.76-4.8,2.45,0,3.92,1.27,3.92,3.52v11.94h2.72v-12.17c0-3.59-2.21-5.57-5.84-5.57-2.52,0-4.26,1.04-5.5,2.68h-.07v-8.92ZM899.33,407.06c4.33,0,7.04-2.41,7.41-6.57h-2.68c-.23,2.68-1.91,4.29-4.73,4.29-3.69,0-5.6-3.02-5.6-6.84s1.91-6.87,5.6-6.87c2.62,0,4.26,1.44,4.66,3.79h2.75c-.6-3.69-3.32-6.04-7.41-6.04-5.16,0-8.38,4.09-8.38,9.12s3.22,9.12,8.38,9.12M885.52,385.96h2.72v-3.35h-2.72v3.35ZM885.52,406.59h2.72v-17.34h-2.72v17.34ZM870.53,389.25h-2.72v17.34h2.72v-10.66c0-2.85,2.01-4.8,4.76-4.8,2.45,0,3.92,1.27,3.92,3.52v11.94h2.72v-12.17c0-3.59-2.21-5.57-5.84-5.57-2.52,0-4.26,1.04-5.5,2.68h-.07v-2.28ZM851.85,390.96c3.12,0,4.9,2.11,5.06,5.57h-10.43c.4-3.15,2.15-5.57,5.37-5.57M852.01,407.06c3.92,0,6.64-2.11,7.44-5.84h-2.65c-.6,2.35-2.28,3.55-4.8,3.55-3.49,0-5.4-2.68-5.6-6.2h13.41c0-5.73-2.78-9.76-7.98-9.76-4.93,0-8.22,4.09-8.22,9.12s3.09,9.12,8.38,9.12M836.49,389.25h-2.72v17.34h2.72v-9.62c0-3.25,2.35-5.27,5.03-5.27.54,0,.8.03,1.21.17h.1v-2.62c-.34-.13-.6-.2-1.11-.2-2.31,0-4.12,1.41-5.16,3.09h-.07v-2.88ZM823.14,390.96c3.12,0,4.9,2.11,5.06,5.57h-10.43c.4-3.15,2.15-5.57,5.37-5.57M823.31,407.06c3.92,0,6.64-2.11,7.44-5.84h-2.65c-.6,2.35-2.28,3.55-4.8,3.55-3.49,0-5.4-2.68-5.6-6.2h13.41c0-5.73-2.78-9.76-7.98-9.76-4.93,0-8.22,4.09-8.22,9.12s3.09,9.12,8.38,9.12M804.16,404.81c-3.32,0-5-2.88-5-6.81s1.68-6.84,4.96-6.84c3.59,0,5.53,2.82,5.53,6.84s-1.64,6.81-5.5,6.81M804.06,407.09c2.45,0,4.06-.94,5.37-2.62h.07v2.11h2.72v-23.98h-2.72v9.09h-.07c-1.11-1.64-2.98-2.85-5.43-2.85-4.29,0-7.61,3.35-7.61,9.12s2.95,9.12,7.68,9.12M782.36,389.25h-2.72v17.34h2.72v-10.66c0-2.85,2.01-4.8,4.76-4.8,2.45,0,3.92,1.27,3.92,3.52v11.94h2.72v-12.17c0-3.59-2.21-5.57-5.84-5.57-2.52,0-4.26,1.04-5.5,2.68h-.07v-2.28ZM767.97,404.84c-1.78,0-3.59-.5-3.59-2.82,0-2.55,2.18-3.02,4.9-3.52,1.48-.27,3.05-.7,3.96-1.27v2.95c0,2.01-1.64,4.66-5.27,4.66M776.16,406.75c.7,0,1.14-.13,1.48-.27v-1.98h-.1c-1.51.34-1.84-.44-1.84-1.84v-8.25c0-4.12-2.72-5.5-6.41-5.5-4.59,0-6.81,2.52-6.91,5.87h2.62c.1-2.62,1.51-3.82,4.33-3.82,2.48,0,3.89,1.11,3.89,3.05s-1.71,2.11-4.16,2.48c-4.33.67-7.55,1.51-7.55,5.6,0,3.29,2.58,4.83,5.87,4.83,2.95,0,4.73-1.41,5.77-2.75h.03c.27,1.78,1.21,2.58,2.98,2.58M748.42,389.25h-2.72v17.34h2.72v-9.62c0-3.25,2.35-5.27,5.03-5.27.54,0,.8.03,1.21.17h.1v-2.62c-.34-.13-.6-.2-1.11-.2-2.31,0-4.12,1.41-5.16,3.09h-.07v-2.88ZM731.15,385.96h2.62v-3.19h-2.62v3.19ZM736.65,385.96h2.62v-3.19h-2.62v3.19ZM742.02,406.59v-17.34h-2.72v10.66c0,2.75-1.78,4.83-4.53,4.83-2.45,0-3.89-1.31-3.89-3.55v-11.94h-2.72v12.01c0,3.59,2.28,5.73,5.84,5.73,2.52,0,3.99-1.11,5.23-2.78h.07v2.38h2.72ZM710.46,406.59h3.02v-11.3h11.03v-2.55h-11.03v-7.48h13.25v-2.65h-16.26v23.98ZM692.32,406.59h3.25v-3.32h-3.25v3.32ZM692.69,400.79h2.55c.03-3.42.77-4.26,3.55-6.57,1.58-1.31,3.09-2.88,3.09-5.63,0-3.52-2.58-6.41-7.31-6.41-5.6,0-7.91,3.59-8.02,8.15h2.75c.1-3.42,1.71-5.73,5.16-5.73,2.95,0,4.53,1.88,4.53,4.02s-1.31,3.22-2.78,4.53c-2.55,2.25-3.49,3.96-3.52,7.65M673.17,382.61h-2.72v23.98h2.72v-10.66c0-2.85,2.01-4.8,4.76-4.8,2.45,0,3.92,1.27,3.92,3.52v11.94h2.72v-12.17c0-3.59-2.21-5.57-5.84-5.57-2.52,0-4.26,1.04-5.5,2.68h-.07v-8.92ZM660.46,407.06c4.33,0,7.04-2.41,7.41-6.57h-2.68c-.23,2.68-1.91,4.29-4.73,4.29-3.69,0-5.6-3.02-5.6-6.84s1.91-6.87,5.6-6.87c2.62,0,4.26,1.44,4.66,3.79h2.75c-.6-3.69-3.32-6.04-7.41-6.04-5.16,0-8.38,4.09-8.38,9.12s3.22,9.12,8.38,9.12M646.65,385.96h2.72v-3.35h-2.72v3.35ZM646.65,406.59h2.72v-17.34h-2.72v17.34ZM634.91,404.81c-3.32,0-5-2.88-5-6.81s1.68-6.84,4.96-6.84c3.59,0,5.53,2.82,5.53,6.84s-1.64,6.81-5.5,6.81M634.81,407.09c2.45,0,4.06-.94,5.37-2.62h.07v2.11h2.72v-23.98h-2.72v9.09h-.07c-1.11-1.64-2.98-2.85-5.43-2.85-4.29,0-7.61,3.35-7.61,9.12s2.95,9.12,7.68,9.12M613.98,389.25h-2.72v17.34h2.72v-9.62c0-3.25,2.35-5.27,5.03-5.27.54,0,.8.03,1.21.17h.1v-2.62c-.34-.13-.6-.2-1.11-.2-2.31,0-4.12,1.41-5.16,3.09h-.07v-2.88ZM596.71,385.96h2.62v-3.19h-2.62v3.19ZM602.21,385.96h2.62v-3.19h-2.62v3.19ZM607.58,406.59v-17.34h-2.72v10.66c0,2.75-1.78,4.83-4.53,4.83-2.45,0-3.89-1.31-3.89-3.55v-11.94h-2.72v12.01c0,3.59,2.28,5.73,5.84,5.73,2.52,0,3.99-1.11,5.23-2.78h.07v2.38h2.72ZM582.86,391.46h2.38v15.12h2.72v-15.12h3.22v-2.21h-3.22v-2.65c0-1.41.64-1.84,2.38-1.84.27,0,.4,0,.87.03v-2.31c-.37-.03-.8-.07-1.37-.07-2.88,0-4.6,1.07-4.6,4.06v2.78h-2.38v2.21ZM569.18,407.09c3.99,0,6.84-1.78,6.84-5.27,0-3.99-2.92-4.76-6.41-5.47-2.98-.6-4.66-.97-4.66-2.85,0-1.37,1.01-2.48,3.49-2.48s3.82,1.01,4.09,3.29h2.78c-.4-3.39-2.52-5.43-6.81-5.43-4.02,0-6.24,1.88-6.24,4.76,0,3.79,3.05,4.49,6.47,5.2,3.19.67,4.53,1.17,4.53,3.12,0,1.61-1.17,2.85-4.02,2.85-2.58,0-4.59-.84-4.96-3.86h-2.78c.27,3.89,2.92,6.14,7.68,6.14M551.54,404.78c-3.69,0-5.6-3.02-5.6-6.84s1.91-6.87,5.6-6.87,5.57,3.05,5.57,6.87-1.88,6.84-5.57,6.84M551.54,407.06c5.2,0,8.35-4.09,8.35-9.12s-3.15-9.12-8.35-9.12-8.38,4.09-8.38,9.12,3.22,9.12,8.38,9.12M537.62,406.59h2.72v-23.98h-2.72v23.98ZM528.07,407.09c3.99,0,6.84-1.78,6.84-5.27,0-3.99-2.92-4.76-6.41-5.47-2.98-.6-4.66-.97-4.66-2.85,0-1.37,1.01-2.48,3.49-2.48s3.82,1.01,4.09,3.29h2.78c-.4-3.39-2.52-5.43-6.81-5.43-4.02,0-6.24,1.88-6.24,4.76,0,3.79,3.05,4.49,6.47,5.2,3.19.67,4.53,1.17,4.53,3.12,0,1.61-1.17,2.85-4.02,2.85-2.58,0-4.59-.84-4.96-3.86h-2.78c.27,3.89,2.92,6.14,7.68,6.14M510.02,403.7c-3.22,0-4.93-2.48-4.93-6.27s1.64-6.3,4.9-6.3c3.69,0,5.3,2.35,5.3,6.14s-1.27,6.44-5.27,6.44M510.19,412.36c4.59,0,7.61-2.15,7.61-6.71v-16.4h-2.72v2.21h-.07c-1.17-1.64-2.78-2.62-5.3-2.62-4.02,0-7.41,3.15-7.41,8.55,0,5,3.09,8.59,7.58,8.59,2.48,0,3.86-1.04,5.13-2.68h.07v2.45c0,3.02-1.78,4.46-4.96,4.46-2.68,0-4.49-.74-4.76-2.65h-2.52c.3,2.98,2.85,4.8,7.34,4.8M488.29,389.25h-2.72v17.34h2.72v-10.66c0-2.85,2.01-4.8,4.76-4.8,2.45,0,3.92,1.27,3.92,3.52v11.94h2.72v-12.17c0-3.59-2.21-5.57-5.84-5.57-2.52,0-4.26,1.04-5.5,2.68h-.07v-2.28ZM481.89,406.59v-17.34h-2.72v10.66c0,2.75-1.78,4.83-4.53,4.83-2.45,0-3.89-1.31-3.89-3.55v-11.94h-2.72v12.01c0,3.59,2.28,5.73,5.84,5.73,2.52,0,3.99-1.11,5.23-2.78h.07v2.38h2.72ZM457.74,404.81c-3.69,0-5.5-2.92-5.5-6.81s1.74-6.84,5.53-6.84c3.29,0,4.86,2.95,4.86,6.84s-1.58,6.81-4.9,6.81M457.94,407.09c4.69,0,7.48-3.55,7.48-9.12s-2.98-9.12-7.38-9.12c-2.52,0-4.26,1.11-5.57,2.88h-.07v-9.12h-2.72v23.98h2.72v-2.28h.07c1.41,1.95,3.12,2.78,5.47,2.78M443.29,385.96h2.72v-3.35h-2.72v3.35ZM443.29,406.59h2.72v-17.34h-2.72v17.34ZM432.66,390.96c3.12,0,4.9,2.11,5.06,5.57h-10.43c.4-3.15,2.15-5.57,5.37-5.57M432.83,407.06c3.92,0,6.64-2.11,7.44-5.84h-2.65c-.6,2.35-2.28,3.55-4.8,3.55-3.49,0-5.4-2.68-5.6-6.2h13.41c0-5.73-2.78-9.76-7.98-9.76-4.93,0-8.22,4.09-8.22,9.12s3.09,9.12,8.38,9.12M407.07,385.23h7.28c3.52,0,4.86,1.48,4.86,4.39,0,2.72-1.68,4.39-5.03,4.39h-7.11v-8.79ZM404.05,406.59h3.02v-10.13h6.67c3.22,0,4.63,1.24,4.86,4.76.27,4.02.37,4.93.87,5.37h3.25v-.13c-.44-.3-.84-1.27-1.11-5.13-.23-3.55-1.01-5.23-3.45-6.1v-.1c2.88-.94,4.16-3.02,4.16-5.94,0-3.92-2.85-6.57-7.08-6.57h-11.2v23.98Z"/>
    </g>
    <g>
      <path class="cls-2" d="M120.06,644.1c-3.78.35-5.11,1.12-5.11,4.13v31.57c0,3.01,1.33,3.78,5.11,4.13v1.82c-6.02-.21-12.46-.21-18.48,0v-1.82c3.78-.35,5.11-1.12,5.11-4.13v-14.63h-16.66v14.63c0,3.01,1.33,3.78,5.11,4.13v1.82c-6.02-.21-12.46-.21-18.48,0v-1.82c3.78-.35,5.11-1.12,5.11-4.13v-31.57c0-3.01-1.33-3.78-5.11-4.13v-1.82c6.02.21,12.46.21,18.48,0v1.82c-3.78.35-5.11,1.12-5.11,4.13v14.77h16.66v-14.77c0-3.01-1.33-3.78-5.11-4.13v-1.82c6.02.21,12.46.21,18.48,0v1.82Z"/>
      <path class="cls-2" d="M150.86,679.11c0,2.73,1.19,4.62,3.85,4.27v1.75c-1.33.98-2.94,1.4-4.69,1.4-3.71,0-6.23-1.82-6.23-5.74v-.63h-.56c-1.05,2.24-4.83,6.37-11.34,6.37-4.62,0-9.73-2.24-9.73-8.75,0-5.88,4.41-10.08,20.72-12.67v-3.36c0-6.93-1.19-9.8-5.74-9.8-8.68,0-1.96,10.85-9.03,10.85-2.73,0-3.92-1.68-3.92-3.78,0-4.97,5.95-8.96,15.19-8.96,7.28,0,11.48,2.38,11.48,11.06v17.99ZM142.88,675.18v-8.19c-10.85,1.61-12.53,6.16-12.53,9.45,0,4.27,2.66,6.51,5.46,6.51,3.92,0,7.07-3.5,7.07-7.77Z"/>
      <path class="cls-2" d="M156.81,683.94c2.31-.28,4.27-1.12,4.27-4.27v-32.2c0-4.06-1.47-5.18-4.06-5.18v-1.82c3.92-.49,7.63-2.03,10.85-3.99.7.28,1.26.84,1.61,1.61-.42,2.38-.42,5.04-.42,9.38v32.2c0,3.15,1.89,3.99,4.27,4.27v1.82c-5.46-.28-11.06-.28-16.52,0v-1.82Z"/>
      <path class="cls-2" d="M174.73,683.94c2.31-.28,4.27-1.12,4.27-4.27v-32.2c0-4.06-1.47-5.18-4.06-5.18v-1.82c3.92-.49,7.63-2.03,10.85-3.99.7.28,1.26.84,1.61,1.61-.42,2.38-.42,5.04-.42,9.38v32.2c0,3.15,1.89,3.99,4.27,4.27v1.82c-5.46-.28-11.06-.28-16.52,0v-1.82Z"/>
      <path class="cls-2" d="M193.35,668.11c0-12.25,8.05-18.06,16.1-18.06s16.59,6.16,16.59,18.41-8.12,18.06-16.17,18.06-16.52-6.23-16.52-18.41ZM217.57,670.42c0-10.36-3.5-18.2-8.89-18.2-4.2,0-6.93,4.83-6.93,13.93,0,10.36,3.57,18.2,8.89,18.2,4.2,0,6.93-4.83,6.93-13.93Z"/>
      <path class="cls-2" d="M231.43,692.76c1.54-1.61,2.45-3.85,2.45-5.74,0-.21,0-.49-.14-.77-.35.07-.56.14-1.12.14-2.38,0-4.13-1.89-4.13-4.13,0-2.59,1.89-4.34,4.41-4.34,3.01,0,4.76,2.66,4.76,5.81,0,3.85-1.96,7.49-4.34,9.73-.49.42-.91.42-1.26.07l-.63-.77Z"/>
      <path class="cls-2" d="M254.8,683.94c2.31-.28,4.27-1.12,4.27-4.27v-18.76c0-4.06-1.47-5.18-4.06-5.18v-1.82c3.92-.49,7.63-2.03,10.85-3.99.7.28,1.26.84,1.61,1.61-.42,2.38-.42,5.04-.42,9.38v18.76c0,3.15,1.89,3.99,4.27,4.27v1.82c-5.46-.28-11.06-.28-16.52,0v-1.82ZM258.17,640.88c0-2.52,2.03-4.48,4.48-4.48s4.48,1.96,4.48,4.48-2.03,4.55-4.48,4.55-4.48-2.03-4.48-4.55Z"/>
      <path class="cls-2" d="M273.43,668.46c0-12.11,7.77-18.41,16.87-18.41,7.49,0,12.67,4.2,12.67,9.17,0,2.45-1.26,4.34-3.85,4.34-6.37,0-1.33-11.41-8.82-11.41-5.46,0-8.33,5.95-8.33,14.35,0,9.87,3.92,17.43,10.99,17.43,3.01,0,6.02-1.26,8.19-5.11h2.1c-2.17,4.97-7.14,7.7-13.02,7.7-9.24,0-16.8-6.23-16.8-18.06Z"/>
      <path class="cls-2" d="M305.7,683.94c2.38-.28,4.2-1.12,4.2-4.27v-32.2c0-4.06-1.47-5.18-4.13-5.18v-1.82c3.99-.49,7.7-2.03,10.85-3.99.77.28,1.33.84,1.61,1.61-.42,2.38-.42,5.04-.42,9.38v5.6l-1.05,5.18h.28c.91-2.52,4.27-8.33,11.76-8.33,4.83,0,10.92,2.45,10.92,12.11v17.64c0,3.15,1.89,3.99,4.27,4.27v1.82c-5.46-.21-10.92-.21-16.45,0v-1.82c2.38-.21,4.27-1.12,4.27-4.27v-17.5c0-5.04-2.66-8.12-6.65-8.12-4.62,0-6.86,4.06-7.35,8.12v17.5c0,3.15,1.89,4.06,4.27,4.27v1.82c-5.46-.21-10.92-.21-16.38,0v-1.82Z"/>
      <path class="cls-2" d="M396.14,668.46c0,12.67-7.56,18.06-14.7,18.06-5.95,0-7.91-3.85-11.41-3.85-1.96,0-3.36,1.26-3.57,3.08h-.84c-1.19,0-1.75-.7-1.75-1.82v-36.47c0-4.06-1.47-5.18-4.13-5.18v-1.82c3.99-.49,7.63-2.03,10.85-3.99.77.28,1.33.84,1.61,1.61-.42,2.38-.42,5.04-.42,9.38v6.44c1.54-1.54,4.83-3.85,9.52-3.85,7.63,0,14.84,6.16,14.84,18.41ZM387.6,670.21c0-9.94-3.29-17.71-9.1-17.71-3.22,0-5.88,2.45-6.72,5.18v18.2c0,4.41,3.85,8.26,8.19,8.26,4.83,0,7.63-4.83,7.63-13.93Z"/>
      <path class="cls-2" d="M398.23,683.94c2.31-.28,4.27-1.12,4.27-4.27v-18.76c0-4.06-1.47-5.18-4.06-5.18v-1.82c3.92-.49,7.63-2.03,10.85-3.99.7.28,1.26.84,1.61,1.61-.42,2.38-.42,5.04-.42,9.38v18.76c0,3.15,1.89,3.99,4.27,4.27v1.82c-5.46-.28-11.06-.28-16.52,0v-1.82ZM401.59,640.88c0-2.52,2.03-4.48,4.48-4.48s4.48,1.96,4.48,4.48-2.03,4.55-4.48,4.55-4.48-2.03-4.48-4.55Z"/>
      <path class="cls-2" d="M416.57,683.94c2.31-.28,4.2-1.12,4.2-4.27v-20.86c0-2.66-1.54-3.43-4.27-3.08v-1.82c4.27-.77,7.63-2.03,10.64-3.99.77.28,1.26.84,1.61,1.61l-1.26,6.72h.35c.84-2.52,3.99-8.19,11.55-8.19,4.9,0,10.85,2.31,10.85,11.97v17.64c0,3.15,1.89,3.99,4.27,4.27v1.82c-5.46-.21-10.92-.21-16.45,0v-1.82c2.38-.21,4.27-1.12,4.27-4.27v-17.5c0-5.11-2.8-7.98-6.72-7.98-4.48,0-6.93,3.64-6.93,7.98v17.5c0,3.15,1.89,4.06,4.27,4.27v1.82c-5.46-.21-10.92-.21-16.38,0v-1.82Z"/>
      <path class="cls-2" d="M495.54,642.28c5.25,0,7.98-.07,10.43-.63l-2.52,10.08h-1.82c.63-5.32-.91-7-3.71-7h-5.81v34.79c0,3.22,1.4,4.06,6.3,4.41v1.82c-7.14-.21-13.79-.21-20.93,0v-1.82c4.83-.35,6.3-1.19,6.3-4.41v-34.79h-4.62c-3.43,0-4.76,1.4-7.42,7h-1.82l2.45-10.08c2.45.56,5.25.63,10.36.63h12.81Z"/>
      <path class="cls-2" d="M533.27,679.11c0,2.73,1.19,4.62,3.85,4.27v1.75c-1.33.98-2.94,1.4-4.69,1.4-3.71,0-6.23-1.82-6.23-5.74v-.63h-.56c-1.05,2.24-4.83,6.37-11.34,6.37-4.62,0-9.73-2.24-9.73-8.75,0-5.88,4.41-10.08,20.72-12.67v-3.36c0-6.93-1.19-9.8-5.74-9.8-8.68,0-1.96,10.85-9.03,10.85-2.73,0-3.92-1.68-3.92-3.78,0-4.97,5.95-8.96,15.19-8.96,7.28,0,11.48,2.38,11.48,11.06v17.99ZM525.29,675.18v-8.19c-10.85,1.61-12.53,6.16-12.53,9.45,0,4.27,2.66,6.51,5.46,6.51,3.92,0,7.07-3.5,7.07-7.77Z"/>
      <path class="cls-2" d="M574.56,668.46c0,12.67-7.56,18.06-14.7,18.06-5.95,0-7.91-3.85-11.41-3.85-1.96,0-3.36,1.26-3.57,3.08h-.84c-1.19,0-1.75-.7-1.75-1.82v-36.47c0-4.06-1.47-5.18-4.13-5.18v-1.82c3.99-.49,7.63-2.03,10.85-3.99.77.28,1.33.84,1.61,1.61-.42,2.38-.42,5.04-.42,9.38v6.44c1.54-1.54,4.83-3.85,9.52-3.85,7.63,0,14.84,6.16,14.84,18.41ZM566.02,670.21c0-9.94-3.29-17.71-9.1-17.71-3.22,0-5.88,2.45-6.72,5.18v18.2c0,4.41,3.85,8.26,8.19,8.26,4.83,0,7.63-4.83,7.63-13.93Z"/>
      <path class="cls-2" d="M605.64,678.9h2.17c-2.1,4.97-7.42,7.63-13.16,7.63-9.1,0-16.24-6.37-16.24-18.13s6.58-18.34,15.82-18.34c7.56,0,13.72,4.41,13.72,12.39,0,3.01-.91,5.25-3.64,5.25h-17.43c.42,9.52,3.85,16.24,10.78,16.24,3.01,0,6.23-1.26,7.98-5.04ZM586.81,665.66h13.37c.63-8.05-1.75-13.58-6.65-13.58s-6.72,5.32-6.72,13.58Z"/>
      <path class="cls-2" d="M640.15,679.11c0,2.73,1.19,4.62,3.85,4.27v1.75c-1.33.98-2.94,1.4-4.69,1.4-3.71,0-6.23-1.82-6.23-5.74v-.63h-.56c-1.05,2.24-4.83,6.37-11.34,6.37-4.62,0-9.73-2.24-9.73-8.75,0-5.88,4.41-10.08,20.72-12.67v-3.36c0-6.93-1.19-9.8-5.74-9.8-8.68,0-1.96,10.85-9.03,10.85-2.73,0-3.92-1.68-3.92-3.78,0-4.97,5.95-8.96,15.19-8.96,7.28,0,11.48,2.38,11.48,11.06v17.99ZM632.17,675.18v-8.19c-10.85,1.61-12.53,6.16-12.53,9.45,0,4.27,2.66,6.51,5.46,6.51,3.92,0,7.07-3.5,7.07-7.77Z"/>
      <path class="cls-2" d="M651.84,670.56c-.21-10.71-3.64-19.88-3.64-24.08,0-3.15,1.96-5.32,4.62-5.32s4.55,2.17,4.55,5.32c0,4.2-3.43,13.37-3.64,24.08h-1.89ZM648.55,682.11c0-2.31,1.89-4.27,4.27-4.27s4.27,1.96,4.27,4.27-1.96,4.34-4.27,4.34-4.27-1.96-4.27-4.34Z"/>
      <path class="cls-2" d="M75.54,790.58h4.23l5.08,20.92c.54,2.16,1.21,5.45,1.21,5.45h.09s.77-3.42,1.35-5.54l5.8-20.83h4.36l5.62,20.83c.58,2.16,1.3,5.54,1.3,5.54h.09s.77-3.46,1.26-5.45l5.35-20.92h4.09l-8.95,32.17h-3.87l-5.89-22.68c-.5-1.89-1.17-4.91-1.17-4.91h-.09s-.67,3.01-1.21,4.91l-6.3,22.68h-4.05l-8.32-32.17Z"/>
      <path class="cls-2" d="M114.96,811.15c0-6.75,4.41-12.24,11.02-12.24,6.97,0,10.71,5.4,10.71,13.09h-18c.27,4.73,2.83,8.33,7.51,8.33,3.38,0,5.62-1.62,6.44-4.77h3.55c-1.08,4.99-4.72,7.83-9.99,7.83-7.11,0-11.25-5.49-11.25-12.24ZM118.78,809.26h14c-.22-4.63-2.61-7.47-6.79-7.47s-6.66,3.24-7.2,7.47Z"/>
      <path class="cls-2" d="M143.89,802.55h.09c1.67-2.21,4-3.6,7.38-3.6,4.86,0,7.83,2.65,7.83,7.47v16.33h-3.64v-16.02c0-3.01-1.98-4.72-5.26-4.72-3.69,0-6.39,2.61-6.39,6.43v14.31h-3.65v-23.26h3.65v3.06Z"/>
      <path class="cls-2" d="M167.65,802.55h.09c1.67-2.21,4-3.6,7.38-3.6,4.86,0,7.83,2.65,7.83,7.47v16.33h-3.64v-16.02c0-3.01-1.98-4.72-5.26-4.72-3.69,0-6.39,2.61-6.39,6.43v14.31h-3.65v-23.26h3.65v3.06Z"/>
      <path class="cls-2" d="M193.62,811.19c0-7.74,4.46-12.24,10.21-12.24,3.28,0,5.8,1.62,7.29,3.82h.09v-12.19h3.64v32.17h-3.64v-2.83h-.09c-1.75,2.25-3.91,3.51-7.2,3.51-6.34,0-10.3-4.77-10.3-12.24ZM211.44,811.24c0-5.4-2.61-9.18-7.42-9.18-4.41,0-6.66,3.96-6.66,9.18s2.25,9.13,6.7,9.13c5.17,0,7.38-3.87,7.38-9.13Z"/>
      <path class="cls-2" d="M234.61,822.76v-3.2h-.09c-1.67,2.25-3.64,3.74-7.02,3.74-4.77,0-7.83-2.88-7.83-7.69v-16.11h3.64v16.02c0,3.02,1.94,4.77,5.22,4.77,3.69,0,6.08-2.79,6.08-6.48v-14.31h3.64v23.26h-3.64Z"/>
      <path class="cls-2" d="M250.9,790.58h21.82v3.55h-17.77v10.04h14.8v3.42h-14.8v15.16h-4.05v-32.17Z"/>
      <path class="cls-2" d="M278.44,803.36h.09c1.39-2.25,3.82-4.14,6.93-4.14.67,0,1.04.09,1.48.27v3.51h-.13c-.54-.18-.9-.23-1.62-.23-3.6,0-6.75,2.7-6.75,7.07v12.91h-3.65v-23.26h3.65v3.87Z"/>
      <path class="cls-2" d="M303.59,819.52h-.04c-1.39,1.8-3.78,3.69-7.74,3.69-4.41,0-7.88-2.07-7.88-6.48,0-5.49,4.32-6.62,10.12-7.52,3.29-.49,5.58-.81,5.58-3.33s-1.89-4.09-5.22-4.09c-3.78,0-5.67,1.62-5.8,5.13h-3.51c.13-4.5,3.1-7.87,9.27-7.87,4.95,0,8.59,1.84,8.59,7.38v11.07c0,1.89.45,2.92,2.47,2.47h.13v2.66c-.45.18-1.03.36-1.98.36-2.38,0-3.64-1.08-4-3.46ZM303.68,814.16v-3.96c-1.21.77-3.33,1.35-5.31,1.71-3.64.67-6.57,1.3-6.57,4.72,0,3.11,2.43,3.78,4.81,3.78,4.86,0,7.06-3.55,7.06-6.25Z"/>
      <path class="cls-2" d="M311.7,824.06h3.38c.36,2.57,2.79,3.55,6.39,3.55,4.28,0,6.66-1.93,6.66-5.98v-3.29h-.09c-1.71,2.21-3.56,3.6-6.88,3.6-6.03,0-10.17-4.82-10.17-11.52,0-7.25,4.54-11.47,9.94-11.47,3.38,0,5.54,1.3,7.11,3.51h.09v-2.97h3.64v22c0,6.12-4.05,9-10.21,9s-9.45-2.43-9.85-6.43ZM328.39,810.25c0-5.08-2.16-8.23-7.11-8.23-4.37,0-6.57,3.42-6.57,8.46s2.29,8.41,6.61,8.41c5.35,0,7.06-3.73,7.06-8.64Z"/>
      <path class="cls-2" d="M335.41,811.15c0-6.75,4.41-12.24,11.02-12.24,6.97,0,10.71,5.4,10.71,13.09h-18c.27,4.73,2.83,8.33,7.51,8.33,3.37,0,5.62-1.62,6.43-4.77h3.55c-1.08,4.99-4.72,7.83-9.99,7.83-7.11,0-11.25-5.49-11.25-12.24ZM339.24,809.26h13.99c-.22-4.63-2.61-7.47-6.79-7.47s-6.66,3.24-7.2,7.47Z"/>
      <path class="cls-2" d="M364.34,802.55h.09c1.67-2.21,4-3.6,7.38-3.6,4.86,0,7.83,2.65,7.83,7.47v16.33h-3.64v-16.02c0-3.01-1.98-4.72-5.26-4.72-3.69,0-6.39,2.61-6.39,6.43v14.31h-3.65v-23.26h3.65v3.06Z"/>
      <path class="cls-2" d="M390.67,819.88l12.96-17.05v-.13h-12.19v-3.19h17.28v2.16l-13.36,17.64v.13h13.86v3.33h-18.54v-2.88Z"/>
      <path class="cls-2" d="M427.61,822.76v-3.2h-.09c-1.67,2.25-3.64,3.74-7.02,3.74-4.77,0-7.83-2.88-7.83-7.69v-16.11h3.64v16.02c0,3.02,1.94,4.77,5.22,4.77,3.69,0,6.08-2.79,6.08-6.48v-14.31h3.64v23.26h-3.64Z"/>
      <path class="cls-2" d="M436.21,799.49h3.65v3.33h.09c1.44-2.25,3.92-3.87,6.84-3.87s5.08,1.44,6.07,4.14h.09c1.49-2.66,4.28-4.14,7.11-4.14,4.14,0,7.06,2.65,7.06,7.47v16.33h-3.64v-16.15c0-2.88-1.94-4.59-4.28-4.59-3.01,0-5.71,2.61-5.71,6.25v14.49h-3.64v-16.15c0-2.88-1.62-4.59-4-4.59-2.83,0-5.98,2.61-5.98,6.25v14.49h-3.65v-23.26Z"/>
      <path class="cls-2" d="M479.63,790.58h13.41c3.37,0,5.98,1.12,7.65,3.11,1.35,1.57,2.16,3.69,2.16,6.12,0,5.89-3.38,9.45-10.4,9.45h-8.77v13.5h-4.05v-32.17ZM483.68,805.97h8.46c4.54,0,6.71-2.29,6.71-5.99s-2.39-5.89-6.48-5.89h-8.68v11.88Z"/>
      <path class="cls-2" d="M509.87,803.36h.09c1.39-2.25,3.82-4.14,6.93-4.14.67,0,1.04.09,1.48.27v3.51h-.13c-.54-.18-.9-.23-1.62-.23-3.6,0-6.75,2.7-6.75,7.07v12.91h-3.65v-23.26h3.65v3.87Z"/>
      <path class="cls-2" d="M519.46,811.15c0-6.75,4.32-12.24,11.25-12.24s11.2,5.49,11.2,12.24-4.23,12.24-11.2,12.24-11.25-5.49-11.25-12.24ZM538.18,811.15c0-5.13-2.52-9.22-7.47-9.22s-7.51,4.09-7.51,9.22,2.56,9.18,7.51,9.18,7.47-4.05,7.47-9.18Z"/>
      <path class="cls-2" d="M541.82,829.19v-2.97h.09c.45.09.85.13,1.26.13,1.58,0,2.38-.67,2.38-2.25v-24.61h3.65v24.79c0,4.32-2.39,5.08-5.36,5.08-.81,0-1.44-.09-2.02-.18ZM545.56,790.58h3.65v4.5h-3.65v-4.5Z"/>
      <path class="cls-2" d="M552.85,811.15c0-6.75,4.41-12.24,11.02-12.24,6.97,0,10.71,5.4,10.71,13.09h-18c.27,4.73,2.83,8.33,7.51,8.33,3.37,0,5.62-1.62,6.43-4.77h3.55c-1.08,4.99-4.72,7.83-9.99,7.83-7.11,0-11.25-5.49-11.25-12.24ZM556.67,809.26h13.99c-.22-4.63-2.61-7.47-6.79-7.47s-6.66,3.24-7.2,7.47Z"/>
      <path class="cls-2" d="M585.2,810.2l-3.42,3.24v9.31h-3.65v-32.17h3.65v18.85l10.21-9.94h4.63l-8.91,8.37,9.99,14.89h-4.27l-8.23-12.55Z"/>
      <path class="cls-2" d="M598.21,799.49h3.38v-7.33h3.64v7.33h4.5v2.97h-4.5v15.12c0,1.62.85,2.16,2.34,2.16.72,0,1.53-.18,1.93-.32h.14v3.15c-.86.18-1.85.31-2.93.31-2.97,0-5.13-1.21-5.13-4.5v-15.93h-3.38v-2.97Z"/>
      <path class="cls-2" d="M624.31,802.55h.09c1.67-2.21,4-3.6,7.38-3.6,4.86,0,7.83,2.65,7.83,7.47v16.33h-3.64v-16.02c0-3.01-1.98-4.72-5.26-4.72-3.69,0-6.39,2.61-6.39,6.43v14.31h-3.65v-32.17h3.65v11.97Z"/>
      <path class="cls-2" d="M658.69,819.52h-.04c-1.39,1.8-3.78,3.69-7.74,3.69-4.41,0-7.88-2.07-7.88-6.48,0-5.49,4.32-6.62,10.12-7.52,3.29-.49,5.58-.81,5.58-3.33s-1.89-4.09-5.22-4.09c-3.78,0-5.67,1.62-5.8,5.13h-3.51c.13-4.5,3.1-7.87,9.27-7.87,4.95,0,8.59,1.84,8.59,7.38v11.07c0,1.89.45,2.92,2.47,2.47h.13v2.66c-.45.18-1.03.36-1.98.36-2.38,0-3.64-1.08-4-3.46ZM658.78,814.16v-3.96c-1.21.77-3.33,1.35-5.31,1.71-3.64.67-6.57,1.3-6.57,4.72,0,3.11,2.43,3.78,4.81,3.78,4.86,0,7.06-3.55,7.06-6.25Z"/>
      <path class="cls-2" d="M665.89,815.2h3.73c.5,4.05,3.2,5.17,6.66,5.17,3.82,0,5.4-1.67,5.4-3.83,0-2.61-1.8-3.28-6.07-4.18-4.59-.95-8.68-1.89-8.68-6.97,0-3.87,2.97-6.39,8.37-6.39,5.76,0,8.59,2.75,9.13,7.29h-3.74c-.36-3.06-2.02-4.41-5.49-4.41s-4.68,1.48-4.68,3.33c0,2.52,2.25,3.01,6.25,3.82,4.68.95,8.59,1.98,8.59,7.33,0,4.68-3.83,7.06-9.18,7.06-6.39,0-9.95-3.01-10.3-8.23Z"/>
      <path class="cls-2" d="M686.95,799.49h3.38v-7.33h3.64v7.33h4.5v2.97h-4.5v15.12c0,1.62.85,2.16,2.34,2.16.72,0,1.53-.18,1.93-.32h.14v3.15c-.86.18-1.85.31-2.93.31-2.97,0-5.13-1.21-5.13-4.5v-15.93h-3.38v-2.97Z"/>
      <path class="cls-2" d="M708.95,826.49c.99-.36,2.02-1.21,2.02-3.73h-2.07v-4.46h4.37v4.59c0,3.29-1.75,5.13-4.32,5.62v-2.03Z"/>
      <path class="cls-2" d="M731.95,810.2l-3.42,3.24v9.31h-3.65v-32.17h3.65v18.85l10.21-9.94h4.63l-8.91,8.37,9.99,14.89h-4.27l-8.23-12.55Z"/>
      <path class="cls-2" d="M747.02,790.58h3.64v32.17h-3.64v-32.17Z"/>
      <path class="cls-2" d="M755.75,790.58h3.65v4.5h-3.65v-4.5ZM755.75,799.49h3.65v23.26h-3.65v-23.26Z"/>
      <path class="cls-2" d="M763.04,811.15c0-6.75,4.32-12.24,11.25-12.24,5.49,0,9.13,3.15,9.94,8.1h-3.69c-.54-3.15-2.74-5.08-6.25-5.08-4.95,0-7.51,4.09-7.51,9.22s2.56,9.18,7.51,9.18c3.78,0,6.03-2.16,6.34-5.76h3.6c-.5,5.58-4.14,8.82-9.94,8.82-6.93,0-11.25-5.49-11.25-12.24Z"/>
      <path class="cls-2" d="M794.77,810.2l-3.42,3.24v9.31h-3.65v-32.17h3.65v18.85l10.21-9.94h4.63l-8.91,8.37,9.99,14.89h-4.27l-8.23-12.55Z"/>
      <path class="cls-2" d="M807.05,811.15c0-6.75,4.41-12.24,11.02-12.24,6.97,0,10.71,5.4,10.71,13.09h-18c.27,4.73,2.83,8.33,7.51,8.33,3.37,0,5.62-1.62,6.43-4.77h3.55c-1.08,4.99-4.72,7.83-9.99,7.83-7.11,0-11.25-5.49-11.25-12.24ZM810.88,809.26h13.99c-.22-4.63-2.61-7.47-6.79-7.47s-6.66,3.24-7.2,7.47Z"/>
      <path class="cls-6" d="M843.14,802.55h.09c1.67-2.21,4-3.6,7.38-3.6,4.86,0,7.83,2.65,7.83,7.47v16.33h-3.64v-16.02c0-3.01-1.98-4.72-5.26-4.72-3.69,0-6.39,2.61-6.39,6.43v14.31h-3.65v-32.17h3.65v11.97Z"/>
      <path class="cls-6" d="M862.8,790.58h3.65v4.5h-3.65v-4.5ZM862.8,799.49h3.65v23.26h-3.65v-23.26Z"/>
      <path class="cls-6" d="M869.64,811.15c0-6.75,4.41-12.24,11.02-12.24,6.97,0,10.71,5.4,10.71,13.09h-18c.27,4.73,2.83,8.33,7.51,8.33,3.37,0,5.62-1.62,6.43-4.77h3.55c-1.08,4.99-4.72,7.83-9.99,7.83-7.11,0-11.25-5.49-11.25-12.24ZM873.47,809.26h13.99c-.22-4.63-2.61-7.47-6.79-7.47s-6.66,3.24-7.2,7.47Z"/>
      <path class="cls-6" d="M898.13,803.36h.09c1.39-2.25,3.82-4.14,6.93-4.14.67,0,1.04.09,1.48.27v3.51h-.13c-.54-.18-.9-.23-1.62-.23-3.6,0-6.75,2.7-6.75,7.07v12.91h-3.65v-23.26h3.65v3.87Z"/>
      <path class="cls-6" d="M910.1,818.3h4.37v4.46h-4.37v-4.46ZM910.28,800.89v-10.3h4v10.3l-.99,14.08h-2.03l-.99-14.08Z"/>
      <path class="cls-6" d="M837.02,829.19v-.9h80.55v.9h-80.55Z"/>
      <path class="cls-6" d="M164.69,2293.88l12.96-17.05v-.13h-12.19v-3.19h17.28v2.16l-13.36,17.64v.13h13.86v3.33h-18.54v-2.88Z"/>
      <path class="cls-6" d="M201.18,2296.76v-3.2h-.09c-1.67,2.25-3.64,3.74-7.02,3.74-4.77,0-7.83-2.88-7.83-7.69v-16.11h3.64v16.02c0,3.02,1.94,4.77,5.22,4.77,3.69,0,6.08-2.79,6.08-6.48v-14.31h3.64v23.26h-3.64Z"/>
      <path class="cls-6" d="M212.97,2277.36h.09c1.39-2.25,3.82-4.14,6.93-4.14.67,0,1.04.09,1.48.27v3.51h-.13c-.54-.18-.9-.23-1.62-.23-3.6,0-6.75,2.7-6.75,7.07v12.91h-3.65v-23.26h3.65v3.87Z"/>
      <path class="cls-6" d="M239.11,2296.76v-3.2h-.09c-1.67,2.25-3.64,3.74-7.02,3.74-4.77,0-7.83-2.88-7.83-7.69v-16.11h3.64v16.02c0,3.02,1.94,4.77,5.22,4.77,3.69,0,6.08-2.79,6.08-6.48v-14.31h3.64v23.26h-3.64ZM228.18,2264.81h3.51v4.27h-3.51v-4.27ZM235.56,2264.81h3.51v4.27h-3.51v-4.27Z"/>
      <path class="cls-6" d="M245.95,2285.15c0-6.75,4.32-12.24,11.25-12.24,5.49,0,9.13,3.15,9.94,8.1h-3.69c-.54-3.15-2.74-5.08-6.25-5.08-4.95,0-7.51,4.09-7.51,9.22s2.56,9.18,7.51,9.18c3.78,0,6.03-2.16,6.34-5.76h3.6c-.5,5.58-4.14,8.82-9.94,8.82-6.93,0-11.25-5.49-11.25-12.24Z"/>
      <path class="cls-6" d="M277.23,2284.2l-3.42,3.24v9.31h-3.65v-32.17h3.65v18.85l10.21-9.94h4.63l-8.91,8.37,9.99,14.89h-4.27l-8.23-12.55Z"/>
      <path class="cls-6" d="M163.16,2303.19v-.9h126.54v.9h-126.54Z"/>
    </g>
    <path class="cls-6" d="M118.5,2281.71l-20.94-18.69,3.34-4.24,27.71,25.37v.09l-27.71,25.37-3.34-4.15,20.94-18.78h-42.97v-4.96h42.97Z"/>
  </g>
</svg>