<svg xmlns="http://www.w3.org/2000/svg" viewBox="73.53 2256.78 218.2 54.83">
  <style>.cls-6{fill:red;}</style>
  <path class="cls-6" d="M164.69,2293.88l12.96-17.05v-.13h-12.19v-3.19h17.28v2.16l-13.36,17.64v.13h13.86v3.33h-18.54v-2.88Z"/>
  <path class="cls-6" d="M201.18,2296.76v-3.2h-.09c-1.67,2.25-3.64,3.74-7.02,3.74-4.77,0-7.83-2.88-7.83-7.69v-16.11h3.64v16.02c0,3.02,1.94,4.77,5.22,4.77,3.69,0,6.08-2.79,6.08-6.48v-14.31h3.64v23.26h-3.64Z"/>
  <path class="cls-6" d="M212.97,2277.36h.09c1.39-2.25,3.82-4.14,6.93-4.14.67,0,1.04.09,1.48.27v3.51h-.13c-.54-.18-.9-.23-1.62-.23-3.6,0-6.75,2.7-6.75,7.07v12.91h-3.65v-23.26h3.65v3.87Z"/>
  <path class="cls-6" d="M239.11,2296.76v-3.2h-.09c-1.67,2.25-3.64,3.74-7.02,3.74-4.77,0-7.83-2.88-7.83-7.69v-16.11h3.64v16.02c0,3.02,1.94,4.77,5.22,4.77,3.69,0,6.08-2.79,6.08-6.48v-14.31h3.64v23.26h-3.64ZM228.18,2264.81h3.51v4.27h-3.51v-4.27ZM235.56,2264.81h3.51v4.27h-3.51v-4.27Z"/>
  <path class="cls-6" d="M245.95,2285.15c0-6.75,4.32-12.24,11.25-12.24,5.49,0,9.13,3.15,9.94,8.1h-3.69c-.54-3.15-2.74-5.08-6.25-5.08-4.95,0-7.51,4.09-7.51,9.22s2.56,9.18,7.51,9.18c3.78,0,6.03-2.16,6.34-5.76h3.6c-.5,5.58-4.14,8.82-9.94,8.82-6.93,0-11.25-5.49-11.25-12.24Z"/>
  <path class="cls-6" d="M277.23,2284.2l-3.42,3.24v9.31h-3.65v-32.17h3.65v18.85l10.21-9.94h4.63l-8.91,8.37,9.99,14.89h-4.27l-8.23-12.55Z"/>
  <path class="cls-6" d="M163.16,2303.19v-.9h126.54v.9h-126.54Z"/>
  <path class="cls-6" d="M118.5,2281.71l-20.94-18.69,3.34-4.24,27.71,25.37v.09l-27.71,25.37-3.34-4.15,20.94-18.78h-42.97v-4.96h42.97Z"/>
</svg>
